<svg width="44" height="30" viewBox="0 0 44 30" fill="none" xmlns="http://www.w3.org/2000/svg">
<path d="M19.4498 19.5476C20.3878 24.7986 16.3558 29.6756 9.60381 29.6756C2.85181 29.6756 -0.805194 20.7666 0.413806 13.0756C1.54381 5.94358 9.28781 1.47558 14.8948 0.488577C15.0462 0.462109 15.2016 0.470885 15.3491 0.514223C15.4965 0.557561 15.632 0.634294 15.7449 0.738466C15.8579 0.842639 15.9454 0.971447 16.0005 1.11489C16.0556 1.25833 16.0769 1.41256 16.0628 1.56558L15.8628 3.93158C15.8482 4.14601 15.7632 4.34963 15.6211 4.51089C15.479 4.67215 15.2877 4.78206 15.0768 4.82358C9.03181 5.84858 5.43481 14.9086 9.13581 13.8236C12.9798 12.6996 18.5118 14.2996 19.4498 19.5476ZM43.6858 19.5476C42.7478 14.2966 37.2148 12.7026 33.3698 13.8276C29.6698 14.9106 33.2698 5.85058 39.3108 4.82758C39.5218 4.78621 39.7132 4.67636 39.8553 4.51507C39.9974 4.35377 40.0823 4.15007 40.0968 3.93558L40.2968 1.56958C40.3109 1.41655 40.2896 1.26234 40.2345 1.11889C40.1793 0.975449 40.0919 0.846641 39.9789 0.742468C39.866 0.638295 39.7305 0.561561 39.5831 0.518223C39.4356 0.474885 39.2802 0.466109 39.1288 0.492577C33.5228 1.47858 25.7788 5.94758 24.6478 13.0796C23.4288 20.7686 27.0858 29.6796 33.8378 29.6796C40.5898 29.6796 44.6228 24.7996 43.6858 19.5476Z" fill="#454545"/>
</svg>
