<svg width="64" height="64" viewBox="0 0 64 64" fill="none" xmlns="http://www.w3.org/2000/svg">
<path d="M23.616 41.5361C26.24 43.9681 29.44 46.4001 33.28 48.3841C33.28 48.3841 39.488 52.0321 48.384 51.6481C50.112 51.5841 51.584 50.1121 51.84 48.3841L52.8 42.1761C52.992 40.9601 52.352 39.9361 51.264 39.5521L42.944 37.5681C42.304 37.3761 41.536 37.4401 40.832 37.8241L35.84 40.7681C35.584 40.8961 35.328 40.9601 35.136 40.8321C33.024 39.9361 30.528 38.5281 28.16 36.3521C25.792 34.1761 24.192 31.8081 23.104 29.7601C22.976 29.5681 22.976 29.2481 23.104 29.0561L25.6 23.8081C25.92 23.1041 25.984 22.3361 25.728 21.6961L23.04 13.5681C22.592 12.4801 21.504 11.9681 20.288 12.2881L14.208 13.7601C12.48 14.2081 11.2 15.8721 11.264 17.6641C11.648 25.9201 15.808 32.2561 15.808 32.2561C18.112 35.8401 20.864 38.8481 23.488 41.2801" fill="#05041F"/>
</svg>
