<svg width="146" height="25" viewBox="0 0 146 25" fill="none" xmlns="http://www.w3.org/2000/svg">
<g clip-path="url(#clip0_276_8112)">
<path d="M21.2401 24.4998H14.6111C14.4567 24.4999 14.3044 24.4638 14.1664 24.3944C14.0285 24.3251 13.9087 24.2244 13.8167 24.1004C13.7247 23.9764 13.663 23.8326 13.6365 23.6805C13.6101 23.5284 13.6196 23.3722 13.6644 23.2244L14.1587 21.6067C14.2031 21.4595 14.2126 21.304 14.1864 21.1525C14.1601 21.001 14.0989 20.8578 14.0076 20.7341C13.9163 20.6104 13.7974 20.5097 13.6604 20.44C13.5234 20.3703 13.372 20.3335 13.2183 20.3325L9.95193 20.3128C9.74284 20.3114 9.53869 20.3763 9.36882 20.4982C9.19895 20.6201 9.0721 20.7927 9.0065 20.9913L8.0858 23.7805C8.0208 23.9773 7.89564 24.1486 7.72799 24.2703C7.56034 24.3921 7.35869 24.4581 7.1515 24.459L0.999472 24.4911C0.842903 24.492 0.688366 24.4557 0.548585 24.3851C0.408804 24.3146 0.287775 24.2119 0.195462 24.0854C0.103148 23.9589 0.0421895 23.8124 0.0176046 23.6577C-0.00698023 23.5031 0.00551171 23.3448 0.0540514 23.196L3.48352 12.7049C3.54729 12.5058 3.67257 12.332 3.84133 12.2086C4.01009 12.0851 4.21366 12.0183 4.42276 12.0178H24.6313C24.7871 12.0179 24.9408 12.0548 25.0797 12.1255C25.2186 12.1962 25.3388 12.2988 25.4305 12.4248C25.5222 12.5509 25.5828 12.6968 25.6073 12.8507C25.6319 13.0047 25.6197 13.1622 25.5718 13.3105L22.1806 23.8151C22.1163 24.014 21.9907 24.1874 21.8217 24.3104C21.6527 24.4334 21.4491 24.4997 21.2401 24.4998Z" fill="#FFC555"/>
<path d="M26.0625 8.8691H6.07885C5.92288 8.86925 5.76909 8.8325 5.63004 8.76185C5.49099 8.69119 5.37063 8.58864 5.27879 8.46258C5.18696 8.33651 5.12625 8.19051 5.10163 8.0365C5.07701 7.88248 5.08918 7.72483 5.13714 7.57642L5.74146 5.70536C6.23013 4.19303 7.18559 2.87451 8.47059 1.93925C9.75558 1.00398 11.304 0.500101 12.8933 0.5H28.3129C28.4711 0.499898 28.6269 0.537737 28.7674 0.610339C28.9079 0.68294 29.029 0.788189 29.1204 0.917247C29.2118 1.0463 29.2709 1.19541 29.2927 1.35204C29.3146 1.50867 29.2986 1.66826 29.246 1.81741L26.9955 8.20917C26.9274 8.40223 26.8011 8.5694 26.634 8.68761C26.4669 8.80582 26.2672 8.86924 26.0625 8.8691Z" fill="#FFC555"/>
<path fill-rule="evenodd" clip-rule="evenodd" d="M45.2262 8.90676L51.9327 8.87251C52.1403 8.87174 52.3423 8.80569 52.5102 8.68369C52.6781 8.5617 52.8034 8.38995 52.8683 8.19279L54.9754 1.79856C55.0245 1.64998 55.0376 1.49187 55.0137 1.33723C54.9898 1.18259 54.9295 1.03584 54.8378 0.909037C54.7461 0.782236 54.6256 0.679012 54.4862 0.60785C54.3469 0.536688 54.1926 0.499618 54.0361 0.499695H33.9018C33.6931 0.499934 33.4899 0.566173 33.3212 0.688929C33.1525 0.811686 33.0269 0.984666 32.9625 1.18311C32.6722 2.07469 32.5977 3.02246 32.7451 3.94846C32.8925 4.87445 33.2577 5.75222 33.8105 6.50957C34.3633 7.26691 35.0881 7.88219 35.9251 8.3048C36.5642 8.62747 37.2548 8.83078 37.963 8.90676H40.5321L36.5374 1.16828H38.472L45.1752 8.90676H45.2262ZM40.5242 12.0176L36.5374 19.7406H38.472L45.1619 12.0176H50.3101C50.4659 12.0177 50.6196 12.0546 50.7585 12.1253C50.8974 12.196 51.0176 12.2986 51.1093 12.4246C51.2009 12.5507 51.2615 12.6966 51.2861 12.8505C51.3107 13.0045 51.2985 13.162 51.2505 13.3103L49.1768 19.7367C49.1123 19.9364 48.9859 20.1103 48.8159 20.2334C48.646 20.3565 48.4412 20.4223 48.2314 20.4213L35.7605 20.3138C35.551 20.3119 35.3463 20.3765 35.1759 20.4985C35.0055 20.6204 34.8783 20.7933 34.8126 20.9923L33.8919 23.7791C33.8269 23.9756 33.702 24.1468 33.5346 24.2685C33.3672 24.3903 33.1658 24.4564 32.9588 24.4576L26.8056 24.4909C26.6489 24.4917 26.4944 24.4552 26.3547 24.3845C26.2149 24.3138 26.0939 24.2109 26.0017 24.0843C25.9095 23.9577 25.8487 23.8111 25.8243 23.6564C25.7999 23.5017 25.8126 23.3434 25.8614 23.1946L26.6029 20.9157C27.4473 18.329 29.088 16.0755 31.2903 14.4773C33.4926 12.8792 36.1438 12.0183 38.8649 12.0176H40.5242Z" fill="#FFC555"/>
</g>
<path d="M65.2348 18.5H63.2668L66.7388 7.3H69.9868L73.4588 18.5H71.4908L70.3868 15.348H66.3388L65.2348 18.5ZM68.2268 8.82L66.7068 13.796H70.0028L68.4988 8.82H68.2268ZM80.3689 10.036H82.2729V18.5H80.3689V17.316C80.0809 17.94 78.7209 18.708 77.6329 18.708C75.1849 18.708 74.4009 17.108 74.4009 15.012V10.036H76.3049V14.708C76.2889 16.228 76.9129 17.044 78.0969 17.044C79.2969 17.044 80.3689 16.212 80.3689 14.884V10.036ZM91.4053 16.276C91.4053 18.004 90.1893 18.708 88.0133 18.708C85.6133 18.708 83.9333 17.508 83.9333 15.652H85.8373C85.8373 16.708 86.7653 17.092 87.8853 17.092C88.9573 17.108 89.5653 16.82 89.5653 16.116C89.5653 15.38 88.1253 15.124 86.8133 14.788C85.3413 14.372 84.1413 13.924 84.1893 12.276C84.2213 10.708 85.6613 9.828 87.6933 9.828C89.9493 9.828 91.1973 11.172 91.1973 12.916H89.3893C89.4693 12.148 88.9093 11.492 87.7733 11.476C86.6853 11.444 86.0613 11.78 86.0613 12.42C86.0613 13.188 87.1973 13.46 88.4773 13.716C89.9333 14.02 91.4053 14.676 91.4053 16.276ZM95.1711 18.5H93.2511V7.3H100.051V8.964H95.1711V11.876H99.6831V13.524H95.1711V18.5ZM102.719 14.068V18.5H100.815V10.036H102.719V11.812H102.799C102.991 10.964 103.999 9.988 105.199 9.988C105.471 9.988 105.663 10.004 105.807 10.036V11.748C105.679 11.7 105.407 11.668 105.247 11.668C103.999 11.668 102.719 12.532 102.719 14.068ZM110.57 18.708C107.818 18.708 106.266 16.5 106.266 14.276C106.266 12.036 107.818 9.828 110.57 9.828C113.178 9.828 114.762 11.716 114.682 14.34C114.682 14.516 114.618 14.58 114.458 14.58H108.154C108.058 15.908 108.954 17.156 110.57 17.156C111.642 17.156 112.602 16.644 112.858 15.684H114.602C114.234 17.38 112.778 18.708 110.57 18.708ZM108.25 13.348H112.842C112.666 12.164 111.658 11.492 110.522 11.492C109.37 11.492 108.426 12.212 108.25 13.348ZM116.283 8.676V6.9H118.363V8.676H116.283ZM118.299 18.5H116.379V10.036H118.299V18.5ZM127.489 21.7H121.409C121.073 21.7 120.929 21.492 121.057 21.14L122.145 18.148C120.785 17.364 119.985 15.86 119.985 14.276C119.985 12.036 121.537 9.828 124.289 9.828C124.705 9.828 125.105 9.892 125.457 10.02C126.433 8.372 127.889 7.3 129.377 7.3V8.964C128.241 8.916 127.505 9.748 126.961 10.804C127.985 11.604 128.577 12.9 128.577 14.276C128.577 16.676 126.737 18.916 123.857 18.628L123.377 19.876C123.345 19.972 123.361 20.036 123.505 20.036H127.489V21.7ZM124.289 17.044C125.697 17.044 126.657 15.956 126.657 14.276C126.657 12.596 125.697 11.492 124.289 11.492C122.865 11.492 121.905 12.596 121.905 14.276C121.905 15.956 122.865 17.044 124.289 17.044ZM132.077 18.5H130.173V6.66H132.077V11.22C132.365 10.596 133.725 9.828 134.813 9.828C137.261 9.828 138.045 11.428 138.045 13.524V18.5H136.141V13.828C136.157 12.308 135.533 11.492 134.349 11.492C133.149 11.492 132.077 12.324 132.077 13.652V18.5ZM143.243 16.932H144.667V18.596H143.003C141.467 18.596 140.299 17.716 140.299 16.036V11.7H139.451V10.036H140.299V7.892H142.203V10.036H144.507V11.7H142.203V15.684C142.203 16.548 142.555 16.932 143.243 16.932Z" fill="#05041F"/>
<defs>
<clipPath id="clip0_276_8112">
<rect width="55.026" height="24" fill="white" transform="translate(0 0.5)"/>
</clipPath>
</defs>
</svg>
