<svg width="243" height="41" viewBox="0 0 243 41" fill="none" xmlns="http://www.w3.org/2000/svg">
<g clip-path="url(#clip0_1010_9601)">
<path d="M35.3991 40.4991H24.3507C24.0933 40.4992 23.8396 40.4391 23.6097 40.3235C23.3798 40.2079 23.1801 40.04 23.0268 39.8334C22.8734 39.6268 22.7705 39.3871 22.7265 39.1336C22.6824 38.88 22.6983 38.6197 22.7729 38.3735L23.5968 35.6773C23.6708 35.432 23.6866 35.1728 23.6428 34.9203C23.5991 34.6678 23.4971 34.429 23.345 34.2229C23.1928 34.0167 22.9947 33.8489 22.7663 33.7327C22.5379 33.6166 22.2856 33.5553 22.0293 33.5537L16.5855 33.5207C16.237 33.5184 15.8967 33.6266 15.6136 33.8297C15.3305 34.0329 15.1191 34.3206 15.0098 34.6515L13.4752 39.3003C13.3669 39.6282 13.1583 39.9138 12.8789 40.1167C12.5995 40.3196 12.2634 40.4296 11.9181 40.4311L1.6647 40.4847C1.40375 40.4861 1.14619 40.4256 0.91322 40.308C0.680251 40.1904 0.478537 40.0192 0.324681 39.8084C0.170825 39.5977 0.0692273 39.3534 0.0282526 39.0957C-0.0127222 38.8379 0.00809773 38.5742 0.0889972 38.3261L5.80478 20.841C5.91107 20.5091 6.11986 20.2195 6.40113 20.0137C6.6824 19.8079 7.02167 19.6966 7.37018 19.6958H41.051C41.3108 19.6959 41.5669 19.7574 41.7984 19.8753C42.0299 19.9932 42.2302 20.1641 42.383 20.3742C42.5358 20.5842 42.6368 20.8275 42.6778 21.084C42.7187 21.3405 42.6984 21.6031 42.6185 21.8503L36.9666 39.358C36.8595 39.6895 36.6501 39.9785 36.3684 40.1835C36.0868 40.3885 35.7475 40.499 35.3991 40.4991Z" fill="white"/>
<path d="M43.4363 14.4485H10.1303C9.87037 14.4488 9.61405 14.3875 9.3823 14.2697C9.15055 14.152 8.94995 13.9811 8.79689 13.771C8.64383 13.5609 8.54265 13.3175 8.50162 13.0608C8.46058 12.8041 8.48086 12.5414 8.5608 12.294L9.56801 9.1756C10.3824 6.65505 11.9749 4.45752 14.1165 2.89874C16.2582 1.33997 18.8389 0.500168 21.4877 0.5H47.1871C47.4507 0.49983 47.7105 0.562895 47.9446 0.683898C48.1788 0.804901 48.3805 0.980315 48.5329 1.19541C48.6852 1.41051 48.7837 1.65901 48.8201 1.92006C48.8566 2.18112 48.8298 2.44709 48.7422 2.69568L44.9914 13.3486C44.878 13.6704 44.6674 13.949 44.3889 14.146C44.1103 14.343 43.7775 14.4487 43.4363 14.4485Z" fill="white"/>
<path fill-rule="evenodd" clip-rule="evenodd" d="M75.4145 14.5106L86.5534 14.4537C86.8993 14.4524 87.2361 14.3423 87.5159 14.139C87.7958 13.9357 88.0045 13.6494 88.1126 13.3209L91.6245 2.6638C91.7063 2.41617 91.7282 2.15265 91.6883 1.89492C91.6485 1.63718 91.548 1.39259 91.3952 1.18126C91.2423 0.969925 91.0415 0.797886 90.8093 0.679282C90.577 0.560678 90.3199 0.498895 90.0591 0.499024H56.5018C56.1541 0.499421 55.8154 0.60982 55.5342 0.814414C55.253 1.01901 55.0438 1.30731 54.9364 1.63806C54.4525 3.12402 54.3283 4.70363 54.574 6.24696C54.8197 7.79028 55.4283 9.25323 56.3497 10.5155C57.2711 11.7777 58.479 12.8032 59.874 13.5075C60.9386 14.045 62.0889 14.3838 63.2687 14.5106H67.5523L60.8944 1.61314H64.1188L75.2908 14.5106H75.4145ZM67.5389 19.6956L60.8944 32.5671H64.1188L75.2683 19.6956H83.849C84.1087 19.6956 84.3648 19.7571 84.5963 19.875C84.8278 19.9929 85.0281 20.1639 85.1809 20.3739C85.3338 20.584 85.4348 20.8272 85.4757 21.0838C85.5166 21.3403 85.4963 21.6029 85.4164 21.85L81.9602 32.5606C81.8526 32.8935 81.642 33.1834 81.3587 33.3886C81.0755 33.5937 80.7342 33.7034 80.3845 33.7017L59.5997 33.5225C59.2505 33.5193 58.9093 33.6271 58.6254 33.8304C58.3414 34.0336 58.1294 34.3218 58.0198 34.6533L56.4853 39.298C56.3771 39.6256 56.1688 39.9109 55.8898 40.1138C55.6108 40.3166 55.2752 40.4268 54.9302 40.4288L44.6748 40.4844C44.4138 40.4857 44.1562 40.4249 43.9233 40.307C43.6904 40.1892 43.4888 40.0177 43.3351 39.8068C43.1814 39.5958 43.0801 39.3513 43.0394 39.0935C42.9987 38.8356 43.0199 38.5718 43.1011 38.3238L44.337 34.5256C45.7444 30.2145 48.4789 26.4586 52.1494 23.7951C55.8199 21.1315 60.2386 19.6967 64.7737 19.6956H67.5389Z" fill="white"/>
</g>
<path d="M108.89 29.5H105.61L111.397 10.8333H116.81L122.597 29.5H119.317L117.477 24.2467H110.73L108.89 29.5ZM113.877 13.3667L111.343 21.66H116.837L114.33 13.3667H113.877ZM134.114 15.3933H137.287V29.5H134.114V27.5267C133.634 28.5667 131.367 29.8467 129.554 29.8467C125.474 29.8467 124.167 27.18 124.167 23.6867V15.3933H127.34V23.18C127.314 25.7133 128.354 27.0733 130.327 27.0733C132.327 27.0733 134.114 25.6867 134.114 23.4733V15.3933ZM152.508 25.7933C152.508 28.6733 150.481 29.8467 146.854 29.8467C142.854 29.8467 140.054 27.8467 140.054 24.7533H143.228C143.228 26.5133 144.774 27.1533 146.641 27.1533C148.428 27.18 149.441 26.7 149.441 25.5267C149.441 24.3 147.041 23.8733 144.854 23.3133C142.401 22.62 140.401 21.8733 140.481 19.1267C140.534 16.5133 142.934 15.0467 146.321 15.0467C150.081 15.0467 152.161 17.2867 152.161 20.1933H149.148C149.281 18.9133 148.348 17.82 146.454 17.7933C144.641 17.74 143.601 18.3 143.601 19.3667C143.601 20.6467 145.494 21.1 147.628 21.5267C150.054 22.0333 152.508 23.1267 152.508 25.7933ZM158.784 29.5H155.584V10.8333H166.917V13.6067H158.784V18.46H166.304V21.2067H158.784V29.5ZM171.364 22.1133V29.5H168.191V15.3933H171.364V18.3533H171.497C171.817 16.94 173.497 15.3133 175.497 15.3133C175.951 15.3133 176.271 15.34 176.511 15.3933V18.2467C176.297 18.1667 175.844 18.1133 175.577 18.1133C173.497 18.1133 171.364 19.5533 171.364 22.1133ZM184.449 29.8467C179.863 29.8467 177.276 26.1667 177.276 22.46C177.276 18.7267 179.863 15.0467 184.449 15.0467C188.796 15.0467 191.436 18.1933 191.303 22.5667C191.303 22.86 191.196 22.9667 190.929 22.9667H180.423C180.263 25.18 181.756 27.26 184.449 27.26C186.236 27.26 187.836 26.4067 188.263 24.8067H191.169C190.556 27.6333 188.129 29.8467 184.449 29.8467ZM180.583 20.9133H188.236C187.943 18.94 186.263 17.82 184.369 17.82C182.449 17.82 180.876 19.02 180.583 20.9133ZM193.971 13.1267V10.1667H197.438V13.1267H193.971ZM197.331 29.5H194.131V15.3933H197.331V29.5ZM212.648 34.8333H202.514C201.954 34.8333 201.714 34.4867 201.928 33.9L203.741 28.9133C201.474 27.6067 200.141 25.1 200.141 22.46C200.141 18.7267 202.728 15.0467 207.314 15.0467C208.008 15.0467 208.674 15.1533 209.261 15.3667C210.888 12.62 213.314 10.8333 215.794 10.8333V13.6067C213.901 13.5267 212.674 14.9133 211.768 16.6733C213.474 18.0067 214.461 20.1667 214.461 22.46C214.461 26.46 211.394 30.1933 206.594 29.7133L205.794 31.7933C205.741 31.9533 205.768 32.06 206.008 32.06H212.648V34.8333ZM207.314 27.0733C209.661 27.0733 211.261 25.26 211.261 22.46C211.261 19.66 209.661 17.82 207.314 17.82C204.941 17.82 203.341 19.66 203.341 22.46C203.341 25.26 204.941 27.0733 207.314 27.0733ZM220.294 29.5H217.121V9.76667H220.294V17.3667C220.774 16.3267 223.041 15.0467 224.854 15.0467C228.934 15.0467 230.241 17.7133 230.241 21.2067V29.5H227.068V21.7133C227.094 19.18 226.054 17.82 224.081 17.82C222.081 17.82 220.294 19.2067 220.294 21.42V29.5ZM238.905 26.8867H241.278V29.66H238.505C235.945 29.66 233.998 28.1933 233.998 25.3933V18.1667H232.585V15.3933H233.998V11.82H237.171V15.3933H241.011V18.1667H237.171V24.8067C237.171 26.2467 237.758 26.8867 238.905 26.8867Z" fill="white"/>
<defs>
<clipPath id="clip0_1010_9601">
<rect width="91.7099" height="40" fill="white" transform="translate(-0.0012207 0.5)"/>
</clipPath>
</defs>
</svg>
