<svg width="40" height="40" viewBox="0 0 40 40" fill="none" xmlns="http://www.w3.org/2000/svg">
<circle cx="19.9988" cy="20" r="20" fill="#999999" fill-opacity="0.2"/>
<path d="M19.9998 17.9332C19.5911 17.9332 19.1915 18.0544 18.8517 18.2815C18.5118 18.5086 18.2469 18.8313 18.0905 19.209C17.9341 19.5866 17.8931 20.0021 17.9729 20.403C18.0526 20.8039 18.2495 21.1722 18.5385 21.4612C18.8275 21.7502 19.1958 21.9471 19.5967 22.0268C19.9975 22.1065 20.4131 22.0656 20.7907 21.9092C21.1684 21.7528 21.4911 21.4879 21.7182 21.148C21.9453 20.8082 22.0665 20.4086 22.0665 19.9998C22.0665 19.7284 22.013 19.4597 21.9092 19.209C21.8053 18.9582 21.6531 18.7304 21.4612 18.5385C21.2693 18.3466 21.0415 18.1943 20.7907 18.0905C20.54 17.9866 20.2712 17.9332 19.9998 17.9332ZM28.2748 15.8915C28.2705 15.248 28.152 14.6103 27.9248 14.0082C27.7576 13.5676 27.4988 13.1674 27.1655 12.8342C26.8323 12.5009 26.4321 12.2421 25.9915 12.0748C25.3894 11.8477 24.7517 11.7292 24.1082 11.7248C23.0332 11.6665 22.7165 11.6665 19.9998 11.6665C17.2832 11.6665 16.9665 11.6665 15.8915 11.7248C15.248 11.7292 14.6103 11.8477 14.0082 12.0748C13.5676 12.2421 13.1674 12.5009 12.8342 12.8342C12.5009 13.1674 12.2421 13.5676 12.0748 14.0082C11.8477 14.6103 11.7292 15.248 11.7248 15.8915C11.6665 16.9665 11.6665 17.2832 11.6665 19.9998C11.6665 22.7165 11.6665 23.0332 11.7248 24.1082C11.7338 24.754 11.8521 25.3936 12.0748 25.9998C12.2414 26.4384 12.4999 26.8363 12.8332 27.1665C13.165 27.5018 13.566 27.7606 14.0082 27.9248C14.6103 28.152 15.248 28.2705 15.8915 28.2748C16.9665 28.3332 17.2832 28.3332 19.9998 28.3332C22.7165 28.3332 23.0332 28.3332 24.1082 28.2748C24.7517 28.2705 25.3894 28.152 25.9915 27.9248C26.4337 27.7606 26.8347 27.5018 27.1665 27.1665C27.4997 26.8363 27.7583 26.4384 27.9248 25.9998C28.1517 25.3947 28.2702 24.7544 28.2748 24.1082C28.3332 23.0332 28.3332 22.7165 28.3332 19.9998C28.3332 17.2832 28.3332 16.9665 28.2748 15.8915ZM26.1582 22.5582C26.1314 23.0724 26.0217 23.579 25.8332 24.0582C25.6714 24.4579 25.4309 24.821 25.126 25.126C24.821 25.4309 24.4579 25.6714 24.0582 25.8332C23.5744 26.0112 23.0651 26.1097 22.5498 26.1248C21.8915 26.1248 21.7165 26.1248 19.9998 26.1248C18.2832 26.1248 18.1082 26.1248 17.4498 26.1248C16.9346 26.1097 16.4252 26.0112 15.9415 25.8332C15.5283 25.6796 15.1551 25.4346 14.8498 25.1165C14.5479 24.8175 14.3147 24.4564 14.1665 24.0582C13.9878 23.5749 13.892 23.065 13.8832 22.5498C13.8832 21.8915 13.8832 21.7165 13.8832 19.9998C13.8832 18.2832 13.8832 18.1082 13.8832 17.4498C13.892 16.9347 13.9878 16.4247 14.1665 15.9415C14.3201 15.5283 14.5651 15.1551 14.8832 14.8498C15.1834 14.5495 15.5442 14.3166 15.9415 14.1665C16.4252 13.9885 16.9346 13.89 17.4498 13.8748C18.1082 13.8748 18.2832 13.8748 19.9998 13.8748C21.7165 13.8748 21.8915 13.8748 22.5498 13.8748C23.0651 13.89 23.5744 13.9885 24.0582 14.1665C24.4714 14.3201 24.8446 14.5651 25.1498 14.8832C25.4518 15.1821 25.685 15.5433 25.8332 15.9415C26.0112 16.4252 26.1097 16.9346 26.1248 17.4498C26.1248 18.1082 26.1248 18.2832 26.1248 19.9998C26.1248 21.7165 26.1832 21.8915 26.1582 22.5498V22.5582ZM24.8248 16.3582C24.7256 16.089 24.5692 15.8445 24.3663 15.6417C24.1635 15.4388 23.919 15.2824 23.6498 15.1832C23.2802 15.0551 22.891 14.993 22.4998 14.9998C21.8498 14.9998 21.6665 14.9998 19.9998 14.9998C18.3332 14.9998 18.1498 14.9998 17.4998 14.9998C17.1067 15.0037 16.7174 15.077 16.3498 15.2165C16.0848 15.3112 15.8429 15.4613 15.6403 15.6567C15.4377 15.8521 15.2791 16.0884 15.1748 16.3498C15.0538 16.721 14.9947 17.1095 14.9998 17.4998C14.9998 18.1498 14.9998 18.3332 14.9998 19.9998C14.9998 21.6665 14.9998 21.8498 14.9998 22.4998C15.0081 22.8925 15.0813 23.2811 15.2165 23.6498C15.3157 23.919 15.4722 24.1635 15.675 24.3663C15.8779 24.5692 16.1223 24.7256 16.3915 24.8248C16.7471 24.9556 17.1212 25.0287 17.4998 25.0415C18.1498 25.0415 18.3332 25.0415 19.9998 25.0415C21.6665 25.0415 21.8498 25.0415 22.4998 25.0415C22.8929 25.0377 23.2823 24.9643 23.6498 24.8248C23.919 24.7256 24.1635 24.5692 24.3663 24.3663C24.5692 24.1635 24.7256 23.919 24.8248 23.6498C24.9643 23.2823 25.0377 22.8929 25.0415 22.4998C25.0415 21.8498 25.0415 21.6665 25.0415 19.9998C25.0415 18.3332 25.0415 18.1498 25.0415 17.4998C25.0417 17.1063 24.9683 16.7163 24.8248 16.3498V16.3582ZM19.9998 23.1832C19.5822 23.1832 19.1686 23.1008 18.7829 22.9407C18.3971 22.7806 18.0468 22.546 17.7518 22.2503C17.4569 21.9546 17.2232 21.6036 17.0641 21.2174C16.9051 20.8312 16.8237 20.4175 16.8248 19.9998C16.8248 19.3699 17.0118 18.7541 17.3619 18.2304C17.7121 17.7067 18.2097 17.2987 18.7919 17.058C19.3741 16.8173 20.0145 16.7548 20.6323 16.8783C21.25 17.0018 21.8172 17.3058 22.2621 17.7518C22.7069 18.1979 23.0095 18.7659 23.1314 19.3839C23.2532 20.002 23.189 20.6423 22.9468 21.2238C22.7046 21.8054 22.2953 22.302 21.7707 22.6507C21.2461 22.9995 20.6298 23.1848 19.9998 23.1832ZM23.3332 17.4415C23.149 17.422 22.9785 17.335 22.8546 17.1973C22.7307 17.0596 22.6621 16.8809 22.6621 16.6957C22.6621 16.5104 22.7307 16.3317 22.8546 16.194C22.9785 16.0563 23.149 15.9693 23.3332 15.9498C23.5174 15.9693 23.6879 16.0563 23.8118 16.194C23.9357 16.3317 24.0042 16.5104 24.0042 16.6957C24.0042 16.8809 23.9357 17.0596 23.8118 17.1973C23.6879 17.335 23.5174 17.422 23.3332 17.4415Z" fill="white"/>
</svg>
