<svg width="18" height="17" viewBox="0 0 18 17" fill="none" xmlns="http://www.w3.org/2000/svg">
<path d="M0.534412 7.946C0.600515 7.77552 0.699635 7.61976 0.82608 7.48767L7.77052 0.543226C7.90002 0.413728 8.05376 0.311005 8.22295 0.240922C8.39215 0.170838 8.5735 0.134766 8.75663 0.134766C9.1265 0.134766 9.48121 0.281693 9.74274 0.543226C9.87224 0.672724 9.97497 0.826461 10.0451 0.995658C10.1151 1.16486 10.1512 1.3462 10.1512 1.52934C10.1512 1.8992 10.0043 2.25392 9.74274 2.51545L5.15941 7.08489H15.7011C16.0694 7.08489 16.4227 7.23122 16.6832 7.49169C16.9436 7.75216 17.09 8.10543 17.09 8.47378C17.09 8.84214 16.9436 9.19541 16.6832 9.45587C16.4227 9.71634 16.0694 9.86267 15.7011 9.86267H5.15941L9.74274 14.4321C9.87292 14.5612 9.97625 14.7148 10.0468 14.8841C10.1173 15.0533 10.1536 15.2349 10.1536 15.4182C10.1536 15.6016 10.1173 15.7831 10.0468 15.9524C9.97625 16.1216 9.87292 16.2752 9.74274 16.4043C9.61363 16.5345 9.46002 16.6378 9.29077 16.7084C9.12152 16.7789 8.93998 16.8152 8.75663 16.8152C8.57328 16.8152 8.39175 16.7789 8.2225 16.7084C8.05325 16.6378 7.89964 16.5345 7.77052 16.4043L0.82608 9.45989C0.699635 9.32781 0.600515 9.17205 0.534412 9.00156C0.395498 8.66342 0.395498 8.28415 0.534412 7.946Z" fill="#999999"/>
</svg>
