<svg width="40" height="40" viewBox="0 0 40 40" fill="none" xmlns="http://www.w3.org/2000/svg">
<circle cx="19.9988" cy="20" r="20" fill="#999999" fill-opacity="0.2"/>
<g clip-path="url(#clip0_1010_9614)">
<path d="M14.2808 16.849V28.9985H10.2352V16.849H14.2808ZM14.538 13.0982C14.5387 13.1199 14.5395 13.1454 14.5395 13.1716C14.5395 13.7333 14.301 14.2387 13.9201 14.5927L13.9186 14.5934C13.5099 14.9668 12.9633 15.1955 12.3626 15.1955C12.3259 15.1955 12.2884 15.1948 12.2516 15.1933H12.2569H12.2321C12.2014 15.1948 12.1654 15.1955 12.1294 15.1955C11.5415 15.1955 11.0076 14.9661 10.6109 14.5927L10.6117 14.5934C10.2337 14.2275 9.99976 13.716 9.99976 13.1499C9.99976 13.1319 9.99976 13.1139 10.0005 13.0952V13.0982C9.99976 13.0824 9.99976 13.0644 9.99976 13.0464C9.99976 12.475 10.2427 11.9606 10.6304 11.5999L10.6319 11.5992C11.0398 11.228 11.585 11 12.1826 11C12.2171 11 12.2509 11.0007 12.2854 11.0022H12.2809C12.3131 11.0007 12.3499 11 12.3881 11C12.9768 11 13.5129 11.2272 13.9134 11.5984L13.9119 11.5969C14.298 11.9696 14.538 12.4915 14.538 13.0697V13.1011V13.0996V13.0982ZM28.8321 22.0367V28.9985H24.7993V22.5008C24.803 22.4416 24.8045 22.3726 24.8045 22.3036C24.8045 21.6317 24.6178 21.0041 24.2931 20.4687L24.3021 20.4844C23.9819 20.0375 23.4645 19.7503 22.8804 19.7503C22.8354 19.7503 22.7904 19.7518 22.7454 19.7555H22.7514C22.7311 19.7548 22.7079 19.754 22.6846 19.754C22.2197 19.754 21.7923 19.9138 21.4541 20.1815L21.4586 20.1785C21.1189 20.4537 20.8527 20.8054 20.6847 21.2095L20.6787 21.2268C20.5917 21.493 20.5422 21.7989 20.5422 22.1169C20.5422 22.1529 20.543 22.1889 20.5445 22.2249V22.2196V29H16.5117C16.5282 25.739 16.5364 23.095 16.5364 21.0678C16.5364 19.0407 16.5324 17.8311 16.5244 17.4392L16.5124 16.8505H20.5452V18.6157H20.5205C20.681 18.357 20.8467 18.1328 21.0289 17.9228L21.0229 17.9296C21.2336 17.6979 21.4601 17.4887 21.7038 17.3012L21.7158 17.2922C22.0188 17.059 22.3742 16.876 22.7596 16.7643L22.7821 16.759C23.1856 16.6383 23.6497 16.5686 24.1297 16.5686H24.1889H24.1859C24.2391 16.5663 24.3014 16.5648 24.3636 16.5648C25.6242 16.5648 26.7595 17.1002 27.5551 17.9566L27.5573 17.9596C28.4082 18.8874 28.8336 20.2462 28.8336 22.0359L28.8321 22.0367Z" fill="white"/>
</g>
<defs>
<clipPath id="clip0_1010_9614">
<rect width="20" height="20" fill="white" transform="translate(9.99976 10)"/>
</clipPath>
</defs>
</svg>
