<svg width="56" height="24" viewBox="0 0 56 24" fill="none" xmlns="http://www.w3.org/2000/svg">
<g clip-path="url(#clip0_122_66)">
<path d="M21.2401 23.9998H14.6111C14.4567 23.9999 14.3044 23.9638 14.1664 23.8944C14.0285 23.8251 13.9087 23.7244 13.8167 23.6004C13.7247 23.4764 13.663 23.3326 13.6365 23.1805C13.6101 23.0284 13.6196 22.8722 13.6644 22.7244L14.1587 21.1067C14.2031 20.9595 14.2126 20.804 14.1864 20.6525C14.1601 20.501 14.0989 20.3578 14.0076 20.2341C13.9163 20.1104 13.7974 20.0097 13.6604 19.94C13.5234 19.8703 13.372 19.8335 13.2183 19.8325L9.95193 19.8128C9.74284 19.8114 9.53869 19.8763 9.36882 19.9982C9.19895 20.1201 9.0721 20.2927 9.0065 20.4913L8.0858 23.2805C8.0208 23.4773 7.89564 23.6486 7.72799 23.7703C7.56034 23.8921 7.35869 23.9581 7.1515 23.959L0.999472 23.9911C0.842903 23.992 0.688366 23.9557 0.548585 23.8851C0.408804 23.8146 0.287775 23.7119 0.195462 23.5854C0.103148 23.4589 0.0421895 23.3124 0.0176046 23.1577C-0.00698023 23.0031 0.00551171 22.8448 0.0540514 22.696L3.48352 12.2049C3.54729 12.0058 3.67257 11.832 3.84133 11.7086C4.01009 11.5851 4.21366 11.5183 4.42276 11.5178H24.6313C24.7871 11.5179 24.9408 11.5548 25.0797 11.6255C25.2186 11.6962 25.3388 11.7988 25.4305 11.9248C25.5222 12.0509 25.5828 12.1968 25.6073 12.3507C25.6319 12.5047 25.6197 12.6622 25.5718 12.8105L22.1806 23.3151C22.1163 23.514 21.9907 23.6874 21.8217 23.8104C21.6527 23.9334 21.4491 23.9997 21.2401 23.9998Z" fill="#FFC555"/>
<path d="M26.0625 8.3691H6.07885C5.92288 8.36925 5.76909 8.3325 5.63004 8.26185C5.49099 8.19119 5.37063 8.08864 5.27879 7.96258C5.18696 7.83651 5.12625 7.69051 5.10163 7.5365C5.07701 7.38248 5.08918 7.22483 5.13714 7.07642L5.74146 5.20536C6.23013 3.69303 7.18559 2.37451 8.47059 1.43925C9.75558 0.503981 11.304 0.000100788 12.8933 2.06852e-07H28.3129C28.4711 -0.000102087 28.6269 0.0377369 28.7674 0.110339C28.9079 0.18294 29.029 0.288189 29.1204 0.417247C29.2118 0.546305 29.2709 0.695408 29.2927 0.852038C29.3146 1.00867 29.2986 1.16826 29.246 1.31741L26.9955 7.70917C26.9274 7.90223 26.8011 8.0694 26.634 8.18761C26.4669 8.30582 26.2672 8.36924 26.0625 8.3691Z" fill="#FFC555"/>
<path fill-rule="evenodd" clip-rule="evenodd" d="M45.2262 8.40676L51.9327 8.37251C52.1403 8.37174 52.3423 8.30569 52.5102 8.18369C52.6781 8.0617 52.8034 7.88995 52.8683 7.69279L54.9754 1.29856C55.0245 1.14998 55.0376 0.991873 55.0137 0.837232C54.9898 0.682591 54.9295 0.535838 54.8378 0.409037C54.7461 0.282236 54.6256 0.179012 54.4862 0.10785C54.3469 0.0366875 54.1926 -0.0003823 54.0361 -0.000305055H33.9018C33.6931 -6.63659e-05 33.4899 0.0661727 33.3212 0.188929C33.1525 0.311686 33.0269 0.484666 32.9625 0.683114C32.6722 1.57469 32.5977 2.52246 32.7451 3.44846C32.8925 4.37445 33.2577 5.25222 33.8105 6.00957C34.3633 6.76691 35.0881 7.38219 35.9251 7.8048C36.5642 8.12747 37.2548 8.33078 37.963 8.40676H40.5321L36.5374 0.668284H38.472L45.1752 8.40676H45.2262ZM40.5242 11.5176L36.5374 19.2406H38.472L45.1619 11.5176H50.3101C50.4659 11.5177 50.6196 11.5546 50.7585 11.6253C50.8974 11.696 51.0176 11.7986 51.1093 11.9246C51.2009 12.0507 51.2615 12.1966 51.2861 12.3505C51.3107 12.5045 51.2985 12.662 51.2505 12.8103L49.1768 19.2367C49.1123 19.4364 48.9859 19.6103 48.8159 19.7334C48.646 19.8565 48.4412 19.9223 48.2314 19.9213L35.7605 19.8138C35.551 19.8119 35.3463 19.8765 35.1759 19.9985C35.0055 20.1204 34.8783 20.2933 34.8126 20.4923L33.8919 23.2791C33.8269 23.4756 33.702 23.6468 33.5346 23.7685C33.3672 23.8903 33.1658 23.9564 32.9588 23.9576L26.8056 23.9909C26.6489 23.9917 26.4944 23.9552 26.3547 23.8845C26.2149 23.8138 26.0939 23.7109 26.0017 23.5843C25.9095 23.4577 25.8487 23.3111 25.8243 23.1564C25.7999 23.0017 25.8126 22.8434 25.8614 22.6946L26.6029 20.4157C27.4473 17.829 29.088 15.5755 31.2903 13.9773C33.4926 12.3792 36.1438 11.5183 38.8649 11.5176H40.5242Z" fill="#FFC555"/>
</g>
<defs>
<clipPath id="clip0_122_66">
<rect width="55.026" height="24" fill="white"/>
</clipPath>
</defs>
</svg>
