<svg width="1440" height="308" viewBox="0 0 1440 308" fill="none" xmlns="http://www.w3.org/2000/svg">
<mask id="path-1-inside-1_276_14475" fill="white">
<path d="M687 278.652L737.175 249.479V191.999L687.799 220.424C687.305 220.708 687 221.235 687 221.805V278.652Z"/>
<path d="M737.175 249.479L786.941 278.653L786.999 221.804C787 221.236 786.697 220.709 786.205 220.424L737.175 191.999V249.479Z"/>
<path d="M736.376 307.078C736.87 307.362 737.478 307.361 737.971 307.075L786.941 278.653L737.175 249.479L687 278.652L736.376 307.078Z"/>
<path d="M740 182.652L790.175 153.479V95.9993L740.799 124.424C740.305 124.708 740 125.235 740 125.805V182.652Z"/>
<path d="M790.175 153.479L839.941 182.653L839.999 125.804C840 125.236 839.697 124.709 839.205 124.424L790.175 95.9993V153.479Z"/>
<path d="M789.376 211.078C789.87 211.362 790.478 211.361 790.971 211.075L839.941 182.653L790.175 153.479L740 182.652L789.376 211.078Z"/>
<path d="M793 86.6525L843.175 57.4795V-0.000732422L793.799 28.424C793.305 28.7084 793 29.235 793 29.8051V86.6525Z"/>
<path d="M843.175 57.4795L892.941 86.6527L892.999 29.8044C893 29.2355 892.697 28.7094 892.205 28.4241L843.175 -0.000732422V57.4795Z"/>
<path d="M842.376 115.078C842.87 115.362 843.478 115.361 843.971 115.075L892.941 86.6527L843.175 57.4795L793 86.6525L842.376 115.078Z"/>
<path d="M794 278.652L844.175 249.479V191.999L794.799 220.424C794.305 220.708 794 221.235 794 221.805V278.652Z"/>
<path d="M844.175 249.479L893.941 278.653L893.999 221.804C894 221.236 893.697 220.709 893.205 220.424L844.175 191.999V249.479Z"/>
<path d="M843.376 307.078C843.87 307.362 844.478 307.361 844.971 307.075L893.941 278.653L844.175 249.479L794 278.652L843.376 307.078Z"/>
<path d="M847 182.652L897.175 153.479V95.9993L847.799 124.424C847.305 124.708 847 125.235 847 125.805V182.652Z"/>
<path d="M897.175 153.479L946.941 182.653L946.999 125.804C947 125.236 946.697 124.709 946.205 124.424L897.175 95.9993V153.479Z"/>
<path d="M896.376 211.078C896.87 211.362 897.478 211.361 897.971 211.075L946.941 182.653L897.175 153.479L847 182.652L896.376 211.078Z"/>
<path d="M900 86.6525L950.175 57.4795V-0.000732422L900.799 28.424C900.305 28.7084 900 29.235 900 29.8051V86.6525Z"/>
<path d="M950.175 57.4795L999.941 86.6527L999.999 29.8044C1000 29.2355 999.697 28.7094 999.205 28.4241L950.175 -0.000732422V57.4795Z"/>
<path d="M949.376 115.078C949.87 115.362 950.478 115.361 950.971 115.075L999.941 86.6527L950.175 57.4795L900 86.6525L949.376 115.078Z"/>
<path d="M901 278.652L951.175 249.479V191.999L901.799 220.424C901.305 220.708 901 221.235 901 221.805V278.652Z"/>
<path d="M951.175 249.479L1000.94 278.653L1001 221.804C1001 221.236 1000.7 220.709 1000.2 220.424L951.175 191.999V249.479Z"/>
<path d="M950.376 307.078C950.87 307.362 951.478 307.361 951.971 307.075L1000.94 278.653L951.175 249.479L901 278.652L950.376 307.078Z"/>
<path d="M954 182.652L1004.17 153.479V95.9993L954.799 124.424C954.305 124.708 954 125.235 954 125.805V182.652Z"/>
<path d="M1004.17 153.479L1053.94 182.653L1054 125.804C1054 125.236 1053.7 124.709 1053.2 124.424L1004.17 95.9993V153.479Z"/>
<path d="M1003.38 211.078C1003.87 211.362 1004.48 211.361 1004.97 211.075L1053.94 182.653L1004.17 153.479L954 182.652L1003.38 211.078Z"/>
<path d="M1007 86.6525L1057.17 57.4795V-0.000732422L1007.8 28.424C1007.3 28.7084 1007 29.235 1007 29.8051V86.6525Z"/>
<path d="M1057.17 57.4795L1106.94 86.6527L1107 29.8044C1107 29.2355 1106.7 28.7094 1106.2 28.4241L1057.17 -0.000732422V57.4795Z"/>
<path d="M1056.38 115.078C1056.87 115.362 1057.48 115.361 1057.97 115.075L1106.94 86.6527L1057.17 57.4795L1007 86.6525L1056.38 115.078Z"/>
<path d="M1008 278.652L1058.17 249.479V191.999L1008.8 220.424C1008.3 220.708 1008 221.235 1008 221.805V278.652Z"/>
<path d="M1058.17 249.479L1107.94 278.653L1108 221.804C1108 221.236 1107.7 220.709 1107.2 220.424L1058.17 191.999V249.479Z"/>
<path d="M1057.38 307.078C1057.87 307.362 1058.48 307.361 1058.97 307.075L1107.94 278.653L1058.17 249.479L1008 278.652L1057.38 307.078Z"/>
<path d="M1061 182.652L1111.17 153.479V95.9993L1061.8 124.424C1061.3 124.708 1061 125.235 1061 125.805V182.652Z"/>
<path d="M1111.17 153.479L1160.94 182.653L1161 125.804C1161 125.236 1160.7 124.709 1160.2 124.424L1111.17 95.9993V153.479Z"/>
<path d="M1110.38 211.078C1110.87 211.362 1111.48 211.361 1111.97 211.075L1160.94 182.653L1111.17 153.479L1061 182.652L1110.38 211.078Z"/>
<path d="M1114 86.6525L1164.17 57.4795V-0.000732422L1114.8 28.424C1114.3 28.7084 1114 29.235 1114 29.8051V86.6525Z"/>
<path d="M1164.17 57.4795L1213.94 86.6527L1214 29.8044C1214 29.2355 1213.7 28.7094 1213.2 28.4241L1164.17 -0.000732422V57.4795Z"/>
<path d="M1163.38 115.078C1163.87 115.362 1164.48 115.361 1164.97 115.075L1213.94 86.6527L1164.17 57.4795L1114 86.6525L1163.38 115.078Z"/>
<path d="M1115 278.652L1165.17 249.479V191.999L1115.8 220.424C1115.3 220.708 1115 221.235 1115 221.805V278.652Z"/>
<path d="M1165.17 249.479L1214.94 278.653L1215 221.804C1215 221.236 1214.7 220.709 1214.2 220.424L1165.17 191.999V249.479Z"/>
<path d="M1164.38 307.078C1164.87 307.362 1165.48 307.361 1165.97 307.075L1214.94 278.653L1165.17 249.479L1115 278.652L1164.38 307.078Z"/>
<path d="M1168 182.652L1218.17 153.479V95.9993L1168.8 124.424C1168.3 124.708 1168 125.235 1168 125.805V182.652Z"/>
<path d="M1218.17 153.479L1267.94 182.653L1268 125.804C1268 125.236 1267.7 124.709 1267.2 124.424L1218.17 95.9993V153.479Z"/>
<path d="M1217.38 211.078C1217.87 211.362 1218.48 211.361 1218.97 211.075L1267.94 182.653L1218.17 153.479L1168 182.652L1217.38 211.078Z"/>
<path d="M1221 86.6525L1271.17 57.4795V-0.000732422L1221.8 28.424C1221.3 28.7084 1221 29.235 1221 29.8051V86.6525Z"/>
<path d="M1271.17 57.4795L1320.94 86.6527L1321 29.8044C1321 29.2355 1320.7 28.7094 1320.2 28.4241L1271.17 -0.000732422V57.4795Z"/>
<path d="M1270.38 115.078C1270.87 115.362 1271.48 115.361 1271.97 115.075L1320.94 86.6527L1271.17 57.4795L1221 86.6525L1270.38 115.078Z"/>
<path d="M1222 278.652L1272.17 249.479V191.999L1222.8 220.424C1222.3 220.708 1222 221.235 1222 221.805V278.652Z"/>
<path d="M1272.17 249.479L1321.94 278.653L1322 221.804C1322 221.236 1321.7 220.709 1321.2 220.424L1272.17 191.999V249.479Z"/>
<path d="M1271.38 307.078C1271.87 307.362 1272.48 307.361 1272.97 307.075L1321.94 278.653L1272.17 249.479L1222 278.652L1271.38 307.078Z"/>
<path d="M1275 182.652L1325.17 153.479V95.9993L1275.8 124.424C1275.3 124.708 1275 125.235 1275 125.805V182.652Z"/>
<path d="M1325.17 153.479L1374.94 182.653L1375 125.804C1375 125.236 1374.7 124.709 1374.2 124.424L1325.17 95.9993V153.479Z"/>
<path d="M1324.38 211.078C1324.87 211.362 1325.48 211.361 1325.97 211.075L1374.94 182.653L1325.17 153.479L1275 182.652L1324.38 211.078Z"/>
<path d="M1328 86.6525L1378.17 57.4795V-0.000732422L1328.8 28.424C1328.3 28.7084 1328 29.235 1328 29.8051V86.6525Z"/>
<path d="M1378.17 57.4795L1427.94 86.6527L1428 29.8044C1428 29.2355 1427.7 28.7094 1427.2 28.4241L1378.17 -0.000732422V57.4795Z"/>
<path d="M1377.38 115.078C1377.87 115.362 1378.48 115.361 1378.97 115.075L1427.94 86.6527L1378.17 57.4795L1328 86.6525L1377.38 115.078Z"/>
<path d="M1329 278.652L1379.17 249.479V191.999L1329.8 220.424C1329.3 220.708 1329 221.235 1329 221.805V278.652Z"/>
<path d="M1379.17 249.479L1428.94 278.653L1429 221.804C1429 221.236 1428.7 220.709 1428.2 220.424L1379.17 191.999V249.479Z"/>
<path d="M1378.38 307.078C1378.87 307.362 1379.48 307.361 1379.97 307.075L1428.94 278.653L1379.17 249.479L1329 278.652L1378.38 307.078Z"/>
<path d="M1382 182.652L1432.17 153.479V95.9993L1382.8 124.424C1382.3 124.708 1382 125.235 1382 125.805V182.652Z"/>
<path d="M1432.17 153.479L1481.94 182.653L1482 125.804C1482 125.236 1481.7 124.709 1481.2 124.424L1432.17 95.9993V153.479Z"/>
<path d="M1431.38 211.078C1431.87 211.362 1432.48 211.361 1432.97 211.075L1481.94 182.653L1432.17 153.479L1382 182.652L1431.38 211.078Z"/>
<path d="M1435 86.6525L1485.17 57.4795V-0.000732422L1435.8 28.424C1435.3 28.7084 1435 29.235 1435 29.8051V86.6525Z"/>
<path d="M1485.17 57.4795L1534.94 86.6527L1535 29.8044C1535 29.2355 1534.7 28.7094 1534.2 28.4241L1485.17 -0.000732422V57.4795Z"/>
<path d="M1484.38 115.078C1484.87 115.362 1485.48 115.361 1485.97 115.075L1534.94 86.6527L1485.17 57.4795L1435 86.6525L1484.38 115.078Z"/>
<path d="M1436 278.652L1486.17 249.479V191.999L1436.8 220.424C1436.3 220.708 1436 221.235 1436 221.805V278.652Z"/>
<path d="M1486.17 249.479L1535.94 278.653L1536 221.804C1536 221.236 1535.7 220.709 1535.2 220.424L1486.17 191.999V249.479Z"/>
<path d="M1485.38 307.078C1485.87 307.362 1486.48 307.361 1486.97 307.075L1535.94 278.653L1486.17 249.479L1436 278.652L1485.38 307.078Z"/>
<path d="M1489 182.652L1539.17 153.479V95.9993L1489.8 124.424C1489.3 124.708 1489 125.235 1489 125.805V182.652Z"/>
<path d="M1539.17 153.479L1588.94 182.653L1589 125.804C1589 125.236 1588.7 124.709 1588.2 124.424L1539.17 95.9993V153.479Z"/>
<path d="M1538.38 211.078C1538.87 211.362 1539.48 211.361 1539.97 211.075L1588.94 182.653L1539.17 153.479L1489 182.652L1538.38 211.078Z"/>
<path d="M1542 86.6525L1592.17 57.4795V-0.000732422L1542.8 28.424C1542.3 28.7084 1542 29.235 1542 29.8051V86.6525Z"/>
<path d="M1592.17 57.4795L1641.94 86.6527L1642 29.8044C1642 29.2355 1641.7 28.7094 1641.2 28.4241L1592.17 -0.000732422V57.4795Z"/>
<path d="M1591.38 115.078C1591.87 115.362 1592.48 115.361 1592.97 115.075L1641.94 86.6527L1592.17 57.4795L1542 86.6525L1591.38 115.078Z"/>
<path d="M-170 278.652L-119.825 249.479V191.999L-169.201 220.424C-169.696 220.708 -170 221.235 -170 221.805L-170 278.652Z"/>
<path d="M-119.825 249.479L-70.0594 278.653L-70.0009 221.804C-70.0004 221.236 -70.3031 220.709 -70.7953 220.424L-119.825 191.999V249.479Z"/>
<path d="M-120.624 307.078C-120.13 307.362 -119.522 307.361 -119.029 307.075L-70.0594 278.653L-119.825 249.479L-170 278.652L-120.624 307.078Z"/>
<path d="M-117 182.652L-66.8255 153.479V95.9993L-116.201 124.424C-116.695 124.708 -117 125.235 -117 125.805V182.652Z"/>
<path d="M-66.8255 153.479L-17.0594 182.653L-17.0009 125.804C-17.0004 125.236 -17.3031 124.709 -17.7953 124.424L-66.8255 95.9993V153.479Z"/>
<path d="M-67.6238 211.078C-67.1299 211.362 -66.5217 211.361 -66.0287 211.075L-17.0594 182.653L-66.8255 153.479L-117 182.652L-67.6238 211.078Z"/>
<path d="M-64 86.6525L-13.8255 57.4795V-0.000732422L-63.2015 28.424C-63.6955 28.7084 -64 29.235 -64 29.8051V86.6525Z"/>
<path d="M-13.8255 57.4795L35.9406 86.6527L35.9991 29.8044C35.9996 29.2355 35.6969 28.7094 35.2047 28.4241L-13.8255 -0.000732422V57.4795Z"/>
<path d="M-14.6238 115.078C-14.1299 115.362 -13.5217 115.361 -13.0287 115.075L35.9406 86.6527L-13.8255 57.4795L-64 86.6525L-14.6238 115.078Z"/>
<path d="M-63 278.652L-12.8255 249.479V191.999L-62.2015 220.424C-62.6955 220.708 -63 221.235 -63 221.805V278.652Z"/>
<path d="M-12.8255 249.479L36.9406 278.653L36.9991 221.804C36.9996 221.236 36.6969 220.709 36.2047 220.424L-12.8255 191.999V249.479Z"/>
<path d="M-13.6238 307.078C-13.1299 307.362 -12.5217 307.361 -12.0287 307.075L36.9406 278.653L-12.8255 249.479L-63 278.652L-13.6238 307.078Z"/>
<path d="M-10 182.652L40.1745 153.479V95.9993L-9.20146 124.424C-9.69551 124.708 -10 125.235 -10 125.805V182.652Z"/>
<path d="M40.1745 153.479L89.9406 182.653L89.9991 125.804C89.9996 125.236 89.6969 124.709 89.2047 124.424L40.1745 95.9993V153.479Z"/>
<path d="M39.3762 211.078C39.8701 211.362 40.4783 211.361 40.9713 211.075L89.9406 182.653L40.1745 153.479L-10 182.652L39.3762 211.078Z"/>
<path d="M43 86.6525L93.1745 57.4795V-0.000732422L43.7985 28.424C43.3045 28.7084 43 29.235 43 29.8051V86.6525Z"/>
<path d="M93.1745 57.4795L142.941 86.6527L142.999 29.8044C143 29.2355 142.697 28.7094 142.205 28.4241L93.1745 -0.000732422V57.4795Z"/>
<path d="M92.3762 115.078C92.8701 115.362 93.4783 115.361 93.9713 115.075L142.941 86.6527L93.1745 57.4795L43 86.6525L92.3762 115.078Z"/>
<path d="M44 278.652L94.1745 249.479V191.999L44.7985 220.424C44.3045 220.708 44 221.235 44 221.805V278.652Z"/>
<path d="M94.1745 249.479L143.941 278.653L143.999 221.804C144 221.236 143.697 220.709 143.205 220.424L94.1745 191.999V249.479Z"/>
<path d="M93.3762 307.078C93.8701 307.362 94.4783 307.361 94.9713 307.075L143.941 278.653L94.1745 249.479L44 278.652L93.3762 307.078Z"/>
<path d="M97 182.652L147.175 153.479V95.9993L97.7986 124.424C97.3045 124.708 97 125.235 97 125.805V182.652Z"/>
<path d="M147.175 153.479L196.941 182.653L196.999 125.804C197 125.236 196.697 124.709 196.205 124.424L147.175 95.9993V153.479Z"/>
<path d="M146.376 211.078C146.87 211.362 147.478 211.361 147.971 211.075L196.941 182.653L147.175 153.479L97 182.652L146.376 211.078Z"/>
<path d="M150 86.6525L200.175 57.4795V-0.000732422L150.799 28.424C150.305 28.7084 150 29.235 150 29.8051V86.6525Z"/>
<path d="M200.175 57.4795L249.941 86.6527L249.999 29.8044C250 29.2355 249.697 28.7094 249.205 28.4241L200.175 -0.000732422V57.4795Z"/>
<path d="M199.376 115.078C199.87 115.362 200.478 115.361 200.971 115.075L249.941 86.6527L200.175 57.4795L150 86.6525L199.376 115.078Z"/>
<path d="M151 278.652L201.175 249.479V191.999L151.799 220.424C151.305 220.708 151 221.235 151 221.805V278.652Z"/>
<path d="M201.175 249.479L250.941 278.653L250.999 221.804C251 221.236 250.697 220.709 250.205 220.424L201.175 191.999V249.479Z"/>
<path d="M200.376 307.078C200.87 307.362 201.478 307.361 201.971 307.075L250.941 278.653L201.175 249.479L151 278.652L200.376 307.078Z"/>
<path d="M204 182.652L254.175 153.479V95.9993L204.799 124.424C204.305 124.708 204 125.235 204 125.805V182.652Z"/>
<path d="M254.175 153.479L303.941 182.653L303.999 125.804C304 125.236 303.697 124.709 303.205 124.424L254.175 95.9993V153.479Z"/>
<path d="M253.376 211.078C253.87 211.362 254.478 211.361 254.971 211.075L303.941 182.653L254.175 153.479L204 182.652L253.376 211.078Z"/>
<path d="M257 86.6525L307.175 57.4795V-0.000732422L257.799 28.424C257.305 28.7084 257 29.235 257 29.8051V86.6525Z"/>
<path d="M307.175 57.4795L356.941 86.6527L356.999 29.8044C357 29.2355 356.697 28.7094 356.205 28.4241L307.175 -0.000732422V57.4795Z"/>
<path d="M306.376 115.078C306.87 115.362 307.478 115.361 307.971 115.075L356.941 86.6527L307.175 57.4795L257 86.6525L306.376 115.078Z"/>
<path d="M258 278.652L308.175 249.479V191.999L258.799 220.424C258.305 220.708 258 221.235 258 221.805V278.652Z"/>
<path d="M308.175 249.479L357.941 278.653L357.999 221.804C358 221.236 357.697 220.709 357.205 220.424L308.175 191.999V249.479Z"/>
<path d="M307.376 307.078C307.87 307.362 308.478 307.361 308.971 307.075L357.941 278.653L308.175 249.479L258 278.652L307.376 307.078Z"/>
<path d="M311 182.652L361.175 153.479V95.9993L311.799 124.424C311.305 124.708 311 125.235 311 125.805V182.652Z"/>
<path d="M361.175 153.479L410.941 182.653L410.999 125.804C411 125.236 410.697 124.709 410.205 124.424L361.175 95.9993V153.479Z"/>
<path d="M360.376 211.078C360.87 211.362 361.478 211.361 361.971 211.075L410.941 182.653L361.175 153.479L311 182.652L360.376 211.078Z"/>
<path d="M364 86.6525L414.175 57.4795V-0.000732422L364.799 28.424C364.305 28.7084 364 29.235 364 29.8051V86.6525Z"/>
<path d="M414.175 57.4795L463.941 86.6527L463.999 29.8044C464 29.2355 463.697 28.7094 463.205 28.4241L414.175 -0.000732422V57.4795Z"/>
<path d="M413.376 115.078C413.87 115.362 414.478 115.361 414.971 115.075L463.941 86.6527L414.175 57.4795L364 86.6525L413.376 115.078Z"/>
<path d="M365 278.652L415.175 249.479V191.999L365.799 220.424C365.305 220.708 365 221.235 365 221.805V278.652Z"/>
<path d="M415.175 249.479L464.941 278.653L464.999 221.804C465 221.236 464.697 220.709 464.205 220.424L415.175 191.999V249.479Z"/>
<path d="M414.376 307.078C414.87 307.362 415.478 307.361 415.971 307.075L464.941 278.653L415.175 249.479L365 278.652L414.376 307.078Z"/>
<path d="M418 182.652L468.175 153.479V95.9993L418.799 124.424C418.305 124.708 418 125.235 418 125.805V182.652Z"/>
<path d="M468.175 153.479L517.941 182.653L517.999 125.804C518 125.236 517.697 124.709 517.205 124.424L468.175 95.9993V153.479Z"/>
<path d="M467.376 211.078C467.87 211.362 468.478 211.361 468.971 211.075L517.941 182.653L468.175 153.479L418 182.652L467.376 211.078Z"/>
<path d="M471 86.6525L521.175 57.4795V-0.000732422L471.799 28.424C471.305 28.7084 471 29.235 471 29.8051V86.6525Z"/>
<path d="M521.175 57.4795L570.941 86.6527L570.999 29.8044C571 29.2355 570.697 28.7094 570.205 28.4241L521.175 -0.000732422V57.4795Z"/>
<path d="M520.376 115.078C520.87 115.362 521.478 115.361 521.971 115.075L570.941 86.6527L521.175 57.4795L471 86.6525L520.376 115.078Z"/>
<path d="M472 278.652L522.175 249.479V191.999L472.799 220.424C472.305 220.708 472 221.235 472 221.805V278.652Z"/>
<path d="M522.175 249.479L571.941 278.653L571.999 221.804C572 221.236 571.697 220.709 571.205 220.424L522.175 191.999V249.479Z"/>
<path d="M521.376 307.078C521.87 307.362 522.478 307.361 522.971 307.075L571.941 278.653L522.175 249.479L472 278.652L521.376 307.078Z"/>
<path d="M525 182.652L575.175 153.479V95.9993L525.799 124.424C525.305 124.708 525 125.235 525 125.805V182.652Z"/>
<path d="M575.175 153.479L624.941 182.653L624.999 125.804C625 125.236 624.697 124.709 624.205 124.424L575.175 95.9993V153.479Z"/>
<path d="M574.376 211.078C574.87 211.362 575.478 211.361 575.971 211.075L624.941 182.653L575.175 153.479L525 182.652L574.376 211.078Z"/>
<path d="M578 86.6525L628.175 57.4795V-0.000732422L578.799 28.424C578.305 28.7084 578 29.235 578 29.8051V86.6525Z"/>
<path d="M628.175 57.4795L677.941 86.6527L677.999 29.8044C678 29.2355 677.697 28.7094 677.205 28.4241L628.175 -0.000732422V57.4795Z"/>
<path d="M627.376 115.078C627.87 115.362 628.478 115.361 628.971 115.075L677.941 86.6527L628.175 57.4795L578 86.6525L627.376 115.078Z"/>
<path d="M579 278.652L629.175 249.479V191.999L579.799 220.424C579.305 220.708 579 221.235 579 221.805V278.652Z"/>
<path d="M629.175 249.479L678.941 278.653L678.999 221.804C679 221.236 678.697 220.709 678.205 220.424L629.175 191.999V249.479Z"/>
<path d="M628.376 307.078C628.87 307.362 629.478 307.361 629.971 307.075L678.941 278.653L629.175 249.479L579 278.652L628.376 307.078Z"/>
<path d="M632 182.652L682.175 153.479V95.9993L632.799 124.424C632.305 124.708 632 125.235 632 125.805V182.652Z"/>
<path d="M682.175 153.479L731.941 182.653L731.999 125.804C732 125.236 731.697 124.709 731.205 124.424L682.175 95.9993V153.479Z"/>
<path d="M681.376 211.078C681.87 211.362 682.478 211.361 682.971 211.075L731.941 182.653L682.175 153.479L632 182.652L681.376 211.078Z"/>
<path d="M685 86.6525L735.175 57.4795V-0.000732422L685.799 28.424C685.305 28.7084 685 29.235 685 29.8051V86.6525Z"/>
<path d="M735.175 57.4795L784.941 86.6527L784.999 29.8044C785 29.2355 784.697 28.7094 784.205 28.4241L735.175 -0.000732422V57.4795Z"/>
<path d="M734.376 115.078C734.87 115.362 735.478 115.361 735.971 115.075L784.941 86.6527L735.175 57.4795L685 86.6525L734.376 115.078Z"/>
</mask>
<path d="M686.9 278.48L737.074 249.307L737.275 249.652L687.1 278.825L686.9 278.48ZM736.975 249.479V191.999H737.374V249.479H736.975ZM737.275 249.308L787.041 278.481L786.84 278.825L737.074 249.651L737.275 249.308ZM739.9 182.48L790.074 153.307L790.275 153.652L740.1 182.825L739.9 182.48ZM789.975 153.479V95.9993H790.374V153.479H789.975ZM790.275 153.308L840.041 182.481L839.84 182.825L790.074 153.651L790.275 153.308ZM792.9 86.4803L843.074 57.3073L843.275 57.6517L793.1 86.8247L792.9 86.4803ZM842.975 57.4795V-0.000732422H843.374V57.4795H842.975ZM843.275 57.3076L893.041 86.4809L892.84 86.8246L843.074 57.6513L843.275 57.3076ZM793.9 278.48L844.074 249.307L844.275 249.652L794.1 278.825L793.9 278.48ZM843.975 249.479V191.999H844.374V249.479H843.975ZM844.275 249.308L894.041 278.481L893.84 278.825L844.074 249.651L844.275 249.308ZM846.9 182.48L897.074 153.307L897.275 153.652L847.1 182.825L846.9 182.48ZM896.975 153.479V95.9993H897.374V153.479H896.975ZM897.275 153.308L947.041 182.481L946.84 182.825L897.074 153.651L897.275 153.308ZM899.9 86.4803L950.074 57.3073L950.275 57.6517L900.1 86.8247L899.9 86.4803ZM949.975 57.4795V-0.000732422H950.374V57.4795H949.975ZM950.275 57.3076L1000.04 86.4809L999.84 86.8246L950.074 57.6513L950.275 57.3076ZM900.9 278.48L951.074 249.307L951.275 249.652L901.1 278.825L900.9 278.48ZM950.975 249.479V191.999H951.374V249.479H950.975ZM951.275 249.308L1001.04 278.481L1000.84 278.825L951.074 249.651L951.275 249.308ZM953.9 182.48L1004.07 153.307L1004.27 153.652L954.1 182.825L953.9 182.48ZM1003.98 153.479V95.9993H1004.37V153.479H1003.98ZM1004.28 153.308L1054.04 182.481L1053.84 182.825L1004.07 153.651L1004.28 153.308ZM1006.9 86.4803L1057.07 57.3073L1057.27 57.6517L1007.1 86.8247L1006.9 86.4803ZM1056.98 57.4795V-0.000732422H1057.37V57.4795H1056.98ZM1057.28 57.3076L1107.04 86.4809L1106.84 86.8246L1057.07 57.6513L1057.28 57.3076ZM1007.9 278.48L1058.07 249.307L1058.27 249.652L1008.1 278.825L1007.9 278.48ZM1057.98 249.479V191.999H1058.37V249.479H1057.98ZM1058.28 249.308L1108.04 278.481L1107.84 278.825L1058.07 249.651L1058.28 249.308ZM1060.9 182.48L1111.07 153.307L1111.27 153.652L1061.1 182.825L1060.9 182.48ZM1110.98 153.479V95.9993H1111.37V153.479H1110.98ZM1111.28 153.308L1161.04 182.481L1160.84 182.825L1111.07 153.651L1111.28 153.308ZM1113.9 86.4803L1164.07 57.3073L1164.27 57.6517L1114.1 86.8247L1113.9 86.4803ZM1163.98 57.4795V-0.000732422H1164.37V57.4795H1163.98ZM1164.28 57.3076L1214.04 86.4809L1213.84 86.8246L1164.07 57.6513L1164.28 57.3076ZM1114.9 278.48L1165.07 249.307L1165.27 249.652L1115.1 278.825L1114.9 278.48ZM1164.98 249.479V191.999H1165.37V249.479H1164.98ZM1165.28 249.308L1215.04 278.481L1214.84 278.825L1165.07 249.651L1165.28 249.308ZM1167.9 182.48L1218.07 153.307L1218.27 153.652L1168.1 182.825L1167.9 182.48ZM1217.98 153.479V95.9993H1218.37V153.479H1217.98ZM1218.28 153.308L1268.04 182.481L1267.84 182.825L1218.07 153.651L1218.28 153.308ZM1220.9 86.4803L1271.07 57.3073L1271.27 57.6517L1221.1 86.8247L1220.9 86.4803ZM1270.98 57.4795V-0.000732422H1271.37V57.4795H1270.98ZM1271.28 57.3076L1321.04 86.4809L1320.84 86.8246L1271.07 57.6513L1271.28 57.3076ZM1221.9 278.48L1272.07 249.307L1272.27 249.652L1222.1 278.825L1221.9 278.48ZM1271.98 249.479V191.999H1272.37V249.479H1271.98ZM1272.28 249.308L1322.04 278.481L1321.84 278.825L1272.07 249.651L1272.28 249.308ZM1274.9 182.48L1325.07 153.307L1325.27 153.652L1275.1 182.825L1274.9 182.48ZM1324.98 153.479V95.9993H1325.37V153.479H1324.98ZM1325.28 153.308L1375.04 182.481L1374.84 182.825L1325.07 153.651L1325.28 153.308ZM1327.9 86.4803L1378.07 57.3073L1378.27 57.6517L1328.1 86.8247L1327.9 86.4803ZM1377.98 57.4795V-0.000732422H1378.37V57.4795H1377.98ZM1378.28 57.3076L1428.04 86.4809L1427.84 86.8246L1378.07 57.6513L1378.28 57.3076ZM1328.9 278.48L1379.07 249.307L1379.27 249.652L1329.1 278.825L1328.9 278.48ZM1378.98 249.479V191.999H1379.37V249.479H1378.98ZM1379.28 249.308L1429.04 278.481L1428.84 278.825L1379.07 249.651L1379.28 249.308ZM1381.9 182.48L1432.07 153.307L1432.27 153.652L1382.1 182.825L1381.9 182.48ZM1431.98 153.479V95.9993H1432.37V153.479H1431.98ZM1432.28 153.308L1482.04 182.481L1481.84 182.825L1432.07 153.651L1432.28 153.308ZM1434.9 86.4803L1485.07 57.3073L1485.27 57.6517L1435.1 86.8247L1434.9 86.4803ZM1484.98 57.4795V-0.000732422H1485.37V57.4795H1484.98ZM1485.28 57.3076L1535.04 86.4809L1534.84 86.8246L1485.07 57.6513L1485.28 57.3076ZM1435.9 278.48L1486.07 249.307L1486.27 249.652L1436.1 278.825L1435.9 278.48ZM1485.98 249.479V191.999H1486.37V249.479H1485.98ZM1486.28 249.308L1536.04 278.481L1535.84 278.825L1486.07 249.651L1486.28 249.308ZM1488.9 182.48L1539.07 153.307L1539.27 153.652L1489.1 182.825L1488.9 182.48ZM1538.98 153.479V95.9993H1539.37V153.479H1538.98ZM1539.28 153.308L1589.04 182.481L1588.84 182.825L1539.07 153.651L1539.28 153.308ZM1541.9 86.4803L1592.07 57.3073L1592.27 57.6517L1542.1 86.8247L1541.9 86.4803ZM1591.98 57.4795V-0.000732422H1592.37V57.4795H1591.98ZM1592.28 57.3076L1642.04 86.4809L1641.84 86.8246L1592.07 57.6513L1592.28 57.3076ZM-170.1 278.48L-119.926 249.307L-119.725 249.652L-169.9 278.825L-170.1 278.48ZM-120.025 249.479V191.999H-119.626V249.479H-120.025ZM-119.725 249.308L-69.9587 278.481L-70.1601 278.825L-119.926 249.651L-119.725 249.308ZM-117.1 182.48L-66.9256 153.307L-66.7253 153.652L-116.9 182.825L-117.1 182.48ZM-67.0247 153.479V95.9993H-66.6263V153.479H-67.0247ZM-66.7247 153.308L-16.9587 182.481L-17.1602 182.825L-66.9262 153.651L-66.7247 153.308ZM-64.1001 86.4803L-13.9256 57.3073L-13.7253 57.6517L-63.8999 86.8247L-64.1001 86.4803ZM-14.0247 57.4795V-0.000732422H-13.6263V57.4795H-14.0247ZM-13.7247 57.3076L36.0413 86.4809L35.8398 86.8246L-13.9262 57.6513L-13.7247 57.3076ZM-63.1001 278.48L-12.9256 249.307L-12.7253 249.652L-62.8999 278.825L-63.1001 278.48ZM-13.0247 249.479V191.999H-12.6263V249.479H-13.0247ZM-12.7247 249.308L37.0413 278.481L36.8398 278.825L-12.9262 249.651L-12.7247 249.308ZM-10.1001 182.48L40.0744 153.307L40.2747 153.652L-9.89987 182.825L-10.1001 182.48ZM39.9753 153.479V95.9993H40.3737V153.479H39.9753ZM40.2753 153.308L90.0413 182.481L89.8398 182.825L40.0738 153.651L40.2753 153.308ZM42.8999 86.4803L93.0744 57.3073L93.2747 57.6517L43.1001 86.8247L42.8999 86.4803ZM92.9753 57.4795V-0.000732422H93.3737V57.4795H92.9753ZM93.2753 57.3076L143.041 86.4809L142.84 86.8246L93.0738 57.6513L93.2753 57.3076ZM43.8999 278.48L94.0744 249.307L94.2747 249.652L44.1001 278.825L43.8999 278.48ZM93.9753 249.479V191.999H94.3737V249.479H93.9753ZM94.2753 249.308L144.041 278.481L143.84 278.825L94.0738 249.651L94.2753 249.308ZM96.8999 182.48L147.074 153.307L147.275 153.652L97.1001 182.825L96.8999 182.48ZM146.975 153.479V95.9993H147.374V153.479H146.975ZM147.275 153.308L197.041 182.481L196.84 182.825L147.074 153.651L147.275 153.308ZM149.9 86.4803L200.074 57.3073L200.275 57.6517L150.1 86.8247L149.9 86.4803ZM199.975 57.4795V-0.000732422H200.374V57.4795H199.975ZM200.275 57.3076L250.041 86.4809L249.84 86.8246L200.074 57.6513L200.275 57.3076ZM150.9 278.48L201.074 249.307L201.275 249.652L151.1 278.825L150.9 278.48ZM200.975 249.479V191.999H201.374V249.479H200.975ZM201.275 249.308L251.041 278.481L250.84 278.825L201.074 249.651L201.275 249.308ZM203.9 182.48L254.074 153.307L254.275 153.652L204.1 182.825L203.9 182.48ZM253.975 153.479V95.9993H254.374V153.479H253.975ZM254.275 153.308L304.041 182.481L303.84 182.825L254.074 153.651L254.275 153.308ZM256.9 86.4803L307.074 57.3073L307.275 57.6517L257.1 86.8247L256.9 86.4803ZM306.975 57.4795V-0.000732422H307.374V57.4795H306.975ZM307.275 57.3076L357.041 86.4809L356.84 86.8246L307.074 57.6513L307.275 57.3076ZM257.9 278.48L308.074 249.307L308.275 249.652L258.1 278.825L257.9 278.48ZM307.975 249.479V191.999H308.374V249.479H307.975ZM308.275 249.308L358.041 278.481L357.84 278.825L308.074 249.651L308.275 249.308ZM310.9 182.48L361.074 153.307L361.275 153.652L311.1 182.825L310.9 182.48ZM360.975 153.479V95.9993H361.374V153.479H360.975ZM361.275 153.308L411.041 182.481L410.84 182.825L361.074 153.651L361.275 153.308ZM363.9 86.4803L414.074 57.3073L414.275 57.6517L364.1 86.8247L363.9 86.4803ZM413.975 57.4795V-0.000732422H414.374V57.4795H413.975ZM414.275 57.3076L464.041 86.4809L463.84 86.8246L414.074 57.6513L414.275 57.3076ZM364.9 278.48L415.074 249.307L415.275 249.652L365.1 278.825L364.9 278.48ZM414.975 249.479V191.999H415.374V249.479H414.975ZM415.275 249.308L465.041 278.481L464.84 278.825L415.074 249.651L415.275 249.308ZM417.9 182.48L468.074 153.307L468.275 153.652L418.1 182.825L417.9 182.48ZM467.975 153.479V95.9993H468.374V153.479H467.975ZM468.275 153.308L518.041 182.481L517.84 182.825L468.074 153.651L468.275 153.308ZM470.9 86.4803L521.074 57.3073L521.275 57.6517L471.1 86.8247L470.9 86.4803ZM520.975 57.4795V-0.000732422H521.374V57.4795H520.975ZM521.275 57.3076L571.041 86.4809L570.84 86.8246L521.074 57.6513L521.275 57.3076ZM471.9 278.48L522.074 249.307L522.275 249.652L472.1 278.825L471.9 278.48ZM521.975 249.479V191.999H522.374V249.479H521.975ZM522.275 249.308L572.041 278.481L571.84 278.825L522.074 249.651L522.275 249.308ZM524.9 182.48L575.074 153.307L575.275 153.652L525.1 182.825L524.9 182.48ZM574.975 153.479V95.9993H575.374V153.479H574.975ZM575.275 153.308L625.041 182.481L624.84 182.825L575.074 153.651L575.275 153.308ZM577.9 86.4803L628.074 57.3073L628.275 57.6517L578.1 86.8247L577.9 86.4803ZM627.975 57.4795V-0.000732422H628.374V57.4795H627.975ZM628.275 57.3076L678.041 86.4809L677.84 86.8246L628.074 57.6513L628.275 57.3076ZM578.9 278.48L629.074 249.307L629.275 249.652L579.1 278.825L578.9 278.48ZM628.975 249.479V191.999H629.374V249.479H628.975ZM629.275 249.308L679.041 278.481L678.84 278.825L629.074 249.651L629.275 249.308ZM631.9 182.48L682.074 153.307L682.275 153.652L632.1 182.825L631.9 182.48ZM681.975 153.479V95.9993H682.374V153.479H681.975ZM682.275 153.308L732.041 182.481L731.84 182.825L682.074 153.651L682.275 153.308ZM684.9 86.4803L735.074 57.3073L735.275 57.6517L685.1 86.8247L684.9 86.4803ZM734.975 57.4795V-0.000732422H735.374V57.4795H734.975ZM735.275 57.3076L785.041 86.4809L784.84 86.8246L735.074 57.6513L735.275 57.3076ZM687 278.652L686.801 278.998L686.602 278.883V278.652H687ZM737.175 191.999L736.976 191.654L737.175 191.539L737.374 191.655L737.175 191.999ZM786.941 278.653L787.339 278.653L787.339 278.882L787.141 278.997L786.941 278.653ZM737.971 307.075L737.771 306.73V306.73L737.971 307.075ZM736.376 307.078L736.575 306.732V306.732L736.376 307.078ZM786.999 221.804L786.601 221.804L786.999 221.804ZM786.205 220.424L786.005 220.769L786.205 220.424ZM687.799 220.424L687.6 220.079L687.799 220.424ZM687 221.805H687.398H687ZM740 182.652L739.801 182.998L739.602 182.883V182.652H740ZM790.175 95.9993L789.976 95.654L790.175 95.5392L790.374 95.6546L790.175 95.9993ZM839.941 182.653L840.339 182.653L840.339 182.882L840.141 182.997L839.941 182.653ZM790.971 211.075L790.771 210.73L790.971 211.075ZM789.376 211.078L789.575 210.732L789.376 211.078ZM839.999 125.804L839.601 125.804L839.999 125.804ZM839.205 124.424L839.005 124.769L839.205 124.424ZM740.799 124.424L740.6 124.079L740.799 124.424ZM740 125.805H740.398H740ZM793 86.6525L792.801 86.9978L792.602 86.8828V86.6525H793ZM843.175 -0.000732422L842.976 -0.346008L843.175 -0.460846L843.374 -0.345398L843.175 -0.000732422ZM892.941 86.6527L893.339 86.6531L893.339 86.8823L893.141 86.9973L892.941 86.6527ZM843.971 115.075L844.171 115.419L843.971 115.075ZM842.376 115.078L842.575 114.732L842.376 115.078ZM892.999 29.8044L893.397 29.8048L892.999 29.8044ZM892.205 28.4241L892.005 28.7688L892.205 28.4241ZM793.799 28.424L793.6 28.0787L793.799 28.424ZM793 29.8051H793.398H793ZM794 278.652L793.801 278.998L793.602 278.883V278.652H794ZM844.175 191.999L843.976 191.654L844.175 191.539L844.374 191.655L844.175 191.999ZM893.941 278.653L894.339 278.653L894.339 278.882L894.141 278.997L893.941 278.653ZM844.971 307.075L845.171 307.419V307.419L844.971 307.075ZM843.376 307.078L843.575 306.732V306.732L843.376 307.078ZM893.999 221.804L894.397 221.805L893.999 221.804ZM893.205 220.424L893.005 220.769L893.205 220.424ZM794.799 220.424L794.6 220.079L794.799 220.424ZM794 221.805H794.398H794ZM847 182.652L846.801 182.998L846.602 182.883V182.652H847ZM897.175 95.9993L896.976 95.654L897.175 95.5392L897.374 95.6546L897.175 95.9993ZM946.941 182.653L947.339 182.653L947.339 182.882L947.141 182.997L946.941 182.653ZM897.971 211.075L898.171 211.419L897.971 211.075ZM896.376 211.078L896.575 210.732L896.376 211.078ZM946.999 125.804L947.397 125.805L946.999 125.804ZM946.205 124.424L946.005 124.769L946.205 124.424ZM847.799 124.424L847.6 124.079L847.799 124.424ZM847 125.805H847.398H847ZM900 86.6525L899.801 86.9978L899.602 86.8828V86.6525H900ZM950.175 -0.000732422L949.976 -0.346008L950.175 -0.460846L950.374 -0.345398L950.175 -0.000732422ZM999.941 86.6527L1000.34 86.6531L1000.34 86.8823L1000.14 86.9973L999.941 86.6527ZM950.971 115.075L951.171 115.419L950.971 115.075ZM949.376 115.078L949.575 114.732L949.376 115.078ZM999.999 29.8044L1000.4 29.8048L999.999 29.8044ZM999.205 28.4241L999.005 28.7688L999.205 28.4241ZM900.799 28.424L900.997 28.7693L900.799 28.424ZM900 29.8051H900.398H900ZM901 278.652L900.801 278.998L900.602 278.883V278.652H901ZM951.175 191.999L950.976 191.654L951.175 191.539L951.374 191.655L951.175 191.999ZM1000.94 278.653L1001.34 278.653L1001.34 278.882L1001.14 278.997L1000.94 278.653ZM951.971 307.075L952.171 307.419V307.419L951.971 307.075ZM950.376 307.078L950.575 306.732V306.732L950.376 307.078ZM1001 221.804L1001.4 221.805L1001 221.804ZM1000.2 220.424L1000 220.769L1000.2 220.424ZM901.799 220.424L901.997 220.769V220.769L901.799 220.424ZM901 221.805H901.398H901ZM954 182.652L953.801 182.998L953.602 182.883V182.652H954ZM1004.17 95.9993L1003.98 95.654L1004.18 95.5392L1004.37 95.6546L1004.17 95.9993ZM1053.94 182.653L1054.34 182.653L1054.34 182.882L1054.14 182.997L1053.94 182.653ZM1004.97 211.075L1005.17 211.419L1004.97 211.075ZM1003.38 211.078L1003.57 210.732L1003.38 211.078ZM1054 125.804L1054.4 125.805L1054 125.804ZM1053.2 124.424L1053 124.769L1053.2 124.424ZM954.799 124.424L954.997 124.769L954.799 124.424ZM954 125.805H954.398H954ZM1007 86.6525L1006.8 86.9978L1006.6 86.8828V86.6525H1007ZM1057.17 -0.000732422L1056.98 -0.346008L1057.18 -0.460846L1057.37 -0.345398L1057.17 -0.000732422ZM1106.94 86.6527L1107.34 86.6531L1107.34 86.8823L1107.14 86.9973L1106.94 86.6527ZM1057.97 115.075L1058.17 115.419L1057.97 115.075ZM1056.38 115.078L1056.57 114.732L1056.38 115.078ZM1107 29.8044L1107.4 29.8048L1107 29.8044ZM1106.2 28.4241L1106 28.7688L1106.2 28.4241ZM1007.8 28.424L1008 28.7693L1007.8 28.424ZM1007 29.8051H1007.4H1007ZM1008 278.652L1007.8 278.998L1007.6 278.883V278.652H1008ZM1058.17 191.999L1057.98 191.654L1058.18 191.539L1058.37 191.655L1058.17 191.999ZM1107.94 278.653L1108.34 278.653L1108.34 278.882L1108.14 278.997L1107.94 278.653ZM1058.97 307.075L1059.17 307.419V307.419L1058.97 307.075ZM1057.38 307.078L1057.57 306.732V306.732L1057.38 307.078ZM1108 221.804L1108.4 221.805L1108 221.804ZM1107.2 220.424L1107 220.769L1107.2 220.424ZM1008.8 220.424L1009 220.769V220.769L1008.8 220.424ZM1008 221.805H1008.4H1008ZM1061 182.652L1060.8 182.998L1060.6 182.883V182.652H1061ZM1111.17 95.9993L1110.98 95.654L1111.18 95.5392L1111.37 95.6546L1111.17 95.9993ZM1160.94 182.653L1161.34 182.653L1161.34 182.882L1161.14 182.997L1160.94 182.653ZM1111.97 211.075L1112.17 211.419L1111.97 211.075ZM1110.38 211.078L1110.57 210.732L1110.38 211.078ZM1161 125.804L1161.4 125.805L1161 125.804ZM1160.2 124.424L1160 124.769L1160.2 124.424ZM1061.8 124.424L1062 124.769L1061.8 124.424ZM1061 125.805H1061.4H1061ZM1114 86.6525L1113.8 86.9978L1113.6 86.8828V86.6525H1114ZM1164.17 -0.000732422L1163.98 -0.346008L1164.18 -0.460846L1164.37 -0.345398L1164.17 -0.000732422ZM1213.94 86.6527L1214.34 86.6531L1214.34 86.8823L1214.14 86.9973L1213.94 86.6527ZM1164.97 115.075L1165.17 115.419L1164.97 115.075ZM1163.38 115.078L1163.57 114.732L1163.38 115.078ZM1214 29.8044L1214.4 29.8048L1214 29.8044ZM1213.2 28.4241L1213 28.7688L1213.2 28.4241ZM1114.8 28.424L1115 28.7693L1114.8 28.424ZM1114 29.8051H1114.4H1114ZM1115 278.652L1114.8 278.998L1114.6 278.883V278.652H1115ZM1165.17 191.999L1164.98 191.654L1165.18 191.539L1165.37 191.655L1165.17 191.999ZM1214.94 278.653L1215.34 278.653L1215.34 278.882L1215.14 278.997L1214.94 278.653ZM1165.97 307.075L1166.17 307.419V307.419L1165.97 307.075ZM1164.38 307.078L1164.57 306.732V306.732L1164.38 307.078ZM1215 221.804L1215.4 221.805L1215 221.804ZM1214.2 220.424L1214 220.769L1214.2 220.424ZM1115.8 220.424L1116 220.769V220.769L1115.8 220.424ZM1115 221.805H1115.4H1115ZM1168 182.652L1167.8 182.998L1167.6 182.883V182.652H1168ZM1218.17 95.9993L1217.98 95.654L1218.18 95.5392L1218.37 95.6546L1218.17 95.9993ZM1267.94 182.653L1268.34 182.653L1268.34 182.882L1268.14 182.997L1267.94 182.653ZM1218.97 211.075L1219.17 211.419L1218.97 211.075ZM1217.38 211.078L1217.57 210.732L1217.38 211.078ZM1268 125.804L1268.4 125.805L1268 125.804ZM1267.2 124.424L1267 124.769L1267.2 124.424ZM1168.8 124.424L1169 124.769L1168.8 124.424ZM1168 125.805H1168.4H1168ZM1221 86.6525L1220.8 86.9978L1220.6 86.8828V86.6525H1221ZM1271.17 -0.000732422L1270.98 -0.346008L1271.18 -0.460846L1271.37 -0.345398L1271.17 -0.000732422ZM1320.94 86.6527L1321.34 86.6531L1321.34 86.8823L1321.14 86.9973L1320.94 86.6527ZM1271.97 115.075L1272.17 115.419L1271.97 115.075ZM1270.38 115.078L1270.57 114.732L1270.38 115.078ZM1321 29.8044L1321.4 29.8048L1321 29.8044ZM1320.2 28.4241L1320 28.7688L1320.2 28.4241ZM1221.8 28.424L1222 28.7693L1221.8 28.424ZM1221 29.8051H1221.4H1221ZM1222 278.652L1221.8 278.998L1221.6 278.883V278.652H1222ZM1272.17 191.999L1271.98 191.654L1272.18 191.539L1272.37 191.655L1272.17 191.999ZM1321.94 278.653L1322.34 278.653L1322.34 278.882L1322.14 278.997L1321.94 278.653ZM1272.97 307.075L1273.17 307.419V307.419L1272.97 307.075ZM1271.38 307.078L1271.57 306.732V306.732L1271.38 307.078ZM1322 221.804L1322.4 221.805L1322 221.804ZM1321.2 220.424L1321 220.769L1321.2 220.424ZM1222.8 220.424L1223 220.769V220.769L1222.8 220.424ZM1222 221.805H1222.4H1222ZM1275 182.652L1274.8 182.998L1274.6 182.883V182.652H1275ZM1325.17 95.9993L1324.98 95.654L1325.18 95.5392L1325.37 95.6546L1325.17 95.9993ZM1374.94 182.653L1375.34 182.653L1375.34 182.882L1375.14 182.997L1374.94 182.653ZM1325.97 211.075L1326.17 211.419L1325.97 211.075ZM1324.38 211.078L1324.57 210.732L1324.38 211.078ZM1375 125.804L1375.4 125.805L1375 125.804ZM1374.2 124.424L1374 124.769L1374.2 124.424ZM1275.8 124.424L1276 124.769L1275.8 124.424ZM1275 125.805H1275.4H1275ZM1328 86.6525L1327.8 86.9978L1327.6 86.8828V86.6525H1328ZM1378.17 -0.000732422L1377.98 -0.346008L1378.18 -0.460846L1378.37 -0.345398L1378.17 -0.000732422ZM1427.94 86.6527L1428.34 86.6531L1428.34 86.8823L1428.14 86.9973L1427.94 86.6527ZM1378.97 115.075L1379.17 115.419L1378.97 115.075ZM1377.38 115.078L1377.57 114.732L1377.38 115.078ZM1428 29.8044L1428.4 29.8048L1428 29.8044ZM1427.2 28.4241L1427 28.7688L1427.2 28.4241ZM1328.8 28.424L1329 28.7693L1328.8 28.424ZM1328 29.8051H1328.4H1328ZM1329 278.652L1328.8 278.998L1328.6 278.883V278.652H1329ZM1379.17 191.999L1378.98 191.654L1379.18 191.539L1379.37 191.655L1379.17 191.999ZM1428.94 278.653L1429.34 278.653L1429.34 278.882L1429.14 278.997L1428.94 278.653ZM1379.97 307.075L1380.17 307.419V307.419L1379.97 307.075ZM1378.38 307.078L1378.57 306.732V306.732L1378.38 307.078ZM1429 221.804L1429.4 221.805L1429 221.804ZM1428.2 220.424L1428 220.769L1428.2 220.424ZM1329.8 220.424L1330 220.769V220.769L1329.8 220.424ZM1329 221.805H1329.4H1329ZM1382 182.652L1381.8 182.998L1381.6 182.883V182.652H1382ZM1432.17 95.9993L1431.98 95.654L1432.18 95.5392L1432.37 95.6546L1432.17 95.9993ZM1481.94 182.653L1482.34 182.653L1482.34 182.882L1482.14 182.997L1481.94 182.653ZM1432.97 211.075L1433.17 211.419L1432.97 211.075ZM1431.38 211.078L1431.57 210.732L1431.38 211.078ZM1482 125.804L1482.4 125.805L1482 125.804ZM1481.2 124.424L1481 124.769L1481.2 124.424ZM1382.8 124.424L1383 124.769L1382.8 124.424ZM1382 125.805H1382.4H1382ZM1435 86.6525L1434.8 86.9978L1434.6 86.8828V86.6525H1435ZM1485.17 -0.000732422L1484.98 -0.346008L1485.18 -0.460846L1485.37 -0.345398L1485.17 -0.000732422ZM1534.94 86.6527L1535.34 86.6531L1535.34 86.8823L1535.14 86.9973L1534.94 86.6527ZM1485.97 115.075L1486.17 115.419L1485.97 115.075ZM1484.38 115.078L1484.57 114.732L1484.38 115.078ZM1535 29.8044L1535.4 29.8048L1535 29.8044ZM1534.2 28.4241L1534 28.7688L1534.2 28.4241ZM1435.8 28.424L1436 28.7693L1435.8 28.424ZM1435 29.8051H1435.4H1435ZM1436 278.652L1435.8 278.998L1435.6 278.883V278.652H1436ZM1486.17 191.999L1485.98 191.654L1486.18 191.539L1486.37 191.655L1486.17 191.999ZM1535.94 278.653L1536.34 278.653L1536.34 278.882L1536.14 278.997L1535.94 278.653ZM1486.97 307.075L1487.17 307.419V307.419L1486.97 307.075ZM1485.38 307.078L1485.57 306.732V306.732L1485.38 307.078ZM1536 221.804L1536.4 221.805L1536 221.804ZM1535.2 220.424L1535 220.769L1535.2 220.424ZM1436.8 220.424L1437 220.769V220.769L1436.8 220.424ZM1436 221.805H1436.4H1436ZM1489 182.652L1488.8 182.998L1488.6 182.883V182.652H1489ZM1539.17 95.9993L1538.98 95.654L1539.18 95.5392L1539.37 95.6546L1539.17 95.9993ZM1588.94 182.653L1589.34 182.653L1589.34 182.882L1589.14 182.997L1588.94 182.653ZM1539.97 211.075L1540.17 211.419L1539.97 211.075ZM1538.38 211.078L1538.57 210.732L1538.38 211.078ZM1589 125.804L1589.4 125.805L1589 125.804ZM1588.2 124.424L1588 124.769L1588.2 124.424ZM1489.8 124.424L1490 124.769L1489.8 124.424ZM1489 125.805H1489.4H1489ZM1542 86.6525L1541.8 86.9978L1541.6 86.8828V86.6525H1542ZM1592.17 -0.000732422L1591.98 -0.346008L1592.18 -0.460846L1592.37 -0.345398L1592.17 -0.000732422ZM1641.94 86.6527L1642.34 86.6531L1642.34 86.8823L1642.14 86.9973L1641.94 86.6527ZM1592.97 115.075L1593.17 115.419L1592.97 115.075ZM1591.38 115.078L1591.57 114.732L1591.38 115.078ZM1642 29.8044L1642.4 29.8048L1642 29.8044ZM1641.2 28.4241L1641 28.7688L1641.2 28.4241ZM1542.8 28.424L1543 28.7693L1542.8 28.424ZM1542 29.8051H1542.4H1542ZM-170 278.652L-170.199 278.998L-170.398 278.883V278.652H-170ZM-119.825 191.999L-120.024 191.654L-119.825 191.539L-119.626 191.655L-119.825 191.999ZM-70.0594 278.653L-69.661 278.653L-69.6612 278.882L-69.8594 278.997L-70.0594 278.653ZM-119.029 307.075L-119.229 306.73L-119.029 307.075ZM-120.624 307.078L-120.425 306.732L-120.624 307.078ZM-70.0009 221.804L-69.6025 221.805L-70.0009 221.804ZM-70.7953 220.424L-70.5955 220.079L-70.7953 220.424ZM-169.201 220.424L-169.003 220.769L-169.201 220.424ZM-117 182.652L-117.199 182.998L-117.398 182.883V182.652H-117ZM-66.8255 95.9993L-67.0242 95.654L-66.8248 95.5392L-66.6256 95.6546L-66.8255 95.9993ZM-17.0594 182.653L-16.661 182.653L-16.6612 182.882L-16.8594 182.997L-17.0594 182.653ZM-66.0287 211.075L-65.8288 211.419L-66.0287 211.075ZM-67.6238 211.078L-67.425 210.732L-67.6238 211.078ZM-17.0009 125.804L-16.6025 125.805L-17.0009 125.804ZM-17.7953 124.424L-17.9951 124.769L-17.7953 124.424ZM-116.201 124.424L-116.4 124.079L-116.201 124.424ZM-117 125.805H-116.602H-117ZM-64 86.6525L-64.1988 86.9978L-64.3984 86.8828V86.6525H-64ZM-13.8255 -0.000732422L-14.0242 -0.346008L-13.8248 -0.460846L-13.6256 -0.345398L-13.8255 -0.000732422ZM35.9406 86.6527L36.339 86.6531L36.3388 86.8823L36.1406 86.9973L35.9406 86.6527ZM-13.0287 115.075L-12.8288 115.419L-13.0287 115.075ZM-14.6238 115.078L-14.425 114.732L-14.6238 115.078ZM35.9991 29.8044L36.3975 29.8048L35.9991 29.8044ZM35.2047 28.4241L35.0049 28.7688L35.2047 28.4241ZM-63.2015 28.424L-63.0027 28.7693L-63.2015 28.424ZM-64 29.8051H-63.6016H-64ZM-63 278.652L-63.1988 278.998L-63.3984 278.883V278.652H-63ZM-12.8255 191.999L-13.0242 191.654L-12.8248 191.539L-12.6256 191.655L-12.8255 191.999ZM36.9406 278.653L37.339 278.653L37.3388 278.882L37.1406 278.997L36.9406 278.653ZM-12.0287 307.075L-11.8288 307.419L-12.0287 307.075ZM-13.6238 307.078L-13.425 306.732L-13.6238 307.078ZM36.9991 221.804L37.3975 221.805L36.9991 221.804ZM36.2047 220.424L36.4045 220.079L36.2047 220.424ZM-62.2015 220.424L-62.4002 220.079L-62.2015 220.424ZM-63 221.805H-62.6016H-63ZM-10 182.652L-10.1988 182.998L-10.3984 182.883V182.652H-10ZM40.1745 95.9993L39.9758 95.654L40.1752 95.5392L40.3744 95.6546L40.1745 95.9993ZM89.9406 182.653L90.339 182.653L90.3387 182.882L90.1406 182.997L89.9406 182.653ZM40.9713 211.075L41.1712 211.419L40.9713 211.075ZM39.3762 211.078L39.575 210.732L39.3762 211.078ZM89.9991 125.804L90.3975 125.805L89.9991 125.804ZM89.2047 124.424L89.0049 124.769L89.2047 124.424ZM-9.20146 124.424L-9.40024 124.079L-9.20146 124.424ZM-10 125.805H-9.60159H-10ZM43 86.6525L42.8012 86.9978L42.6016 86.8828V86.6525H43ZM93.1745 -0.000732422L92.9758 -0.346008L93.1752 -0.460846L93.3744 -0.345398L93.1745 -0.000732422ZM142.941 86.6527L143.339 86.6531L143.339 86.8823L143.141 86.9973L142.941 86.6527ZM93.9713 115.075L94.1712 115.419L93.9713 115.075ZM92.3762 115.078L92.1774 115.423L92.3762 115.078ZM142.999 29.8044L143.397 29.8048L142.999 29.8044ZM142.205 28.4241L142.405 28.0794L142.205 28.4241ZM43.7985 28.424L43.9973 28.7693L43.7985 28.424ZM43 29.8051H43.3984H43ZM44 278.652L43.8012 278.998L43.6016 278.883V278.652H44ZM94.1745 191.999L93.9758 191.654L94.1752 191.539L94.3744 191.655L94.1745 191.999ZM143.941 278.653L144.339 278.653L144.339 278.882L144.141 278.997L143.941 278.653ZM94.9713 307.075L95.1712 307.419L94.9713 307.075ZM93.3762 307.078L93.1774 307.423V307.423L93.3762 307.078ZM143.999 221.804L144.397 221.805L143.999 221.804ZM143.205 220.424L143.405 220.079L143.205 220.424ZM44.7985 220.424L44.9973 220.769L44.7985 220.424ZM44 221.805H44.3984H44ZM97 182.652L96.8012 182.998L96.6016 182.883V182.652H97ZM147.175 95.9993L146.976 95.654L147.175 95.5392L147.374 95.6546L147.175 95.9993ZM196.941 182.653L197.339 182.653L197.339 182.882L197.141 182.997L196.941 182.653ZM147.971 211.075L148.171 211.419L147.971 211.075ZM146.376 211.078L146.177 211.423L146.376 211.078ZM196.999 125.804L197.397 125.805L196.999 125.804ZM196.205 124.424L196.405 124.079L196.205 124.424ZM97.7986 124.424L97.9973 124.769L97.7986 124.424ZM97 125.805H97.3984H97ZM150 86.6525L149.801 86.9978L149.602 86.8828V86.6525H150ZM200.175 -0.000732422L199.976 -0.346008L200.175 -0.460846L200.374 -0.345398L200.175 -0.000732422ZM249.941 86.6527L250.339 86.6531L250.339 86.8823L250.141 86.9973L249.941 86.6527ZM200.971 115.075L201.171 115.419L200.971 115.075ZM199.376 115.078L199.177 115.423L199.376 115.078ZM249.999 29.8044L250.397 29.8048L249.999 29.8044ZM249.205 28.4241L249.405 28.0794L249.205 28.4241ZM150.799 28.424L150.997 28.7693L150.799 28.424ZM150 29.8051H150.398H150ZM151 278.652L150.801 278.998L150.602 278.883V278.652H151ZM201.175 191.999L200.976 191.654L201.175 191.539L201.374 191.655L201.175 191.999ZM250.941 278.653L251.339 278.653L251.339 278.882L251.141 278.997L250.941 278.653ZM201.971 307.075L202.171 307.419L201.971 307.075ZM200.376 307.078L200.177 307.423V307.423L200.376 307.078ZM250.999 221.804L251.397 221.805L250.999 221.804ZM250.205 220.424L250.405 220.079L250.205 220.424ZM151.799 220.424L151.997 220.769V220.769L151.799 220.424ZM151 221.805H151.398H151ZM204 182.652L203.801 182.998L203.602 182.883V182.652H204ZM254.175 95.9993L253.976 95.654L254.175 95.5392L254.374 95.6546L254.175 95.9993ZM303.941 182.653L304.339 182.653L304.339 182.882L304.141 182.997L303.941 182.653ZM254.971 211.075L255.171 211.419L254.971 211.075ZM253.376 211.078L253.177 211.423L253.376 211.078ZM303.999 125.804L304.397 125.805L303.999 125.804ZM303.205 124.424L303.405 124.079L303.205 124.424ZM204.799 124.424L204.997 124.769L204.799 124.424ZM204 125.805H204.398H204ZM257 86.6525L256.801 86.9978L256.602 86.8828V86.6525H257ZM307.175 -0.000732422L306.976 -0.346008L307.175 -0.460846L307.374 -0.345398L307.175 -0.000732422ZM356.941 86.6527L357.339 86.6531L357.339 86.8823L357.141 86.9973L356.941 86.6527ZM307.971 115.075L307.771 114.73L307.971 115.075ZM306.376 115.078L306.177 115.423L306.376 115.078ZM356.999 29.8044L356.601 29.804L356.999 29.8044ZM356.205 28.4241L356.405 28.0794L356.205 28.4241ZM257.799 28.424L257.997 28.7693L257.799 28.424ZM257 29.8051H257.398H257ZM258 278.652L257.801 278.998L257.602 278.883V278.652H258ZM308.175 191.999L307.976 191.654L308.175 191.539L308.374 191.655L308.175 191.999ZM357.941 278.653L358.339 278.653L358.339 278.882L358.141 278.997L357.941 278.653ZM308.971 307.075L308.771 306.73V306.73L308.971 307.075ZM307.376 307.078L307.177 307.423V307.423L307.376 307.078ZM357.999 221.804L357.601 221.804L357.999 221.804ZM357.205 220.424L357.405 220.079L357.205 220.424ZM258.799 220.424L258.997 220.769V220.769L258.799 220.424ZM258 221.805H258.398H258ZM311 182.652L310.801 182.998L310.602 182.883V182.652H311ZM361.175 95.9993L360.976 95.654L361.175 95.5392L361.374 95.6546L361.175 95.9993ZM410.941 182.653L411.339 182.653L411.339 182.882L411.141 182.997L410.941 182.653ZM361.971 211.075L361.771 210.73L361.971 211.075ZM360.376 211.078L360.575 210.732L360.376 211.078ZM410.999 125.804L410.601 125.804L410.999 125.804ZM410.205 124.424L410.005 124.769L410.205 124.424ZM311.799 124.424L311.6 124.079L311.799 124.424ZM311 125.805H311.398H311ZM364 86.6525L363.801 86.9978L363.602 86.8828V86.6525H364ZM414.175 -0.000732422L413.976 -0.346008L414.175 -0.460846L414.374 -0.345398L414.175 -0.000732422ZM463.941 86.6527L464.339 86.6531L464.339 86.8823L464.141 86.9973L463.941 86.6527ZM414.971 115.075L414.771 114.73L414.971 115.075ZM413.376 115.078L413.575 114.732L413.376 115.078ZM463.999 29.8044L463.601 29.804L463.999 29.8044ZM463.205 28.4241L463.005 28.7688L463.205 28.4241ZM364.799 28.424L364.6 28.0787L364.799 28.424ZM364 29.8051H364.398H364ZM365 278.652L364.801 278.998L364.602 278.883V278.652H365ZM415.175 191.999L414.976 191.654L415.175 191.539L415.374 191.655L415.175 191.999ZM464.941 278.653L465.339 278.653L465.339 278.882L465.141 278.997L464.941 278.653ZM415.971 307.075L415.771 306.73V306.73L415.971 307.075ZM414.376 307.078L414.575 306.732V306.732L414.376 307.078ZM464.999 221.804L464.601 221.804L464.999 221.804ZM464.205 220.424L464.005 220.769L464.205 220.424ZM365.799 220.424L365.6 220.079L365.799 220.424ZM365 221.805H365.398H365ZM418 182.652L417.801 182.998L417.602 182.883V182.652H418ZM468.175 95.9993L467.976 95.654L468.175 95.5392L468.374 95.6546L468.175 95.9993ZM517.941 182.653L518.339 182.653L518.339 182.882L518.141 182.997L517.941 182.653ZM468.971 211.075L468.771 210.73L468.971 211.075ZM467.376 211.078L467.575 210.732L467.376 211.078ZM517.999 125.804L517.601 125.804L517.999 125.804ZM517.205 124.424L517.005 124.769L517.205 124.424ZM418.799 124.424L418.6 124.079L418.799 124.424ZM418 125.805H418.398H418ZM471 86.6525L470.801 86.9978L470.602 86.8828V86.6525H471ZM521.175 -0.000732422L520.976 -0.346008L521.175 -0.460846L521.374 -0.345398L521.175 -0.000732422ZM570.941 86.6527L571.339 86.6531L571.339 86.8823L571.141 86.9973L570.941 86.6527ZM521.971 115.075L521.771 114.73L521.971 115.075ZM520.376 115.078L520.575 114.732L520.376 115.078ZM570.999 29.8044L570.601 29.804L570.999 29.8044ZM570.205 28.4241L570.005 28.7688L570.205 28.4241ZM471.799 28.424L471.6 28.0787L471.799 28.424ZM471 29.8051H471.398H471ZM472 278.652L471.801 278.998L471.602 278.883V278.652H472ZM522.175 191.999L521.976 191.654L522.175 191.539L522.374 191.655L522.175 191.999ZM571.941 278.653L572.339 278.653L572.339 278.882L572.141 278.997L571.941 278.653ZM522.971 307.075L522.771 306.73V306.73L522.971 307.075ZM521.376 307.078L521.575 306.732V306.732L521.376 307.078ZM571.999 221.804L571.601 221.804L571.999 221.804ZM571.205 220.424L571.005 220.769L571.205 220.424ZM472.799 220.424L472.6 220.079L472.799 220.424ZM472 221.805H472.398H472ZM525 182.652L524.801 182.998L524.602 182.883V182.652H525ZM575.175 95.9993L574.976 95.654L575.175 95.5392L575.374 95.6546L575.175 95.9993ZM624.941 182.653L625.339 182.653L625.339 182.882L625.141 182.997L624.941 182.653ZM575.971 211.075L575.771 210.73L575.971 211.075ZM574.376 211.078L574.575 210.732L574.376 211.078ZM624.999 125.804L624.601 125.804L624.999 125.804ZM624.205 124.424L624.005 124.769L624.205 124.424ZM525.799 124.424L525.6 124.079L525.799 124.424ZM525 125.805H525.398H525ZM578 86.6525L577.801 86.9978L577.602 86.8828V86.6525H578ZM628.175 -0.000732422L627.976 -0.346008L628.175 -0.460846L628.374 -0.345398L628.175 -0.000732422ZM677.941 86.6527L678.339 86.6531L678.339 86.8823L678.141 86.9973L677.941 86.6527ZM628.971 115.075L628.771 114.73L628.971 115.075ZM627.376 115.078L627.575 114.732L627.376 115.078ZM677.999 29.8044L677.601 29.804L677.999 29.8044ZM677.205 28.4241L677.005 28.7688L677.205 28.4241ZM578.799 28.424L578.6 28.0787L578.799 28.424ZM578 29.8051H578.398H578ZM579 278.652L578.801 278.998L578.602 278.883V278.652H579ZM629.175 191.999L628.976 191.654L629.175 191.539L629.374 191.655L629.175 191.999ZM678.941 278.653L679.339 278.653L679.339 278.882L679.141 278.997L678.941 278.653ZM629.971 307.075L629.771 306.73V306.73L629.971 307.075ZM628.376 307.078L628.575 306.732V306.732L628.376 307.078ZM678.999 221.804L678.601 221.804L678.999 221.804ZM678.205 220.424L678.005 220.769L678.205 220.424ZM579.799 220.424L579.6 220.079L579.799 220.424ZM579 221.805H579.398H579ZM632 182.652L631.801 182.998L631.602 182.883V182.652H632ZM682.175 95.9993L681.976 95.654L682.175 95.5392L682.374 95.6546L682.175 95.9993ZM731.941 182.653L732.339 182.653L732.339 182.882L732.141 182.997L731.941 182.653ZM682.971 211.075L682.771 210.73L682.971 211.075ZM681.376 211.078L681.575 210.732L681.376 211.078ZM731.999 125.804L731.601 125.804L731.999 125.804ZM731.205 124.424L731.005 124.769L731.205 124.424ZM632.799 124.424L632.6 124.079L632.799 124.424ZM632 125.805H632.398H632ZM685 86.6525L684.801 86.9978L684.602 86.8828V86.6525H685ZM735.175 -0.000732422L734.976 -0.346008L735.175 -0.460846L735.374 -0.345398L735.175 -0.000732422ZM784.941 86.6527L785.339 86.6531L785.339 86.8823L785.141 86.9973L784.941 86.6527ZM735.971 115.075L735.771 114.73L735.971 115.075ZM734.376 115.078L734.575 114.732L734.376 115.078ZM784.999 29.8044L784.601 29.804L784.999 29.8044ZM784.205 28.4241L784.005 28.7688L784.205 28.4241ZM685.799 28.424L685.6 28.0787L685.799 28.424ZM685 29.8051H685.398H685ZM737.373 192.345L687.997 220.769L687.6 220.079L736.976 191.654L737.373 192.345ZM687.398 221.805V278.652H686.602V221.805H687.398ZM786.542 278.652L786.601 221.804L787.397 221.805L787.339 278.653L786.542 278.652ZM786.005 220.769L736.975 192.344L737.374 191.655L786.405 220.079L786.005 220.769ZM737.771 306.73L786.741 278.308L787.141 278.997L738.171 307.419L737.771 306.73ZM687.199 278.307L736.575 306.732L736.177 307.423L686.801 278.998L687.199 278.307ZM738.171 307.419C737.555 307.777 736.795 307.778 736.177 307.423L736.575 306.732C736.945 306.946 737.402 306.945 737.771 306.73L738.171 307.419ZM786.601 221.804C786.601 221.377 786.374 220.983 786.005 220.769L786.405 220.079C787.02 220.436 787.398 221.094 787.397 221.805L786.601 221.804ZM687.997 220.769C687.627 220.983 687.398 221.378 687.398 221.805H686.602C686.602 221.093 686.982 220.434 687.6 220.079L687.997 220.769ZM790.373 96.3445L740.997 124.769L740.6 124.079L789.976 95.654L790.373 96.3445ZM740.398 125.805V182.652H739.602V125.805H740.398ZM839.542 182.652L839.601 125.804L840.397 125.805L840.339 182.653L839.542 182.652ZM839.005 124.769L789.975 96.3439L790.374 95.6546L839.405 124.079L839.005 124.769ZM790.771 210.73L839.741 182.308L840.141 182.997L791.171 211.419L790.771 210.73ZM740.199 182.307L789.575 210.732L789.177 211.423L739.801 182.998L740.199 182.307ZM791.171 211.419C790.555 211.777 789.795 211.778 789.177 211.423L789.575 210.732C789.945 210.946 790.402 210.945 790.771 210.73L791.171 211.419ZM839.601 125.804C839.601 125.377 839.374 124.983 839.005 124.769L839.405 124.079C840.02 124.436 840.398 125.094 840.397 125.805L839.601 125.804ZM740.997 124.769C740.627 124.983 740.398 125.378 740.398 125.805H739.602C739.602 125.093 739.982 124.434 740.6 124.079L740.997 124.769ZM843.373 0.344543L793.997 28.7693L793.6 28.0787L842.976 -0.346008L843.373 0.344543ZM793.398 29.8051V86.6525H792.602V29.8051H793.398ZM892.542 86.6523L892.601 29.804L893.397 29.8048L893.339 86.6531L892.542 86.6523ZM892.005 28.7688L842.975 0.343933L843.374 -0.345398L892.405 28.0794L892.005 28.7688ZM843.771 114.73L892.741 86.3081L893.141 86.9973L844.171 115.419L843.771 114.73ZM793.199 86.3072L842.575 114.732L842.177 115.423L792.801 86.9978L793.199 86.3072ZM844.171 115.419C843.555 115.777 842.795 115.778 842.177 115.423L842.575 114.732C842.945 114.946 843.402 114.945 843.771 114.73L844.171 115.419ZM892.601 29.804C892.601 29.3773 892.374 28.9828 892.005 28.7688L892.405 28.0794C893.02 28.4361 893.398 29.0937 893.397 29.8048L892.601 29.804ZM793.997 28.7693C793.627 28.9826 793.398 29.3775 793.398 29.8051H792.602C792.602 29.0925 792.982 28.4342 793.6 28.0787L793.997 28.7693ZM844.373 192.345L794.997 220.769L794.6 220.079L843.976 191.654L844.373 192.345ZM794.398 221.805V278.652H793.602V221.805H794.398ZM893.542 278.652L893.601 221.804L894.397 221.805L894.339 278.653L893.542 278.652ZM893.005 220.769L843.975 192.344L844.374 191.655L893.405 220.079L893.005 220.769ZM844.771 306.73L893.741 278.308L894.141 278.997L845.171 307.419L844.771 306.73ZM794.199 278.307L843.575 306.732L843.177 307.423L793.801 278.998L794.199 278.307ZM845.171 307.419C844.555 307.777 843.795 307.778 843.177 307.423L843.575 306.732C843.945 306.946 844.402 306.945 844.771 306.73L845.171 307.419ZM893.601 221.804C893.601 221.377 893.374 220.983 893.005 220.769L893.405 220.079C894.02 220.436 894.398 221.094 894.397 221.805L893.601 221.804ZM794.997 220.769C794.627 220.983 794.398 221.378 794.398 221.805H793.602C793.602 221.093 793.982 220.434 794.6 220.079L794.997 220.769ZM897.373 96.3445L847.997 124.769L847.6 124.079L896.976 95.654L897.373 96.3445ZM847.398 125.805V182.652H846.602V125.805H847.398ZM946.542 182.652L946.601 125.804L947.397 125.805L947.339 182.653L946.542 182.652ZM946.005 124.769L896.975 96.3439L897.374 95.6546L946.405 124.079L946.005 124.769ZM897.771 210.73L946.741 182.308L947.141 182.997L898.171 211.419L897.771 210.73ZM847.199 182.307L896.575 210.732L896.177 211.423L846.801 182.998L847.199 182.307ZM898.171 211.419C897.555 211.777 896.795 211.778 896.177 211.423L896.575 210.732C896.945 210.946 897.402 210.945 897.771 210.73L898.171 211.419ZM946.601 125.804C946.601 125.377 946.374 124.983 946.005 124.769L946.405 124.079C947.02 124.436 947.398 125.094 947.397 125.805L946.601 125.804ZM847.997 124.769C847.627 124.983 847.398 125.378 847.398 125.805H846.602C846.602 125.093 846.982 124.434 847.6 124.079L847.997 124.769ZM950.373 0.344543L900.997 28.7693L900.6 28.0787L949.976 -0.346008L950.373 0.344543ZM900.398 29.8051V86.6525H899.602V29.8051H900.398ZM999.542 86.6523L999.601 29.804L1000.4 29.8048L1000.34 86.6531L999.542 86.6523ZM999.005 28.7688L949.975 0.343933L950.374 -0.345398L999.405 28.0794L999.005 28.7688ZM950.771 114.73L999.741 86.3081L1000.14 86.9973L951.171 115.419L950.771 114.73ZM900.199 86.3072L949.575 114.732L949.177 115.423L899.801 86.9978L900.199 86.3072ZM951.171 115.419C950.555 115.777 949.795 115.778 949.177 115.423L949.575 114.732C949.945 114.946 950.402 114.945 950.771 114.73L951.171 115.419ZM999.601 29.804C999.601 29.3773 999.374 28.9828 999.005 28.7688L999.405 28.0794C1000.02 28.4361 1000.4 29.0937 1000.4 29.8048L999.601 29.804ZM900.997 28.7693C900.627 28.9826 900.398 29.3776 900.398 29.8051H899.602C899.602 29.0925 899.982 28.4342 900.6 28.0787L900.997 28.7693ZM951.373 192.345L901.997 220.769L901.6 220.079L950.976 191.654L951.373 192.345ZM901.398 221.805V278.652H900.602V221.805H901.398ZM1000.54 278.652L1000.6 221.804L1001.4 221.805L1001.34 278.653L1000.54 278.652ZM1000 220.769L950.975 192.344L951.374 191.655L1000.4 220.079L1000 220.769ZM951.771 306.73L1000.74 278.308L1001.14 278.997L952.171 307.419L951.771 306.73ZM901.199 278.307L950.575 306.732L950.177 307.423L900.801 278.998L901.199 278.307ZM952.171 307.419C951.555 307.777 950.795 307.778 950.177 307.423L950.575 306.732C950.945 306.946 951.402 306.945 951.771 306.73L952.171 307.419ZM1000.6 221.804C1000.6 221.377 1000.37 220.983 1000 220.769L1000.4 220.079C1001.02 220.436 1001.4 221.094 1001.4 221.805L1000.6 221.804ZM901.997 220.769C901.627 220.983 901.398 221.378 901.398 221.805H900.602C900.602 221.092 900.982 220.434 901.6 220.079L901.997 220.769ZM1004.37 96.3445L954.997 124.769L954.6 124.079L1003.98 95.654L1004.37 96.3445ZM954.398 125.805V182.652H953.602V125.805H954.398ZM1053.54 182.652L1053.6 125.804L1054.4 125.805L1054.34 182.653L1053.54 182.652ZM1053 124.769L1003.97 96.3439L1004.37 95.6546L1053.4 124.079L1053 124.769ZM1004.77 210.73L1053.74 182.308L1054.14 182.997L1005.17 211.419L1004.77 210.73ZM954.199 182.307L1003.57 210.732L1003.18 211.423L953.801 182.998L954.199 182.307ZM1005.17 211.419C1004.56 211.777 1003.79 211.778 1003.18 211.423L1003.57 210.732C1003.95 210.946 1004.4 210.945 1004.77 210.73L1005.17 211.419ZM1053.6 125.804C1053.6 125.377 1053.37 124.983 1053 124.769L1053.4 124.079C1054.02 124.436 1054.4 125.094 1054.4 125.805L1053.6 125.804ZM954.997 124.769C954.627 124.983 954.398 125.378 954.398 125.805H953.602C953.602 125.092 953.982 124.434 954.6 124.079L954.997 124.769ZM1057.37 0.344543L1008 28.7693L1007.6 28.0787L1056.98 -0.346008L1057.37 0.344543ZM1007.4 29.8051V86.6525H1006.6V29.8051H1007.4ZM1106.54 86.6523L1106.6 29.804L1107.4 29.8048L1107.34 86.6531L1106.54 86.6523ZM1106 28.7688L1056.97 0.343933L1057.37 -0.345398L1106.4 28.0794L1106 28.7688ZM1057.77 114.73L1106.74 86.3081L1107.14 86.9973L1058.17 115.419L1057.77 114.73ZM1007.2 86.3072L1056.57 114.732L1056.18 115.423L1006.8 86.9978L1007.2 86.3072ZM1058.17 115.419C1057.56 115.777 1056.79 115.778 1056.18 115.423L1056.57 114.732C1056.95 114.946 1057.4 114.945 1057.77 114.73L1058.17 115.419ZM1106.6 29.804C1106.6 29.3773 1106.37 28.9828 1106 28.7688L1106.4 28.0794C1107.02 28.4361 1107.4 29.0937 1107.4 29.8048L1106.6 29.804ZM1008 28.7693C1007.63 28.9826 1007.4 29.3776 1007.4 29.8051H1006.6C1006.6 29.0925 1006.98 28.4342 1007.6 28.0787L1008 28.7693ZM1058.37 192.345L1009 220.769L1008.6 220.079L1057.98 191.654L1058.37 192.345ZM1008.4 221.805V278.652H1007.6V221.805H1008.4ZM1107.54 278.652L1107.6 221.804L1108.4 221.805L1108.34 278.653L1107.54 278.652ZM1107 220.769L1057.97 192.344L1058.37 191.655L1107.4 220.079L1107 220.769ZM1058.77 306.73L1107.74 278.308L1108.14 278.997L1059.17 307.419L1058.77 306.73ZM1008.2 278.307L1057.57 306.732L1057.18 307.423L1007.8 278.998L1008.2 278.307ZM1059.17 307.419C1058.56 307.777 1057.79 307.778 1057.18 307.423L1057.57 306.732C1057.95 306.946 1058.4 306.945 1058.77 306.73L1059.17 307.419ZM1107.6 221.804C1107.6 221.377 1107.37 220.983 1107 220.769L1107.4 220.079C1108.02 220.436 1108.4 221.094 1108.4 221.805L1107.6 221.804ZM1009 220.769C1008.63 220.983 1008.4 221.378 1008.4 221.805H1007.6C1007.6 221.092 1007.98 220.434 1008.6 220.079L1009 220.769ZM1111.37 96.3445L1062 124.769L1061.6 124.079L1110.98 95.654L1111.37 96.3445ZM1061.4 125.805V182.652H1060.6V125.805H1061.4ZM1160.54 182.652L1160.6 125.804L1161.4 125.805L1161.34 182.653L1160.54 182.652ZM1160 124.769L1110.97 96.3439L1111.37 95.6546L1160.4 124.079L1160 124.769ZM1111.77 210.73L1160.74 182.308L1161.14 182.997L1112.17 211.419L1111.77 210.73ZM1061.2 182.307L1110.57 210.732L1110.18 211.423L1060.8 182.998L1061.2 182.307ZM1112.17 211.419C1111.56 211.777 1110.79 211.778 1110.18 211.423L1110.57 210.732C1110.95 210.946 1111.4 210.945 1111.77 210.73L1112.17 211.419ZM1160.6 125.804C1160.6 125.377 1160.37 124.983 1160 124.769L1160.4 124.079C1161.02 124.436 1161.4 125.094 1161.4 125.805L1160.6 125.804ZM1062 124.769C1061.63 124.983 1061.4 125.378 1061.4 125.805H1060.6C1060.6 125.092 1060.98 124.434 1061.6 124.079L1062 124.769ZM1164.37 0.344543L1115 28.7693L1114.6 28.0787L1163.98 -0.346008L1164.37 0.344543ZM1114.4 29.8051V86.6525H1113.6V29.8051H1114.4ZM1213.54 86.6523L1213.6 29.804L1214.4 29.8048L1214.34 86.6531L1213.54 86.6523ZM1213 28.7688L1163.97 0.343933L1164.37 -0.345398L1213.4 28.0794L1213 28.7688ZM1164.77 114.73L1213.74 86.3081L1214.14 86.9973L1165.17 115.419L1164.77 114.73ZM1114.2 86.3072L1163.57 114.732L1163.18 115.423L1113.8 86.9978L1114.2 86.3072ZM1165.17 115.419C1164.56 115.777 1163.79 115.778 1163.18 115.423L1163.57 114.732C1163.95 114.946 1164.4 114.945 1164.77 114.73L1165.17 115.419ZM1213.6 29.804C1213.6 29.3773 1213.37 28.9828 1213 28.7688L1213.4 28.0794C1214.02 28.4361 1214.4 29.0937 1214.4 29.8048L1213.6 29.804ZM1115 28.7693C1114.63 28.9826 1114.4 29.3776 1114.4 29.8051H1113.6C1113.6 29.0925 1113.98 28.4342 1114.6 28.0787L1115 28.7693ZM1165.37 192.345L1116 220.769L1115.6 220.079L1164.98 191.654L1165.37 192.345ZM1115.4 221.805V278.652H1114.6V221.805H1115.4ZM1214.54 278.652L1214.6 221.804L1215.4 221.805L1215.34 278.653L1214.54 278.652ZM1214 220.769L1164.97 192.344L1165.37 191.655L1214.4 220.079L1214 220.769ZM1165.77 306.73L1214.74 278.308L1215.14 278.997L1166.17 307.419L1165.77 306.73ZM1115.2 278.307L1164.57 306.732L1164.18 307.423L1114.8 278.998L1115.2 278.307ZM1166.17 307.419C1165.56 307.777 1164.79 307.778 1164.18 307.423L1164.57 306.732C1164.95 306.946 1165.4 306.945 1165.77 306.73L1166.17 307.419ZM1214.6 221.804C1214.6 221.377 1214.37 220.983 1214 220.769L1214.4 220.079C1215.02 220.436 1215.4 221.094 1215.4 221.805L1214.6 221.804ZM1116 220.769C1115.63 220.983 1115.4 221.378 1115.4 221.805H1114.6C1114.6 221.092 1114.98 220.434 1115.6 220.079L1116 220.769ZM1218.37 96.3445L1169 124.769L1168.6 124.079L1217.98 95.654L1218.37 96.3445ZM1168.4 125.805V182.652H1167.6V125.805H1168.4ZM1267.54 182.652L1267.6 125.804L1268.4 125.805L1268.34 182.653L1267.54 182.652ZM1267 124.769L1217.97 96.3439L1218.37 95.6546L1267.4 124.079L1267 124.769ZM1218.77 210.73L1267.74 182.308L1268.14 182.997L1219.17 211.419L1218.77 210.73ZM1168.2 182.307L1217.57 210.732L1217.18 211.423L1167.8 182.998L1168.2 182.307ZM1219.17 211.419C1218.56 211.777 1217.79 211.778 1217.18 211.423L1217.57 210.732C1217.95 210.946 1218.4 210.945 1218.77 210.73L1219.17 211.419ZM1267.6 125.804C1267.6 125.377 1267.37 124.983 1267 124.769L1267.4 124.079C1268.02 124.436 1268.4 125.094 1268.4 125.805L1267.6 125.804ZM1169 124.769C1168.63 124.983 1168.4 125.378 1168.4 125.805H1167.6C1167.6 125.092 1167.98 124.434 1168.6 124.079L1169 124.769ZM1271.37 0.344543L1222 28.7693L1221.6 28.0787L1270.98 -0.346008L1271.37 0.344543ZM1221.4 29.8051V86.6525H1220.6V29.8051H1221.4ZM1320.54 86.6523L1320.6 29.804L1321.4 29.8048L1321.34 86.6531L1320.54 86.6523ZM1320 28.7688L1270.97 0.343933L1271.37 -0.345398L1320.4 28.0794L1320 28.7688ZM1271.77 114.73L1320.74 86.3081L1321.14 86.9973L1272.17 115.419L1271.77 114.73ZM1221.2 86.3072L1270.57 114.732L1270.18 115.423L1220.8 86.9978L1221.2 86.3072ZM1272.17 115.419C1271.56 115.777 1270.79 115.778 1270.18 115.423L1270.57 114.732C1270.95 114.946 1271.4 114.945 1271.77 114.73L1272.17 115.419ZM1320.6 29.804C1320.6 29.3773 1320.37 28.9828 1320 28.7688L1320.4 28.0794C1321.02 28.4361 1321.4 29.0937 1321.4 29.8048L1320.6 29.804ZM1222 28.7693C1221.63 28.9826 1221.4 29.3776 1221.4 29.8051H1220.6C1220.6 29.0925 1220.98 28.4342 1221.6 28.0787L1222 28.7693ZM1272.37 192.345L1223 220.769L1222.6 220.079L1271.98 191.654L1272.37 192.345ZM1222.4 221.805V278.652H1221.6V221.805H1222.4ZM1321.54 278.652L1321.6 221.804L1322.4 221.805L1322.34 278.653L1321.54 278.652ZM1321 220.769L1271.97 192.344L1272.37 191.655L1321.4 220.079L1321 220.769ZM1272.77 306.73L1321.74 278.308L1322.14 278.997L1273.17 307.419L1272.77 306.73ZM1222.2 278.307L1271.57 306.732L1271.18 307.423L1221.8 278.998L1222.2 278.307ZM1273.17 307.419C1272.56 307.777 1271.79 307.778 1271.18 307.423L1271.57 306.732C1271.95 306.946 1272.4 306.945 1272.77 306.73L1273.17 307.419ZM1321.6 221.804C1321.6 221.377 1321.37 220.983 1321 220.769L1321.4 220.079C1322.02 220.436 1322.4 221.094 1322.4 221.805L1321.6 221.804ZM1223 220.769C1222.63 220.983 1222.4 221.378 1222.4 221.805H1221.6C1221.6 221.092 1221.98 220.434 1222.6 220.079L1223 220.769ZM1325.37 96.3445L1276 124.769L1275.6 124.079L1324.98 95.654L1325.37 96.3445ZM1275.4 125.805V182.652H1274.6V125.805H1275.4ZM1374.54 182.652L1374.6 125.804L1375.4 125.805L1375.34 182.653L1374.54 182.652ZM1374 124.769L1324.97 96.3439L1325.37 95.6546L1374.4 124.079L1374 124.769ZM1325.77 210.73L1374.74 182.308L1375.14 182.997L1326.17 211.419L1325.77 210.73ZM1275.2 182.307L1324.57 210.732L1324.18 211.423L1274.8 182.998L1275.2 182.307ZM1326.17 211.419C1325.56 211.777 1324.79 211.778 1324.18 211.423L1324.57 210.732C1324.95 210.946 1325.4 210.945 1325.77 210.73L1326.17 211.419ZM1374.6 125.804C1374.6 125.377 1374.37 124.983 1374 124.769L1374.4 124.079C1375.02 124.436 1375.4 125.094 1375.4 125.805L1374.6 125.804ZM1276 124.769C1275.63 124.983 1275.4 125.378 1275.4 125.805H1274.6C1274.6 125.092 1274.98 124.434 1275.6 124.079L1276 124.769ZM1378.37 0.344543L1329 28.7693L1328.6 28.0787L1377.98 -0.346008L1378.37 0.344543ZM1328.4 29.8051V86.6525H1327.6V29.8051H1328.4ZM1427.54 86.6523L1427.6 29.804L1428.4 29.8048L1428.34 86.6531L1427.54 86.6523ZM1427 28.7688L1377.97 0.343933L1378.37 -0.345398L1427.4 28.0794L1427 28.7688ZM1378.77 114.73L1427.74 86.3081L1428.14 86.9973L1379.17 115.419L1378.77 114.73ZM1328.2 86.3072L1377.57 114.732L1377.18 115.423L1327.8 86.9978L1328.2 86.3072ZM1379.17 115.419C1378.56 115.777 1377.79 115.778 1377.18 115.423L1377.57 114.732C1377.95 114.946 1378.4 114.945 1378.77 114.73L1379.17 115.419ZM1427.6 29.804C1427.6 29.3773 1427.37 28.9828 1427 28.7688L1427.4 28.0794C1428.02 28.4361 1428.4 29.0937 1428.4 29.8048L1427.6 29.804ZM1329 28.7693C1328.63 28.9826 1328.4 29.3776 1328.4 29.8051H1327.6C1327.6 29.0925 1327.98 28.4342 1328.6 28.0787L1329 28.7693ZM1379.37 192.345L1330 220.769L1329.6 220.079L1378.98 191.654L1379.37 192.345ZM1329.4 221.805V278.652H1328.6V221.805H1329.4ZM1428.54 278.652L1428.6 221.804L1429.4 221.805L1429.34 278.653L1428.54 278.652ZM1428 220.769L1378.97 192.344L1379.37 191.655L1428.4 220.079L1428 220.769ZM1379.77 306.73L1428.74 278.308L1429.14 278.997L1380.17 307.419L1379.77 306.73ZM1329.2 278.307L1378.57 306.732L1378.18 307.423L1328.8 278.998L1329.2 278.307ZM1380.17 307.419C1379.56 307.777 1378.79 307.778 1378.18 307.423L1378.57 306.732C1378.95 306.946 1379.4 306.945 1379.77 306.73L1380.17 307.419ZM1428.6 221.804C1428.6 221.377 1428.37 220.983 1428 220.769L1428.4 220.079C1429.02 220.436 1429.4 221.094 1429.4 221.805L1428.6 221.804ZM1330 220.769C1329.63 220.983 1329.4 221.378 1329.4 221.805H1328.6C1328.6 221.092 1328.98 220.434 1329.6 220.079L1330 220.769ZM1432.37 96.3445L1383 124.769L1382.6 124.079L1431.98 95.654L1432.37 96.3445ZM1382.4 125.805V182.652H1381.6V125.805H1382.4ZM1481.54 182.652L1481.6 125.804L1482.4 125.805L1482.34 182.653L1481.54 182.652ZM1481 124.769L1431.97 96.3439L1432.37 95.6546L1481.4 124.079L1481 124.769ZM1432.77 210.73L1481.74 182.308L1482.14 182.997L1433.17 211.419L1432.77 210.73ZM1382.2 182.307L1431.57 210.732L1431.18 211.423L1381.8 182.998L1382.2 182.307ZM1433.17 211.419C1432.56 211.777 1431.79 211.778 1431.18 211.423L1431.57 210.732C1431.95 210.946 1432.4 210.945 1432.77 210.73L1433.17 211.419ZM1481.6 125.804C1481.6 125.377 1481.37 124.983 1481 124.769L1481.4 124.079C1482.02 124.436 1482.4 125.094 1482.4 125.805L1481.6 125.804ZM1383 124.769C1382.63 124.983 1382.4 125.378 1382.4 125.805H1381.6C1381.6 125.092 1381.98 124.434 1382.6 124.079L1383 124.769ZM1485.37 0.344543L1436 28.7693L1435.6 28.0787L1484.98 -0.346008L1485.37 0.344543ZM1435.4 29.8051V86.6525H1434.6V29.8051H1435.4ZM1534.54 86.6523L1534.6 29.804L1535.4 29.8048L1535.34 86.6531L1534.54 86.6523ZM1534 28.7688L1484.97 0.343933L1485.37 -0.345398L1534.4 28.0794L1534 28.7688ZM1485.77 114.73L1534.74 86.3081L1535.14 86.9973L1486.17 115.419L1485.77 114.73ZM1435.2 86.3072L1484.57 114.732L1484.18 115.423L1434.8 86.9978L1435.2 86.3072ZM1486.17 115.419C1485.56 115.777 1484.79 115.778 1484.18 115.423L1484.57 114.732C1484.95 114.946 1485.4 114.945 1485.77 114.73L1486.17 115.419ZM1534.6 29.804C1534.6 29.3773 1534.37 28.9828 1534 28.7688L1534.4 28.0794C1535.02 28.4361 1535.4 29.0937 1535.4 29.8048L1534.6 29.804ZM1436 28.7693C1435.63 28.9826 1435.4 29.3776 1435.4 29.8051H1434.6C1434.6 29.0925 1434.98 28.4342 1435.6 28.0787L1436 28.7693ZM1486.37 192.345L1437 220.769L1436.6 220.079L1485.98 191.654L1486.37 192.345ZM1436.4 221.805V278.652H1435.6V221.805H1436.4ZM1535.54 278.652L1535.6 221.804L1536.4 221.805L1536.34 278.653L1535.54 278.652ZM1535 220.769L1485.97 192.344L1486.37 191.655L1535.4 220.079L1535 220.769ZM1486.77 306.73L1535.74 278.308L1536.14 278.997L1487.17 307.419L1486.77 306.73ZM1436.2 278.307L1485.57 306.732L1485.18 307.423L1435.8 278.998L1436.2 278.307ZM1487.17 307.419C1486.56 307.777 1485.79 307.778 1485.18 307.423L1485.57 306.732C1485.95 306.946 1486.4 306.945 1486.77 306.73L1487.17 307.419ZM1535.6 221.804C1535.6 221.377 1535.37 220.983 1535 220.769L1535.4 220.079C1536.02 220.436 1536.4 221.094 1536.4 221.805L1535.6 221.804ZM1437 220.769C1436.63 220.983 1436.4 221.378 1436.4 221.805H1435.6C1435.6 221.092 1435.98 220.434 1436.6 220.079L1437 220.769ZM1539.37 96.3445L1490 124.769L1489.6 124.079L1538.98 95.654L1539.37 96.3445ZM1489.4 125.805V182.652H1488.6V125.805H1489.4ZM1588.54 182.652L1588.6 125.804L1589.4 125.805L1589.34 182.653L1588.54 182.652ZM1588 124.769L1538.97 96.3439L1539.37 95.6546L1588.4 124.079L1588 124.769ZM1539.77 210.73L1588.74 182.308L1589.14 182.997L1540.17 211.419L1539.77 210.73ZM1489.2 182.307L1538.57 210.732L1538.18 211.423L1488.8 182.998L1489.2 182.307ZM1540.17 211.419C1539.56 211.777 1538.79 211.778 1538.18 211.423L1538.57 210.732C1538.95 210.946 1539.4 210.945 1539.77 210.73L1540.17 211.419ZM1588.6 125.804C1588.6 125.377 1588.37 124.983 1588 124.769L1588.4 124.079C1589.02 124.436 1589.4 125.094 1589.4 125.805L1588.6 125.804ZM1490 124.769C1489.63 124.983 1489.4 125.378 1489.4 125.805H1488.6C1488.6 125.092 1488.98 124.434 1489.6 124.079L1490 124.769ZM1592.37 0.344543L1543 28.7693L1542.6 28.0787L1591.98 -0.346008L1592.37 0.344543ZM1542.4 29.8051V86.6525H1541.6V29.8051H1542.4ZM1641.54 86.6523L1641.6 29.804L1642.4 29.8048L1642.34 86.6531L1641.54 86.6523ZM1641 28.7688L1591.97 0.343933L1592.37 -0.345398L1641.4 28.0794L1641 28.7688ZM1592.77 114.73L1641.74 86.3081L1642.14 86.9973L1593.17 115.419L1592.77 114.73ZM1542.2 86.3072L1591.57 114.732L1591.18 115.423L1541.8 86.9978L1542.2 86.3072ZM1593.17 115.419C1592.56 115.777 1591.79 115.778 1591.18 115.423L1591.57 114.732C1591.95 114.946 1592.4 114.945 1592.77 114.73L1593.17 115.419ZM1641.6 29.804C1641.6 29.3773 1641.37 28.9828 1641 28.7688L1641.4 28.0794C1642.02 28.4361 1642.4 29.0937 1642.4 29.8048L1641.6 29.804ZM1543 28.7693C1542.63 28.9826 1542.4 29.3776 1542.4 29.8051H1541.6C1541.6 29.0925 1541.98 28.4342 1542.6 28.0787L1543 28.7693ZM-119.627 192.345L-169.003 220.769L-169.4 220.079L-120.024 191.654L-119.627 192.345ZM-169.602 221.805L-169.602 278.652H-170.398L-170.398 221.805H-169.602ZM-70.4578 278.652L-70.3994 221.804L-69.6025 221.805L-69.661 278.653L-70.4578 278.652ZM-70.9951 220.769L-120.025 192.344L-119.626 191.655L-70.5955 220.079L-70.9951 220.769ZM-119.229 306.73L-70.2594 278.308L-69.8594 278.997L-118.829 307.419L-119.229 306.73ZM-169.801 278.307L-120.425 306.732L-120.823 307.423L-170.199 278.998L-169.801 278.307ZM-118.829 307.419C-119.445 307.777 -120.205 307.778 -120.823 307.423L-120.425 306.732C-120.055 306.946 -119.598 306.945 -119.229 306.73L-118.829 307.419ZM-70.3994 221.804C-70.3989 221.377 -70.626 220.983 -70.9951 220.769L-70.5955 220.079C-69.9802 220.436 -69.6018 221.094 -69.6025 221.805L-70.3994 221.804ZM-169.003 220.769C-169.373 220.983 -169.602 221.378 -169.602 221.805H-170.398C-170.398 221.093 -170.018 220.434 -169.4 220.079L-169.003 220.769ZM-66.6267 96.3445L-116.003 124.769L-116.4 124.079L-67.0242 95.654L-66.6267 96.3445ZM-116.602 125.805V182.652H-117.398V125.805H-116.602ZM-17.4578 182.652L-17.3994 125.804L-16.6025 125.805L-16.661 182.653L-17.4578 182.652ZM-17.9951 124.769L-67.0253 96.3439L-66.6256 95.6546L-17.5955 124.079L-17.9951 124.769ZM-66.2287 210.73L-17.2594 182.308L-16.8594 182.997L-65.8288 211.419L-66.2287 210.73ZM-116.801 182.307L-67.425 210.732L-67.8226 211.423L-117.199 182.998L-116.801 182.307ZM-65.8288 211.419C-66.4449 211.777 -67.2051 211.778 -67.8226 211.423L-67.425 210.732C-67.0546 210.946 -66.5984 210.945 -66.2287 210.73L-65.8288 211.419ZM-17.3994 125.804C-17.3989 125.377 -17.626 124.983 -17.9951 124.769L-17.5955 124.079C-16.9802 124.436 -16.6018 125.094 -16.6025 125.805L-17.3994 125.804ZM-116.003 124.769C-116.373 124.983 -116.602 125.378 -116.602 125.805H-117.398C-117.398 125.092 -117.018 124.434 -116.4 124.079L-116.003 124.769ZM-13.6267 0.344543L-63.0027 28.7693L-63.4002 28.0787L-14.0242 -0.346008L-13.6267 0.344543ZM-63.6016 29.8051V86.6525H-64.3984V29.8051H-63.6016ZM35.5422 86.6523L35.6006 29.804L36.3975 29.8048L36.339 86.6531L35.5422 86.6523ZM35.0049 28.7688L-14.0253 0.343933L-13.6256 -0.345398L35.4045 28.0794L35.0049 28.7688ZM-13.2287 114.73L35.7406 86.3081L36.1406 86.9973L-12.8288 115.419L-13.2287 114.73ZM-63.8012 86.3072L-14.425 114.732L-14.8226 115.423L-64.1988 86.9978L-63.8012 86.3072ZM-12.8288 115.419C-13.4449 115.777 -14.2051 115.778 -14.8226 115.423L-14.425 114.732C-14.0546 114.946 -13.5984 114.945 -13.2287 114.73L-12.8288 115.419ZM35.6006 29.804C35.6011 29.3773 35.374 28.9828 35.0049 28.7688L35.4045 28.0794C36.0198 28.4361 36.3982 29.0937 36.3975 29.8048L35.6006 29.804ZM-63.0027 28.7693C-63.3732 28.9826 -63.6016 29.3775 -63.6016 29.8051H-64.3984C-64.3984 29.0925 -64.0178 28.4342 -63.4002 28.0787L-63.0027 28.7693ZM-12.6267 192.345L-62.0027 220.769L-62.4002 220.079L-13.0242 191.654L-12.6267 192.345ZM-62.6016 221.805V278.652H-63.3984V221.805H-62.6016ZM36.5422 278.652L36.6006 221.804L37.3975 221.805L37.339 278.653L36.5422 278.652ZM36.0049 220.769L-13.0253 192.344L-12.6256 191.655L36.4045 220.079L36.0049 220.769ZM-12.2287 306.73L36.7406 278.308L37.1406 278.997L-11.8288 307.419L-12.2287 306.73ZM-62.8012 278.307L-13.425 306.732L-13.8226 307.423L-63.1988 278.998L-62.8012 278.307ZM-11.8288 307.419C-12.4449 307.777 -13.2051 307.778 -13.8226 307.423L-13.425 306.732C-13.0546 306.946 -12.5984 306.945 -12.2287 306.73L-11.8288 307.419ZM36.6006 221.804C36.6011 221.377 36.374 220.983 36.0049 220.769L36.4045 220.079C37.0198 220.436 37.3982 221.094 37.3975 221.805L36.6006 221.804ZM-62.0027 220.769C-62.3732 220.983 -62.6016 221.378 -62.6016 221.805H-63.3984C-63.3984 221.093 -63.0178 220.434 -62.4002 220.079L-62.0027 220.769ZM40.3733 96.3445L-9.00269 124.769L-9.40024 124.079L39.9758 95.654L40.3733 96.3445ZM-9.60159 125.805V182.652H-10.3984V125.805H-9.60159ZM89.5422 182.652L89.6006 125.804L90.3975 125.805L90.339 182.653L89.5422 182.652ZM89.0049 124.769L39.9747 96.3439L40.3744 95.6546L89.4045 124.079L89.0049 124.769ZM40.7713 210.73L89.7406 182.308L90.1406 182.997L41.1712 211.419L40.7713 210.73ZM-9.80122 182.307L39.575 210.732L39.1774 211.423L-10.1988 182.998L-9.80122 182.307ZM41.1712 211.419C40.5551 211.777 39.7949 211.778 39.1774 211.423L39.575 210.732C39.9454 210.946 40.4016 210.945 40.7713 210.73L41.1712 211.419ZM89.6006 125.804C89.6011 125.377 89.374 124.983 89.0049 124.769L89.4045 124.079C90.0197 124.436 90.3982 125.094 90.3975 125.805L89.6006 125.804ZM-9.00269 124.769C-9.37323 124.983 -9.60159 125.378 -9.60159 125.805H-10.3984C-10.3984 125.093 -10.0178 124.434 -9.40024 124.079L-9.00269 124.769ZM93.3733 0.344543L43.9973 28.7693L43.5998 28.0787L92.9758 -0.346008L93.3733 0.344543ZM43.3984 29.8051V86.6525H42.6016V29.8051H43.3984ZM142.542 86.6523L142.601 29.804L143.397 29.8048L143.339 86.6531L142.542 86.6523ZM142.005 28.7688L92.9747 0.343933L93.3744 -0.345398L142.405 28.0794L142.005 28.7688ZM93.7713 114.73L142.741 86.3081L143.141 86.9973L94.1712 115.419L93.7713 114.73ZM43.1988 86.3072L92.575 114.732L92.1774 115.423L42.8012 86.9978L43.1988 86.3072ZM94.1712 115.419C93.5551 115.777 92.7948 115.778 92.1774 115.423L92.575 114.732C92.9454 114.946 93.4016 114.945 93.7713 114.73L94.1712 115.419ZM142.601 29.804C142.601 29.3773 142.374 28.9828 142.005 28.7688L142.405 28.0794C143.02 28.4361 143.398 29.0937 143.397 29.8048L142.601 29.804ZM43.9973 28.7693C43.6268 28.9826 43.3984 29.3775 43.3984 29.8051H42.6016C42.6016 29.0925 42.9822 28.4342 43.5998 28.0787L43.9973 28.7693ZM94.3733 192.345L44.9973 220.769L44.5998 220.079L93.9758 191.654L94.3733 192.345ZM44.3984 221.805V278.652H43.6016V221.805H44.3984ZM143.542 278.652L143.601 221.804L144.397 221.805L144.339 278.653L143.542 278.652ZM143.005 220.769L93.9747 192.344L94.3744 191.655L143.405 220.079L143.005 220.769ZM94.7713 306.73L143.741 278.308L144.141 278.997L95.1712 307.419L94.7713 306.73ZM44.1988 278.307L93.575 306.732L93.1774 307.423L43.8012 278.998L44.1988 278.307ZM95.1712 307.419C94.5551 307.777 93.7948 307.778 93.1774 307.423L93.575 306.732C93.9454 306.946 94.4016 306.945 94.7713 306.73L95.1712 307.419ZM143.601 221.804C143.601 221.377 143.374 220.983 143.005 220.769L143.405 220.079C144.02 220.436 144.398 221.094 144.397 221.805L143.601 221.804ZM44.9973 220.769C44.6268 220.983 44.3984 221.378 44.3984 221.805H43.6016C43.6016 221.093 43.9822 220.434 44.5998 220.079L44.9973 220.769ZM147.373 96.3445L97.9973 124.769L97.5998 124.079L146.976 95.654L147.373 96.3445ZM97.3984 125.805V182.652H96.6016V125.805H97.3984ZM196.542 182.652L196.601 125.804L197.397 125.805L197.339 182.653L196.542 182.652ZM196.005 124.769L146.975 96.3439L147.374 95.6546L196.405 124.079L196.005 124.769ZM147.771 210.73L196.741 182.308L197.141 182.997L148.171 211.419L147.771 210.73ZM97.1988 182.307L146.575 210.732L146.177 211.423L96.8012 182.998L97.1988 182.307ZM148.171 211.419C147.555 211.777 146.795 211.778 146.177 211.423L146.575 210.732C146.945 210.946 147.402 210.945 147.771 210.73L148.171 211.419ZM196.601 125.804C196.601 125.377 196.374 124.983 196.005 124.769L196.405 124.079C197.02 124.436 197.398 125.094 197.397 125.805L196.601 125.804ZM97.9973 124.769C97.6268 124.983 97.3984 125.378 97.3984 125.805H96.6016C96.6016 125.092 96.9822 124.434 97.5998 124.079L97.9973 124.769ZM200.373 0.344543L150.997 28.7693L150.6 28.0787L199.976 -0.346008L200.373 0.344543ZM150.398 29.8051V86.6525H149.602V29.8051H150.398ZM249.542 86.6523L249.601 29.804L250.397 29.8048L250.339 86.6531L249.542 86.6523ZM249.005 28.7688L199.975 0.343933L200.374 -0.345398L249.405 28.0794L249.005 28.7688ZM200.771 114.73L249.741 86.3081L250.141 86.9973L201.171 115.419L200.771 114.73ZM150.199 86.3072L199.575 114.732L199.177 115.423L149.801 86.9978L150.199 86.3072ZM201.171 115.419C200.555 115.777 199.795 115.778 199.177 115.423L199.575 114.732C199.945 114.946 200.402 114.945 200.771 114.73L201.171 115.419ZM249.601 29.804C249.601 29.3773 249.374 28.9828 249.005 28.7688L249.405 28.0794C250.02 28.4361 250.398 29.0937 250.397 29.8048L249.601 29.804ZM150.997 28.7693C150.627 28.9826 150.398 29.3775 150.398 29.8051H149.602C149.602 29.0925 149.982 28.4342 150.6 28.0787L150.997 28.7693ZM201.373 192.345L151.997 220.769L151.6 220.079L200.976 191.654L201.373 192.345ZM151.398 221.805V278.652H150.602V221.805H151.398ZM250.542 278.652L250.601 221.804L251.397 221.805L251.339 278.653L250.542 278.652ZM250.005 220.769L200.975 192.344L201.374 191.655L250.405 220.079L250.005 220.769ZM201.771 306.73L250.741 278.308L251.141 278.997L202.171 307.419L201.771 306.73ZM151.199 278.307L200.575 306.732L200.177 307.423L150.801 278.998L151.199 278.307ZM202.171 307.419C201.555 307.777 200.795 307.778 200.177 307.423L200.575 306.732C200.945 306.946 201.402 306.945 201.771 306.73L202.171 307.419ZM250.601 221.804C250.601 221.377 250.374 220.983 250.005 220.769L250.405 220.079C251.02 220.436 251.398 221.094 251.397 221.805L250.601 221.804ZM151.997 220.769C151.627 220.983 151.398 221.378 151.398 221.805H150.602C150.602 221.093 150.982 220.434 151.6 220.079L151.997 220.769ZM254.373 96.3445L204.997 124.769L204.6 124.079L253.976 95.654L254.373 96.3445ZM204.398 125.805V182.652H203.602V125.805H204.398ZM303.542 182.652L303.601 125.804L304.397 125.805L304.339 182.653L303.542 182.652ZM303.005 124.769L253.975 96.3439L254.374 95.6546L303.405 124.079L303.005 124.769ZM254.771 210.73L303.741 182.308L304.141 182.997L255.171 211.419L254.771 210.73ZM204.199 182.307L253.575 210.732L253.177 211.423L203.801 182.998L204.199 182.307ZM255.171 211.419C254.555 211.777 253.795 211.778 253.177 211.423L253.575 210.732C253.945 210.946 254.402 210.945 254.771 210.73L255.171 211.419ZM303.601 125.804C303.601 125.377 303.374 124.983 303.005 124.769L303.405 124.079C304.02 124.436 304.398 125.094 304.397 125.805L303.601 125.804ZM204.997 124.769C204.627 124.983 204.398 125.378 204.398 125.805H203.602C203.602 125.092 203.982 124.434 204.6 124.079L204.997 124.769ZM307.373 0.344543L257.997 28.7693L257.6 28.0787L306.976 -0.346008L307.373 0.344543ZM257.398 29.8051V86.6525H256.602V29.8051H257.398ZM356.542 86.6523L356.601 29.804L357.397 29.8048L357.339 86.6531L356.542 86.6523ZM356.005 28.7688L306.975 0.343933L307.374 -0.345398L356.405 28.0794L356.005 28.7688ZM307.771 114.73L356.741 86.3081L357.141 86.9973L308.171 115.419L307.771 114.73ZM257.199 86.3072L306.575 114.732L306.177 115.423L256.801 86.9978L257.199 86.3072ZM308.171 115.419C307.555 115.777 306.795 115.778 306.177 115.423L306.575 114.732C306.945 114.946 307.402 114.945 307.771 114.73L308.171 115.419ZM356.601 29.804C356.601 29.3773 356.374 28.9828 356.005 28.7688L356.405 28.0794C357.02 28.4361 357.398 29.0937 357.397 29.8048L356.601 29.804ZM257.997 28.7693C257.627 28.9826 257.398 29.3775 257.398 29.8051H256.602C256.602 29.0925 256.982 28.4342 257.6 28.0787L257.997 28.7693ZM308.373 192.345L258.997 220.769L258.6 220.079L307.976 191.654L308.373 192.345ZM258.398 221.805V278.652H257.602V221.805H258.398ZM357.542 278.652L357.601 221.804L358.397 221.805L358.339 278.653L357.542 278.652ZM357.005 220.769L307.975 192.344L308.374 191.655L357.405 220.079L357.005 220.769ZM308.771 306.73L357.741 278.308L358.141 278.997L309.171 307.419L308.771 306.73ZM258.199 278.307L307.575 306.732L307.177 307.423L257.801 278.998L258.199 278.307ZM309.171 307.419C308.555 307.777 307.795 307.778 307.177 307.423L307.575 306.732C307.945 306.946 308.402 306.945 308.771 306.73L309.171 307.419ZM357.601 221.804C357.601 221.377 357.374 220.983 357.005 220.769L357.405 220.079C358.02 220.436 358.398 221.094 358.397 221.805L357.601 221.804ZM258.997 220.769C258.627 220.983 258.398 221.378 258.398 221.805H257.602C257.602 221.093 257.982 220.434 258.6 220.079L258.997 220.769ZM361.373 96.3445L311.997 124.769L311.6 124.079L360.976 95.654L361.373 96.3445ZM311.398 125.805V182.652H310.602V125.805H311.398ZM410.542 182.652L410.601 125.804L411.397 125.805L411.339 182.653L410.542 182.652ZM410.005 124.769L360.975 96.3439L361.374 95.6546L410.405 124.079L410.005 124.769ZM361.771 210.73L410.741 182.308L411.141 182.997L362.171 211.419L361.771 210.73ZM311.199 182.307L360.575 210.732L360.177 211.423L310.801 182.998L311.199 182.307ZM362.171 211.419C361.555 211.777 360.795 211.778 360.177 211.423L360.575 210.732C360.945 210.946 361.402 210.945 361.771 210.73L362.171 211.419ZM410.601 125.804C410.601 125.377 410.374 124.983 410.005 124.769L410.405 124.079C411.02 124.436 411.398 125.094 411.397 125.805L410.601 125.804ZM311.997 124.769C311.627 124.983 311.398 125.378 311.398 125.805H310.602C310.602 125.092 310.982 124.434 311.6 124.079L311.997 124.769ZM414.373 0.344543L364.997 28.7693L364.6 28.0787L413.976 -0.346008L414.373 0.344543ZM364.398 29.8051V86.6525H363.602V29.8051H364.398ZM463.542 86.6523L463.601 29.804L464.397 29.8048L464.339 86.6531L463.542 86.6523ZM463.005 28.7688L413.975 0.343933L414.374 -0.345398L463.405 28.0794L463.005 28.7688ZM414.771 114.73L463.741 86.3081L464.141 86.9973L415.171 115.419L414.771 114.73ZM364.199 86.3072L413.575 114.732L413.177 115.423L363.801 86.9978L364.199 86.3072ZM415.171 115.419C414.555 115.777 413.795 115.778 413.177 115.423L413.575 114.732C413.945 114.946 414.402 114.945 414.771 114.73L415.171 115.419ZM463.601 29.804C463.601 29.3773 463.374 28.9828 463.005 28.7688L463.405 28.0794C464.02 28.4361 464.398 29.0937 464.397 29.8048L463.601 29.804ZM364.997 28.7693C364.627 28.9826 364.398 29.3775 364.398 29.8051H363.602C363.602 29.0925 363.982 28.4342 364.6 28.0787L364.997 28.7693ZM415.373 192.345L365.997 220.769L365.6 220.079L414.976 191.654L415.373 192.345ZM365.398 221.805V278.652H364.602V221.805H365.398ZM464.542 278.652L464.601 221.804L465.397 221.805L465.339 278.653L464.542 278.652ZM464.005 220.769L414.975 192.344L415.374 191.655L464.405 220.079L464.005 220.769ZM415.771 306.73L464.741 278.308L465.141 278.997L416.171 307.419L415.771 306.73ZM365.199 278.307L414.575 306.732L414.177 307.423L364.801 278.998L365.199 278.307ZM416.171 307.419C415.555 307.777 414.795 307.778 414.177 307.423L414.575 306.732C414.945 306.946 415.402 306.945 415.771 306.73L416.171 307.419ZM464.601 221.804C464.601 221.377 464.374 220.983 464.005 220.769L464.405 220.079C465.02 220.436 465.398 221.094 465.397 221.805L464.601 221.804ZM365.997 220.769C365.627 220.983 365.398 221.378 365.398 221.805H364.602C364.602 221.093 364.982 220.434 365.6 220.079L365.997 220.769ZM468.373 96.3445L418.997 124.769L418.6 124.079L467.976 95.654L468.373 96.3445ZM418.398 125.805V182.652H417.602V125.805H418.398ZM517.542 182.652L517.601 125.804L518.397 125.805L518.339 182.653L517.542 182.652ZM517.005 124.769L467.975 96.3439L468.374 95.6546L517.405 124.079L517.005 124.769ZM468.771 210.73L517.741 182.308L518.141 182.997L469.171 211.419L468.771 210.73ZM418.199 182.307L467.575 210.732L467.177 211.423L417.801 182.998L418.199 182.307ZM469.171 211.419C468.555 211.777 467.795 211.778 467.177 211.423L467.575 210.732C467.945 210.946 468.402 210.945 468.771 210.73L469.171 211.419ZM517.601 125.804C517.601 125.377 517.374 124.983 517.005 124.769L517.405 124.079C518.02 124.436 518.398 125.094 518.397 125.805L517.601 125.804ZM418.997 124.769C418.627 124.983 418.398 125.378 418.398 125.805H417.602C417.602 125.093 417.982 124.434 418.6 124.079L418.997 124.769ZM521.373 0.344543L471.997 28.7693L471.6 28.0787L520.976 -0.346008L521.373 0.344543ZM471.398 29.8051V86.6525H470.602V29.8051H471.398ZM570.542 86.6523L570.601 29.804L571.397 29.8048L571.339 86.6531L570.542 86.6523ZM570.005 28.7688L520.975 0.343933L521.374 -0.345398L570.405 28.0794L570.005 28.7688ZM521.771 114.73L570.741 86.3081L571.141 86.9973L522.171 115.419L521.771 114.73ZM471.199 86.3072L520.575 114.732L520.177 115.423L470.801 86.9978L471.199 86.3072ZM522.171 115.419C521.555 115.777 520.795 115.778 520.177 115.423L520.575 114.732C520.945 114.946 521.402 114.945 521.771 114.73L522.171 115.419ZM570.601 29.804C570.601 29.3773 570.374 28.9828 570.005 28.7688L570.405 28.0794C571.02 28.4361 571.398 29.0937 571.397 29.8048L570.601 29.804ZM471.997 28.7693C471.627 28.9826 471.398 29.3775 471.398 29.8051H470.602C470.602 29.0925 470.982 28.4342 471.6 28.0787L471.997 28.7693ZM522.373 192.345L472.997 220.769L472.6 220.079L521.976 191.654L522.373 192.345ZM472.398 221.805V278.652H471.602V221.805H472.398ZM571.542 278.652L571.601 221.804L572.397 221.805L572.339 278.653L571.542 278.652ZM571.005 220.769L521.975 192.344L522.374 191.655L571.405 220.079L571.005 220.769ZM522.771 306.73L571.741 278.308L572.141 278.997L523.171 307.419L522.771 306.73ZM472.199 278.307L521.575 306.732L521.177 307.423L471.801 278.998L472.199 278.307ZM523.171 307.419C522.555 307.777 521.795 307.778 521.177 307.423L521.575 306.732C521.945 306.946 522.402 306.945 522.771 306.73L523.171 307.419ZM571.601 221.804C571.601 221.377 571.374 220.983 571.005 220.769L571.405 220.079C572.02 220.436 572.398 221.094 572.397 221.805L571.601 221.804ZM472.997 220.769C472.627 220.983 472.398 221.378 472.398 221.805H471.602C471.602 221.093 471.982 220.434 472.6 220.079L472.997 220.769ZM575.373 96.3445L525.997 124.769L525.6 124.079L574.976 95.654L575.373 96.3445ZM525.398 125.805V182.652H524.602V125.805H525.398ZM624.542 182.652L624.601 125.804L625.397 125.805L625.339 182.653L624.542 182.652ZM624.005 124.769L574.975 96.3439L575.374 95.6546L624.405 124.079L624.005 124.769ZM575.771 210.73L624.741 182.308L625.141 182.997L576.171 211.419L575.771 210.73ZM525.199 182.307L574.575 210.732L574.177 211.423L524.801 182.998L525.199 182.307ZM576.171 211.419C575.555 211.777 574.795 211.778 574.177 211.423L574.575 210.732C574.945 210.946 575.402 210.945 575.771 210.73L576.171 211.419ZM624.601 125.804C624.601 125.377 624.374 124.983 624.005 124.769L624.405 124.079C625.02 124.436 625.398 125.094 625.397 125.805L624.601 125.804ZM525.997 124.769C525.627 124.983 525.398 125.378 525.398 125.805H524.602C524.602 125.093 524.982 124.434 525.6 124.079L525.997 124.769ZM628.373 0.344543L578.997 28.7693L578.6 28.0787L627.976 -0.346008L628.373 0.344543ZM578.398 29.8051V86.6525H577.602V29.8051H578.398ZM677.542 86.6523L677.601 29.804L678.397 29.8048L678.339 86.6531L677.542 86.6523ZM677.005 28.7688L627.975 0.343933L628.374 -0.345398L677.405 28.0794L677.005 28.7688ZM628.771 114.73L677.741 86.3081L678.141 86.9973L629.171 115.419L628.771 114.73ZM578.199 86.3072L627.575 114.732L627.177 115.423L577.801 86.9978L578.199 86.3072ZM629.171 115.419C628.555 115.777 627.795 115.778 627.177 115.423L627.575 114.732C627.945 114.946 628.402 114.945 628.771 114.73L629.171 115.419ZM677.601 29.804C677.601 29.3773 677.374 28.9828 677.005 28.7688L677.405 28.0794C678.02 28.4361 678.398 29.0937 678.397 29.8048L677.601 29.804ZM578.997 28.7693C578.627 28.9826 578.398 29.3775 578.398 29.8051H577.602C577.602 29.0925 577.982 28.4342 578.6 28.0787L578.997 28.7693ZM629.373 192.345L579.997 220.769L579.6 220.079L628.976 191.654L629.373 192.345ZM579.398 221.805V278.652H578.602V221.805H579.398ZM678.542 278.652L678.601 221.804L679.397 221.805L679.339 278.653L678.542 278.652ZM678.005 220.769L628.975 192.344L629.374 191.655L678.405 220.079L678.005 220.769ZM629.771 306.73L678.741 278.308L679.141 278.997L630.171 307.419L629.771 306.73ZM579.199 278.307L628.575 306.732L628.177 307.423L578.801 278.998L579.199 278.307ZM630.171 307.419C629.555 307.777 628.795 307.778 628.177 307.423L628.575 306.732C628.945 306.946 629.402 306.945 629.771 306.73L630.171 307.419ZM678.601 221.804C678.601 221.377 678.374 220.983 678.005 220.769L678.405 220.079C679.02 220.436 679.398 221.094 679.397 221.805L678.601 221.804ZM579.997 220.769C579.627 220.983 579.398 221.378 579.398 221.805H578.602C578.602 221.093 578.982 220.434 579.6 220.079L579.997 220.769ZM682.373 96.3445L632.997 124.769L632.6 124.079L681.976 95.654L682.373 96.3445ZM632.398 125.805V182.652H631.602V125.805H632.398ZM731.542 182.652L731.601 125.804L732.397 125.805L732.339 182.653L731.542 182.652ZM731.005 124.769L681.975 96.3439L682.374 95.6546L731.405 124.079L731.005 124.769ZM682.771 210.73L731.741 182.308L732.141 182.997L683.171 211.419L682.771 210.73ZM632.199 182.307L681.575 210.732L681.177 211.423L631.801 182.998L632.199 182.307ZM683.171 211.419C682.555 211.777 681.795 211.778 681.177 211.423L681.575 210.732C681.945 210.946 682.402 210.945 682.771 210.73L683.171 211.419ZM731.601 125.804C731.601 125.377 731.374 124.983 731.005 124.769L731.405 124.079C732.02 124.436 732.398 125.094 732.397 125.805L731.601 125.804ZM632.997 124.769C632.627 124.983 632.398 125.378 632.398 125.805H631.602C631.602 125.093 631.982 124.434 632.6 124.079L632.997 124.769ZM735.373 0.344543L685.997 28.7693L685.6 28.0787L734.976 -0.346008L735.373 0.344543ZM685.398 29.8051V86.6525H684.602V29.8051H685.398ZM784.542 86.6523L784.601 29.804L785.397 29.8048L785.339 86.6531L784.542 86.6523ZM784.005 28.7688L734.975 0.343933L735.374 -0.345398L784.405 28.0794L784.005 28.7688ZM735.771 114.73L784.741 86.3081L785.141 86.9973L736.171 115.419L735.771 114.73ZM685.199 86.3072L734.575 114.732L734.177 115.423L684.801 86.9978L685.199 86.3072ZM736.171 115.419C735.555 115.777 734.795 115.778 734.177 115.423L734.575 114.732C734.945 114.946 735.402 114.945 735.771 114.73L736.171 115.419ZM784.601 29.804C784.601 29.3773 784.374 28.9828 784.005 28.7688L784.405 28.0794C785.02 28.4361 785.398 29.0937 785.397 29.8048L784.601 29.804ZM685.997 28.7693C685.627 28.9826 685.398 29.3775 685.398 29.8051H684.602C684.602 29.0925 684.982 28.4342 685.6 28.0787L685.997 28.7693Z" fill="url(#paint0_linear_276_14475)" mask="url(#path-1-inside-1_276_14475)"/>
<defs>
<linearGradient id="paint0_linear_276_14475" x1="713.5" y1="59.29" x2="714.5" y2="307.29" gradientUnits="userSpaceOnUse">
<stop stop-color="white" stop-opacity="0.4"/>
<stop offset="1" stop-color="white" stop-opacity="0"/>
</linearGradient>
</defs>
</svg>
