<svg width="64" height="64" viewBox="0 0 64 64" fill="none" xmlns="http://www.w3.org/2000/svg">
<path d="M29.4498 36.5476C30.3878 41.7986 26.3558 46.6756 19.6038 46.6756C12.8518 46.6756 9.19481 37.7666 10.4138 30.0756C11.5438 22.9436 19.2878 18.4756 24.8948 17.4886C25.0462 17.4621 25.2016 17.4709 25.3491 17.5142C25.4965 17.5576 25.632 17.6343 25.7449 17.7385C25.8579 17.8426 25.9454 17.9714 26.0005 18.1149C26.0556 18.2583 26.0769 18.4126 26.0628 18.5656L25.8628 20.9316C25.8482 21.146 25.7632 21.3496 25.6211 21.5109C25.479 21.6722 25.2877 21.7821 25.0768 21.8236C19.0318 22.8486 15.4348 31.9086 19.1358 30.8236C22.9798 29.6996 28.5118 31.2996 29.4498 36.5476ZM53.6858 36.5476C52.7478 31.2966 47.2148 29.7026 43.3698 30.8276C39.6698 31.9106 43.2698 22.8506 49.3108 21.8276C49.5218 21.7862 49.7132 21.6764 49.8553 21.5151C49.9974 21.3538 50.0823 21.1501 50.0968 20.9356L50.2968 18.5696C50.3109 18.4166 50.2896 18.2623 50.2345 18.1189C50.1793 17.9754 50.0919 17.8466 49.9789 17.7425C49.866 17.6383 49.7305 17.5616 49.5831 17.5182C49.4356 17.4749 49.2802 17.4661 49.1288 17.4926C43.5228 18.4786 35.7788 22.9476 34.6478 30.0796C33.4288 37.7686 37.0858 46.6796 43.8378 46.6796C50.5898 46.6796 54.6228 41.7996 53.6858 36.5476Z" fill="#454545"/>
</svg>
