<svg width="18" height="17" viewBox="0 0 18 17" fill="none" xmlns="http://www.w3.org/2000/svg">
<path d="M16.9758 7.946C16.9097 7.77552 16.8106 7.61976 16.6842 7.48767L9.73973 0.543226C9.61023 0.413728 9.4565 0.311005 9.2873 0.240922C9.1181 0.170838 8.93676 0.134766 8.75362 0.134766C8.38376 0.134766 8.02904 0.281693 7.76751 0.543226C7.63801 0.672724 7.53529 0.826461 7.4652 0.995658C7.39512 1.16486 7.35905 1.3462 7.35905 1.52934C7.35905 1.8992 7.50598 2.25392 7.76751 2.51545L12.3508 7.08489H1.80918C1.44082 7.08489 1.08755 7.23122 0.827084 7.49169C0.566617 7.75216 0.420288 8.10543 0.420288 8.47378C0.420288 8.84214 0.566617 9.19541 0.827084 9.45587C1.08755 9.71634 1.44082 9.86267 1.80918 9.86267H12.3508L7.76751 14.4321C7.63733 14.5612 7.53401 14.7148 7.46349 14.8841C7.39298 15.0533 7.35668 15.2349 7.35668 15.4182C7.35668 15.6016 7.39298 15.7831 7.46349 15.9524C7.53401 16.1216 7.63733 16.2752 7.76751 16.4043C7.89662 16.5345 8.05024 16.6378 8.21949 16.7084C8.38873 16.7789 8.57027 16.8152 8.75362 16.8152C8.93697 16.8152 9.11851 16.7789 9.28776 16.7084C9.457 16.6378 9.61062 16.5345 9.73973 16.4043L16.6842 9.45989C16.8106 9.32781 16.9097 9.17205 16.9758 9.00156C17.1148 8.66342 17.1148 8.28415 16.9758 7.946Z" fill="#05041F"/>
</svg>
