<svg width="40" height="40" viewBox="0 0 40 40" fill="none" xmlns="http://www.w3.org/2000/svg">
<circle cx="19.9988" cy="20" r="20" fill="#999999" fill-opacity="0.2"/>
<path d="M28.3332 14.8335C27.7068 15.1053 27.0444 15.2849 26.3665 15.3668C27.0816 14.9396 27.6176 14.2675 27.8748 13.4752C27.2028 13.8752 26.4671 14.1571 25.6998 14.3085C25.187 13.7523 24.504 13.3821 23.758 13.2559C23.012 13.1297 22.2453 13.2546 21.578 13.6112C20.9107 13.9677 20.3806 14.5356 20.0709 15.2259C19.7611 15.9161 19.6892 16.6897 19.8665 17.4252C18.5077 17.3564 17.1785 17.0026 15.9654 16.3867C14.7522 15.7708 13.6822 14.9066 12.8248 13.8502C12.5241 14.3753 12.3661 14.97 12.3665 15.5752C12.3654 16.1372 12.5034 16.6907 12.768 17.1865C13.0326 17.6823 13.4157 18.1049 13.8832 18.4168C13.3398 18.4021 12.8081 18.2563 12.3332 17.9918V18.0335C12.3372 18.8209 12.6132 19.5828 13.1143 20.1901C13.6154 20.7975 14.3109 21.2132 15.0832 21.3668C14.7859 21.4573 14.4772 21.505 14.1665 21.5085C13.9514 21.506 13.7369 21.4865 13.5248 21.4502C13.7448 22.1275 14.1704 22.7195 14.7424 23.1436C15.3144 23.5678 16.0045 23.8031 16.7165 23.8168C15.5142 24.7629 14.0297 25.2792 12.4998 25.2835C12.2213 25.2844 11.943 25.2677 11.6665 25.2335C13.2285 26.2421 15.0488 26.7774 16.9082 26.7752C18.1912 26.7885 19.4641 26.546 20.6524 26.0619C21.8408 25.5778 22.9207 24.8617 23.8292 23.9556C24.7377 23.0494 25.4565 21.9713 25.9436 20.7843C26.4308 19.5972 26.6765 18.3249 26.6665 17.0418C26.6665 16.9002 26.6665 16.7502 26.6665 16.6002C27.3204 16.1125 27.8844 15.5147 28.3332 14.8335Z" fill="white"/>
</svg>
