<svg width="201" height="200" viewBox="0 0 201 200" fill="none" xmlns="http://www.w3.org/2000/svg">
<path d="M64.0619 161.697C64.661 161.697 65.1467 161.411 65.1467 161.059C65.1467 160.707 64.661 160.421 64.0619 160.421C63.4627 160.421 62.9771 160.707 62.9771 161.059C62.9771 161.411 63.4627 161.697 64.0619 161.697Z" fill="#16110D"/>
<path d="M68.0972 159.369C68.6963 159.369 69.182 159.083 69.182 158.73C69.182 158.378 68.6963 158.092 68.0972 158.092C67.498 158.092 67.0123 158.378 67.0123 158.73C67.0123 159.083 67.498 159.369 68.0972 159.369Z" fill="#16110D"/>
<path d="M72.1324 157.039C72.7316 157.039 73.2173 156.754 73.2173 156.401C73.2173 156.049 72.7316 155.763 72.1324 155.763C71.5333 155.763 71.0476 156.049 71.0476 156.401C71.0476 156.754 71.5333 157.039 72.1324 157.039Z" fill="#16110D"/>
<path d="M76.9529 153.626C77.0432 153.661 77.1209 153.722 77.1756 153.802C77.2304 153.881 77.2597 153.976 77.2597 154.073C77.2597 154.169 77.2304 154.264 77.1756 154.343C77.1209 154.423 77.0432 154.485 76.9529 154.519C76.7059 154.645 76.4326 154.711 76.1553 154.711C75.878 154.711 75.6046 154.645 75.3576 154.519C74.9269 154.264 74.9269 153.865 75.3576 153.626C75.6046 153.5 75.878 153.434 76.1553 153.434C76.4326 153.434 76.7059 153.5 76.9529 153.626Z" fill="#16110D"/>
<path d="M80.9919 151.295C81.0822 151.33 81.1598 151.391 81.2146 151.471C81.2693 151.551 81.2987 151.645 81.2987 151.742C81.2987 151.839 81.2693 151.933 81.2146 152.013C81.1598 152.093 81.0822 152.154 80.9919 152.189C80.7449 152.315 80.4715 152.38 80.1942 152.38C79.9169 152.38 79.6435 152.315 79.3965 152.189C78.9658 151.933 78.9658 151.535 79.3965 151.295C79.6391 151.155 79.9142 151.082 80.1942 151.082C80.4743 151.082 80.7494 151.155 80.9919 151.295Z" fill="#16110D"/>
<path d="M60.7937 158.284C61.2245 158.539 61.2245 158.938 60.7937 159.177C60.5512 159.317 60.2761 159.391 59.9961 159.391C59.716 159.391 59.4409 159.317 59.1984 159.177C59.1081 159.143 59.0304 159.081 58.9757 159.002C58.9209 158.922 58.8916 158.827 58.8916 158.731C58.8916 158.634 58.9209 158.54 58.9757 158.46C59.0304 158.38 59.1081 158.319 59.1984 158.284C59.4454 158.158 59.7187 158.092 59.9961 158.092C60.2734 158.092 60.5467 158.158 60.7937 158.284Z" fill="#16110D"/>
<path d="M64.829 155.955C65.2597 156.21 65.2597 156.609 64.829 156.848C64.582 156.974 64.3086 157.04 64.0313 157.04C63.754 157.04 63.4807 156.974 63.2337 156.848C63.1434 156.814 63.0657 156.752 63.011 156.673C62.9562 156.593 62.9269 156.498 62.9269 156.402C62.9269 156.305 62.9562 156.21 63.011 156.131C63.0657 156.051 63.1434 155.99 63.2337 155.955C63.4807 155.829 63.754 155.763 64.0313 155.763C64.3086 155.763 64.582 155.829 64.829 155.955Z" fill="#16110D"/>
<path d="M68.8679 153.626C69.2987 153.865 69.2987 154.264 68.8679 154.519C68.6209 154.645 68.3476 154.711 68.0703 154.711C67.793 154.711 67.5196 154.645 67.2726 154.519C67.1823 154.485 67.1047 154.423 67.0499 154.343C66.9951 154.264 66.9658 154.169 66.9658 154.073C66.9658 153.976 66.9951 153.881 67.0499 153.802C67.1047 153.722 67.1823 153.661 67.2726 153.626C67.5196 153.5 67.793 153.434 68.0703 153.434C68.3476 153.434 68.6209 153.5 68.8679 153.626Z" fill="#16110D"/>
<path d="M72.9011 151.295C73.3318 151.534 73.3318 151.933 72.9011 152.188C72.6548 152.317 72.3812 152.384 72.1034 152.384C71.8256 152.384 71.5519 152.317 71.3057 152.188C70.875 151.933 70.875 151.534 71.3057 151.295C71.5482 151.155 71.8234 151.081 72.1034 151.081C72.3834 151.081 72.6585 151.155 72.9011 151.295Z" fill="#16110D"/>
<path d="M76.1695 150.052C76.7687 150.052 77.2544 149.766 77.2544 149.414C77.2544 149.062 76.7687 148.776 76.1695 148.776C75.5704 148.776 75.0847 149.062 75.0847 149.414C75.0847 149.766 75.5704 150.052 76.1695 150.052Z" fill="#16110D"/>
<path d="M55.9895 157.039C56.5886 157.039 57.0743 156.754 57.0743 156.401C57.0743 156.049 56.5886 155.763 55.9895 155.763C55.3903 155.763 54.9047 156.049 54.9047 156.401C54.9047 156.754 55.3903 157.039 55.9895 157.039Z" fill="#16110D"/>
<path d="M60.0248 154.71C60.6239 154.71 61.1096 154.425 61.1096 154.072C61.1096 153.72 60.6239 153.434 60.0248 153.434C59.4256 153.434 58.9399 153.72 58.9399 154.072C58.9399 154.425 59.4256 154.71 60.0248 154.71Z" fill="#16110D"/>
<path d="M64.0619 152.381C64.661 152.381 65.1467 152.096 65.1467 151.743C65.1467 151.391 64.661 151.105 64.0619 151.105C63.4627 151.105 62.9771 151.391 62.9771 151.743C62.9771 152.096 63.4627 152.381 64.0619 152.381Z" fill="#16110D"/>
<path d="M68.0972 150.052C68.6963 150.052 69.182 149.766 69.182 149.414C69.182 149.062 68.6963 148.776 68.0972 148.776C67.498 148.776 67.0123 149.062 67.0123 149.414C67.0123 149.766 67.498 150.052 68.0972 150.052Z" fill="#16110D"/>
<path d="M72.9011 146.637C73.3318 146.876 73.3318 147.275 72.9011 147.53C72.6548 147.659 72.3812 147.726 72.1034 147.726C71.8256 147.726 71.5519 147.659 71.3057 147.53C70.875 147.275 70.875 146.876 71.3057 146.637C71.5482 146.497 71.8234 146.423 72.1034 146.423C72.3834 146.423 72.6585 146.497 72.9011 146.637Z" fill="#16110D"/>
<path d="M52.7191 153.626C53.1498 153.865 53.1498 154.264 52.7191 154.519C52.4721 154.645 52.1987 154.711 51.9214 154.711C51.6441 154.711 51.3707 154.645 51.1237 154.519C50.693 154.264 50.693 153.865 51.1237 153.626C51.3707 153.5 51.6441 153.434 51.9214 153.434C52.1987 153.434 52.4721 153.5 52.7191 153.626Z" fill="#16110D"/>
<path d="M56.7562 151.295C57.1869 151.535 57.1869 151.933 56.7562 152.189C56.5092 152.315 56.2358 152.38 55.9585 152.38C55.6812 152.38 55.4078 152.315 55.1608 152.189C54.7301 151.933 54.7301 151.535 55.1608 151.295C55.4033 151.155 55.6785 151.082 55.9585 151.082C56.2385 151.082 56.5136 151.155 56.7562 151.295Z" fill="#16110D"/>
<path d="M60.7937 148.966C61.2245 149.205 61.2245 149.604 60.7937 149.86C60.5467 149.986 60.2734 150.051 59.9961 150.051C59.7187 150.051 59.4454 149.986 59.1984 149.86C59.1081 149.825 59.0304 149.764 58.9757 149.684C58.9209 149.604 58.8916 149.51 58.8916 149.413C58.8916 149.316 58.9209 149.222 58.9757 149.142C59.0304 149.062 59.1081 149.001 59.1984 148.966C59.4409 148.826 59.716 148.752 59.9961 148.752C60.2761 148.752 60.5512 148.826 60.7937 148.966Z" fill="#16110D"/>
<path d="M64.829 146.637C65.2597 146.876 65.2597 147.275 64.829 147.53C64.582 147.656 64.3086 147.722 64.0313 147.722C63.754 147.722 63.4807 147.656 63.2337 147.53C63.1434 147.495 63.0657 147.434 63.011 147.354C62.9562 147.274 62.9269 147.18 62.9269 147.083C62.9269 146.987 62.9562 146.892 63.011 146.812C63.0657 146.733 63.1434 146.671 63.2337 146.637C63.4762 146.497 63.7513 146.423 64.0313 146.423C64.3114 146.423 64.5865 146.497 64.829 146.637Z" fill="#16110D"/>
<path d="M68.0972 145.376C68.6963 145.376 69.182 145.091 69.182 144.738C69.182 144.386 68.6963 144.1 68.0972 144.1C67.498 144.1 67.0123 144.386 67.0123 144.738C67.0123 145.091 67.498 145.376 68.0972 145.376Z" fill="#16110D"/>
<path d="M47.904 152.381C48.5032 152.381 48.9889 152.096 48.9889 151.743C48.9889 151.391 48.5032 151.105 47.904 151.105C47.3049 151.105 46.8192 151.391 46.8192 151.743C46.8192 152.096 47.3049 152.381 47.904 152.381Z" fill="#16110D"/>
<path d="M52.7191 148.966C53.1498 149.205 53.1498 149.604 52.7191 149.86C52.4721 149.986 52.1987 150.051 51.9214 150.051C51.6441 150.051 51.3707 149.986 51.1237 149.86C50.693 149.604 50.693 149.205 51.1237 148.966C51.3662 148.826 51.6413 148.752 51.9214 148.752C52.2014 148.752 52.4765 148.826 52.7191 148.966Z" fill="#16110D"/>
<path d="M56.7562 146.637C57.1869 146.876 57.1869 147.275 56.7562 147.53C56.5092 147.656 56.2358 147.722 55.9585 147.722C55.6812 147.722 55.4078 147.656 55.1608 147.53C54.7301 147.275 54.7301 146.876 55.1608 146.637C55.4033 146.497 55.6785 146.423 55.9585 146.423C56.2385 146.423 56.5136 146.497 56.7562 146.637Z" fill="#16110D"/>
<path d="M60.0248 145.376C60.6239 145.376 61.1096 145.091 61.1096 144.738C61.1096 144.386 60.6239 144.1 60.0248 144.1C59.4256 144.1 58.9399 144.386 58.9399 144.738C58.9399 145.091 59.4256 145.376 60.0248 145.376Z" fill="#16110D"/>
<path d="M64.0619 143.048C64.661 143.048 65.1467 142.762 65.1467 142.41C65.1467 142.057 64.661 141.771 64.0619 141.771C63.4627 141.771 62.9771 142.057 62.9771 142.41C62.9771 142.762 63.4627 143.048 64.0619 143.048Z" fill="#16110D"/>
<path d="M43.8335 150.019C44.4326 150.019 44.9183 149.733 44.9183 149.381C44.9183 149.028 44.4326 148.743 43.8335 148.743C43.2344 148.743 42.7487 149.028 42.7487 149.381C42.7487 149.733 43.2344 150.019 43.8335 150.019Z" fill="#16110D"/>
<path d="M47.8688 147.69C48.4679 147.69 48.9536 147.405 48.9536 147.052C48.9536 146.7 48.4679 146.414 47.8688 146.414C47.2696 146.414 46.7839 146.7 46.7839 147.052C46.7839 147.405 47.2696 147.69 47.8688 147.69Z" fill="#16110D"/>
<path d="M52.6893 144.277C52.7796 144.311 52.8572 144.373 52.912 144.452C52.9667 144.532 52.9961 144.627 52.9961 144.723C52.9961 144.82 52.9667 144.915 52.912 144.994C52.8572 145.074 52.7796 145.135 52.6893 145.17C52.4423 145.296 52.1689 145.362 51.8916 145.362C51.6143 145.362 51.3409 145.296 51.0939 145.17C50.6632 144.915 50.6632 144.516 51.0939 144.277C51.3409 144.151 51.6143 144.085 51.8916 144.085C52.1689 144.085 52.4423 144.151 52.6893 144.277Z" fill="#16110D"/>
<path d="M55.943 143.032C56.5421 143.032 57.0278 142.746 57.0278 142.393C57.0278 142.041 56.5421 141.755 55.943 141.755C55.3439 141.755 54.8582 142.041 54.8582 142.393C54.8582 142.746 55.3439 143.032 55.943 143.032Z" fill="#16110D"/>
<path d="M60.7598 139.619C61.1906 139.858 61.1906 140.257 60.7598 140.512C60.5128 140.638 60.2395 140.704 59.9622 140.704C59.6849 140.704 59.4115 140.638 59.1645 140.512C58.7337 140.257 58.7337 139.858 59.1645 139.619C59.407 139.478 59.6821 139.405 59.9622 139.405C60.2422 139.405 60.5173 139.478 60.7598 139.619Z" fill="#16110D"/>
<path d="M40.5622 146.605C40.9929 146.86 40.9929 147.259 40.5622 147.498C40.3152 147.624 40.0418 147.69 39.7645 147.69C39.4872 147.69 39.2139 147.624 38.9669 147.498C38.5521 147.259 38.5521 146.86 38.9669 146.605C39.2131 146.476 39.4867 146.409 39.7645 146.409C40.0423 146.409 40.316 146.476 40.5622 146.605Z" fill="#16110D"/>
<path d="M44.6002 144.276C45.0309 144.515 45.0309 144.914 44.6002 145.169C44.3539 145.298 44.0803 145.365 43.8025 145.365C43.5247 145.365 43.251 145.298 43.0048 145.169C42.5741 144.914 42.5741 144.515 43.0048 144.276C43.251 144.147 43.5247 144.08 43.8025 144.08C44.0803 144.08 44.3539 144.147 44.6002 144.276Z" fill="#16110D"/>
<path d="M48.6652 141.948C48.7555 141.982 48.8332 142.044 48.8879 142.123C48.9427 142.203 48.972 142.298 48.972 142.394C48.972 142.491 48.9427 142.586 48.8879 142.665C48.8332 142.745 48.7555 142.806 48.6652 142.841C48.4182 142.967 48.1449 143.033 47.8676 143.033C47.5902 143.033 47.3169 142.967 47.0699 142.841C46.6391 142.586 46.6391 142.187 47.0699 141.948C47.3124 141.808 47.5875 141.734 47.8676 141.734C48.1476 141.734 48.4227 141.808 48.6652 141.948Z" fill="#16110D"/>
<path d="M51.904 140.703C52.5032 140.703 52.9889 140.417 52.9889 140.064C52.9889 139.712 52.5032 139.426 51.904 139.426C51.3049 139.426 50.8192 139.712 50.8192 140.064C50.8192 140.417 51.3049 140.703 51.904 140.703Z" fill="#16110D"/>
<path d="M55.943 138.357C56.5421 138.357 57.0278 138.072 57.0278 137.719C57.0278 137.367 56.5421 137.081 55.943 137.081C55.3439 137.081 54.8582 137.367 54.8582 137.719C54.8582 138.072 55.3439 138.357 55.943 138.357Z" fill="#16110D"/>
<path d="M36.5264 144.277C36.9571 144.516 36.9571 144.915 36.5264 145.17C36.2794 145.296 36.006 145.362 35.7287 145.362C35.4514 145.362 35.178 145.296 34.931 145.17C34.8408 145.135 34.7631 145.074 34.7083 144.994C34.6536 144.915 34.6243 144.82 34.6243 144.723C34.6243 144.627 34.6536 144.532 34.7083 144.452C34.7631 144.373 34.8408 144.311 34.931 144.277C35.178 144.151 35.4514 144.085 35.7287 144.085C36.006 144.085 36.2794 144.151 36.5264 144.277Z" fill="#16110D"/>
<path d="M40.5612 141.947C40.992 142.186 40.992 142.585 40.5612 142.841C40.315 142.969 40.0413 143.036 39.7635 143.036C39.4858 143.036 39.2121 142.969 38.9659 142.841C38.5351 142.585 38.5351 142.186 38.9659 141.947C39.2084 141.807 39.4835 141.733 39.7635 141.733C40.0436 141.733 40.3187 141.807 40.5612 141.947Z" fill="#16110D"/>
<path d="M43.8335 140.703C44.4326 140.703 44.9183 140.417 44.9183 140.064C44.9183 139.712 44.4326 139.426 43.8335 139.426C43.2344 139.426 42.7487 139.712 42.7487 140.064C42.7487 140.417 43.2344 140.703 43.8335 140.703Z" fill="#16110D"/>
<path d="M48.6652 137.289C48.7572 137.32 48.8372 137.379 48.8939 137.458C48.9505 137.537 48.981 137.631 48.981 137.728C48.981 137.825 48.9505 137.92 48.8939 137.998C48.8372 138.077 48.7572 138.136 48.6652 138.167C48.4227 138.307 48.1476 138.381 47.8676 138.381C47.5875 138.381 47.3124 138.307 47.0699 138.167C46.6391 137.928 46.6391 137.529 47.0699 137.289C47.3124 137.149 47.5875 137.076 47.8676 137.076C48.1476 137.076 48.4227 137.149 48.6652 137.289Z" fill="#16110D"/>
<path d="M52.6893 134.975C52.7796 135.01 52.8572 135.071 52.912 135.151C52.9667 135.231 52.9961 135.325 52.9961 135.422C52.9961 135.519 52.9667 135.613 52.912 135.693C52.8572 135.773 52.7796 135.834 52.6893 135.869C52.4468 136.009 52.1716 136.083 51.8916 136.083C51.6116 136.083 51.3365 136.009 51.0939 135.869C50.6632 135.63 50.6632 135.231 51.0939 134.975C51.3409 134.849 51.6143 134.784 51.8916 134.784C52.1689 134.784 52.4423 134.849 52.6893 134.975C53.1041 135.199 52.2585 134.704 52.6893 134.975Z" fill="#16110D"/>
<path d="M32.4929 141.947C32.9237 142.186 32.9237 142.585 32.4929 142.841C32.2459 142.967 31.9726 143.032 31.6953 143.032C31.418 143.032 31.1446 142.967 30.8976 142.841C30.8073 142.806 30.7297 142.745 30.6749 142.665C30.6201 142.585 30.5908 142.491 30.5908 142.394C30.5908 142.297 30.6201 142.203 30.6749 142.123C30.7297 142.043 30.8073 141.982 30.8976 141.947C31.1401 141.807 31.4152 141.733 31.6953 141.733C31.9753 141.733 32.2504 141.807 32.4929 141.947Z" fill="#16110D"/>
<path d="M36.5264 139.618C36.9571 139.857 36.9571 140.256 36.5264 140.511C36.2794 140.637 36.006 140.703 35.7287 140.703C35.4514 140.703 35.178 140.637 34.931 140.511C34.8408 140.477 34.7631 140.415 34.7083 140.336C34.6536 140.256 34.6243 140.161 34.6243 140.065C34.6243 139.968 34.6536 139.874 34.7083 139.794C34.7631 139.714 34.8408 139.653 34.931 139.618C35.1736 139.478 35.4487 139.404 35.7287 139.404C36.0088 139.404 36.2839 139.478 36.5264 139.618Z" fill="#16110D"/>
<path d="M39.7964 138.357C40.3955 138.357 40.8812 138.072 40.8812 137.719C40.8812 137.367 40.3955 137.081 39.7964 137.081C39.1972 137.081 38.7115 137.367 38.7115 137.719C38.7115 138.072 39.1972 138.357 39.7964 138.357Z" fill="#16110D"/>
<path d="M43.8335 136.029C44.4326 136.029 44.9183 135.743 44.9183 135.391C44.9183 135.038 44.4326 134.752 43.8335 134.752C43.2344 134.752 42.7487 135.038 42.7487 135.391C42.7487 135.743 43.2344 136.029 43.8335 136.029Z" fill="#16110D"/>
<path d="M28.4536 139.619C28.8843 139.858 28.8843 140.257 28.4536 140.512C28.2066 140.638 27.9332 140.704 27.6559 140.704C27.3786 140.704 27.1052 140.638 26.8582 140.512C26.4275 140.257 26.4275 139.858 26.8582 139.619C27.1007 139.478 27.3758 139.405 27.6559 139.405C27.9359 139.405 28.211 139.478 28.4536 139.619Z" fill="#16110D"/>
<path d="M32.4906 137.289C32.9213 137.528 32.9213 137.927 32.4906 138.166C32.2481 138.306 31.973 138.38 31.6929 138.38C31.4129 138.38 31.1378 138.306 30.8953 138.166C30.8033 138.136 30.7233 138.077 30.6666 137.998C30.61 137.919 30.5795 137.825 30.5795 137.728C30.5795 137.631 30.61 137.536 30.6666 137.457C30.7233 137.379 30.8033 137.32 30.8953 137.289C31.1378 137.149 31.4129 137.075 31.6929 137.075C31.973 137.075 32.2481 137.149 32.4906 137.289Z" fill="#16110D"/>
<path d="M36.5264 134.976C36.9571 135.231 36.9571 135.63 36.5264 135.869C36.2839 136.009 36.0088 136.083 35.7287 136.083C35.4487 136.083 35.1736 136.009 34.931 135.869C34.8408 135.835 34.7631 135.773 34.7083 135.694C34.6536 135.614 34.6243 135.519 34.6243 135.423C34.6243 135.326 34.6536 135.231 34.7083 135.152C34.7631 135.072 34.8408 135.011 34.931 134.976C35.178 134.85 35.4514 134.784 35.7287 134.784C36.006 134.784 36.2794 134.85 36.5264 134.976Z" fill="#16110D"/>
<path d="M40.5612 132.615C40.992 132.87 40.992 133.269 40.5612 133.508C40.3187 133.648 40.0436 133.722 39.7635 133.722C39.4835 133.722 39.2084 133.648 38.9659 133.508C38.5351 133.269 38.5351 132.87 38.9659 132.615C39.2121 132.486 39.4858 132.419 39.7635 132.419C40.0413 132.419 40.315 132.486 40.5612 132.615Z" fill="#16110D"/>
<path d="M24.4184 137.289C24.8491 137.528 24.8491 137.927 24.4184 138.166C24.1759 138.306 23.9008 138.38 23.6207 138.38C23.3407 138.38 23.0656 138.306 22.8231 138.166C22.3923 137.927 22.3923 137.528 22.8231 137.289C23.0656 137.149 23.3407 137.075 23.6207 137.075C23.9008 137.075 24.1759 137.149 24.4184 137.289Z" fill="#16110D"/>
<path d="M28.4536 134.975C28.8843 135.23 28.8843 135.629 28.4536 135.868C28.211 136.008 27.9359 136.082 27.6559 136.082C27.3758 136.082 27.1007 136.008 26.8582 135.868C26.4275 135.629 26.4275 135.23 26.8582 134.975C27.1052 134.849 27.3786 134.783 27.6559 134.783C27.9332 134.783 28.2066 134.849 28.4536 134.975Z" fill="#16110D"/>
<path d="M31.7222 133.7C32.3213 133.7 32.807 133.414 32.807 133.061C32.807 132.709 32.3213 132.423 31.7222 132.423C31.123 132.423 30.6373 132.709 30.6373 133.061C30.6373 133.414 31.123 133.7 31.7222 133.7Z" fill="#16110D"/>
<path d="M36.5264 130.284C36.9571 130.539 36.9571 130.938 36.5264 131.177C36.2794 131.303 36.006 131.369 35.7287 131.369C35.4514 131.369 35.178 131.303 34.931 131.177C34.8408 131.143 34.7631 131.081 34.7083 131.002C34.6536 130.922 34.6243 130.827 34.6243 130.731C34.6243 130.634 34.6536 130.54 34.7083 130.46C34.7631 130.38 34.8408 130.319 34.931 130.284C35.178 130.158 35.4514 130.092 35.7287 130.092C36.006 130.092 36.2794 130.158 36.5264 130.284Z" fill="#16110D"/>
<path d="M24.4184 132.615C24.8491 132.87 24.8491 133.269 24.4184 133.508C24.1759 133.648 23.9008 133.722 23.6207 133.722C23.3407 133.722 23.0656 133.648 22.8231 133.508C22.3923 133.269 22.3923 132.87 22.8231 132.615C23.0701 132.489 23.3434 132.423 23.6207 132.423C23.898 132.423 24.1714 132.489 24.4184 132.615Z" fill="#16110D"/>
<path d="M28.4536 130.285C28.8843 130.54 28.8843 130.939 28.4536 131.178C28.2066 131.304 27.9332 131.37 27.6559 131.37C27.3786 131.37 27.1052 131.304 26.8582 131.178C26.4275 130.939 26.4275 130.54 26.8582 130.285C27.1052 130.159 27.3786 130.093 27.6559 130.093C27.9332 130.093 28.2066 130.159 28.4536 130.285Z" fill="#16110D"/>
<path d="M32.4929 127.956C32.9237 128.195 32.9237 128.594 32.4929 128.849C32.2459 128.975 31.9726 129.041 31.6953 129.041C31.418 129.041 31.1446 128.975 30.8976 128.849C30.8073 128.815 30.7297 128.753 30.6749 128.674C30.6201 128.594 30.5908 128.499 30.5908 128.403C30.5908 128.306 30.6201 128.211 30.6749 128.132C30.7297 128.052 30.8073 127.991 30.8976 127.956C31.1446 127.83 31.418 127.764 31.6953 127.764C31.9726 127.764 32.2459 127.83 32.4929 127.956Z" fill="#16110D"/>
<path d="M23.6385 129.042C24.2377 129.042 24.7234 128.756 24.7234 128.404C24.7234 128.051 24.2377 127.766 23.6385 127.766C23.0394 127.766 22.5537 128.051 22.5537 128.404C22.5537 128.756 23.0394 129.042 23.6385 129.042Z" fill="#16110D"/>
<path d="M93.3379 171.923C93.7687 172.178 93.7687 172.577 93.3379 172.817C93.0954 172.957 92.8203 173.03 92.5402 173.03C92.2602 173.03 91.9851 172.957 91.7426 172.817C91.6523 172.782 91.5746 172.721 91.5199 172.641C91.4651 172.561 91.4358 172.467 91.4358 172.37C91.4358 172.273 91.4651 172.179 91.5199 172.099C91.5746 172.019 91.6523 171.958 91.7426 171.923C91.9896 171.797 92.2629 171.731 92.5402 171.731C92.8176 171.731 93.0909 171.797 93.3379 171.923Z" fill="#16110D"/>
<path d="M97.3249 169.595C97.7556 169.85 97.7556 170.249 97.3249 170.488C97.0778 170.615 96.8045 170.68 96.5272 170.68C96.2499 170.68 95.9765 170.615 95.7295 170.488C95.6392 170.454 95.5616 170.392 95.5068 170.313C95.452 170.233 95.4227 170.139 95.4227 170.042C95.4227 169.945 95.452 169.851 95.5068 169.771C95.5616 169.691 95.6392 169.63 95.7295 169.595C95.9765 169.469 96.2499 169.403 96.5272 169.403C96.8045 169.403 97.0778 169.469 97.3249 169.595Z" fill="#16110D"/>
<path d="M101.311 167.264C101.742 167.503 101.742 167.902 101.311 168.157C101.065 168.286 100.792 168.353 100.514 168.353C100.236 168.353 99.9623 168.286 99.7161 168.157C99.2854 167.902 99.2854 167.503 99.7161 167.264C99.9623 167.135 100.236 167.068 100.514 167.068C100.792 167.068 101.065 167.135 101.311 167.264Z" fill="#16110D"/>
<path d="M105.399 164.937C105.829 165.176 105.829 165.575 105.399 165.83C105.152 165.959 104.879 166.026 104.601 166.026C104.323 166.026 104.05 165.959 103.803 165.83C103.373 165.575 103.373 165.176 103.803 164.937C104.046 164.797 104.321 164.723 104.601 164.723C104.881 164.723 105.156 164.797 105.399 164.937Z" fill="#16110D"/>
<path d="M84.4352 173.009C85.0343 173.009 85.52 172.723 85.52 172.371C85.52 172.018 85.0343 171.732 84.4352 171.732C83.836 171.732 83.3503 172.018 83.3503 172.371C83.3503 172.723 83.836 173.009 84.4352 173.009Z" fill="#16110D"/>
<path d="M88.4872 170.68C89.0863 170.68 89.572 170.394 89.572 170.041C89.572 169.689 89.0863 169.403 88.4872 169.403C87.888 169.403 87.4023 169.689 87.4023 170.041C87.4023 170.394 87.888 170.68 88.4872 170.68Z" fill="#16110D"/>
<path d="M93.3379 167.266C93.7687 167.505 93.7687 167.904 93.3379 168.159C93.0909 168.285 92.8176 168.351 92.5402 168.351C92.2629 168.351 91.9896 168.285 91.7426 168.159C91.6523 168.124 91.5746 168.063 91.5199 167.983C91.4651 167.903 91.4358 167.809 91.4358 167.712C91.4358 167.615 91.4651 167.521 91.5199 167.441C91.5746 167.362 91.6523 167.3 91.7426 167.266C91.9896 167.139 92.2629 167.074 92.5402 167.074C92.8176 167.074 93.0909 167.139 93.3379 167.266Z" fill="#16110D"/>
<path d="M97.3249 164.937C97.7556 165.176 97.7556 165.575 97.3249 165.83C97.0778 165.956 96.8045 166.022 96.5272 166.022C96.2499 166.022 95.9765 165.956 95.7295 165.83C95.6392 165.796 95.5616 165.734 95.5068 165.655C95.452 165.575 95.4227 165.48 95.4227 165.384C95.4227 165.287 95.452 165.192 95.5068 165.113C95.5616 165.033 95.6392 164.972 95.7295 164.937C95.972 164.797 96.2471 164.723 96.5272 164.723C96.8072 164.723 97.0823 164.797 97.3249 164.937Z" fill="#16110D"/>
<path d="M100.597 163.692C101.196 163.692 101.682 163.406 101.682 163.054C101.682 162.701 101.196 162.416 100.597 162.416C99.9975 162.416 99.5118 162.701 99.5118 163.054C99.5118 163.406 99.9975 163.692 100.597 163.692Z" fill="#16110D"/>
<path d="M80.3646 170.663C80.9638 170.663 81.4495 170.378 81.4495 170.025C81.4495 169.673 80.9638 169.387 80.3646 169.387C79.7655 169.387 79.2798 169.673 79.2798 170.025C79.2798 170.378 79.7655 170.663 80.3646 170.663Z" fill="#16110D"/>
<path d="M84.4036 168.319C85.0027 168.319 85.4884 168.033 85.4884 167.681C85.4884 167.328 85.0027 167.042 84.4036 167.042C83.8044 167.042 83.3187 167.328 83.3187 167.681C83.3187 168.033 83.8044 168.319 84.4036 168.319Z" fill="#16110D"/>
<path d="M88.4388 165.988C89.038 165.988 89.5237 165.702 89.5237 165.35C89.5237 164.997 89.038 164.711 88.4388 164.711C87.8397 164.711 87.354 164.997 87.354 165.35C87.354 165.702 87.8397 165.988 88.4388 165.988Z" fill="#16110D"/>
<path d="M93.3355 162.575C93.7663 162.83 93.7663 163.229 93.3355 163.468C93.093 163.608 92.8179 163.682 92.5378 163.682C92.2578 163.682 91.9827 163.608 91.7402 163.468C91.3094 163.229 91.3094 162.83 91.7402 162.575C91.9872 162.448 92.2605 162.383 92.5378 162.383C92.8151 162.383 93.0885 162.448 93.3355 162.575Z" fill="#16110D"/>
<path d="M97.2934 160.246C97.3916 160.272 97.4783 160.331 97.5402 160.411C97.6021 160.492 97.6356 160.591 97.6356 160.693C97.6356 160.794 97.6021 160.893 97.5402 160.974C97.4783 161.055 97.3916 161.113 97.2934 161.139C97.0464 161.265 96.773 161.331 96.4957 161.331C96.2184 161.331 95.9451 161.265 95.698 161.139C95.5998 161.113 95.5131 161.055 95.4512 160.974C95.3894 160.893 95.3558 160.794 95.3558 160.693C95.3558 160.591 95.3894 160.492 95.4512 160.411C95.5131 160.331 95.5998 160.272 95.698 160.246C95.9451 160.12 96.2184 160.054 96.4957 160.054C96.773 160.054 97.0464 160.12 97.2934 160.246Z" fill="#16110D"/>
<path d="M77.0959 167.234C77.5266 167.489 77.5266 167.888 77.0959 168.127C76.8534 168.267 76.5783 168.341 76.2982 168.341C76.0182 168.341 75.7431 168.267 75.5005 168.127C75.0698 167.888 75.0698 167.489 75.5005 167.234C75.7468 167.105 76.0204 167.038 76.2982 167.038C76.576 167.038 76.8497 167.105 77.0959 167.234Z" fill="#16110D"/>
<path d="M80.3646 165.989C80.9638 165.989 81.4495 165.703 81.4495 165.351C81.4495 164.998 80.9638 164.712 80.3646 164.712C79.7655 164.712 79.2798 164.998 79.2798 165.351C79.2798 165.703 79.7655 165.989 80.3646 165.989Z" fill="#16110D"/>
<path d="M85.1851 162.575C85.2754 162.609 85.3531 162.671 85.4078 162.75C85.4626 162.83 85.4919 162.924 85.4919 163.021C85.4919 163.118 85.4626 163.212 85.4078 163.292C85.3531 163.372 85.2754 163.433 85.1851 163.468C84.9426 163.608 84.6675 163.682 84.3875 163.682C84.1074 163.682 83.8323 163.608 83.5898 163.468C83.159 163.229 83.159 162.83 83.5898 162.575C83.8368 162.448 84.1101 162.383 84.3875 162.383C84.6648 162.383 84.9381 162.448 85.1851 162.575Z" fill="#16110D"/>
<path d="M89.221 160.246C89.3192 160.272 89.406 160.331 89.4678 160.411C89.5297 160.492 89.5632 160.591 89.5632 160.693C89.5632 160.794 89.5297 160.893 89.4678 160.974C89.406 161.055 89.3192 161.113 89.221 161.139C88.974 161.265 88.7006 161.331 88.4233 161.331C88.146 161.331 87.8727 161.265 87.6256 161.139C87.5274 161.113 87.4407 161.055 87.3788 160.974C87.317 160.893 87.2834 160.794 87.2834 160.693C87.2834 160.591 87.317 160.492 87.3788 160.411C87.4407 160.331 87.5274 160.272 87.6256 160.246C87.8727 160.12 88.146 160.054 88.4233 160.054C88.7006 160.054 88.974 160.12 89.221 160.246Z" fill="#16110D"/>
<path d="M92.4927 159.001C93.0918 159.001 93.5775 158.716 93.5775 158.363C93.5775 158.011 93.0918 157.725 92.4927 157.725C91.8935 157.725 91.4078 158.011 91.4078 158.363C91.4078 158.716 91.8935 159.001 92.4927 159.001Z" fill="#16110D"/>
<path d="M72.2959 165.988C72.895 165.988 73.3807 165.702 73.3807 165.35C73.3807 164.997 72.895 164.711 72.2959 164.711C71.6968 164.711 71.2111 164.997 71.2111 165.35C71.2111 165.702 71.6968 165.988 72.2959 165.988Z" fill="#16110D"/>
<path d="M76.3313 163.659C76.9304 163.659 77.4161 163.373 77.4161 163.021C77.4161 162.669 76.9304 162.383 76.3313 162.383C75.7321 162.383 75.2465 162.669 75.2465 163.021C75.2465 163.373 75.7321 163.659 76.3313 163.659Z" fill="#16110D"/>
<path d="M80.3646 161.33C80.9638 161.33 81.4495 161.045 81.4495 160.692C81.4495 160.34 80.9638 160.054 80.3646 160.054C79.7655 160.054 79.2798 160.34 79.2798 160.692C79.2798 161.045 79.7655 161.33 80.3646 161.33Z" fill="#16110D"/>
<path d="M84.4036 159.001C85.0027 159.001 85.4884 158.716 85.4884 158.363C85.4884 158.011 85.0027 157.725 84.4036 157.725C83.8044 157.725 83.3187 158.011 83.3187 158.363C83.3187 158.716 83.8044 159.001 84.4036 159.001Z" fill="#16110D"/>
<path d="M89.2204 155.588C89.6511 155.827 89.6511 156.226 89.2204 156.481C88.9734 156.607 88.7 156.673 88.4227 156.673C88.1454 156.673 87.8721 156.607 87.6251 156.481C87.1943 156.226 87.1943 155.827 87.6251 155.588C87.8676 155.448 88.1427 155.374 88.4227 155.374C88.7028 155.374 88.9779 155.448 89.2204 155.588Z" fill="#16110D"/>
<path d="M69.0241 162.575C69.4548 162.83 69.4548 163.229 69.0241 163.468C68.7816 163.608 68.5064 163.682 68.2264 163.682C67.9464 163.682 67.6713 163.608 67.4287 163.468C67.3384 163.433 67.2608 163.372 67.206 163.292C67.1513 163.212 67.1219 163.118 67.1219 163.021C67.1219 162.924 67.1513 162.83 67.206 162.75C67.2608 162.671 67.3384 162.609 67.4287 162.575C67.6757 162.448 67.9491 162.383 68.2264 162.383C68.5037 162.383 68.7771 162.448 69.0241 162.575Z" fill="#16110D"/>
<path d="M73.0595 160.247C73.1577 160.273 73.2444 160.331 73.3063 160.412C73.3682 160.493 73.4017 160.592 73.4017 160.693C73.4017 160.795 73.3682 160.894 73.3063 160.975C73.2444 161.055 73.1577 161.113 73.0595 161.14C72.8133 161.269 72.5396 161.336 72.2618 161.336C71.984 161.336 71.7104 161.269 71.4641 161.14C71.3659 161.113 71.2792 161.055 71.2173 160.975C71.1555 160.894 71.1219 160.795 71.1219 160.693C71.1219 160.592 71.1555 160.493 71.2173 160.412C71.2792 160.331 71.3659 160.273 71.4641 160.247C71.7104 160.118 71.984 160.051 72.2618 160.051C72.5396 160.051 72.8133 160.118 73.0595 160.247Z" fill="#16110D"/>
<path d="M77.096 157.916C77.5268 158.156 77.5268 158.554 77.096 158.81C76.8498 158.938 76.5761 159.006 76.2983 159.006C76.0206 159.006 75.7469 158.938 75.5007 158.81C75.0699 158.554 75.0699 158.156 75.5007 157.916C75.7432 157.776 76.0183 157.703 76.2983 157.703C76.5784 157.703 76.8535 157.776 77.096 157.916Z" fill="#16110D"/>
<path d="M81.1498 155.588C81.2401 155.623 81.3178 155.684 81.3725 155.764C81.4273 155.843 81.4566 155.938 81.4566 156.034C81.4566 156.131 81.4273 156.226 81.3725 156.305C81.3178 156.385 81.2401 156.446 81.1498 156.481C80.9028 156.607 80.6295 156.673 80.3522 156.673C80.0749 156.673 79.8015 156.607 79.5545 156.481C79.1238 156.226 79.1238 155.827 79.5545 155.588C79.797 155.448 80.0721 155.374 80.3522 155.374C80.6322 155.374 80.9073 155.448 81.1498 155.588Z" fill="#16110D"/>
<path d="M84.4036 154.343C85.0027 154.343 85.4884 154.057 85.4884 153.705C85.4884 153.352 85.0027 153.066 84.4036 153.066C83.8044 153.066 83.3187 153.352 83.3187 153.705C83.3187 154.057 83.8044 154.343 84.4036 154.343Z" fill="#16110D"/>
<path d="M84.2605 150.083C84.8596 150.083 85.3453 149.798 85.3453 149.445C85.3453 149.093 84.8596 148.807 84.2605 148.807C83.6614 148.807 83.1757 149.093 83.1757 149.445C83.1757 149.798 83.6614 150.083 84.2605 150.083Z" fill="#16110D"/>
<path d="M89.0755 146.67C89.1675 146.701 89.2475 146.76 89.3041 146.838C89.3608 146.917 89.3913 147.012 89.3913 147.109C89.3913 147.206 89.3608 147.3 89.3041 147.379C89.2475 147.458 89.1675 147.516 89.0755 147.547C88.833 147.687 88.5579 147.761 88.2778 147.761C87.9978 147.761 87.7227 147.687 87.4802 147.547C87.0494 147.308 87.0494 146.909 87.4802 146.67C87.7227 146.53 87.9978 146.456 88.2778 146.456C88.5579 146.456 88.833 146.53 89.0755 146.67Z" fill="#16110D"/>
<path d="M93.1126 144.325C93.5434 144.58 93.5434 144.979 93.1126 145.218C92.8701 145.358 92.595 145.432 92.3149 145.432C92.0349 145.432 91.7598 145.358 91.5173 145.218C91.0865 144.979 91.0865 144.58 91.5173 144.325C91.7643 144.198 92.0376 144.133 92.3149 144.133C92.5922 144.133 92.8656 144.198 93.1126 144.325Z" fill="#16110D"/>
<path d="M96.3867 143.08C96.9858 143.08 97.4715 142.794 97.4715 142.442C97.4715 142.089 96.9858 141.804 96.3867 141.804C95.7876 141.804 95.3019 142.089 95.3019 142.442C95.3019 142.794 95.7876 143.08 96.3867 143.08Z" fill="#16110D"/>
<path d="M100.42 140.751C101.019 140.751 101.505 140.465 101.505 140.113C101.505 139.76 101.019 139.475 100.42 139.475C99.821 139.475 99.3353 139.76 99.3353 140.113C99.3353 140.465 99.821 140.751 100.42 140.751Z" fill="#16110D"/>
<path d="M104.459 138.422C105.058 138.422 105.544 138.136 105.544 137.784C105.544 137.431 105.058 137.146 104.459 137.146C103.86 137.146 103.374 137.431 103.374 137.784C103.374 138.136 103.86 138.422 104.459 138.422Z" fill="#16110D"/>
<path d="M109.291 134.976C109.722 135.215 109.722 135.614 109.291 135.869C109.044 135.995 108.771 136.061 108.494 136.061C108.216 136.061 107.943 135.995 107.696 135.869C107.606 135.835 107.528 135.773 107.473 135.694C107.418 135.614 107.389 135.519 107.389 135.423C107.389 135.326 107.418 135.231 107.473 135.152C107.528 135.072 107.606 135.011 107.696 134.976C107.938 134.836 108.214 134.762 108.494 134.762C108.774 134.762 109.049 134.836 109.291 134.976Z" fill="#16110D"/>
<path d="M111.764 132.678C112.007 132.538 112.282 132.464 112.562 132.464C112.842 132.464 113.117 132.538 113.36 132.678C113.79 132.917 113.79 133.316 113.36 133.571C113.113 133.7 112.84 133.767 112.562 133.767C112.284 133.767 112.01 133.7 111.764 133.571C111.333 133.316 111.333 132.917 111.764 132.678C112.195 132.439 111.333 132.917 111.764 132.678Z" fill="#16110D"/>
<path d="M79.4408 146.67C79.6833 146.53 79.9584 146.456 80.2384 146.456C80.5185 146.456 80.7936 146.53 81.0361 146.67C81.4669 146.909 81.4669 147.308 81.0361 147.547C80.7903 147.677 80.5165 147.745 80.2384 147.745C79.9604 147.745 79.6866 147.677 79.4408 147.547C79.3554 147.51 79.2827 147.449 79.2317 147.371C79.1806 147.293 79.1534 147.202 79.1534 147.109C79.1534 147.015 79.1806 146.924 79.2317 146.846C79.2827 146.768 79.3554 146.707 79.4408 146.67Z" fill="#16110D"/>
<path d="M85.0402 144.325C85.1305 144.359 85.2081 144.421 85.2629 144.5C85.3177 144.58 85.347 144.675 85.347 144.771C85.347 144.868 85.3177 144.962 85.2629 145.042C85.2081 145.122 85.1305 145.183 85.0402 145.218C84.7977 145.358 84.5226 145.432 84.2426 145.432C83.9625 145.432 83.6874 145.358 83.4449 145.218C83.0141 144.979 83.0141 144.58 83.4449 144.325C83.6919 144.198 83.9652 144.133 84.2426 144.133C84.5199 144.133 84.7932 144.198 85.0402 144.325Z" fill="#16110D"/>
<path d="M89.0755 141.995C89.1658 142.03 89.2434 142.091 89.2982 142.171C89.353 142.251 89.3823 142.345 89.3823 142.442C89.3823 142.539 89.353 142.633 89.2982 142.713C89.2434 142.793 89.1658 142.854 89.0755 142.889C88.833 143.029 88.5579 143.103 88.2778 143.103C87.9978 143.103 87.7227 143.029 87.4802 142.889C87.0494 142.65 87.0494 142.251 87.4802 141.995C87.7272 141.869 88.0005 141.804 88.2778 141.804C88.5551 141.804 88.8285 141.869 89.0755 141.995Z" fill="#16110D"/>
<path d="M93.1126 139.666C93.5434 139.922 93.5434 140.32 93.1126 140.56C92.8656 140.686 92.5922 140.752 92.3149 140.752C92.0376 140.752 91.7643 140.686 91.5173 140.56C91.0865 140.32 91.0865 139.922 91.5173 139.666C91.7643 139.54 92.0376 139.475 92.3149 139.475C92.5922 139.475 92.8656 139.54 93.1126 139.666Z" fill="#16110D"/>
<path d="M97.1497 137.337C97.5805 137.577 97.5805 137.975 97.1497 138.231C96.9027 138.357 96.6294 138.422 96.3521 138.422C96.0747 138.422 95.8014 138.357 95.5544 138.231C95.1236 137.975 95.1236 137.577 95.5544 137.337C95.8014 137.211 96.0747 137.146 96.3521 137.146C96.6294 137.146 96.9027 137.211 97.1497 137.337Z" fill="#16110D"/>
<path d="M99.716 134.976C99.9585 134.836 100.234 134.762 100.514 134.762C100.794 134.762 101.069 134.836 101.311 134.976C101.742 135.215 101.742 135.614 101.311 135.869C101.064 135.995 100.791 136.061 100.514 136.061C100.236 136.061 99.963 135.995 99.716 135.869C99.2853 135.614 99.2853 135.215 99.716 134.976Z" fill="#16110D"/>
<path d="M75.4046 144.34C75.6504 144.21 75.9242 144.143 76.2023 144.143C76.4803 144.143 76.7541 144.21 76.9999 144.34C77.4307 144.596 77.4307 144.994 76.9999 145.234C76.7574 145.374 76.4823 145.448 76.2023 145.448C75.9222 145.448 75.6471 145.374 75.4046 145.234C75.3064 145.207 75.2196 145.149 75.1578 145.068C75.0959 144.988 75.0624 144.889 75.0624 144.787C75.0624 144.685 75.0959 144.586 75.1578 144.506C75.2196 144.425 75.3064 144.367 75.4046 144.34Z" fill="#16110D"/>
<path d="M80.9919 141.996C81.4226 142.251 81.4226 142.65 80.9919 142.889C80.7494 143.029 80.4743 143.103 80.1942 143.103C79.9142 143.103 79.6391 143.029 79.3965 142.889C78.9658 142.65 78.9658 142.251 79.3965 141.996C79.6428 141.867 79.9164 141.8 80.1942 141.8C80.472 141.8 80.7457 141.867 80.9919 141.996Z" fill="#16110D"/>
<path d="M84.2604 140.75C84.8595 140.75 85.3452 140.465 85.3452 140.112C85.3452 139.76 84.8595 139.474 84.2604 139.474C83.6612 139.474 83.1755 139.76 83.1755 140.112C83.1755 140.465 83.6612 140.75 84.2604 140.75Z" fill="#16110D"/>
<path d="M89.0755 137.337C89.1658 137.372 89.2434 137.433 89.2982 137.513C89.353 137.593 89.3823 137.687 89.3823 137.784C89.3823 137.881 89.353 137.975 89.2982 138.055C89.2434 138.135 89.1658 138.196 89.0755 138.231C88.8285 138.357 88.5551 138.422 88.2778 138.422C88.0005 138.422 87.7272 138.357 87.4802 138.231C87.0494 137.975 87.0494 137.577 87.4802 137.337C87.7272 137.211 88.0005 137.146 88.2778 137.146C88.5551 137.146 88.8285 137.211 89.0755 137.337Z" fill="#16110D"/>
<path d="M71.3692 141.995C71.6162 141.869 71.8896 141.804 72.1669 141.804C72.4442 141.804 72.7175 141.869 72.9645 141.995C73.3953 142.251 73.3953 142.65 72.9645 142.889C72.722 143.029 72.4469 143.103 72.1669 143.103C71.8868 143.103 71.6117 143.029 71.3692 142.889C71.0023 142.65 71.0023 142.251 71.3692 141.995Z" fill="#16110D"/>
<path d="M76.9529 139.666C77.3837 139.921 77.3837 140.32 76.9529 140.559C76.7067 140.688 76.4331 140.755 76.1553 140.755C75.8775 140.755 75.6038 140.688 75.3576 140.559C74.9269 140.32 74.9269 139.921 75.3576 139.666C75.6038 139.537 75.8775 139.47 76.1553 139.47C76.4331 139.47 76.7067 139.537 76.9529 139.666Z" fill="#16110D"/>
<path d="M80.9919 137.336C81.4226 137.576 81.4226 137.975 80.9919 138.23C80.7457 138.358 80.472 138.426 80.1942 138.426C79.9164 138.426 79.6428 138.358 79.3965 138.23C78.9658 137.975 78.9658 137.576 79.3965 137.336C79.6428 137.208 79.9164 137.141 80.1942 137.141C80.472 137.141 80.7457 137.208 80.9919 137.336Z" fill="#16110D"/>
<path d="M67.3316 139.666C67.5786 139.54 67.852 139.475 68.1293 139.475C68.4066 139.475 68.6799 139.54 68.9269 139.666C69.3577 139.922 69.3577 140.32 68.9269 140.56C68.6844 140.7 68.4093 140.773 68.1293 140.773C67.8492 140.773 67.5741 140.7 67.3316 140.56C66.9009 140.32 66.9009 139.922 67.3316 139.666Z" fill="#16110D"/>
<path d="M72.1528 138.421C72.752 138.421 73.2377 138.136 73.2377 137.783C73.2377 137.431 72.752 137.145 72.1528 137.145C71.5537 137.145 71.068 137.431 71.068 137.783C71.068 138.136 71.5537 138.421 72.1528 138.421Z" fill="#16110D"/>
<path d="M63.263 137.321C63.5055 137.181 63.7806 137.107 64.0607 137.107C64.3407 137.107 64.6158 137.181 64.8583 137.321C65.2891 137.56 65.2891 137.959 64.8583 138.198C64.6125 138.328 64.3387 138.396 64.0607 138.396C63.7826 138.396 63.5088 138.328 63.263 138.198C62.8323 137.959 62.8323 137.56 63.263 137.321Z" fill="#16110D"/>
<path d="M107.902 162.638C108.145 162.498 108.42 162.424 108.7 162.424C108.98 162.424 109.255 162.498 109.497 162.638C109.928 162.877 109.928 163.276 109.497 163.531C109.25 163.657 108.977 163.723 108.7 163.723C108.422 163.723 108.149 163.657 107.902 163.531C107.812 163.497 107.734 163.435 107.679 163.356C107.625 163.276 107.595 163.181 107.595 163.085C107.595 162.988 107.625 162.894 107.679 162.814C107.734 162.734 107.812 162.673 107.902 162.638Z" fill="#16110D"/>
<path d="M113.486 160.293C113.917 160.549 113.917 160.948 113.486 161.187C113.243 161.327 112.968 161.401 112.688 161.401C112.408 161.401 112.133 161.327 111.891 161.187C111.46 160.948 111.46 160.549 111.891 160.293C112.137 160.165 112.41 160.098 112.688 160.098C112.966 160.098 113.24 160.165 113.486 160.293Z" fill="#16110D"/>
<path d="M117.536 157.964C117.626 157.999 117.704 158.06 117.759 158.14C117.814 158.22 117.843 158.314 117.843 158.411C117.843 158.508 117.814 158.602 117.759 158.682C117.704 158.762 117.626 158.823 117.536 158.858C117.294 158.998 117.018 159.071 116.738 159.071C116.458 159.071 116.183 158.998 115.941 158.858C115.51 158.618 115.51 158.219 115.941 157.964C116.188 157.838 116.461 157.772 116.738 157.772C117.016 157.772 117.289 157.838 117.536 157.964Z" fill="#16110D"/>
<path d="M121.575 155.715C121.665 155.749 121.743 155.811 121.798 155.89C121.852 155.97 121.882 156.065 121.882 156.161C121.882 156.258 121.852 156.353 121.798 156.432C121.743 156.512 121.665 156.573 121.575 156.608C121.332 156.748 121.057 156.822 120.777 156.822C120.497 156.822 120.222 156.748 119.98 156.608C119.549 156.369 119.549 155.97 119.98 155.715C120.227 155.589 120.5 155.523 120.777 155.523C121.055 155.523 121.328 155.589 121.575 155.715Z" fill="#16110D"/>
<path d="M124.831 154.391C125.43 154.391 125.915 154.105 125.915 153.753C125.915 153.4 125.43 153.115 124.831 153.115C124.231 153.115 123.746 153.4 123.746 153.753C123.746 154.105 124.231 154.391 124.831 154.391Z" fill="#16110D"/>
<path d="M129.647 150.929C130.078 151.168 130.078 151.567 129.647 151.822C129.4 151.948 129.127 152.014 128.85 152.014C128.572 152.014 128.299 151.948 128.052 151.822C127.621 151.567 127.621 151.168 128.052 150.929C128.295 150.789 128.57 150.715 128.85 150.715C129.13 150.715 129.405 150.789 129.647 150.929Z" fill="#16110D"/>
<path d="M133.683 148.648C134.114 148.888 134.114 149.286 133.683 149.542C133.436 149.668 133.163 149.733 132.885 149.733C132.608 149.733 132.335 149.668 132.088 149.542C131.997 149.507 131.92 149.446 131.865 149.366C131.81 149.286 131.781 149.192 131.781 149.095C131.781 148.998 131.81 148.904 131.865 148.824C131.92 148.744 131.997 148.683 132.088 148.648C132.33 148.508 132.605 148.435 132.885 148.435C133.166 148.435 133.441 148.508 133.683 148.648Z" fill="#16110D"/>
<path d="M136.953 147.403C137.552 147.403 138.038 147.118 138.038 146.765C138.038 146.413 137.552 146.127 136.953 146.127C136.354 146.127 135.868 146.413 135.868 146.765C135.868 147.118 136.354 147.403 136.953 147.403Z" fill="#16110D"/>
<path d="M140.988 145.059C141.588 145.059 142.073 144.773 142.073 144.421C142.073 144.068 141.588 143.783 140.988 143.783C140.389 143.783 139.904 144.068 139.904 144.421C139.904 144.773 140.389 145.059 140.988 145.059Z" fill="#16110D"/>
<path d="M145.027 142.729C145.626 142.729 146.112 142.444 146.112 142.091C146.112 141.739 145.626 141.453 145.027 141.453C144.428 141.453 143.943 141.739 143.943 142.091C143.943 142.444 144.428 142.729 145.027 142.729Z" fill="#16110D"/>
<path d="M149.063 140.401C149.662 140.401 150.147 140.115 150.147 139.763C150.147 139.41 149.662 139.125 149.063 139.125C148.463 139.125 147.978 139.41 147.978 139.763C147.978 140.115 148.463 140.401 149.063 140.401Z" fill="#16110D"/>
<path d="M153.959 136.985C154.05 137.019 154.127 137.081 154.182 137.16C154.237 137.24 154.266 137.335 154.266 137.431C154.266 137.528 154.237 137.623 154.182 137.702C154.127 137.782 154.05 137.843 153.959 137.878C153.712 138.004 153.439 138.07 153.162 138.07C152.884 138.07 152.611 138.004 152.364 137.878C151.933 137.639 151.933 137.24 152.364 136.985C152.611 136.859 152.884 136.793 153.162 136.793C153.439 136.793 153.712 136.859 153.959 136.985Z" fill="#16110D"/>
<path d="M157.917 134.656C158.007 134.69 158.085 134.752 158.139 134.831C158.194 134.911 158.223 135.006 158.223 135.102C158.223 135.199 158.194 135.294 158.139 135.373C158.085 135.453 158.007 135.514 157.917 135.549C157.67 135.675 157.396 135.741 157.119 135.741C156.842 135.741 156.568 135.675 156.321 135.549C155.89 135.294 155.89 134.895 156.321 134.656C156.568 134.53 156.842 134.464 157.119 134.464C157.396 134.464 157.67 134.53 157.917 134.656Z" fill="#16110D"/>
<path d="M161.935 132.327C162.366 132.566 162.366 132.965 161.935 133.22C161.688 133.346 161.415 133.412 161.137 133.412C160.86 133.412 160.587 133.346 160.34 133.22C159.909 132.965 159.909 132.566 160.34 132.327C160.582 132.187 160.857 132.113 161.137 132.113C161.417 132.113 161.693 132.187 161.935 132.327Z" fill="#16110D"/>
<path d="M165.224 131.082C165.823 131.082 166.309 130.796 166.309 130.444C166.309 130.091 165.823 129.806 165.224 129.806C164.625 129.806 164.139 130.091 164.139 130.444C164.139 130.796 164.625 131.082 165.224 131.082Z" fill="#16110D"/>
<path d="M169.261 128.753C169.86 128.753 170.346 128.467 170.346 128.115C170.346 127.762 169.86 127.477 169.261 127.477C168.662 127.477 168.177 127.762 168.177 128.115C168.177 128.467 168.662 128.753 169.261 128.753Z" fill="#16110D"/>
<path d="M173.295 126.408C173.894 126.408 174.38 126.122 174.38 125.77C174.38 125.418 173.894 125.132 173.295 125.132C172.696 125.132 172.21 125.418 172.21 125.77C172.21 126.122 172.696 126.408 173.295 126.408Z" fill="#16110D"/>
<path d="M103.868 160.309C104.11 160.169 104.385 160.096 104.665 160.096C104.945 160.096 105.221 160.169 105.463 160.309C105.894 160.549 105.894 160.948 105.463 161.187C105.217 161.317 104.943 161.385 104.665 161.385C104.387 161.385 104.114 161.317 103.868 161.187C103.453 160.948 103.437 160.501 103.868 160.309Z" fill="#16110D"/>
<path d="M109.451 157.964C109.881 158.219 109.881 158.618 109.451 158.857C109.208 158.997 108.933 159.071 108.653 159.071C108.373 159.071 108.098 158.997 107.855 158.857C107.425 158.618 107.425 158.219 107.855 157.964C108.102 157.835 108.375 157.768 108.653 157.768C108.931 157.768 109.204 157.835 109.451 157.964Z" fill="#16110D"/>
<path d="M112.723 156.721C113.322 156.721 113.808 156.435 113.808 156.083C113.808 155.73 113.322 155.444 112.723 155.444C112.124 155.444 111.638 155.73 111.638 156.083C111.638 156.435 112.124 156.721 112.723 156.721Z" fill="#16110D"/>
<path d="M116.758 154.391C117.357 154.391 117.843 154.105 117.843 153.753C117.843 153.4 117.357 153.115 116.758 153.115C116.159 153.115 115.673 153.4 115.673 153.753C115.673 154.105 116.159 154.391 116.758 154.391Z" fill="#16110D"/>
<path d="M120.792 152.062C121.391 152.062 121.876 151.776 121.876 151.424C121.876 151.071 121.391 150.786 120.792 150.786C120.192 150.786 119.707 151.071 119.707 151.424C119.707 151.776 120.192 152.062 120.792 152.062Z" fill="#16110D"/>
<path d="M124.831 149.733C125.43 149.733 125.915 149.447 125.915 149.095C125.915 148.742 125.43 148.457 124.831 148.457C124.231 148.457 123.746 148.742 123.746 149.095C123.746 149.447 124.231 149.733 124.831 149.733Z" fill="#16110D"/>
<path d="M129.647 146.319C130.078 146.559 130.078 146.957 129.647 147.213C129.4 147.339 129.127 147.404 128.85 147.404C128.572 147.404 128.299 147.339 128.052 147.213C127.621 146.957 127.621 146.559 128.052 146.319C128.295 146.179 128.57 146.105 128.85 146.105C129.13 146.105 129.405 146.179 129.647 146.319Z" fill="#16110D"/>
<path d="M133.683 143.99C134.113 144.229 134.113 144.628 133.683 144.868C133.44 145.008 133.165 145.081 132.885 145.081C132.605 145.081 132.33 145.008 132.087 144.868C131.995 144.837 131.915 144.778 131.859 144.699C131.802 144.62 131.771 144.526 131.771 144.429C131.771 144.332 131.802 144.237 131.859 144.159C131.915 144.08 131.995 144.021 132.087 143.99C132.33 143.85 132.605 143.776 132.885 143.776C133.165 143.776 133.44 143.85 133.683 143.99Z" fill="#16110D"/>
<path d="M137.718 141.643C138.149 141.899 138.149 142.298 137.718 142.537C137.476 142.677 137.201 142.751 136.921 142.751C136.641 142.751 136.366 142.677 136.123 142.537C136.033 142.502 135.955 142.441 135.9 142.361C135.846 142.281 135.816 142.187 135.816 142.09C135.816 141.993 135.846 141.899 135.9 141.819C135.955 141.739 136.033 141.678 136.123 141.643C136.37 141.517 136.643 141.452 136.921 141.452C137.198 141.452 137.471 141.517 137.718 141.643Z" fill="#16110D"/>
<path d="M140.988 140.401C141.588 140.401 142.073 140.115 142.073 139.763C142.073 139.41 141.588 139.125 140.988 139.125C140.389 139.125 139.904 139.41 139.904 139.763C139.904 140.115 140.389 140.401 140.988 140.401Z" fill="#16110D"/>
<path d="M145.027 138.07C145.626 138.07 146.112 137.784 146.112 137.432C146.112 137.079 145.626 136.793 145.027 136.793C144.428 136.793 143.943 137.079 143.943 137.432C143.943 137.784 144.428 138.07 145.027 138.07Z" fill="#16110D"/>
<path d="M149.063 135.74C149.662 135.74 150.147 135.454 150.147 135.102C150.147 134.75 149.662 134.464 149.063 134.464C148.463 134.464 147.978 134.75 147.978 135.102C147.978 135.454 148.463 135.74 149.063 135.74Z" fill="#16110D"/>
<path d="M153.096 133.412C153.695 133.412 154.181 133.126 154.181 132.774C154.181 132.421 153.695 132.136 153.096 132.136C152.497 132.136 152.011 132.421 152.011 132.774C152.011 133.126 152.497 133.412 153.096 133.412Z" fill="#16110D"/>
<path d="M157.135 131.082C157.734 131.082 158.22 130.797 158.22 130.444C158.22 130.092 157.734 129.806 157.135 129.806C156.536 129.806 156.05 130.092 156.05 130.444C156.05 130.797 156.536 131.082 157.135 131.082Z" fill="#16110D"/>
<path d="M161.935 127.668C162.366 127.908 162.366 128.306 161.935 128.546C161.693 128.686 161.417 128.76 161.137 128.76C160.857 128.76 160.582 128.686 160.34 128.546C159.909 128.306 159.909 127.908 160.34 127.668C160.582 127.528 160.857 127.455 161.137 127.455C161.417 127.455 161.693 127.528 161.935 127.668Z" fill="#16110D"/>
<path d="M165.989 125.404C166.42 125.659 166.42 126.058 165.989 126.297C165.746 126.437 165.471 126.511 165.191 126.511C164.911 126.511 164.636 126.437 164.394 126.297C163.963 126.058 163.963 125.659 164.394 125.404C164.641 125.278 164.914 125.212 165.191 125.212C165.469 125.212 165.742 125.278 165.989 125.404Z" fill="#16110D"/>
<path d="M170.023 122.995C170.454 123.25 170.454 123.649 170.023 123.888C169.78 124.028 169.505 124.102 169.225 124.102C168.945 124.102 168.67 124.028 168.428 123.888C168.337 123.854 168.26 123.792 168.205 123.713C168.15 123.633 168.121 123.538 168.121 123.442C168.121 123.345 168.15 123.25 168.205 123.171C168.26 123.091 168.337 123.03 168.428 122.995C168.675 122.869 168.948 122.803 169.225 122.803C169.503 122.803 169.776 122.869 170.023 122.995Z" fill="#16110D"/>
<path d="M99.7978 157.949C100.044 157.819 100.317 157.751 100.595 157.751C100.873 157.751 101.147 157.819 101.393 157.949C101.483 157.984 101.561 158.045 101.616 158.125C101.671 158.205 101.7 158.299 101.7 158.396C101.7 158.493 101.671 158.587 101.616 158.667C101.561 158.747 101.483 158.808 101.393 158.843C101.146 158.969 100.873 159.034 100.595 159.034C100.318 159.034 100.045 158.969 99.7978 158.843C99.367 158.587 99.367 158.189 99.7978 157.949Z" fill="#16110D"/>
<path d="M105.382 155.618C105.813 155.857 105.813 156.256 105.382 156.511C105.135 156.637 104.862 156.703 104.584 156.703C104.307 156.703 104.034 156.637 103.787 156.511C103.356 156.256 103.356 155.857 103.787 155.618C104.029 155.478 104.304 155.404 104.584 155.404C104.864 155.404 105.139 155.478 105.382 155.618Z" fill="#16110D"/>
<path d="M109.419 153.289C109.85 153.529 109.85 153.928 109.419 154.167C109.177 154.307 108.902 154.381 108.622 154.381C108.341 154.381 108.066 154.307 107.824 154.167C107.732 154.136 107.652 154.077 107.595 153.998C107.539 153.92 107.508 153.825 107.508 153.728C107.508 153.631 107.539 153.537 107.595 153.458C107.652 153.379 107.732 153.32 107.824 153.289C108.066 153.149 108.341 153.076 108.622 153.076C108.902 153.076 109.177 153.149 109.419 153.289Z" fill="#16110D"/>
<path d="M112.688 152.029C113.287 152.029 113.772 151.743 113.772 151.391C113.772 151.039 113.287 150.753 112.688 150.753C112.088 150.753 111.603 151.039 111.603 151.391C111.603 151.743 112.088 152.029 112.688 152.029Z" fill="#16110D"/>
<path d="M116.725 149.7C117.324 149.7 117.81 149.414 117.81 149.062C117.81 148.71 117.324 148.424 116.725 148.424C116.126 148.424 115.64 148.71 115.64 149.062C115.64 149.414 116.126 149.7 116.725 149.7Z" fill="#16110D"/>
<path d="M120.76 147.371C121.359 147.371 121.845 147.085 121.845 146.733C121.845 146.38 121.359 146.095 120.76 146.095C120.161 146.095 119.675 146.38 119.675 146.733C119.675 147.085 120.161 147.371 120.76 147.371Z" fill="#16110D"/>
<path d="M125.578 143.957C125.669 143.992 125.746 144.053 125.801 144.133C125.856 144.213 125.885 144.307 125.885 144.404C125.885 144.501 125.856 144.595 125.801 144.675C125.746 144.755 125.669 144.816 125.578 144.851C125.331 144.977 125.058 145.043 124.781 145.043C124.503 145.043 124.23 144.977 123.983 144.851C123.552 144.596 123.552 144.197 123.983 143.957C124.23 143.831 124.503 143.766 124.781 143.766C125.058 143.766 125.331 143.831 125.578 143.957Z" fill="#16110D"/>
<path d="M129.614 141.628C129.704 141.663 129.782 141.724 129.837 141.804C129.891 141.883 129.921 141.978 129.921 142.075C129.921 142.171 129.891 142.266 129.837 142.345C129.782 142.425 129.704 142.486 129.614 142.521C129.367 142.647 129.093 142.713 128.816 142.713C128.539 142.713 128.265 142.647 128.018 142.521C127.588 142.266 127.588 141.867 128.018 141.628C128.261 141.488 128.536 141.414 128.816 141.414C129.096 141.414 129.371 141.488 129.614 141.628Z" fill="#16110D"/>
<path d="M133.653 139.299C134.084 139.538 134.084 139.937 133.653 140.193C133.406 140.319 133.133 140.384 132.855 140.384C132.578 140.384 132.305 140.319 132.058 140.193C131.627 139.937 131.627 139.538 132.058 139.299C132.3 139.159 132.575 139.085 132.855 139.085C133.135 139.085 133.41 139.159 133.653 139.299Z" fill="#16110D"/>
<path d="M137.686 136.97C138.117 137.209 138.117 137.608 137.686 137.847C137.444 137.987 137.169 138.061 136.889 138.061C136.609 138.061 136.334 137.987 136.091 137.847C135.66 137.608 135.66 137.209 136.091 136.97C136.334 136.83 136.609 136.756 136.889 136.756C137.169 136.756 137.444 136.83 137.686 136.97Z" fill="#16110D"/>
<path d="M140.959 135.709C141.558 135.709 142.043 135.424 142.043 135.071C142.043 134.719 141.558 134.433 140.959 134.433C140.359 134.433 139.874 134.719 139.874 135.071C139.874 135.424 140.359 135.709 140.959 135.709Z" fill="#16110D"/>
<path d="M144.994 133.381C145.593 133.381 146.079 133.095 146.079 132.743C146.079 132.39 145.593 132.104 144.994 132.104C144.395 132.104 143.909 132.39 143.909 132.743C143.909 133.095 144.395 133.381 144.994 133.381Z" fill="#16110D"/>
<path d="M149.031 131.052C149.63 131.052 150.116 130.766 150.116 130.414C150.116 130.061 149.63 129.775 149.031 129.775C148.432 129.775 147.946 130.061 147.946 130.414C147.946 130.766 148.432 131.052 149.031 131.052Z" fill="#16110D"/>
<path d="M153.066 128.722C153.665 128.722 154.151 128.436 154.151 128.084C154.151 127.731 153.665 127.446 153.066 127.446C152.467 127.446 151.981 127.731 151.981 128.084C151.981 128.436 152.467 128.722 153.066 128.722Z" fill="#16110D"/>
<path d="M157.105 126.393C157.704 126.393 158.19 126.108 158.19 125.755C158.19 125.403 157.704 125.117 157.105 125.117C156.506 125.117 156.021 125.403 156.021 125.755C156.021 126.108 156.506 126.393 157.105 126.393Z" fill="#16110D"/>
<path d="M161.935 122.978C162.025 123.013 162.103 123.074 162.158 123.154C162.213 123.233 162.242 123.328 162.242 123.425C162.242 123.521 162.213 123.616 162.158 123.696C162.103 123.775 162.025 123.837 161.935 123.871C161.688 123.997 161.415 124.063 161.137 124.063C160.86 124.063 160.587 123.997 160.34 123.871C159.909 123.616 159.909 123.217 160.34 122.978C160.582 122.838 160.857 122.764 161.137 122.764C161.417 122.764 161.693 122.838 161.935 122.978Z" fill="#16110D"/>
<path d="M165.959 120.618C166.39 120.857 166.39 121.256 165.959 121.511C165.712 121.637 165.439 121.703 165.161 121.703C164.884 121.703 164.611 121.637 164.364 121.511C163.933 121.256 163.933 120.857 164.364 120.618C164.606 120.478 164.881 120.404 165.161 120.404C165.442 120.404 165.717 120.478 165.959 120.618Z" fill="#16110D"/>
<path d="M95.7625 155.618C96.005 155.478 96.2801 155.404 96.5602 155.404C96.8402 155.404 97.1153 155.478 97.3579 155.618C97.4481 155.653 97.5258 155.714 97.5806 155.794C97.6353 155.874 97.6646 155.968 97.6646 156.065C97.6646 156.161 97.6353 156.256 97.5806 156.336C97.5258 156.415 97.4481 156.477 97.3579 156.511C97.1108 156.637 96.8375 156.703 96.5602 156.703C96.2829 156.703 96.0095 156.637 95.7625 156.511C95.3318 156.256 95.3318 155.857 95.7625 155.618Z" fill="#16110D"/>
<path d="M101.311 153.289C101.742 153.529 101.742 153.928 101.311 154.167C101.069 154.307 100.794 154.381 100.514 154.381C100.234 154.381 99.9585 154.307 99.716 154.167C99.2853 153.928 99.2853 153.529 99.716 153.289C99.9585 153.149 100.234 153.076 100.514 153.076C100.794 153.076 101.069 153.149 101.311 153.289Z" fill="#16110D"/>
<path d="M105.382 150.929C105.813 151.184 105.813 151.583 105.382 151.822C105.14 151.962 104.865 152.036 104.585 152.036C104.305 152.036 104.03 151.962 103.787 151.822C103.697 151.788 103.619 151.726 103.564 151.647C103.51 151.567 103.48 151.473 103.48 151.376C103.48 151.279 103.51 151.185 103.564 151.105C103.619 151.025 103.697 150.964 103.787 150.929C104.034 150.803 104.307 150.737 104.585 150.737C104.862 150.737 105.135 150.803 105.382 150.929Z" fill="#16110D"/>
<path d="M109.419 148.616C109.85 148.871 109.85 149.27 109.419 149.509C109.177 149.649 108.902 149.723 108.622 149.723C108.342 149.723 108.067 149.649 107.824 149.509C107.734 149.474 107.656 149.413 107.601 149.333C107.547 149.253 107.517 149.159 107.517 149.062C107.517 148.966 107.547 148.871 107.601 148.791C107.656 148.712 107.734 148.65 107.824 148.616C108.071 148.49 108.344 148.424 108.622 148.424C108.899 148.424 109.172 148.49 109.419 148.616Z" fill="#16110D"/>
<path d="M113.455 146.286C113.885 146.541 113.885 146.94 113.455 147.179C113.208 147.305 112.934 147.371 112.657 147.371C112.38 147.371 112.106 147.305 111.859 147.179C111.769 147.145 111.691 147.083 111.637 147.004C111.582 146.924 111.553 146.829 111.553 146.733C111.553 146.636 111.582 146.542 111.637 146.462C111.691 146.382 111.769 146.321 111.859 146.286C112.106 146.16 112.38 146.094 112.657 146.094C112.934 146.094 113.208 146.16 113.455 146.286Z" fill="#16110D"/>
<path d="M116.725 145.042C117.324 145.042 117.81 144.756 117.81 144.404C117.81 144.051 117.324 143.766 116.725 143.766C116.126 143.766 115.64 144.051 115.64 144.404C115.64 144.756 116.126 145.042 116.725 145.042Z" fill="#16110D"/>
<path d="M120.76 142.713C121.359 142.713 121.845 142.427 121.845 142.075C121.845 141.722 121.359 141.437 120.76 141.437C120.161 141.437 119.675 141.722 119.675 142.075C119.675 142.427 120.161 142.713 120.76 142.713Z" fill="#16110D"/>
<path d="M124.797 140.384C125.396 140.384 125.882 140.098 125.882 139.746C125.882 139.393 125.396 139.107 124.797 139.107C124.198 139.107 123.712 139.393 123.712 139.746C123.712 140.098 124.198 140.384 124.797 140.384Z" fill="#16110D"/>
<path d="M128.834 138.054C129.433 138.054 129.919 137.768 129.919 137.416C129.919 137.064 129.433 136.778 128.834 136.778C128.235 136.778 127.749 137.064 127.749 137.416C127.749 137.768 128.235 138.054 128.834 138.054Z" fill="#16110D"/>
<path d="M132.868 135.709C133.467 135.709 133.953 135.424 133.953 135.071C133.953 134.719 133.467 134.433 132.868 134.433C132.269 134.433 131.783 134.719 131.783 135.071C131.783 135.424 132.269 135.709 132.868 135.709Z" fill="#16110D"/>
<path d="M137.686 132.296C138.117 132.551 138.117 132.95 137.686 133.189C137.444 133.329 137.169 133.403 136.889 133.403C136.609 133.403 136.334 133.329 136.091 133.189C135.66 132.95 135.66 132.551 136.091 132.296C136.338 132.17 136.611 132.104 136.889 132.104C137.166 132.104 137.439 132.17 137.686 132.296Z" fill="#16110D"/>
<path d="M141.726 129.967C142.156 130.222 142.156 130.621 141.726 130.86C141.479 130.986 141.205 131.052 140.928 131.052C140.651 131.052 140.377 130.986 140.13 130.86C140.04 130.825 139.962 130.764 139.908 130.684C139.853 130.605 139.824 130.51 139.824 130.413C139.824 130.317 139.853 130.222 139.908 130.142C139.962 130.063 140.04 130.001 140.13 129.967C140.377 129.841 140.651 129.775 140.928 129.775C141.205 129.775 141.479 129.841 141.726 129.967Z" fill="#16110D"/>
<path d="M145.759 127.638C146.19 127.877 146.19 128.276 145.759 128.531C145.512 128.657 145.239 128.723 144.962 128.723C144.684 128.723 144.411 128.657 144.164 128.531C144.074 128.497 143.996 128.435 143.941 128.356C143.886 128.276 143.857 128.181 143.857 128.085C143.857 127.988 143.886 127.894 143.941 127.814C143.996 127.734 144.074 127.673 144.164 127.638C144.411 127.512 144.684 127.446 144.962 127.446C145.239 127.446 145.512 127.512 145.759 127.638Z" fill="#16110D"/>
<path d="M149.794 125.307C150.225 125.546 150.225 125.945 149.794 126.2C149.548 126.328 149.274 126.396 148.996 126.396C148.719 126.396 148.445 126.328 148.199 126.2C147.768 125.945 147.768 125.546 148.199 125.307C148.441 125.166 148.716 125.093 148.996 125.093C149.277 125.093 149.552 125.166 149.794 125.307Z" fill="#16110D"/>
<path d="M153.066 124.064C153.665 124.064 154.151 123.779 154.151 123.426C154.151 123.074 153.665 122.788 153.066 122.788C152.467 122.788 151.981 123.074 151.981 123.426C151.981 123.779 152.467 124.064 153.066 124.064Z" fill="#16110D"/>
<path d="M157.885 120.618C157.975 120.653 158.053 120.714 158.108 120.794C158.162 120.874 158.192 120.968 158.192 121.065C158.192 121.161 158.162 121.256 158.108 121.336C158.053 121.415 157.975 121.477 157.885 121.511C157.638 121.637 157.365 121.703 157.087 121.703C156.81 121.703 156.537 121.637 156.29 121.511C155.859 121.256 155.859 120.857 156.29 120.618C156.532 120.478 156.807 120.404 157.087 120.404C157.367 120.404 157.642 120.478 157.885 120.618Z" fill="#16110D"/>
<path d="M161.139 119.389C161.738 119.389 162.223 119.103 162.223 118.75C162.223 118.398 161.738 118.112 161.139 118.112C160.54 118.112 160.054 118.398 160.054 118.75C160.054 119.103 160.54 119.389 161.139 119.389Z" fill="#16110D"/>
<path d="M91.7429 153.289C91.9854 153.149 92.2605 153.076 92.5405 153.076C92.8206 153.076 93.0957 153.149 93.3382 153.289C93.4285 153.324 93.5061 153.385 93.5609 153.465C93.6157 153.545 93.645 153.639 93.645 153.736C93.645 153.833 93.6157 153.927 93.5609 154.007C93.5061 154.087 93.4285 154.148 93.3382 154.183C93.0912 154.309 92.8178 154.375 92.5405 154.375C92.2632 154.375 91.9899 154.309 91.7429 154.183C91.2962 153.928 91.2962 153.529 91.7429 153.289Z" fill="#16110D"/>
<path d="M97.3077 150.929C97.7384 151.184 97.7384 151.583 97.3077 151.822C97.0652 151.962 96.7901 152.036 96.51 152.036C96.23 152.036 95.9549 151.962 95.7123 151.822C95.2816 151.583 95.2816 151.184 95.7123 150.929C95.9593 150.803 96.2327 150.737 96.51 150.737C96.7873 150.737 97.0607 150.803 97.3077 150.929Z" fill="#16110D"/>
<path d="M100.578 149.7C101.177 149.7 101.663 149.414 101.663 149.062C101.663 148.71 101.177 148.424 100.578 148.424C99.979 148.424 99.4933 148.71 99.4933 149.062C99.4933 149.414 99.979 149.7 100.578 149.7Z" fill="#16110D"/>
<path d="M105.382 146.287C105.813 146.542 105.813 146.941 105.382 147.18C105.135 147.306 104.862 147.372 104.585 147.372C104.307 147.372 104.034 147.306 103.787 147.18C103.697 147.145 103.619 147.084 103.564 147.004C103.51 146.924 103.48 146.83 103.48 146.733C103.48 146.636 103.51 146.542 103.564 146.462C103.619 146.383 103.697 146.321 103.787 146.287C104.034 146.16 104.307 146.095 104.585 146.095C104.862 146.095 105.135 146.16 105.382 146.287Z" fill="#16110D"/>
<path d="M108.652 145.042C109.251 145.042 109.737 144.756 109.737 144.404C109.737 144.051 109.251 143.766 108.652 143.766C108.053 143.766 107.568 144.051 107.568 144.404C107.568 144.756 108.053 145.042 108.652 145.042Z" fill="#16110D"/>
<path d="M113.455 141.628C113.885 141.868 113.885 142.266 113.455 142.522C113.208 142.648 112.934 142.713 112.657 142.713C112.38 142.713 112.106 142.648 111.859 142.522C111.769 142.487 111.691 142.426 111.637 142.346C111.582 142.266 111.553 142.172 111.553 142.075C111.553 141.978 111.582 141.884 111.637 141.804C111.691 141.724 111.769 141.663 111.859 141.628C112.102 141.488 112.377 141.415 112.657 141.415C112.937 141.415 113.212 141.488 113.455 141.628Z" fill="#16110D"/>
<path d="M117.491 139.299C117.922 139.538 117.922 139.937 117.491 140.193C117.245 140.321 116.972 140.388 116.694 140.388C116.416 140.388 116.142 140.321 115.896 140.193C115.465 139.937 115.465 139.538 115.896 139.299C116.139 139.159 116.414 139.085 116.694 139.085C116.974 139.085 117.249 139.159 117.491 139.299Z" fill="#16110D"/>
<path d="M121.543 136.97C121.635 137 121.715 137.059 121.772 137.138C121.829 137.217 121.859 137.311 121.859 137.408C121.859 137.505 121.829 137.6 121.772 137.679C121.715 137.757 121.635 137.816 121.543 137.847C121.301 137.987 121.026 138.061 120.746 138.061C120.466 138.061 120.191 137.987 119.948 137.847C119.517 137.608 119.517 137.209 119.948 136.97C120.191 136.83 120.466 136.756 120.746 136.756C121.026 136.756 121.301 136.83 121.543 136.97Z" fill="#16110D"/>
<path d="M124.797 135.709C125.396 135.709 125.882 135.424 125.882 135.071C125.882 134.719 125.396 134.433 124.797 134.433C124.198 134.433 123.712 134.719 123.712 135.071C123.712 135.424 124.198 135.709 124.797 135.709Z" fill="#16110D"/>
<path d="M129.614 132.296C129.704 132.331 129.782 132.392 129.837 132.472C129.891 132.551 129.921 132.646 129.921 132.742C129.921 132.839 129.891 132.934 129.837 133.013C129.782 133.093 129.704 133.154 129.614 133.189C129.371 133.329 129.096 133.403 128.816 133.403C128.536 133.403 128.261 133.329 128.018 133.189C127.588 132.95 127.588 132.551 128.018 132.296C128.265 132.17 128.539 132.104 128.816 132.104C129.093 132.104 129.367 132.17 129.614 132.296Z" fill="#16110D"/>
<path d="M133.653 129.967C134.084 130.222 134.084 130.621 133.653 130.861C133.406 130.987 133.133 131.052 132.855 131.052C132.578 131.052 132.305 130.987 132.058 130.861C131.627 130.621 131.627 130.222 132.058 129.967C132.305 129.841 132.578 129.775 132.855 129.775C133.133 129.775 133.406 129.841 133.653 129.967Z" fill="#16110D"/>
<path d="M136.922 128.722C137.521 128.722 138.006 128.436 138.006 128.084C138.006 127.731 137.521 127.446 136.922 127.446C136.322 127.446 135.837 127.731 135.837 128.084C135.837 128.436 136.322 128.722 136.922 128.722Z" fill="#16110D"/>
<path d="M140.959 126.393C141.558 126.393 142.043 126.107 142.043 125.755C142.043 125.402 141.558 125.117 140.959 125.117C140.359 125.117 139.874 125.402 139.874 125.755C139.874 126.107 140.359 126.393 140.959 126.393Z" fill="#16110D"/>
<path d="M144.212 122.978C144.455 122.838 144.73 122.765 145.01 122.765C145.29 122.765 145.565 122.838 145.808 122.978C146.238 123.218 146.238 123.617 145.808 123.872C145.561 123.998 145.287 124.064 145.01 124.064C144.733 124.064 144.459 123.998 144.212 123.872C144.122 123.837 144.044 123.776 143.989 123.696C143.935 123.616 143.905 123.522 143.905 123.425C143.905 123.328 143.935 123.234 143.989 123.154C144.044 123.074 144.122 123.013 144.212 122.978Z" fill="#16110D"/>
<path d="M149.796 120.617C150.227 120.856 150.227 121.255 149.796 121.51C149.55 121.639 149.276 121.706 148.998 121.706C148.721 121.706 148.447 121.639 148.201 121.51C147.834 121.287 149.381 120.393 149.796 120.617Z" fill="#16110D"/>
<path d="M87.6744 150.929C87.9202 150.799 88.194 150.731 88.472 150.731C88.7501 150.731 89.0239 150.799 89.2697 150.929C89.7005 151.184 89.7005 151.583 89.2697 151.822C89.0272 151.962 88.7521 152.036 88.472 152.036C88.192 152.036 87.9169 151.962 87.6744 151.822C87.2596 151.599 87.2596 151.2 87.6744 150.929Z" fill="#16110D"/>
<path d="M93.3355 148.616C93.4258 148.65 93.5034 148.712 93.5582 148.791C93.613 148.871 93.6423 148.966 93.6423 149.062C93.6423 149.159 93.613 149.253 93.5582 149.333C93.5034 149.413 93.4258 149.474 93.3355 149.509C93.093 149.649 92.8179 149.723 92.5378 149.723C92.2578 149.723 91.9827 149.649 91.7402 149.509C91.3094 149.27 91.3094 148.871 91.7402 148.616C91.9872 148.49 92.2605 148.424 92.5378 148.424C92.8151 148.424 93.0885 148.49 93.3355 148.616Z" fill="#16110D"/>
<path d="M97.3077 146.287C97.7384 146.542 97.7384 146.941 97.3077 147.18C97.0607 147.306 96.7873 147.372 96.51 147.372C96.2327 147.372 95.9593 147.306 95.7123 147.18C95.2816 146.941 95.2816 146.542 95.7123 146.287C95.9593 146.16 96.2327 146.095 96.51 146.095C96.7873 146.095 97.0607 146.16 97.3077 146.287Z" fill="#16110D"/>
<path d="M100.578 145.041C101.177 145.041 101.663 144.756 101.663 144.403C101.663 144.051 101.177 143.765 100.578 143.765C99.979 143.765 99.4933 144.051 99.4933 144.403C99.4933 144.756 99.979 145.041 100.578 145.041Z" fill="#16110D"/>
<path d="M105.382 141.628C105.813 141.868 105.813 142.266 105.382 142.522C105.135 142.648 104.862 142.713 104.585 142.713C104.307 142.713 104.034 142.648 103.787 142.522C103.697 142.487 103.619 142.426 103.564 142.346C103.51 142.266 103.48 142.172 103.48 142.075C103.48 141.978 103.51 141.884 103.564 141.804C103.619 141.724 103.697 141.663 103.787 141.628C104.03 141.488 104.305 141.415 104.585 141.415C104.865 141.415 105.14 141.488 105.382 141.628Z" fill="#16110D"/>
<path d="M109.419 139.299C109.85 139.538 109.85 139.937 109.419 140.193C109.172 140.319 108.899 140.384 108.622 140.384C108.344 140.384 108.071 140.319 107.824 140.193C107.734 140.158 107.656 140.097 107.601 140.017C107.547 139.937 107.517 139.843 107.517 139.746C107.517 139.649 107.547 139.555 107.601 139.475C107.656 139.395 107.734 139.334 107.824 139.299C108.067 139.159 108.342 139.085 108.622 139.085C108.902 139.085 109.177 139.159 109.419 139.299Z" fill="#16110D"/>
<path d="M112.688 138.054C113.287 138.054 113.772 137.768 113.772 137.416C113.772 137.064 113.287 136.778 112.688 136.778C112.088 136.778 111.603 137.064 111.603 137.416C111.603 137.768 112.088 138.054 112.688 138.054Z" fill="#16110D"/>
<path d="M116.725 135.709C117.324 135.709 117.81 135.424 117.81 135.071C117.81 134.719 117.324 134.433 116.725 134.433C116.126 134.433 115.64 134.719 115.64 135.071C115.64 135.424 116.126 135.709 116.725 135.709Z" fill="#16110D"/>
<path d="M120.76 133.381C121.359 133.381 121.845 133.095 121.845 132.743C121.845 132.39 121.359 132.104 120.76 132.104C120.161 132.104 119.675 132.39 119.675 132.743C119.675 133.095 120.161 133.381 120.76 133.381Z" fill="#16110D"/>
<path d="M124.797 131.052C125.396 131.052 125.882 130.766 125.882 130.414C125.882 130.061 125.396 129.775 124.797 129.775C124.198 129.775 123.712 130.061 123.712 130.414C123.712 130.766 124.198 131.052 124.797 131.052Z" fill="#16110D"/>
<path d="M129.614 127.638C129.704 127.672 129.782 127.734 129.837 127.813C129.891 127.893 129.921 127.988 129.921 128.084C129.921 128.181 129.891 128.275 129.837 128.355C129.782 128.435 129.704 128.496 129.614 128.531C129.367 128.657 129.093 128.723 128.816 128.723C128.539 128.723 128.265 128.657 128.018 128.531C127.588 128.276 127.588 127.877 128.018 127.638C128.265 127.512 128.539 127.446 128.816 127.446C129.093 127.446 129.367 127.512 129.614 127.638Z" fill="#16110D"/>
<path d="M176.582 123.027C176.824 122.887 177.099 122.813 177.379 122.813C177.659 122.813 177.934 122.887 178.177 123.027C178.608 123.266 178.608 123.665 178.177 123.92C177.93 124.046 177.657 124.112 177.379 124.112C177.102 124.112 176.829 124.046 176.582 123.92C176.491 123.885 176.414 123.824 176.359 123.744C176.304 123.665 176.275 123.57 176.275 123.473C176.275 123.377 176.304 123.282 176.359 123.202C176.414 123.123 176.491 123.061 176.582 123.027Z" fill="#16110D"/>
<path d="M172.545 120.697C172.791 120.567 173.065 120.5 173.343 120.5C173.621 120.5 173.895 120.567 174.141 120.697C174.572 120.953 174.572 121.351 174.141 121.591C173.898 121.731 173.623 121.804 173.343 121.804C173.063 121.804 172.788 121.731 172.545 121.591C172.131 121.335 172.115 120.937 172.545 120.697Z" fill="#16110D"/>
<path d="M177.363 119.437C177.963 119.437 178.448 119.151 178.448 118.799C178.448 118.446 177.963 118.161 177.363 118.161C176.764 118.161 176.279 118.446 176.279 118.799C176.279 119.151 176.764 119.437 177.363 119.437Z" fill="#16110D"/>
<path d="M168.479 118.337C168.722 118.197 168.997 118.123 169.277 118.123C169.557 118.123 169.832 118.197 170.074 118.337C170.165 118.372 170.242 118.433 170.297 118.513C170.352 118.592 170.381 118.687 170.381 118.783C170.381 118.88 170.352 118.975 170.297 119.054C170.242 119.134 170.165 119.195 170.074 119.23C169.827 119.356 169.554 119.422 169.277 119.422C168.999 119.422 168.726 119.356 168.479 119.23C168.048 119.023 168.048 118.576 168.479 118.337Z" fill="#16110D"/>
<path d="M173.295 117.092C173.894 117.092 174.38 116.807 174.38 116.454C174.38 116.102 173.894 115.816 173.295 115.816C172.696 115.816 172.21 116.102 172.21 116.454C172.21 116.807 172.696 117.092 173.295 117.092Z" fill="#16110D"/>
<path d="M164.442 116.008C164.684 115.868 164.96 115.794 165.24 115.794C165.52 115.794 165.795 115.868 166.037 116.008C166.128 116.042 166.205 116.104 166.26 116.183C166.315 116.263 166.344 116.358 166.344 116.454C166.344 116.551 166.315 116.646 166.26 116.725C166.205 116.805 166.128 116.866 166.037 116.901C165.79 117.027 165.517 117.093 165.24 117.093C164.962 117.093 164.689 117.027 164.442 116.901C164.011 116.646 164.011 116.247 164.442 116.008Z" fill="#16110D"/>
<path d="M170.024 113.661C170.455 113.916 170.455 114.315 170.024 114.554C169.782 114.694 169.507 114.768 169.227 114.768C168.947 114.768 168.671 114.694 168.429 114.554C167.998 114.315 167.998 113.916 168.429 113.661C168.676 113.535 168.949 113.469 169.227 113.469C169.504 113.469 169.777 113.535 170.024 113.661Z" fill="#16110D"/>
<path d="M170.424 110.854V108.573H169.004L168.717 108.381L110.886 74.9749C109.32 74.2644 107.609 73.9317 105.891 74.0038C104.173 74.0758 102.496 74.5506 100.995 75.3897L27.0509 118.352C26.5774 118.623 26.1382 118.95 25.7428 119.325H24.642V124.351C24.6841 124.868 24.8629 125.365 25.1599 125.791C25.457 126.217 25.8618 126.557 26.333 126.775L84.212 160.182C85.778 160.892 87.4889 161.225 89.207 161.153C90.9251 161.081 92.6022 160.606 94.1032 159.767L167.999 116.805C168.628 116.527 169.177 116.097 169.598 115.554C170.019 115.011 170.297 114.372 170.408 113.694V110.854H170.424Z" fill="#FFBE2E"/>
<path d="M170.41 113.678V108.557H168.99L168.703 108.365L147.229 95.9694C146.116 95.9454 145.004 96.0417 143.911 96.2566C140.88 97.2776 91.7435 125.882 90.6906 130.189C89.6376 134.497 87.8668 156.257 87.8668 156.257V161.043C90.0334 161.178 92.1944 160.703 94.1046 159.671L168.001 116.789C168.629 116.511 169.179 116.081 169.599 115.538C170.02 114.995 170.299 114.356 170.41 113.678Z" fill="#16110D"/>
<path d="M88.5528 161.665C86.9736 161.714 85.4083 161.356 84.0061 160.628L26.0952 127.222C25.5461 126.96 25.0756 126.559 24.7311 126.057C24.3866 125.556 24.1803 124.973 24.1329 124.366V118.815H25.5368C25.9254 118.47 26.3476 118.165 26.7972 117.905L100.709 74.9428C102.291 74.068 104.055 73.5749 105.861 73.5029C107.667 73.4308 109.465 73.7819 111.111 74.528L168.974 107.934L169.165 108.062H170.936V113.694C170.831 114.464 170.531 115.195 170.065 115.817C169.599 116.44 168.982 116.933 168.272 117.251L94.3599 160.214C92.5762 161.176 90.5795 161.675 88.5528 161.665ZM25.154 119.836V124.35C25.1965 124.78 25.3537 125.19 25.6091 125.538C25.8645 125.886 26.2087 126.159 26.6057 126.329L84.4688 159.735C85.9551 160.405 87.5775 160.718 89.2064 160.648C90.8352 160.579 92.4253 160.13 93.8494 159.336L167.746 116.374C168.298 116.13 168.782 115.756 169.158 115.284C169.533 114.811 169.787 114.255 169.899 113.662V109.083H168.846H168.719L168.448 108.908L110.585 75.5012C109.098 74.8313 107.476 74.5184 105.847 74.5877C104.218 74.6569 102.628 75.1064 101.204 75.9L27.3077 118.799C26.8709 119.049 26.4641 119.349 26.0952 119.692L25.9516 119.836H25.154Z" fill="#16110D"/>
<path d="M84.2097 155.333L26.3307 121.926C23.7941 120.458 24.1132 117.906 27.0327 116.215L100.945 73.2525C102.446 72.4133 104.123 71.9386 105.841 71.8666C107.559 71.7945 109.27 72.1272 110.836 72.8377L168.715 106.26C171.252 107.728 170.933 110.28 167.997 111.971L94.1009 154.918C92.5987 155.753 90.9219 156.226 89.2045 156.298C87.4871 156.37 85.7766 156.039 84.2097 155.333Z" fill="#FFBE2E"/>
<path d="M88.5503 156.816C86.9696 156.859 85.4042 156.497 84.0035 155.763L26.0926 122.357C25.5305 122.093 25.0499 121.683 24.7017 121.169C24.3535 120.655 24.1506 120.057 24.1144 119.437C24.2047 118.646 24.4992 117.891 24.9691 117.248C25.439 116.605 26.0681 116.095 26.7946 115.768L100.707 72.7577C102.288 71.8829 104.052 71.3898 105.858 71.3178C107.664 71.2458 109.462 71.5968 111.108 72.3429L168.971 105.749C169.531 106.015 170.008 106.426 170.353 106.94C170.698 107.454 170.899 108.051 170.934 108.669C170.848 109.464 170.555 110.222 170.085 110.868C169.614 111.515 168.983 112.027 168.254 112.354L94.3573 155.364C92.5736 156.327 90.5769 156.826 88.5503 156.816ZM106.61 72.3589C104.745 72.3404 102.906 72.796 101.265 73.683L27.3051 116.645C26.7367 116.889 26.2395 117.273 25.86 117.761C25.4805 118.25 25.2312 118.826 25.1354 119.437C25.175 119.878 25.3321 120.3 25.5903 120.659C25.8484 121.018 26.1982 121.301 26.6031 121.479L84.4662 154.886C85.9531 155.556 87.5766 155.867 89.2059 155.795C90.8352 155.723 92.4248 155.269 93.8468 154.471L167.743 111.508C168.312 111.266 168.81 110.882 169.19 110.394C169.57 109.905 169.818 109.328 169.913 108.717C169.873 108.28 169.718 107.862 169.463 107.506C169.208 107.15 168.862 106.868 168.461 106.691L110.598 73.2842C109.353 72.6375 107.964 72.3191 106.562 72.3589H106.61Z" fill="#16110D"/>
<path d="M89.7337 152.078L89.4784 151.935L33.6415 119.725L103.948 78.8364L104.188 78.98L160.024 111.19L89.7337 152.078Z" fill="#16110D"/>
<path d="M90.0183 148.839L33.2401 116.039L104.935 74.353L161.713 107.153L90.0183 148.839Z" fill="#FFEECC"/>
<path d="M90.0176 149.413L89.7624 149.27L32.2184 116.055L104.934 73.7783L105.189 73.9219L162.733 107.137L90.0176 149.413ZM34.3083 116.055L90.1453 148.249L160.835 107.137L104.998 74.9429L34.3083 116.055Z" fill="#16110D"/>
<path d="M152.683 88.0568V88.2802L146.908 84.9459C146.796 84.9459 146.716 85.0895 146.589 85.1533C144.993 86.0945 144.004 87.6101 142.377 86.7486C140.75 85.8871 139.059 85.4883 140.686 84.5471L141.069 84.3716L141.595 80.0163L139.346 79.2346L138.995 83.1751L132.614 76.7937C131.481 76.1556 129.566 76.4587 129.2 77.3521L128.386 79.3463L127.636 79.2665V84.0525C127.663 84.2169 127.73 84.3723 127.83 84.5056C127.93 84.6389 128.06 84.7462 128.21 84.8183L145.759 94.9646C146.336 95.252 146.987 95.3576 147.626 95.2677L154.007 94.4541C155.044 94.3105 155.602 93.7841 155.602 93.2417V88.5673L152.683 88.0568Z" fill="#16110D"/>
<path d="M147.209 95.7304C146.619 95.7413 146.036 95.5984 145.518 95.3156L127.97 85.1692C127.742 85.038 127.542 84.8647 127.379 84.6587L127.14 84.7864V78.5965H128.065L128.735 77.0011C128.86 76.7538 129.036 76.5353 129.25 76.3595C129.464 76.1837 129.713 76.0545 129.98 75.9801C130.454 75.82 130.955 75.7572 131.454 75.7956C131.953 75.834 132.439 75.9727 132.883 76.2035L132.979 76.2832L138.595 81.9147L138.898 78.4529L142.184 79.6175V85.0097L141.291 84.7066C141.173 84.7465 141.061 84.8001 140.956 84.8661L140.605 85.0895C140.901 85.2805 141.21 85.451 141.53 85.6C141.912 85.7725 142.284 85.9642 142.647 86.1743C143.524 86.6848 144.067 86.3179 145.12 85.5202C145.509 85.2109 145.92 84.9284 146.348 84.6747L146.539 84.5471L146.795 84.3397L147.178 84.4513L152.346 87.4346L155.904 87.9611C155.991 87.9691 156.073 88.0095 156.132 88.0745C156.191 88.1395 156.223 88.2242 156.223 88.3121V93.0981C156.223 93.9276 155.457 94.6934 154.197 94.8051L147.816 95.6347L147.209 95.7304ZM128.065 83.9089C128.094 83.9894 128.138 84.0633 128.196 84.1263C128.253 84.1894 128.323 84.2402 128.4 84.2759L145.949 94.4222C146.442 94.6683 146.999 94.7574 147.544 94.6774L153.926 93.8479C154.692 93.7522 155.074 93.4012 155.059 93.1938V88.9183L153.032 88.6152V89.0938L146.906 85.5202H146.811C146.418 85.7586 146.04 86.0196 145.678 86.3019C144.641 87.0836 143.588 87.8973 142.088 87.0198C141.737 86.8124 141.37 86.637 141.035 86.4774C140.174 86.0626 139.44 85.7276 139.44 85.1054C139.44 84.4832 139.935 84.1961 140.365 83.9409C140.365 83.9409 141.051 84.3397 141.083 84.3237V80.3673L139.727 79.7291L139.344 84.1483L132.229 77.0171C131.6 76.7396 130.891 76.6999 130.235 76.9054C129.979 76.9709 129.757 77.1304 129.613 77.3521L128.64 79.6973H128.081L128.065 83.9089Z" fill="#16110D"/>
<path d="M155.076 87.7219L146.876 82.9359C146.776 83.0193 146.67 83.094 146.557 83.1592C145.642 83.6231 144.631 83.8649 143.606 83.8649C142.58 83.8649 141.569 83.6231 140.654 83.1592C140.298 83.0381 139.988 82.8084 139.769 82.5022C139.549 82.196 139.431 81.8289 139.431 81.4523C139.431 81.0756 139.549 80.7084 139.769 80.4022C139.988 80.0961 140.298 79.8663 140.654 79.7452L141.037 79.5697L132.582 74.688C131.449 74.0339 129.535 74.353 129.168 75.2464L127.652 78.9156C127.493 79.3145 127.652 79.7292 128.195 80.0164L145.743 90.1628C146.321 90.4501 146.971 90.5558 147.61 90.4659L153.991 89.6523C155.651 89.4927 156.209 88.376 155.076 87.7219Z" fill="#FFEECC"/>
<path d="M147.21 91.0567C146.62 91.0677 146.037 90.9247 145.519 90.6419L127.97 80.4956C127.649 80.3577 127.393 80.1027 127.254 79.7826C127.115 79.4625 127.103 79.1013 127.22 78.7726L128.72 75.1033C128.845 74.8542 129.02 74.6335 129.234 74.4551C129.448 74.2767 129.697 74.1443 129.964 74.0664C130.439 73.9107 130.94 73.8503 131.438 73.8886C131.937 73.927 132.422 74.0632 132.868 74.2897L142.169 79.666L141.275 80.0808C141.158 80.1207 141.045 80.1743 140.94 80.2403C140.682 80.3468 140.456 80.5192 140.285 80.7404C140.114 80.9616 140.005 81.2238 139.967 81.5007C140.005 81.7776 140.114 82.0397 140.285 82.2609C140.456 82.4821 140.682 82.6545 140.94 82.7609C141.778 83.1782 142.701 83.3954 143.636 83.3954C144.572 83.3954 145.495 83.1782 146.333 82.7609L146.524 82.6333L146.779 82.4259L147.162 82.5376L155.362 87.3236C155.645 87.454 155.878 87.6717 156.027 87.9446C156.176 88.2174 156.234 88.531 156.192 88.8392C156.045 89.2537 155.773 89.6121 155.412 89.8639C155.052 90.1156 154.621 90.2482 154.182 90.2431L147.8 91.0727L147.21 91.0567ZM131.145 74.8959C130.846 74.8943 130.55 74.9428 130.267 75.0395C130.139 75.0689 130.018 75.1235 129.911 75.2002C129.805 75.2769 129.714 75.3741 129.645 75.4862L128.05 79.1555C128.05 79.3629 128.273 79.5543 128.369 79.6181L145.918 89.7645C146.411 90.0106 146.968 90.0997 147.513 90.0197L153.894 89.1901C154.644 89.0944 154.995 88.7594 155.027 88.584C155.059 88.4085 154.788 88.217 154.692 88.1691L146.715 83.5905H146.62C145.632 84.096 144.538 84.3595 143.429 84.3595C142.32 84.3595 141.226 84.096 140.238 83.5905C139.822 83.396 139.465 83.0938 139.204 82.7152C138.943 82.3366 138.788 81.8953 138.755 81.4368C138.77 81.0588 138.877 80.6902 139.066 80.3624C139.255 80.0346 139.52 79.7573 139.839 79.5543L132.166 75.1033C131.844 74.9639 131.496 74.8932 131.145 74.8959Z" fill="#16110D"/>
<path d="M156.05 104.041L110.551 77.782C109.466 77.1438 109.594 76.0431 110.87 75.3092L113.678 73.7139C114.326 73.3574 115.048 73.1561 115.787 73.1256C116.526 73.0952 117.262 73.2364 117.938 73.5383L163.437 99.8136C164.538 100.436 164.394 101.552 163.134 102.27L160.326 103.866C159.676 104.225 158.951 104.427 158.209 104.458C157.467 104.488 156.728 104.346 156.05 104.041Z" fill="#FFEECC"/>
<path d="M157.917 104.984C157.179 105.003 156.448 104.833 155.795 104.489L110.296 78.214C110.011 78.0764 109.769 77.8643 109.595 77.6004C109.421 77.3364 109.321 77.0303 109.307 76.7144C109.341 76.3196 109.48 75.9412 109.71 75.6186C109.94 75.2959 110.253 75.0408 110.615 74.8797L113.422 73.2844C114.147 72.8712 114.961 72.6395 115.794 72.6089C116.627 72.5784 117.456 72.7499 118.209 73.1089L163.708 99.3682C163.996 99.5077 164.241 99.7219 164.417 99.9885C164.594 100.255 164.696 100.564 164.713 100.884C164.671 101.276 164.528 101.651 164.299 101.972C164.07 102.294 163.762 102.551 163.405 102.718L160.597 104.314C159.776 104.763 158.853 104.994 157.917 104.984ZM156.321 103.596C156.92 103.857 157.571 103.978 158.224 103.947C158.877 103.917 159.514 103.736 160.086 103.42L162.894 101.825C163.389 101.554 163.692 101.187 163.692 100.884C163.692 100.581 163.421 100.373 163.197 100.246L117.698 73.9864C117.102 73.725 116.453 73.6048 115.803 73.6353C115.153 73.6657 114.518 73.8459 113.949 74.1619L111.141 75.7572C110.647 76.0444 110.343 76.3954 110.343 76.7144C110.343 77.0335 110.615 77.2089 110.822 77.3366L156.321 103.596Z" fill="#16110D"/>
<path d="M141.803 97.9948L119.054 84.8492C118.511 84.546 118.575 83.9877 119.213 83.6208L120.617 82.8071C120.939 82.6266 121.299 82.5253 121.668 82.5114C122.037 82.4975 122.404 82.5716 122.739 82.7274L145.488 95.857C146.047 96.1761 145.967 96.7185 145.345 97.0854L143.941 97.899C143.616 98.0786 143.254 98.1807 142.883 98.1973C142.513 98.2139 142.143 98.1446 141.803 97.9948Z" fill="#FFBE2E"/>
<path d="M142.791 98.7133C142.38 98.7207 141.973 98.6218 141.611 98.4262L118.861 85.2965C118.68 85.205 118.526 85.0665 118.417 84.8953C118.307 84.724 118.246 84.5265 118.239 84.3234C118.255 84.0797 118.336 83.8447 118.474 83.6428C118.611 83.4409 118.8 83.2793 119.021 83.1747L120.425 82.3771C120.822 82.1471 121.27 82.0181 121.729 82.0014C122.188 81.9847 122.644 82.0808 123.057 82.2814L145.807 95.411C145.991 95.5043 146.148 95.6451 146.26 95.819C146.372 95.9928 146.436 96.1934 146.445 96.4001C146.426 96.641 146.343 96.8726 146.206 97.0715C146.069 97.2704 145.881 97.4295 145.663 97.5328L144.259 98.3464C143.808 98.5889 143.303 98.715 142.791 98.7133ZM121.892 83.0152C121.558 83.0107 121.228 83.0932 120.935 83.2545L119.531 84.0681C119.308 84.1798 119.26 84.2915 119.26 84.3234C119.29 84.3625 119.328 84.3951 119.372 84.4191L142.121 97.5487C142.377 97.653 142.654 97.6985 142.93 97.6819C143.206 97.6654 143.475 97.5872 143.717 97.453L145.121 96.6394C145.328 96.5277 145.392 96.416 145.392 96.3841L145.264 96.3044L122.515 83.1588C122.303 83.0502 122.066 83.0006 121.829 83.0152H121.892Z" fill="#16110D"/>
<path d="M100.979 109.211C99.911 108.669 98.7303 108.386 97.5328 108.386C96.3352 108.386 95.1546 108.669 94.0869 109.211C93.6682 109.348 93.3035 109.614 93.0449 109.971C92.7863 110.327 92.6471 110.757 92.6471 111.197C92.6471 111.638 92.7863 112.067 93.0449 112.424C93.3035 112.781 93.6682 113.046 94.0869 113.184C95.1546 113.726 96.3352 114.008 97.5328 114.008C98.7303 114.008 99.911 113.726 100.979 113.184C101.397 113.046 101.762 112.781 102.021 112.424C102.279 112.067 102.418 111.638 102.418 111.197C102.418 110.757 102.279 110.327 102.021 109.971C101.762 109.614 101.397 109.348 100.979 109.211Z" fill="#16110D"/>
<path d="M108.477 104.123C105.092 102.382 101.34 101.474 97.5333 101.474C93.7265 101.474 89.9746 102.382 86.5893 104.123C83.3986 105.957 81.6597 108.462 81.6597 111.19C81.6597 113.918 83.4145 116.439 86.5893 118.273C89.9746 120.014 93.7265 120.923 97.5333 120.923C101.34 120.923 105.092 120.014 108.477 118.273C111.668 116.439 113.391 113.918 113.391 111.19C113.391 108.462 111.652 105.957 108.477 104.123ZM107.169 116.008C104.181 117.526 100.877 118.317 97.5253 118.317C94.1739 118.317 90.8697 117.526 87.8815 116.008C85.5523 114.668 84.276 112.961 84.276 111.222C84.276 109.483 85.5523 107.76 87.8815 106.436C90.8719 104.926 94.1752 104.139 97.5253 104.139C100.875 104.139 104.179 104.926 107.169 106.436C109.498 107.792 110.791 109.499 110.791 111.222C110.791 112.945 109.498 114.668 107.169 116.008Z" fill="#16110D"/>
<path d="M100.979 106.595C99.911 106.053 98.7303 105.771 97.5328 105.771C96.3352 105.771 95.1546 106.053 94.0869 106.595C93.6682 106.732 93.3035 106.998 93.0449 107.355C92.7863 107.712 92.6471 108.141 92.6471 108.582C92.6471 109.022 92.7863 109.452 93.0449 109.808C93.3035 110.165 93.6682 110.431 94.0869 110.568C95.1546 111.11 96.3352 111.393 97.5328 111.393C98.7303 111.393 99.911 111.11 100.979 110.568C101.397 110.431 101.762 110.165 102.021 109.808C102.279 109.452 102.418 109.022 102.418 108.582C102.418 108.141 102.279 107.712 102.021 107.355C101.762 106.998 101.397 106.732 100.979 106.595Z" fill="#FFBE2E"/>
<path d="M108.477 101.474C105.092 99.7329 101.34 98.8247 97.5333 98.8247C93.7265 98.8247 89.9746 99.7329 86.5893 101.474C83.3986 103.309 81.6597 105.813 81.6597 108.541C81.6597 111.269 83.4145 113.79 86.5893 115.625C89.9715 117.376 93.7246 118.29 97.5333 118.29C101.342 118.29 105.095 117.376 108.477 115.625C111.668 113.79 113.391 111.285 113.391 108.541C113.391 105.797 111.652 103.34 108.477 101.474ZM107.169 113.375C104.179 114.885 100.875 115.672 97.5253 115.672C94.1752 115.672 90.8719 114.885 87.8815 113.375C85.5523 112.019 84.276 110.312 84.276 108.589C84.276 106.866 85.5523 105.127 87.8815 103.803C90.869 102.283 94.1734 101.491 97.5253 101.491C100.877 101.491 104.182 102.283 107.169 103.803C109.498 105.143 110.791 106.85 110.791 108.589C110.791 110.328 109.498 112.051 107.169 113.407V113.375Z" fill="#FFBE2E"/>
<path d="M95.4752 29.1406C85.2012 33.9267 75.9801 48.2847 75.1026 61.4941C74.5811 65.8625 75.5599 70.2786 77.8785 74.0175L92.6993 102.095L99.7985 105.557C100.437 104.121 110.79 54.7937 111.269 53.294C112.386 49.8322 119.964 47.6625 120.012 44.2804C120.235 31.9325 105.51 24.5301 95.4752 29.1406ZM94.1829 60.7921C90.1308 62.8182 87.0198 60.3295 87.2751 55.2882C87.5304 50.2469 90.9603 44.7909 94.9168 42.9084C98.8732 41.0259 101.841 43.4189 101.697 48.2528C101.553 53.0866 98.1234 58.798 94.1829 60.7921Z" fill="#FFBE2E"/>
<path d="M96.7662 31.6767C86.4762 36.4627 77.2551 50.8207 76.3777 64.0141C76.2178 66.2939 76.3626 68.5848 76.8084 70.8262C88.5502 77.8936 97.3405 77.4788 106.498 83.7325C109.353 70.4753 112.305 56.6118 112.56 55.8301C113.661 52.3682 119.34 49.7678 119.404 46.3857C119.442 43.6897 118.796 41.0282 117.526 38.6495C116.257 36.2709 114.405 34.2529 112.144 32.7839C109.883 31.3149 107.287 30.4428 104.598 30.2492C101.909 30.0556 99.2142 30.5467 96.7662 31.6767ZM95.458 63.3281C91.4058 65.3383 88.3109 62.8655 88.5661 57.8243C88.8214 52.783 92.2514 47.3269 96.1919 45.4444C100.132 43.5619 103.132 45.939 102.972 50.7888C102.813 55.6386 99.4623 61.318 95.458 63.3281Z" fill="#FFEECC"/>
<path d="M100.18 106.626L92.1239 102.686L91.9963 102.462L77.1915 74.3524C74.7969 70.4951 73.7843 65.9385 74.3199 61.4301C75.1973 48.1091 84.546 33.3044 95.1551 28.4226C98.0402 27.2358 101.174 26.7808 104.277 27.0981C107.381 27.4154 110.358 28.4952 112.943 30.2413C115.351 31.7055 117.34 33.7679 118.715 36.2279C120.091 38.6879 120.806 41.4619 120.792 44.2803C120.792 46.4499 118.415 48.0612 116.166 49.6087C114.347 50.8531 112.465 52.1453 112.018 53.5173C111.826 54.1076 109.896 63.0893 107.854 72.6613C103.786 91.5661 100.898 105.015 100.515 105.876L100.18 106.626ZM93.3364 101.473L99.3668 104.424C100.324 100.58 103.786 84.419 106.386 72.3104C108.859 60.7601 110.391 53.6449 110.598 53.0387C111.204 51.1402 113.31 49.6885 115.384 48.2527C117.458 46.8169 119.325 45.5565 119.356 44.1846C119.369 41.6192 118.716 39.0945 117.46 36.8574C116.205 34.6202 114.39 32.7473 112.193 31.4219C109.83 29.8215 107.109 28.8285 104.271 28.5307C101.432 28.233 98.5645 28.6397 95.9208 29.7149C85.6628 34.469 76.7289 48.827 75.8833 61.5897C75.3709 65.7767 76.2993 70.0135 78.5157 73.6026L93.3364 101.473ZM91.5496 62.2438C90.6552 62.2542 89.7779 61.9988 89.029 61.5099C88.0905 60.7744 87.3621 59.8049 86.9169 58.6988C86.4716 57.5927 86.3252 56.3889 86.4924 55.2083C86.7636 49.9278 90.3212 44.1846 94.5807 42.1585C95.4024 41.6823 96.3352 41.4314 97.2848 41.4314C98.2345 41.4314 99.1673 41.6823 99.989 42.1585C100.886 42.8733 101.585 43.8054 102.021 44.8664C102.456 45.9273 102.614 47.082 102.478 48.2208C102.302 53.3897 98.7446 59.3881 94.501 61.4301C93.5746 61.9407 92.5426 62.2301 91.4858 62.2757L91.5496 62.2438ZM97.5162 43.02C96.7505 43.0442 95.9993 43.2347 95.3146 43.5783C91.5815 45.3651 88.3589 50.6138 88.1196 55.3041C87.9679 56.2038 88.0512 57.1275 88.3615 57.9856C88.6717 58.8437 89.1984 59.6071 89.8904 60.2018C90.5092 60.5397 91.2077 60.7048 91.9123 60.6795C92.6169 60.6542 93.3017 60.4396 93.8947 60.0582C97.6438 58.1916 100.819 52.8632 100.978 48.2048C101.101 47.3333 101.002 46.4448 100.69 45.6219C100.377 44.799 99.862 44.0686 99.1913 43.4986C98.6713 43.1747 98.0641 43.0187 97.4524 43.0519L97.5162 43.02Z" fill="#16110D"/>
<path d="M120.189 46.4033C120.396 34.0554 112.611 27.9931 102.64 32.6196C92.3661 37.4056 83.145 51.7636 82.2676 64.9571C81.7052 69.3416 82.6685 73.7861 84.9956 77.5443L99.8004 105.622L116.695 61.24C117.308 59.8029 117.841 58.3329 118.29 56.8368C119.43 53.4704 120.069 49.9552 120.189 46.4033Z" fill="#16110D"/>
<path d="M100.18 106.626L99.2232 106.163L84.2908 77.846C81.8949 73.9833 80.8824 69.4213 81.4192 64.9078C82.2966 51.5867 91.6453 36.782 102.254 31.9003C107.04 29.7147 111.523 29.7466 115.017 31.996C118.989 34.5964 121.127 39.7174 121.016 46.354C120.914 49.9559 120.29 53.524 119.165 56.9471C118.678 58.4715 118.108 59.968 117.458 61.43L100.18 106.626ZM108.987 31.8524C106.879 31.9004 104.806 32.4009 102.908 33.3201C92.762 37.9945 83.7643 52.209 82.9826 65.0036C82.478 69.1953 83.4056 73.4345 85.6149 77.0324L99.7177 103.675L115.99 60.9035C116.595 59.4741 117.127 58.0152 117.586 56.5323C118.661 53.253 119.258 49.8357 119.356 46.386C119.452 40.3396 117.522 35.5696 114.06 33.3042C112.547 32.3347 110.783 31.83 108.987 31.8524Z" fill="#16110D"/>
<path d="M100.389 73.905L92.8433 68.784C91.7904 68.0661 91.8701 65.9443 93.0188 63.998C94.1674 62.1155 95.9701 61.1742 97.0231 61.8921L100.82 64.4766L107.839 50.2302C108.829 48.268 110.599 47.0395 111.812 47.4703C113.024 47.901 113.2 49.8633 112.211 51.8256L101.713 73.0435C101.315 73.7774 100.74 74.1603 100.389 73.905Z" fill="#FFBE2E"/>
</svg>
