<svg width="201" height="200" viewBox="0 0 201 200" fill="none" xmlns="http://www.w3.org/2000/svg">
<path d="M91.7741 120.979C92.291 120.979 92.71 120.732 92.71 120.428C92.71 120.124 92.291 119.878 91.7741 119.878C91.2573 119.878 90.8383 120.124 90.8383 120.428C90.8383 120.732 91.2573 120.979 91.7741 120.979Z" fill="#16110D"/>
<path d="M95.2546 118.97C95.7715 118.97 96.1905 118.724 96.1905 118.42C96.1905 118.116 95.7715 117.869 95.2546 117.869C94.7377 117.869 94.3187 118.116 94.3187 118.42C94.3187 118.724 94.7377 118.97 95.2546 118.97Z" fill="#16110D"/>
<path d="M98.7361 116.96C99.2529 116.96 99.6719 116.714 99.6719 116.41C99.6719 116.106 99.2529 115.859 98.7361 115.859C98.2192 115.859 97.8002 116.106 97.8002 116.41C97.8002 116.714 98.2192 116.96 98.7361 116.96Z" fill="#16110D"/>
<path d="M102.894 114.015C102.972 114.045 103.039 114.098 103.086 114.167C103.134 114.235 103.159 114.317 103.159 114.4C103.159 114.484 103.134 114.565 103.086 114.634C103.039 114.703 102.972 114.756 102.894 114.786C102.681 114.895 102.445 114.951 102.206 114.951C101.967 114.951 101.731 114.895 101.518 114.786C101.146 114.566 101.146 114.221 101.518 114.015C101.731 113.906 101.967 113.85 102.206 113.85C102.445 113.85 102.681 113.906 102.894 114.015Z" fill="#16110D"/>
<path d="M106.378 112.006C106.456 112.036 106.523 112.088 106.57 112.157C106.617 112.226 106.643 112.308 106.643 112.391C106.643 112.474 106.617 112.556 106.57 112.625C106.523 112.694 106.456 112.746 106.378 112.776C106.165 112.885 105.929 112.942 105.69 112.942C105.451 112.942 105.215 112.885 105.002 112.776C104.63 112.556 104.63 112.212 105.002 112.006C105.211 111.885 105.448 111.821 105.69 111.821C105.931 111.821 106.169 111.885 106.378 112.006Z" fill="#16110D"/>
<path d="M88.9526 118.034C89.3242 118.254 89.3242 118.598 88.9526 118.804C88.7434 118.925 88.506 118.989 88.2645 118.989C88.0229 118.989 87.7855 118.925 87.5763 118.804C87.4984 118.774 87.4314 118.722 87.3842 118.653C87.3369 118.584 87.3116 118.502 87.3116 118.419C87.3116 118.336 87.3369 118.254 87.3842 118.185C87.4314 118.116 87.4984 118.064 87.5763 118.034C87.7894 117.925 88.0252 117.868 88.2645 117.868C88.5037 117.868 88.7395 117.925 88.9526 118.034Z" fill="#16110D"/>
<path d="M92.433 116.024C92.8046 116.245 92.8046 116.589 92.433 116.795C92.2199 116.904 91.9841 116.961 91.7449 116.961C91.5056 116.961 91.2698 116.904 91.0567 116.795C90.9788 116.765 90.9118 116.712 90.8646 116.643C90.8173 116.575 90.7921 116.493 90.7921 116.41C90.7921 116.326 90.8173 116.245 90.8646 116.176C90.9118 116.107 90.9788 116.054 91.0567 116.024C91.2698 115.916 91.5056 115.859 91.7449 115.859C91.9841 115.859 92.2199 115.916 92.433 116.024Z" fill="#16110D"/>
<path d="M95.9165 114.015C96.2881 114.221 96.2881 114.566 95.9165 114.786C95.7034 114.895 95.4676 114.951 95.2283 114.951C94.9891 114.951 94.7533 114.895 94.5402 114.786C94.4623 114.756 94.3953 114.703 94.348 114.634C94.3008 114.565 94.2755 114.484 94.2755 114.4C94.2755 114.317 94.3008 114.235 94.348 114.167C94.3953 114.098 94.4623 114.045 94.5402 114.015C94.7533 113.906 94.9891 113.85 95.2283 113.85C95.4676 113.85 95.7034 113.906 95.9165 114.015Z" fill="#16110D"/>
<path d="M99.3999 112.006C99.7715 112.212 99.7715 112.556 99.3999 112.776C99.1875 112.887 98.9514 112.945 98.7118 112.945C98.4721 112.945 98.236 112.887 98.0236 112.776C97.652 112.556 97.652 112.212 98.0236 112.006C98.2329 111.885 98.4702 111.821 98.7118 111.821C98.9534 111.821 99.1907 111.885 99.3999 112.006Z" fill="#16110D"/>
<path d="M102.22 110.933C102.737 110.933 103.156 110.686 103.156 110.382C103.156 110.078 102.737 109.832 102.22 109.832C101.703 109.832 101.284 110.078 101.284 110.382C101.284 110.686 101.703 110.933 102.22 110.933Z" fill="#16110D"/>
<path d="M84.8093 116.96C85.3262 116.96 85.7452 116.714 85.7452 116.41C85.7452 116.106 85.3262 115.859 84.8093 115.859C84.2925 115.859 83.8735 116.106 83.8735 116.41C83.8735 116.714 84.2925 116.96 84.8093 116.96Z" fill="#16110D"/>
<path d="M88.2907 114.951C88.8076 114.951 89.2266 114.705 89.2266 114.401C89.2266 114.097 88.8076 113.85 88.2907 113.85C87.7738 113.85 87.3548 114.097 87.3548 114.401C87.3548 114.705 87.7738 114.951 88.2907 114.951Z" fill="#16110D"/>
<path d="M91.7741 112.942C92.291 112.942 92.71 112.695 92.71 112.391C92.71 112.087 92.291 111.841 91.7741 111.841C91.2573 111.841 90.8383 112.087 90.8383 112.391C90.8383 112.695 91.2573 112.942 91.7741 112.942Z" fill="#16110D"/>
<path d="M95.2546 110.933C95.7715 110.933 96.1905 110.686 96.1905 110.382C96.1905 110.078 95.7715 109.832 95.2546 109.832C94.7377 109.832 94.3187 110.078 94.3187 110.382C94.3187 110.686 94.7377 110.933 95.2546 110.933Z" fill="#16110D"/>
<path d="M99.3999 107.987C99.7715 108.194 99.7715 108.538 99.3999 108.758C99.1875 108.869 98.9514 108.927 98.7118 108.927C98.4721 108.927 98.236 108.869 98.0236 108.758C97.652 108.538 97.652 108.194 98.0236 107.987C98.2329 107.866 98.4702 107.803 98.7118 107.803C98.9534 107.803 99.1907 107.866 99.3999 107.987Z" fill="#16110D"/>
<path d="M81.9876 114.015C82.3592 114.221 82.3592 114.566 81.9876 114.786C81.7746 114.895 81.5387 114.951 81.2995 114.951C81.0603 114.951 80.8244 114.895 80.6113 114.786C80.2397 114.566 80.2397 114.221 80.6113 114.015C80.8244 113.906 81.0603 113.85 81.2995 113.85C81.5387 113.85 81.7746 113.906 81.9876 114.015Z" fill="#16110D"/>
<path d="M85.4692 112.006C85.8408 112.212 85.8408 112.556 85.4692 112.776C85.2561 112.885 85.0203 112.942 84.7811 112.942C84.5418 112.942 84.306 112.885 84.0929 112.776C83.7213 112.556 83.7213 112.212 84.0929 112.006C84.3021 111.885 84.5395 111.821 84.7811 111.821C85.0226 111.821 85.26 111.885 85.4692 112.006Z" fill="#16110D"/>
<path d="M88.9526 109.996C89.3242 110.203 89.3242 110.547 88.9526 110.767C88.7395 110.876 88.5037 110.933 88.2645 110.933C88.0252 110.933 87.7894 110.876 87.5763 110.767C87.4984 110.737 87.4314 110.684 87.3842 110.616C87.3369 110.547 87.3116 110.465 87.3116 110.382C87.3116 110.298 87.3369 110.217 87.3842 110.148C87.4314 110.079 87.4984 110.026 87.5763 109.996C87.7855 109.876 88.0229 109.812 88.2645 109.812C88.506 109.812 88.7434 109.876 88.9526 109.996Z" fill="#16110D"/>
<path d="M92.433 107.987C92.8046 108.194 92.8046 108.538 92.433 108.758C92.2199 108.867 91.9841 108.923 91.7449 108.923C91.5056 108.923 91.2698 108.867 91.0567 108.758C90.9788 108.728 90.9118 108.675 90.8646 108.606C90.8173 108.537 90.7921 108.456 90.7921 108.372C90.7921 108.289 90.8173 108.208 90.8646 108.139C90.9118 108.07 90.9788 108.017 91.0567 107.987C91.2659 107.866 91.5033 107.803 91.7449 107.803C91.9864 107.803 92.2238 107.866 92.433 107.987Z" fill="#16110D"/>
<path d="M95.2546 106.899C95.7715 106.899 96.1905 106.653 96.1905 106.349C96.1905 106.045 95.7715 105.798 95.2546 105.798C94.7377 105.798 94.3187 106.045 94.3187 106.349C94.3187 106.653 94.7377 106.899 95.2546 106.899Z" fill="#16110D"/>
<path d="M77.8313 112.942C78.3481 112.942 78.7672 112.695 78.7672 112.391C78.7672 112.087 78.3481 111.841 77.8313 111.841C77.3144 111.841 76.8954 112.087 76.8954 112.391C76.8954 112.695 77.3144 112.942 77.8313 112.942Z" fill="#16110D"/>
<path d="M81.9876 109.996C82.3592 110.203 82.3592 110.547 81.9876 110.767C81.7746 110.876 81.5387 110.933 81.2995 110.933C81.0603 110.933 80.8244 110.876 80.6113 110.767C80.2397 110.547 80.2397 110.203 80.6113 109.996C80.8206 109.876 81.0579 109.812 81.2995 109.812C81.5411 109.812 81.7784 109.876 81.9876 109.996Z" fill="#16110D"/>
<path d="M85.4692 107.987C85.8408 108.194 85.8408 108.538 85.4692 108.758C85.2561 108.867 85.0203 108.923 84.7811 108.923C84.5418 108.923 84.306 108.867 84.0929 108.758C83.7213 108.538 83.7213 108.194 84.0929 107.987C84.3021 107.866 84.5395 107.803 84.7811 107.803C85.0226 107.803 85.26 107.866 85.4692 107.987Z" fill="#16110D"/>
<path d="M88.2907 106.9C88.8076 106.9 89.2266 106.653 89.2266 106.349C89.2266 106.045 88.8076 105.799 88.2907 105.799C87.7738 105.799 87.3548 106.045 87.3548 106.349C87.3548 106.653 87.7738 106.9 88.2907 106.9Z" fill="#16110D"/>
<path d="M91.7741 104.891C92.291 104.891 92.71 104.644 92.71 104.34C92.71 104.036 92.291 103.79 91.7741 103.79C91.2573 103.79 90.8383 104.036 90.8383 104.34C90.8383 104.644 91.2573 104.891 91.7741 104.891Z" fill="#16110D"/>
<path d="M74.3227 110.905C74.8396 110.905 75.2586 110.659 75.2586 110.355C75.2586 110.051 74.8396 109.804 74.3227 109.804C73.8059 109.804 73.3868 110.051 73.3868 110.355C73.3868 110.659 73.8059 110.905 74.3227 110.905Z" fill="#16110D"/>
<path d="M77.8042 108.895C78.321 108.895 78.7401 108.649 78.7401 108.344C78.7401 108.04 78.321 107.794 77.8042 107.794C77.2873 107.794 76.8683 108.04 76.8683 108.344C76.8683 108.649 77.2873 108.895 77.8042 108.895Z" fill="#16110D"/>
<path d="M81.9605 105.95C82.0384 105.98 82.1054 106.033 82.1527 106.102C82.1999 106.17 82.2252 106.252 82.2252 106.335C82.2252 106.419 82.1999 106.5 82.1527 106.569C82.1054 106.638 82.0384 106.691 81.9605 106.721C81.7475 106.83 81.5116 106.886 81.2724 106.886C81.0332 106.886 80.7973 106.83 80.5842 106.721C80.2126 106.501 80.2126 106.157 80.5842 105.95C80.7973 105.841 81.0332 105.785 81.2724 105.785C81.5116 105.785 81.7475 105.841 81.9605 105.95Z" fill="#16110D"/>
<path d="M84.7681 104.876C85.285 104.876 85.704 104.63 85.704 104.326C85.704 104.022 85.285 103.775 84.7681 103.775C84.2512 103.775 83.8322 104.022 83.8322 104.326C83.8322 104.63 84.2512 104.876 84.7681 104.876Z" fill="#16110D"/>
<path d="M88.9234 101.931C89.295 102.138 89.295 102.482 88.9234 102.702C88.7103 102.811 88.4745 102.868 88.2353 102.868C87.9961 102.868 87.7602 102.811 87.5471 102.702C87.1755 102.482 87.1755 102.138 87.5471 101.931C87.7564 101.811 87.9937 101.747 88.2353 101.747C88.4769 101.747 88.7142 101.811 88.9234 101.931Z" fill="#16110D"/>
<path d="M71.4998 107.959C71.8714 108.18 71.8714 108.524 71.4998 108.73C71.2868 108.839 71.0509 108.896 70.8117 108.896C70.5725 108.896 70.3366 108.839 70.1235 108.73C69.7657 108.524 69.7657 108.18 70.1235 107.959C70.336 107.848 70.572 107.791 70.8117 107.791C71.0513 107.791 71.2874 107.848 71.4998 107.959Z" fill="#16110D"/>
<path d="M74.9826 105.95C75.3542 106.157 75.3542 106.501 74.9826 106.721C74.7702 106.832 74.5341 106.89 74.2944 106.89C74.0548 106.89 73.8187 106.832 73.6063 106.721C73.2347 106.501 73.2347 106.157 73.6063 105.95C73.8187 105.839 74.0548 105.781 74.2944 105.781C74.5341 105.781 74.7702 105.839 74.9826 105.95Z" fill="#16110D"/>
<path d="M78.4911 103.941C78.569 103.971 78.636 104.024 78.6832 104.092C78.7305 104.161 78.7558 104.243 78.7558 104.326C78.7558 104.41 78.7305 104.491 78.6832 104.56C78.636 104.629 78.569 104.682 78.4911 104.711C78.278 104.82 78.0422 104.877 77.803 104.877C77.5637 104.877 77.3279 104.82 77.1148 104.711C76.7432 104.491 76.7432 104.147 77.1148 103.941C77.324 103.82 77.5614 103.756 77.803 103.756C78.0446 103.756 78.2819 103.82 78.4911 103.941Z" fill="#16110D"/>
<path d="M81.2846 102.867C81.8015 102.867 82.2205 102.62 82.2205 102.316C82.2205 102.012 81.8015 101.766 81.2846 101.766C80.7678 101.766 80.3488 102.012 80.3488 102.316C80.3488 102.62 80.7678 102.867 81.2846 102.867Z" fill="#16110D"/>
<path d="M84.7681 100.844C85.285 100.844 85.704 100.598 85.704 100.294C85.704 99.9896 85.285 99.7432 84.7681 99.7432C84.2512 99.7432 83.8322 99.9896 83.8322 100.294C83.8322 100.598 84.2512 100.844 84.7681 100.844Z" fill="#16110D"/>
<path d="M68.0177 105.95C68.3893 106.157 68.3893 106.501 68.0177 106.721C67.8046 106.83 67.5688 106.886 67.3296 106.886C67.0903 106.886 66.8545 106.83 66.6414 106.721C66.5635 106.691 66.4966 106.638 66.4493 106.569C66.4021 106.5 66.3768 106.419 66.3768 106.335C66.3768 106.252 66.4021 106.17 66.4493 106.102C66.4966 106.033 66.5635 105.98 66.6414 105.95C66.8545 105.841 67.0903 105.785 67.3296 105.785C67.5688 105.785 67.8046 105.841 68.0177 105.95Z" fill="#16110D"/>
<path d="M71.4992 103.941C71.8708 104.147 71.8708 104.491 71.4992 104.711C71.2868 104.822 71.0507 104.88 70.811 104.88C70.5714 104.88 70.3353 104.822 70.1229 104.711C69.7513 104.491 69.7513 104.147 70.1229 103.941C70.3321 103.82 70.5694 103.756 70.811 103.756C71.0526 103.756 71.29 103.82 71.4992 103.941Z" fill="#16110D"/>
<path d="M74.3227 102.867C74.8396 102.867 75.2586 102.62 75.2586 102.316C75.2586 102.012 74.8396 101.766 74.3227 101.766C73.8059 101.766 73.3868 102.012 73.3868 102.316C73.3868 102.62 73.8059 102.867 74.3227 102.867Z" fill="#16110D"/>
<path d="M78.4911 99.9222C78.5704 99.9487 78.6394 99.9995 78.6883 100.067C78.7372 100.135 78.7635 100.217 78.7635 100.301C78.7635 100.384 78.7372 100.466 78.6883 100.534C78.6394 100.602 78.5704 100.653 78.4911 100.679C78.2818 100.8 78.0445 100.864 77.8029 100.864C77.5613 100.864 77.324 100.8 77.1148 100.679C76.7432 100.473 76.7432 100.129 77.1148 99.9222C77.324 99.8014 77.5613 99.7378 77.8029 99.7378C78.0445 99.7378 78.2818 99.8014 78.4911 99.9222Z" fill="#16110D"/>
<path d="M81.9605 97.9262C82.0384 97.9561 82.1054 98.009 82.1527 98.0778C82.1999 98.1466 82.2252 98.2281 82.2252 98.3116C82.2252 98.395 82.1999 98.4765 82.1527 98.5453C82.1054 98.6141 82.0384 98.667 81.9605 98.6969C81.7513 98.8177 81.514 98.8813 81.2724 98.8813C81.0308 98.8813 80.7935 98.8177 80.5842 98.6969C80.2126 98.4905 80.2126 98.1464 80.5842 97.9262C80.7973 97.8174 81.0332 97.7607 81.2724 97.7607C81.5116 97.7607 81.7475 97.8174 81.9605 97.9262C82.3184 98.1189 81.5889 97.6922 81.9605 97.9262Z" fill="#16110D"/>
<path d="M64.5362 103.941C64.9078 104.147 64.9078 104.491 64.5362 104.711C64.3231 104.82 64.0873 104.877 63.8481 104.877C63.6088 104.877 63.373 104.82 63.1599 104.711C63.082 104.682 63.015 104.629 62.9678 104.56C62.9206 104.491 62.8953 104.41 62.8953 104.326C62.8953 104.243 62.9206 104.161 62.9678 104.092C63.015 104.024 63.082 103.971 63.1599 103.941C63.3691 103.82 63.6065 103.756 63.8481 103.756C64.0897 103.756 64.327 103.82 64.5362 103.941Z" fill="#16110D"/>
<path d="M68.0177 101.931C68.3893 102.138 68.3893 102.482 68.0177 102.702C67.8046 102.811 67.5688 102.868 67.3296 102.868C67.0903 102.868 66.8545 102.811 66.6414 102.702C66.5635 102.672 66.4966 102.619 66.4493 102.551C66.4021 102.482 66.3768 102.4 66.3768 102.317C66.3768 102.233 66.4021 102.152 66.4493 102.083C66.4966 102.014 66.5635 101.961 66.6414 101.931C66.8506 101.811 67.088 101.747 67.3296 101.747C67.5712 101.747 67.8085 101.811 68.0177 101.931Z" fill="#16110D"/>
<path d="M70.8393 100.844C71.3561 100.844 71.7751 100.598 71.7751 100.294C71.7751 99.9896 71.3561 99.7432 70.8393 99.7432C70.3224 99.7432 69.9034 99.9896 69.9034 100.294C69.9034 100.598 70.3224 100.844 70.8393 100.844Z" fill="#16110D"/>
<path d="M74.3227 98.835C74.8396 98.835 75.2586 98.5885 75.2586 98.2844C75.2586 97.9804 74.8396 97.7339 74.3227 97.7339C73.8059 97.7339 73.3868 97.9804 73.3868 98.2844C73.3868 98.5885 73.8059 98.835 74.3227 98.835Z" fill="#16110D"/>
<path d="M61.0537 101.931C61.4253 102.138 61.4253 102.482 61.0537 102.702C60.8407 102.811 60.6048 102.868 60.3656 102.868C60.1264 102.868 59.8905 102.811 59.6774 102.702C59.3058 102.482 59.3058 102.138 59.6774 101.931C59.8867 101.811 60.124 101.747 60.3656 101.747C60.6072 101.747 60.8445 101.811 61.0537 101.931Z" fill="#16110D"/>
<path d="M64.5369 99.9222C64.9085 100.129 64.9085 100.473 64.5369 100.679C64.3277 100.8 64.0903 100.864 63.8488 100.864C63.6072 100.864 63.3698 100.8 63.1606 100.679C63.0813 100.653 63.0123 100.602 62.9634 100.534C62.9145 100.466 62.8882 100.384 62.8882 100.301C62.8882 100.217 62.9145 100.135 62.9634 100.067C63.0123 99.9995 63.0813 99.9487 63.1606 99.9222C63.3698 99.8014 63.6072 99.7378 63.8488 99.7378C64.0903 99.7378 64.3277 99.8014 64.5369 99.9222Z" fill="#16110D"/>
<path d="M68.0177 97.9262C68.3893 98.1464 68.3893 98.4905 68.0177 98.6969C67.8085 98.8177 67.5712 98.8813 67.3296 98.8813C67.088 98.8813 66.8506 98.8177 66.6414 98.6969C66.5635 98.667 66.4966 98.6141 66.4493 98.5453C66.4021 98.4765 66.3768 98.395 66.3768 98.3116C66.3768 98.2281 66.4021 98.1466 66.4493 98.0778C66.4966 98.009 66.5635 97.9561 66.6414 97.9262C66.8545 97.8174 67.0903 97.7607 67.3296 97.7607C67.5688 97.7607 67.8046 97.8174 68.0177 97.9262Z" fill="#16110D"/>
<path d="M71.4992 95.8891C71.8708 96.1093 71.8708 96.4534 71.4992 96.6598C71.29 96.7806 71.0526 96.8443 70.811 96.8443C70.5694 96.8443 70.3321 96.7806 70.1229 96.6598C69.7513 96.4534 69.7513 96.1093 70.1229 95.8891C70.3353 95.7782 70.5714 95.7202 70.811 95.7202C71.0507 95.7202 71.2868 95.7782 71.4992 95.8891Z" fill="#16110D"/>
<path d="M57.5724 99.9222C57.944 100.129 57.944 100.473 57.5724 100.679C57.3632 100.8 57.1259 100.864 56.8843 100.864C56.6427 100.864 56.4053 100.8 56.1961 100.679C55.8245 100.473 55.8245 100.129 56.1961 99.9222C56.4053 99.8014 56.6427 99.7378 56.8843 99.7378C57.1259 99.7378 57.3632 99.8014 57.5724 99.9222Z" fill="#16110D"/>
<path d="M61.0537 97.9262C61.4253 98.1464 61.4253 98.4905 61.0537 98.6969C60.8445 98.8177 60.6072 98.8813 60.3656 98.8813C60.124 98.8813 59.8867 98.8177 59.6774 98.6969C59.3058 98.4905 59.3058 98.1464 59.6774 97.9262C59.8905 97.8174 60.1264 97.7607 60.3656 97.7607C60.6048 97.7607 60.8407 97.8174 61.0537 97.9262Z" fill="#16110D"/>
<path d="M63.8744 96.8252C64.3912 96.8252 64.8102 96.5787 64.8102 96.2746C64.8102 95.9706 64.3912 95.7241 63.8744 95.7241C63.3575 95.7241 62.9385 95.9706 62.9385 96.2746C62.9385 96.5787 63.3575 96.8252 63.8744 96.8252Z" fill="#16110D"/>
<path d="M68.0177 93.8798C68.3893 94.1 68.3893 94.4441 68.0177 94.6505C67.8046 94.7593 67.5687 94.816 67.3295 94.816C67.0903 94.816 66.8545 94.7593 66.6414 94.6505C66.5635 94.6206 66.4965 94.5677 66.4492 94.4989C66.402 94.4301 66.3767 94.3486 66.3767 94.2652C66.3767 94.1817 66.402 94.1002 66.4492 94.0314C66.4965 93.9626 66.5635 93.9098 66.6414 93.8798C66.8545 93.7711 67.0903 93.7144 67.3295 93.7144C67.5687 93.7144 67.8046 93.7711 68.0177 93.8798Z" fill="#16110D"/>
<path d="M57.5723 95.889C57.9439 96.1092 57.9439 96.4533 57.5723 96.6598C57.3631 96.7806 57.1257 96.8442 56.8841 96.8442C56.6426 96.8442 56.4052 96.7806 56.196 96.6598C55.8244 96.4533 55.8244 96.1092 56.196 95.889C56.4091 95.7803 56.6449 95.7236 56.8841 95.7236C57.1234 95.7236 57.3592 95.7803 57.5723 95.889Z" fill="#16110D"/>
<path d="M61.0537 93.8793C61.4253 94.0995 61.4253 94.4436 61.0537 94.65C60.8407 94.7588 60.6048 94.8155 60.3656 94.8155C60.1264 94.8155 59.8905 94.7588 59.6774 94.65C59.3058 94.4436 59.3058 94.0995 59.6774 93.8793C59.8905 93.7706 60.1264 93.7139 60.3656 93.7139C60.6048 93.7139 60.8407 93.7706 61.0537 93.8793Z" fill="#16110D"/>
<path d="M64.5362 91.87C64.9078 92.0765 64.9078 92.4206 64.5362 92.6408C64.3231 92.7495 64.0873 92.8062 63.8481 92.8062C63.6088 92.8062 63.373 92.7495 63.1599 92.6408C63.082 92.6108 63.015 92.5579 62.9678 92.4891C62.9206 92.4203 62.8953 92.3389 62.8953 92.2554C62.8953 92.1719 62.9206 92.0905 62.9678 92.0217C63.015 91.9529 63.082 91.9 63.1599 91.87C63.373 91.7613 63.6088 91.7046 63.8481 91.7046C64.0873 91.7046 64.3231 91.7613 64.5362 91.87Z" fill="#16110D"/>
<path d="M56.8994 92.8061C57.4163 92.8061 57.8353 92.5596 57.8353 92.2556C57.8353 91.9515 57.4163 91.7051 56.8994 91.7051C56.3825 91.7051 55.9635 91.9515 55.9635 92.2556C55.9635 92.5596 56.3825 92.8061 56.8994 92.8061Z" fill="#16110D"/>
<path d="M117.029 129.802C117.401 130.022 117.401 130.366 117.029 130.572C116.82 130.693 116.583 130.757 116.341 130.757C116.099 130.757 115.862 130.693 115.653 130.572C115.575 130.542 115.508 130.49 115.461 130.421C115.413 130.352 115.388 130.27 115.388 130.187C115.388 130.104 115.413 130.022 115.461 129.953C115.508 129.885 115.575 129.832 115.653 129.802C115.866 129.693 116.102 129.636 116.341 129.636C116.58 129.636 116.816 129.693 117.029 129.802Z" fill="#16110D"/>
<path d="M120.47 127.792C120.842 128.013 120.842 128.357 120.47 128.563C120.257 128.672 120.022 128.729 119.782 128.729C119.543 128.729 119.307 128.672 119.094 128.563C119.016 128.533 118.949 128.48 118.902 128.412C118.855 128.343 118.83 128.261 118.83 128.178C118.83 128.094 118.855 128.013 118.902 127.944C118.949 127.875 119.016 127.822 119.094 127.792C119.307 127.684 119.543 127.627 119.782 127.627C120.022 127.627 120.257 127.684 120.47 127.792Z" fill="#16110D"/>
<path d="M123.909 125.782C124.28 125.989 124.28 126.333 123.909 126.553C123.696 126.664 123.46 126.722 123.221 126.722C122.981 126.722 122.745 126.664 122.532 126.553C122.161 126.333 122.161 125.989 122.532 125.782C122.745 125.671 122.981 125.613 123.221 125.613C123.46 125.613 123.696 125.671 123.909 125.782Z" fill="#16110D"/>
<path d="M127.433 123.773C127.805 123.979 127.805 124.323 127.433 124.543C127.221 124.654 126.985 124.712 126.745 124.712C126.506 124.712 126.269 124.654 126.057 124.543C125.685 124.323 125.685 123.979 126.057 123.773C126.266 123.652 126.504 123.588 126.745 123.588C126.987 123.588 127.224 123.652 127.433 123.773Z" fill="#16110D"/>
<path d="M109.348 130.737C109.865 130.737 110.284 130.49 110.284 130.186C110.284 129.882 109.865 129.636 109.348 129.636C108.831 129.636 108.412 129.882 108.412 130.186C108.412 130.49 108.831 130.737 109.348 130.737Z" fill="#16110D"/>
<path d="M112.843 128.728C113.36 128.728 113.779 128.482 113.779 128.178C113.779 127.873 113.36 127.627 112.843 127.627C112.326 127.627 111.907 127.873 111.907 128.178C111.907 128.482 112.326 128.728 112.843 128.728Z" fill="#16110D"/>
<path d="M117.029 125.783C117.401 125.989 117.401 126.333 117.029 126.553C116.816 126.662 116.58 126.719 116.341 126.719C116.102 126.719 115.866 126.662 115.653 126.553C115.575 126.523 115.508 126.471 115.461 126.402C115.413 126.333 115.388 126.251 115.388 126.168C115.388 126.085 115.413 126.003 115.461 125.934C115.508 125.865 115.575 125.813 115.653 125.783C115.866 125.674 116.102 125.617 116.341 125.617C116.58 125.617 116.816 125.674 117.029 125.783Z" fill="#16110D"/>
<path d="M120.47 123.773C120.842 123.979 120.842 124.323 120.47 124.543C120.257 124.652 120.022 124.709 119.782 124.709C119.543 124.709 119.307 124.652 119.094 124.543C119.016 124.514 118.949 124.461 118.902 124.392C118.855 124.323 118.83 124.242 118.83 124.158C118.83 124.075 118.855 123.993 118.902 123.924C118.949 123.856 119.016 123.803 119.094 123.773C119.303 123.652 119.541 123.588 119.782 123.588C120.024 123.588 120.261 123.652 120.47 123.773Z" fill="#16110D"/>
<path d="M123.292 122.7C123.809 122.7 124.228 122.453 124.228 122.149C124.228 121.845 123.809 121.599 123.292 121.599C122.775 121.599 122.356 121.845 122.356 122.149C122.356 122.453 122.775 122.7 123.292 122.7Z" fill="#16110D"/>
<path d="M105.839 128.714C106.355 128.714 106.774 128.468 106.774 128.164C106.774 127.86 106.355 127.613 105.839 127.613C105.322 127.613 104.903 127.86 104.903 128.164C104.903 128.468 105.322 128.714 105.839 128.714Z" fill="#16110D"/>
<path d="M109.322 126.691C109.839 126.691 110.258 126.444 110.258 126.14C110.258 125.836 109.839 125.59 109.322 125.59C108.805 125.59 108.386 125.836 108.386 126.14C108.386 126.444 108.805 126.691 109.322 126.691Z" fill="#16110D"/>
<path d="M112.803 124.682C113.32 124.682 113.739 124.435 113.739 124.131C113.739 123.827 113.32 123.581 112.803 123.581C112.287 123.581 111.868 123.827 111.868 124.131C111.868 124.435 112.287 124.682 112.803 124.682Z" fill="#16110D"/>
<path d="M117.027 121.737C117.399 121.957 117.399 122.301 117.027 122.507C116.818 122.628 116.581 122.692 116.339 122.692C116.097 122.692 115.86 122.628 115.651 122.507C115.279 122.301 115.279 121.957 115.651 121.737C115.864 121.628 116.1 121.571 116.339 121.571C116.578 121.571 116.814 121.628 117.027 121.737Z" fill="#16110D"/>
<path d="M120.442 119.726C120.527 119.749 120.601 119.799 120.655 119.869C120.708 119.939 120.737 120.024 120.737 120.112C120.737 120.2 120.708 120.285 120.655 120.355C120.601 120.424 120.527 120.474 120.442 120.497C120.229 120.606 119.993 120.663 119.754 120.663C119.514 120.663 119.279 120.606 119.065 120.497C118.981 120.474 118.906 120.424 118.853 120.355C118.799 120.285 118.77 120.2 118.77 120.112C118.77 120.024 118.799 119.939 118.853 119.869C118.906 119.799 118.981 119.749 119.065 119.726C119.279 119.618 119.514 119.561 119.754 119.561C119.993 119.561 120.229 119.618 120.442 119.726Z" fill="#16110D"/>
<path d="M103.018 125.755C103.39 125.976 103.39 126.32 103.018 126.526C102.809 126.647 102.571 126.71 102.33 126.71C102.088 126.71 101.851 126.647 101.642 126.526C101.27 126.32 101.27 125.976 101.642 125.755C101.854 125.644 102.09 125.586 102.33 125.586C102.569 125.586 102.806 125.644 103.018 125.755Z" fill="#16110D"/>
<path d="M105.839 124.682C106.355 124.682 106.774 124.435 106.774 124.131C106.774 123.827 106.355 123.581 105.839 123.581C105.322 123.581 104.903 123.827 104.903 124.131C104.903 124.435 105.322 124.682 105.839 124.682Z" fill="#16110D"/>
<path d="M109.996 121.737C110.074 121.767 110.141 121.82 110.188 121.888C110.235 121.957 110.261 122.039 110.261 122.122C110.261 122.206 110.235 122.287 110.188 122.356C110.141 122.425 110.074 122.477 109.996 122.507C109.787 122.628 109.549 122.692 109.308 122.692C109.066 122.692 108.829 122.628 108.62 122.507C108.248 122.301 108.248 121.957 108.62 121.737C108.833 121.628 109.068 121.571 109.308 121.571C109.547 121.571 109.783 121.628 109.996 121.737Z" fill="#16110D"/>
<path d="M113.478 119.726C113.563 119.749 113.637 119.799 113.691 119.869C113.744 119.939 113.773 120.024 113.773 120.112C113.773 120.2 113.744 120.285 113.691 120.355C113.637 120.424 113.563 120.474 113.478 120.497C113.265 120.606 113.029 120.663 112.79 120.663C112.55 120.663 112.315 120.606 112.102 120.497C112.017 120.474 111.942 120.424 111.889 120.355C111.835 120.285 111.806 120.2 111.806 120.112C111.806 120.024 111.835 119.939 111.889 119.869C111.942 119.799 112.017 119.749 112.102 119.726C112.315 119.618 112.55 119.561 112.79 119.561C113.029 119.561 113.265 119.618 113.478 119.726Z" fill="#16110D"/>
<path d="M116.301 118.653C116.818 118.653 117.237 118.407 117.237 118.103C117.237 117.799 116.818 117.552 116.301 117.552C115.784 117.552 115.365 117.799 115.365 118.103C115.365 118.407 115.784 118.653 116.301 118.653Z" fill="#16110D"/>
<path d="M98.8767 124.682C99.3936 124.682 99.8126 124.435 99.8126 124.131C99.8126 123.827 99.3936 123.581 98.8767 123.581C98.3598 123.581 97.9408 123.827 97.9408 124.131C97.9408 124.435 98.3598 124.682 98.8767 124.682Z" fill="#16110D"/>
<path d="M102.356 122.672C102.873 122.672 103.292 122.425 103.292 122.121C103.292 121.817 102.873 121.571 102.356 121.571C101.839 121.571 101.42 121.817 101.42 122.121C101.42 122.425 101.839 122.672 102.356 122.672Z" fill="#16110D"/>
<path d="M105.839 120.663C106.355 120.663 106.774 120.416 106.774 120.112C106.774 119.808 106.355 119.562 105.839 119.562C105.322 119.562 104.903 119.808 104.903 120.112C104.903 120.416 105.322 120.663 105.839 120.663Z" fill="#16110D"/>
<path d="M109.322 118.653C109.839 118.653 110.258 118.407 110.258 118.103C110.258 117.799 109.839 117.552 109.322 117.552C108.805 117.552 108.386 117.799 108.386 118.103C108.386 118.407 108.805 118.653 109.322 118.653Z" fill="#16110D"/>
<path d="M113.477 115.708C113.849 115.914 113.849 116.258 113.477 116.479C113.264 116.587 113.028 116.644 112.789 116.644C112.55 116.644 112.314 116.587 112.101 116.479C111.729 116.258 111.729 115.914 112.101 115.708C112.31 115.587 112.548 115.523 112.789 115.523C113.031 115.523 113.268 115.587 113.477 115.708Z" fill="#16110D"/>
<path d="M96.055 121.737C96.4266 121.957 96.4266 122.301 96.055 122.507C95.8458 122.628 95.6085 122.692 95.3669 122.692C95.1253 122.692 94.8879 122.628 94.6787 122.507C94.6008 122.477 94.5338 122.425 94.4866 122.356C94.4394 122.287 94.4141 122.206 94.4141 122.122C94.4141 122.039 94.4394 121.957 94.4866 121.888C94.5338 121.82 94.6008 121.767 94.6787 121.737C94.8918 121.628 95.1276 121.571 95.3669 121.571C95.6061 121.571 95.8419 121.628 96.055 121.737Z" fill="#16110D"/>
<path d="M99.5371 119.727C99.6218 119.749 99.6967 119.799 99.75 119.869C99.8034 119.939 99.8323 120.024 99.8323 120.112C99.8323 120.2 99.8034 120.285 99.75 120.355C99.6967 120.424 99.6218 120.474 99.5371 120.497C99.3247 120.608 99.0886 120.666 98.849 120.666C98.6093 120.666 98.3732 120.608 98.1608 120.497C98.0761 120.474 98.0012 120.424 97.9479 120.355C97.8945 120.285 97.8656 120.2 97.8656 120.112C97.8656 120.024 97.8945 119.939 97.9479 119.869C98.0012 119.799 98.0761 119.749 98.1608 119.727C98.3732 119.616 98.6093 119.558 98.849 119.558C99.0886 119.558 99.3247 119.616 99.5371 119.727Z" fill="#16110D"/>
<path d="M103.018 117.717C103.39 117.924 103.39 118.268 103.018 118.488C102.806 118.599 102.569 118.657 102.33 118.657C102.09 118.657 101.854 118.599 101.642 118.488C101.27 118.268 101.27 117.924 101.642 117.717C101.851 117.596 102.088 117.533 102.33 117.533C102.571 117.533 102.809 117.596 103.018 117.717Z" fill="#16110D"/>
<path d="M106.514 115.708C106.592 115.738 106.659 115.791 106.707 115.859C106.754 115.928 106.779 116.01 106.779 116.093C106.779 116.177 106.754 116.258 106.707 116.327C106.659 116.396 106.592 116.449 106.514 116.479C106.301 116.587 106.066 116.644 105.826 116.644C105.587 116.644 105.351 116.587 105.138 116.479C104.767 116.258 104.767 115.914 105.138 115.708C105.347 115.587 105.585 115.523 105.826 115.523C106.068 115.523 106.305 115.587 106.514 115.708Z" fill="#16110D"/>
<path d="M109.322 114.635C109.839 114.635 110.258 114.388 110.258 114.084C110.258 113.78 109.839 113.534 109.322 113.534C108.805 113.534 108.386 113.78 108.386 114.084C108.386 114.388 108.805 114.635 109.322 114.635Z" fill="#16110D"/>
<path d="M109.199 110.959C109.716 110.959 110.135 110.713 110.135 110.409C110.135 110.105 109.716 109.858 109.199 109.858C108.683 109.858 108.264 110.105 108.264 110.409C108.264 110.713 108.683 110.959 109.199 110.959Z" fill="#16110D"/>
<path d="M113.353 108.014C113.432 108.041 113.501 108.092 113.55 108.16C113.599 108.228 113.625 108.309 113.625 108.393C113.625 108.477 113.599 108.558 113.55 108.626C113.501 108.694 113.432 108.745 113.353 108.771C113.144 108.892 112.906 108.956 112.665 108.956C112.423 108.956 112.186 108.892 111.977 108.771C111.605 108.565 111.605 108.221 111.977 108.014C112.186 107.894 112.423 107.83 112.665 107.83C112.906 107.83 113.144 107.894 113.353 108.014Z" fill="#16110D"/>
<path d="M116.837 105.991C117.209 106.211 117.209 106.555 116.837 106.762C116.628 106.883 116.391 106.946 116.149 106.946C115.908 106.946 115.67 106.883 115.461 106.762C115.089 106.555 115.089 106.211 115.461 105.991C115.674 105.882 115.91 105.826 116.149 105.826C116.388 105.826 116.624 105.882 116.837 105.991Z" fill="#16110D"/>
<path d="M119.658 104.918C120.175 104.918 120.594 104.671 120.594 104.367C120.594 104.063 120.175 103.817 119.658 103.817C119.141 103.817 118.722 104.063 118.722 104.367C118.722 104.671 119.141 104.918 119.658 104.918Z" fill="#16110D"/>
<path d="M123.139 102.909C123.656 102.909 124.075 102.662 124.075 102.358C124.075 102.054 123.656 101.808 123.139 101.808C122.623 101.808 122.204 102.054 122.204 102.358C122.204 102.662 122.623 102.909 123.139 102.909Z" fill="#16110D"/>
<path d="M126.623 100.899C127.14 100.899 127.559 100.652 127.559 100.348C127.559 100.044 127.14 99.7979 126.623 99.7979C126.106 99.7979 125.687 100.044 125.687 100.348C125.687 100.652 126.106 100.899 126.623 100.899Z" fill="#16110D"/>
<path d="M130.793 97.9261C131.165 98.1325 131.165 98.4766 130.793 98.6968C130.58 98.8056 130.344 98.8623 130.105 98.8623C129.866 98.8623 129.63 98.8056 129.417 98.6968C129.339 98.6669 129.272 98.614 129.225 98.5452C129.178 98.4764 129.152 98.3949 129.152 98.3115C129.152 98.228 129.178 98.1465 129.225 98.0777C129.272 98.0089 129.339 97.956 129.417 97.9261C129.626 97.8053 129.864 97.7417 130.105 97.7417C130.347 97.7417 130.584 97.8053 130.793 97.9261Z" fill="#16110D"/>
<path d="M132.925 95.9442C133.134 95.8234 133.371 95.7598 133.613 95.7598C133.854 95.7598 134.092 95.8234 134.301 95.9442C134.672 96.1506 134.672 96.4947 134.301 96.7149C134.088 96.8258 133.852 96.8838 133.613 96.8838C133.373 96.8838 133.137 96.8258 132.925 96.7149C132.553 96.4947 132.553 96.1506 132.925 95.9442C133.296 95.7377 132.553 96.1506 132.925 95.9442Z" fill="#16110D"/>
<path d="M105.04 108.014C105.249 107.894 105.487 107.83 105.728 107.83C105.97 107.83 106.207 107.894 106.416 108.014C106.788 108.221 106.788 108.565 106.416 108.771C106.204 108.884 105.968 108.942 105.728 108.942C105.488 108.942 105.252 108.884 105.04 108.771C104.966 108.739 104.904 108.686 104.86 108.619C104.816 108.552 104.792 108.473 104.792 108.393C104.792 108.313 104.816 108.234 104.86 108.167C104.904 108.1 104.966 108.047 105.04 108.014Z" fill="#16110D"/>
<path d="M109.871 105.991C109.949 106.021 110.016 106.074 110.063 106.143C110.111 106.212 110.136 106.293 110.136 106.376C110.136 106.46 110.111 106.541 110.063 106.61C110.016 106.679 109.949 106.732 109.871 106.762C109.662 106.883 109.425 106.946 109.183 106.946C108.942 106.946 108.704 106.883 108.495 106.762C108.123 106.555 108.123 106.211 108.495 105.991C108.708 105.882 108.944 105.826 109.183 105.826C109.422 105.826 109.658 105.882 109.871 105.991Z" fill="#16110D"/>
<path d="M113.353 103.981C113.431 104.011 113.498 104.064 113.545 104.133C113.592 104.202 113.618 104.283 113.618 104.367C113.618 104.45 113.592 104.532 113.545 104.6C113.498 104.669 113.431 104.722 113.353 104.752C113.144 104.873 112.906 104.936 112.665 104.936C112.423 104.936 112.186 104.873 111.977 104.752C111.605 104.546 111.605 104.202 111.977 103.981C112.19 103.873 112.425 103.816 112.665 103.816C112.904 103.816 113.14 103.873 113.353 103.981Z" fill="#16110D"/>
<path d="M116.837 101.973C117.209 102.193 117.209 102.537 116.837 102.743C116.624 102.852 116.388 102.909 116.149 102.909C115.91 102.909 115.674 102.852 115.461 102.743C115.089 102.537 115.089 102.193 115.461 101.973C115.674 101.864 115.91 101.807 116.149 101.807C116.388 101.807 116.624 101.864 116.837 101.973Z" fill="#16110D"/>
<path d="M120.318 99.9628C120.689 100.169 120.689 100.513 120.318 100.734C120.105 100.842 119.869 100.899 119.63 100.899C119.39 100.899 119.155 100.842 118.941 100.734C118.57 100.513 118.57 100.169 118.941 99.9628C119.155 99.8541 119.39 99.7974 119.63 99.7974C119.869 99.7974 120.105 99.8541 120.318 99.9628Z" fill="#16110D"/>
<path d="M122.532 97.9261C122.742 97.8053 122.979 97.7417 123.221 97.7417C123.462 97.7417 123.699 97.8053 123.909 97.9261C124.28 98.1325 124.28 98.4766 123.909 98.6968C123.696 98.8056 123.46 98.8623 123.221 98.8623C122.981 98.8623 122.746 98.8056 122.532 98.6968C122.161 98.4766 122.161 98.1325 122.532 97.9261Z" fill="#16110D"/>
<path d="M101.558 106.005C101.77 105.893 102.006 105.834 102.246 105.834C102.486 105.834 102.722 105.893 102.934 106.005C103.306 106.225 103.306 106.569 102.934 106.775C102.725 106.896 102.488 106.96 102.246 106.96C102.004 106.96 101.767 106.896 101.558 106.775C101.473 106.753 101.398 106.702 101.345 106.633C101.291 106.563 101.263 106.478 101.263 106.39C101.263 106.302 101.291 106.217 101.345 106.147C101.398 106.078 101.473 106.027 101.558 106.005Z" fill="#16110D"/>
<path d="M106.378 103.982C106.75 104.202 106.75 104.546 106.378 104.753C106.169 104.873 105.931 104.937 105.69 104.937C105.448 104.937 105.211 104.873 105.002 104.753C104.63 104.546 104.63 104.202 105.002 103.982C105.214 103.871 105.45 103.813 105.69 103.813C105.929 103.813 106.165 103.871 106.378 103.982Z" fill="#16110D"/>
<path d="M109.199 102.909C109.716 102.909 110.135 102.662 110.135 102.358C110.135 102.054 109.716 101.808 109.199 101.808C108.683 101.808 108.264 102.054 108.264 102.358C108.264 102.662 108.683 102.909 109.199 102.909Z" fill="#16110D"/>
<path d="M113.353 99.9628C113.431 99.9928 113.498 100.046 113.545 100.114C113.592 100.183 113.618 100.265 113.618 100.348C113.618 100.432 113.592 100.513 113.545 100.582C113.498 100.651 113.431 100.704 113.353 100.734C113.14 100.842 112.904 100.899 112.665 100.899C112.425 100.899 112.19 100.842 111.977 100.734C111.605 100.513 111.605 100.169 111.977 99.9628C112.19 99.8541 112.425 99.7974 112.665 99.7974C112.904 99.7974 113.14 99.8541 113.353 99.9628Z" fill="#16110D"/>
<path d="M98.0788 103.981C98.2919 103.873 98.5277 103.816 98.7669 103.816C99.0062 103.816 99.242 103.873 99.4551 103.981C99.8267 104.202 99.8267 104.546 99.4551 104.752C99.2459 104.873 99.0085 104.936 98.7669 104.936C98.5253 104.936 98.288 104.873 98.0788 104.752C97.7622 104.546 97.7622 104.202 98.0788 103.981Z" fill="#16110D"/>
<path d="M102.894 101.972C103.266 102.192 103.266 102.536 102.894 102.743C102.682 102.854 102.446 102.912 102.206 102.912C101.967 102.912 101.73 102.854 101.518 102.743C101.146 102.536 101.146 102.192 101.518 101.972C101.73 101.861 101.967 101.803 102.206 101.803C102.446 101.803 102.682 101.861 102.894 101.972Z" fill="#16110D"/>
<path d="M106.378 99.9628C106.75 100.169 106.75 100.513 106.378 100.734C106.165 100.845 105.929 100.902 105.69 100.902C105.45 100.902 105.214 100.845 105.002 100.734C104.63 100.513 104.63 100.169 105.002 99.9628C105.214 99.8519 105.45 99.7939 105.69 99.7939C105.929 99.7939 106.165 99.8519 106.378 99.9628Z" fill="#16110D"/>
<path d="M94.5954 101.972C94.8085 101.863 95.0443 101.807 95.2836 101.807C95.5228 101.807 95.7586 101.863 95.9717 101.972C96.3433 102.192 96.3433 102.536 95.9717 102.743C95.7625 102.864 95.5252 102.927 95.2836 102.927C95.042 102.927 94.8046 102.864 94.5954 102.743C94.2238 102.536 94.2238 102.192 94.5954 101.972Z" fill="#16110D"/>
<path d="M98.7521 100.899C99.269 100.899 99.688 100.652 99.688 100.348C99.688 100.044 99.269 99.7979 98.7521 99.7979C98.2352 99.7979 97.8162 100.044 97.8162 100.348C97.8162 100.652 98.2352 100.899 98.7521 100.899Z" fill="#16110D"/>
<path d="M91.0849 99.949C91.2941 99.8282 91.5314 99.7646 91.773 99.7646C92.0146 99.7646 92.2519 99.8282 92.4612 99.949C92.8328 100.155 92.8328 100.5 92.4612 100.706C92.2491 100.818 92.0129 100.877 91.773 100.877C91.5331 100.877 91.2969 100.818 91.0849 100.706C90.7133 100.5 90.7133 100.155 91.0849 99.949Z" fill="#16110D"/>
<path d="M129.593 121.791C129.802 121.671 130.039 121.607 130.281 121.607C130.523 121.607 130.76 121.671 130.969 121.791C131.341 121.998 131.341 122.342 130.969 122.562C130.756 122.671 130.52 122.727 130.281 122.727C130.042 122.727 129.806 122.671 129.593 122.562C129.515 122.532 129.448 122.479 129.401 122.41C129.353 122.342 129.328 122.26 129.328 122.177C129.328 122.093 129.353 122.012 129.401 121.943C129.448 121.874 129.515 121.821 129.593 121.791Z" fill="#16110D"/>
<path d="M134.411 119.768C134.783 119.988 134.783 120.332 134.411 120.539C134.202 120.66 133.965 120.723 133.723 120.723C133.482 120.723 133.244 120.66 133.035 120.539C132.663 120.332 132.663 119.988 133.035 119.768C133.247 119.657 133.484 119.599 133.723 119.599C133.963 119.599 134.199 119.657 134.411 119.768Z" fill="#16110D"/>
<path d="M137.906 117.759C137.984 117.789 138.051 117.842 138.098 117.91C138.145 117.979 138.171 118.061 138.171 118.144C138.171 118.228 138.145 118.309 138.098 118.378C138.051 118.447 137.984 118.499 137.906 118.529C137.697 118.65 137.459 118.714 137.218 118.714C136.976 118.714 136.739 118.65 136.53 118.529C136.158 118.323 136.158 117.979 136.53 117.759C136.743 117.65 136.978 117.593 137.218 117.593C137.457 117.593 137.693 117.65 137.906 117.759Z" fill="#16110D"/>
<path d="M141.389 115.818C141.467 115.848 141.534 115.901 141.581 115.969C141.629 116.038 141.654 116.12 141.654 116.203C141.654 116.287 141.629 116.368 141.581 116.437C141.534 116.506 141.467 116.559 141.389 116.589C141.18 116.709 140.943 116.773 140.701 116.773C140.46 116.773 140.222 116.709 140.013 116.589C139.641 116.382 139.641 116.038 140.013 115.818C140.226 115.709 140.462 115.652 140.701 115.652C140.94 115.652 141.176 115.709 141.389 115.818Z" fill="#16110D"/>
<path d="M144.198 114.676C144.715 114.676 145.134 114.429 145.134 114.125C145.134 113.821 144.715 113.575 144.198 113.575C143.681 113.575 143.262 113.821 143.262 114.125C143.262 114.429 143.681 114.676 144.198 114.676Z" fill="#16110D"/>
<path d="M148.354 111.689C148.726 111.896 148.726 112.24 148.354 112.46C148.141 112.569 147.905 112.625 147.666 112.625C147.427 112.625 147.191 112.569 146.978 112.46C146.606 112.24 146.606 111.896 146.978 111.689C147.187 111.568 147.424 111.505 147.666 111.505C147.908 111.505 148.145 111.568 148.354 111.689Z" fill="#16110D"/>
<path d="M151.835 109.721C152.206 109.927 152.206 110.271 151.835 110.491C151.622 110.6 151.386 110.657 151.147 110.657C150.907 110.657 150.671 110.6 150.458 110.491C150.38 110.461 150.314 110.408 150.266 110.34C150.219 110.271 150.194 110.189 150.194 110.106C150.194 110.022 150.219 109.941 150.266 109.872C150.314 109.803 150.38 109.75 150.458 109.721C150.668 109.6 150.905 109.536 151.147 109.536C151.388 109.536 151.625 109.6 151.835 109.721Z" fill="#16110D"/>
<path d="M154.656 108.647C155.173 108.647 155.592 108.401 155.592 108.097C155.592 107.793 155.173 107.546 154.656 107.546C154.139 107.546 153.72 107.793 153.72 108.097C153.72 108.401 154.139 108.647 154.656 108.647Z" fill="#16110D"/>
<path d="M158.138 106.625C158.655 106.625 159.074 106.378 159.074 106.074C159.074 105.77 158.655 105.523 158.138 105.523C157.621 105.523 157.202 105.77 157.202 106.074C157.202 106.378 157.621 106.625 158.138 106.625Z" fill="#16110D"/>
<path d="M161.621 104.615C162.138 104.615 162.557 104.368 162.557 104.064C162.557 103.76 162.138 103.514 161.621 103.514C161.104 103.514 160.685 103.76 160.685 104.064C160.685 104.368 161.104 104.615 161.621 104.615Z" fill="#16110D"/>
<path d="M165.102 102.605C165.619 102.605 166.038 102.359 166.038 102.055C166.038 101.751 165.619 101.504 165.102 101.504C164.586 101.504 164.167 101.751 164.167 102.055C164.167 102.359 164.586 102.605 165.102 102.605Z" fill="#16110D"/>
<path d="M169.327 99.6606C169.405 99.6905 169.472 99.7434 169.519 99.8122C169.567 99.881 169.592 99.9625 169.592 100.046C169.592 100.129 169.567 100.211 169.519 100.28C169.472 100.348 169.405 100.401 169.327 100.431C169.114 100.54 168.878 100.597 168.639 100.597C168.4 100.597 168.164 100.54 167.951 100.431C167.579 100.225 167.579 99.8808 167.951 99.6606C168.164 99.5518 168.4 99.4951 168.639 99.4951C168.878 99.4951 169.114 99.5518 169.327 99.6606Z" fill="#16110D"/>
<path d="M172.741 97.6512C172.818 97.6812 172.885 97.7341 172.933 97.8029C172.98 97.8717 173.005 97.9532 173.005 98.0366C173.005 98.1201 172.98 98.2016 172.933 98.2704C172.885 98.3392 172.818 98.392 172.741 98.422C172.527 98.5307 172.292 98.5874 172.052 98.5874C171.813 98.5874 171.577 98.5307 171.364 98.422C170.993 98.2018 170.993 97.8577 171.364 97.6512C171.577 97.5425 171.813 97.4858 172.052 97.4858C172.292 97.4858 172.527 97.5425 172.741 97.6512Z" fill="#16110D"/>
<path d="M176.208 95.6414C176.579 95.8479 176.579 96.1919 176.208 96.4121C175.995 96.5209 175.759 96.5776 175.52 96.5776C175.28 96.5776 175.045 96.5209 174.832 96.4121C174.46 96.1919 174.46 95.8479 174.832 95.6414C175.041 95.5206 175.278 95.457 175.52 95.457C175.761 95.457 175.999 95.5206 176.208 95.6414Z" fill="#16110D"/>
<path d="M179.045 94.5683C179.562 94.5683 179.981 94.3218 179.981 94.0178C179.981 93.7138 179.562 93.4673 179.045 93.4673C178.529 93.4673 178.11 93.7138 178.11 94.0178C178.11 94.3218 178.529 94.5683 179.045 94.5683Z" fill="#16110D"/>
<path d="M182.526 92.5591C183.043 92.5591 183.462 92.3126 183.462 92.0086C183.462 91.7045 183.043 91.458 182.526 91.458C182.009 91.458 181.59 91.7045 181.59 92.0086C181.59 92.3126 182.009 92.5591 182.526 92.5591Z" fill="#16110D"/>
<path d="M186.007 90.5352C186.524 90.5352 186.943 90.2887 186.943 89.9846C186.943 89.6806 186.524 89.4341 186.007 89.4341C185.491 89.4341 185.072 89.6806 185.072 89.9846C185.072 90.2887 185.491 90.5352 186.007 90.5352Z" fill="#16110D"/>
<path d="M126.113 119.782C126.322 119.661 126.56 119.597 126.801 119.597C127.043 119.597 127.28 119.661 127.489 119.782C127.861 119.988 127.861 120.332 127.489 120.539C127.277 120.651 127.041 120.709 126.801 120.709C126.561 120.709 126.325 120.651 126.113 120.539C125.755 120.332 125.742 119.947 126.113 119.782Z" fill="#16110D"/>
<path d="M130.931 117.759C131.302 117.979 131.302 118.323 130.931 118.529C130.722 118.65 130.484 118.714 130.243 118.714C130.001 118.714 129.764 118.65 129.555 118.529C129.183 118.323 129.183 117.979 129.555 117.759C129.767 117.648 130.003 117.59 130.243 117.59C130.482 117.59 130.718 117.648 130.931 117.759Z" fill="#16110D"/>
<path d="M133.751 116.685C134.268 116.685 134.687 116.439 134.687 116.135C134.687 115.83 134.268 115.584 133.751 115.584C133.235 115.584 132.816 115.83 132.816 116.135C132.816 116.439 133.235 116.685 133.751 116.685Z" fill="#16110D"/>
<path d="M137.233 114.675C137.75 114.675 138.169 114.429 138.169 114.125C138.169 113.821 137.75 113.574 137.233 113.574C136.716 113.574 136.297 113.821 136.297 114.125C136.297 114.429 136.716 114.675 137.233 114.675Z" fill="#16110D"/>
<path d="M140.713 112.666C141.23 112.666 141.649 112.42 141.649 112.115C141.649 111.811 141.23 111.565 140.713 111.565C140.196 111.565 139.777 111.811 139.777 112.115C139.777 112.42 140.196 112.666 140.713 112.666Z" fill="#16110D"/>
<path d="M144.198 110.657C144.715 110.657 145.134 110.411 145.134 110.107C145.134 109.803 144.715 109.556 144.198 109.556C143.681 109.556 143.262 109.803 143.262 110.107C143.262 110.411 143.681 110.657 144.198 110.657Z" fill="#16110D"/>
<path d="M148.354 107.712C148.726 107.918 148.726 108.262 148.354 108.483C148.141 108.591 147.905 108.648 147.666 108.648C147.427 108.648 147.191 108.591 146.978 108.483C146.606 108.262 146.606 107.918 146.978 107.712C147.187 107.591 147.424 107.527 147.666 107.527C147.908 107.527 148.145 107.591 148.354 107.712Z" fill="#16110D"/>
<path d="M151.834 105.702C152.206 105.908 152.206 106.253 151.834 106.459C151.625 106.58 151.388 106.643 151.146 106.643C150.905 106.643 150.667 106.58 150.458 106.459C150.379 106.432 150.31 106.382 150.261 106.314C150.212 106.246 150.186 106.164 150.186 106.08C150.186 105.997 150.212 105.915 150.261 105.847C150.31 105.779 150.379 105.729 150.458 105.702C150.667 105.581 150.905 105.518 151.146 105.518C151.388 105.518 151.625 105.581 151.834 105.702Z" fill="#16110D"/>
<path d="M155.316 103.679C155.688 103.899 155.688 104.243 155.316 104.45C155.107 104.571 154.87 104.634 154.628 104.634C154.386 104.634 154.149 104.571 153.94 104.45C153.862 104.42 153.795 104.367 153.748 104.298C153.7 104.229 153.675 104.148 153.675 104.064C153.675 103.981 153.7 103.9 153.748 103.831C153.795 103.762 153.862 103.709 153.94 103.679C154.153 103.57 154.389 103.514 154.628 103.514C154.867 103.514 155.103 103.57 155.316 103.679Z" fill="#16110D"/>
<path d="M158.138 102.605C158.655 102.605 159.074 102.359 159.074 102.055C159.074 101.751 158.655 101.504 158.138 101.504C157.621 101.504 157.202 101.751 157.202 102.055C157.202 102.359 157.621 102.605 158.138 102.605Z" fill="#16110D"/>
<path d="M161.621 100.596C162.138 100.596 162.557 100.35 162.557 100.046C162.557 99.7416 162.138 99.4951 161.621 99.4951C161.104 99.4951 160.685 99.7416 160.685 100.046C160.685 100.35 161.104 100.596 161.621 100.596Z" fill="#16110D"/>
<path d="M165.102 98.5864C165.619 98.5864 166.038 98.3399 166.038 98.0359C166.038 97.7318 165.619 97.4854 165.102 97.4854C164.586 97.4854 164.167 97.7318 164.167 98.0359C164.167 98.3399 164.586 98.5864 165.102 98.5864Z" fill="#16110D"/>
<path d="M168.583 96.5776C169.1 96.5776 169.519 96.3311 169.519 96.0271C169.519 95.723 169.1 95.4766 168.583 95.4766C168.066 95.4766 167.647 95.723 167.647 96.0271C167.647 96.3311 168.066 96.5776 168.583 96.5776Z" fill="#16110D"/>
<path d="M172.068 94.5683C172.584 94.5683 173.003 94.3218 173.003 94.0178C173.003 93.7138 172.584 93.4673 172.068 93.4673C171.551 93.4673 171.132 93.7138 171.132 94.0178C171.132 94.3218 171.551 94.5683 172.068 94.5683Z" fill="#16110D"/>
<path d="M176.208 91.6224C176.579 91.8289 176.579 92.1729 176.208 92.3794C175.999 92.5002 175.761 92.5638 175.52 92.5638C175.278 92.5638 175.041 92.5002 174.832 92.3794C174.46 92.1729 174.46 91.8289 174.832 91.6224C175.041 91.5016 175.278 91.438 175.52 91.438C175.761 91.438 175.999 91.5016 176.208 91.6224Z" fill="#16110D"/>
<path d="M179.705 89.6684C180.077 89.8886 180.077 90.2327 179.705 90.4391C179.496 90.5599 179.259 90.6235 179.017 90.6235C178.776 90.6235 178.538 90.5599 178.329 90.4391C177.957 90.2327 177.957 89.8886 178.329 89.6684C178.542 89.5596 178.778 89.5029 179.017 89.5029C179.256 89.5029 179.492 89.5596 179.705 89.6684Z" fill="#16110D"/>
<path d="M183.186 87.5902C183.557 87.8105 183.557 88.1545 183.186 88.361C182.977 88.4818 182.739 88.5454 182.498 88.5454C182.256 88.5454 182.019 88.4818 181.809 88.361C181.732 88.331 181.665 88.2782 181.617 88.2094C181.57 88.1406 181.545 88.0591 181.545 87.9756C181.545 87.8922 181.57 87.8107 181.617 87.7419C181.665 87.6731 181.732 87.6202 181.809 87.5902C182.023 87.4815 182.258 87.4248 182.498 87.4248C182.737 87.4248 182.973 87.4815 183.186 87.5902Z" fill="#16110D"/>
<path d="M122.603 117.745C122.815 117.633 123.051 117.575 123.291 117.575C123.531 117.575 123.767 117.633 123.979 117.745C124.057 117.775 124.124 117.828 124.171 117.897C124.218 117.966 124.244 118.047 124.244 118.131C124.244 118.214 124.218 118.296 124.171 118.364C124.124 118.433 124.057 118.486 123.979 118.516C123.766 118.625 123.53 118.682 123.291 118.682C123.052 118.682 122.816 118.625 122.603 118.516C122.231 118.296 122.231 117.952 122.603 117.745Z" fill="#16110D"/>
<path d="M127.42 115.735C127.792 115.942 127.792 116.286 127.42 116.506C127.207 116.615 126.971 116.671 126.732 116.671C126.493 116.671 126.257 116.615 126.044 116.506C125.672 116.286 125.672 115.942 126.044 115.735C126.253 115.614 126.491 115.551 126.732 115.551C126.974 115.551 127.211 115.614 127.42 115.735Z" fill="#16110D"/>
<path d="M130.903 113.726C131.274 113.932 131.274 114.276 130.903 114.483C130.693 114.604 130.456 114.667 130.214 114.667C129.973 114.667 129.735 114.604 129.526 114.483C129.447 114.456 129.378 114.405 129.329 114.338C129.28 114.27 129.254 114.188 129.254 114.104C129.254 114.021 129.28 113.939 129.329 113.871C129.378 113.803 129.447 113.752 129.526 113.726C129.735 113.605 129.973 113.542 130.214 113.542C130.456 113.542 130.693 113.605 130.903 113.726Z" fill="#16110D"/>
<path d="M133.722 112.639C134.239 112.639 134.658 112.392 134.658 112.088C134.658 111.784 134.239 111.538 133.722 111.538C133.205 111.538 132.786 111.784 132.786 112.088C132.786 112.392 133.205 112.639 133.722 112.639Z" fill="#16110D"/>
<path d="M137.206 110.629C137.723 110.629 138.142 110.383 138.142 110.079C138.142 109.775 137.723 109.528 137.206 109.528C136.689 109.528 136.27 109.775 136.27 110.079C136.27 110.383 136.689 110.629 137.206 110.629Z" fill="#16110D"/>
<path d="M140.686 108.62C141.203 108.62 141.622 108.374 141.622 108.07C141.622 107.766 141.203 107.519 140.686 107.519C140.169 107.519 139.75 107.766 139.75 108.07C139.75 108.374 140.169 108.62 140.686 108.62Z" fill="#16110D"/>
<path d="M144.844 105.675C144.922 105.705 144.989 105.758 145.036 105.826C145.083 105.895 145.108 105.977 145.108 106.06C145.108 106.144 145.083 106.225 145.036 106.294C144.989 106.363 144.922 106.415 144.844 106.445C144.631 106.554 144.395 106.611 144.156 106.611C143.916 106.611 143.681 106.554 143.467 106.445C143.096 106.225 143.096 105.881 143.467 105.675C143.681 105.566 143.916 105.509 144.156 105.509C144.395 105.509 144.631 105.566 144.844 105.675Z" fill="#16110D"/>
<path d="M148.325 103.665C148.403 103.695 148.47 103.748 148.517 103.817C148.564 103.886 148.59 103.967 148.59 104.051C148.59 104.134 148.564 104.216 148.517 104.284C148.47 104.353 148.403 104.406 148.325 104.436C148.112 104.545 147.876 104.602 147.637 104.602C147.398 104.602 147.162 104.545 146.949 104.436C146.577 104.216 146.577 103.872 146.949 103.665C147.158 103.545 147.395 103.481 147.637 103.481C147.878 103.481 148.116 103.545 148.325 103.665Z" fill="#16110D"/>
<path d="M151.809 101.656C152.18 101.862 152.18 102.206 151.809 102.426C151.595 102.535 151.36 102.592 151.12 102.592C150.881 102.592 150.645 102.535 150.432 102.426C150.061 102.206 150.061 101.862 150.432 101.656C150.641 101.535 150.879 101.471 151.12 101.471C151.362 101.471 151.599 101.535 151.809 101.656Z" fill="#16110D"/>
<path d="M155.29 99.6463C155.662 99.8527 155.662 100.197 155.29 100.403C155.081 100.524 154.843 100.588 154.602 100.588C154.36 100.588 154.123 100.524 153.914 100.403C153.542 100.197 153.542 99.8527 153.914 99.6463C154.123 99.5255 154.36 99.4619 154.602 99.4619C154.843 99.4619 155.081 99.5255 155.29 99.6463Z" fill="#16110D"/>
<path d="M158.111 98.559C158.628 98.559 159.047 98.3126 159.047 98.0085C159.047 97.7045 158.628 97.458 158.111 97.458C157.594 97.458 157.175 97.7045 157.175 98.0085C157.175 98.3126 157.594 98.559 158.111 98.559Z" fill="#16110D"/>
<path d="M161.592 96.5498C162.109 96.5498 162.528 96.3033 162.528 95.9992C162.528 95.6952 162.109 95.4487 161.592 95.4487C161.075 95.4487 160.656 95.6952 160.656 95.9992C160.656 96.3033 161.075 96.5498 161.592 96.5498Z" fill="#16110D"/>
<path d="M165.075 94.5405C165.592 94.5405 166.011 94.2941 166.011 93.99C166.011 93.686 165.592 93.4395 165.075 93.4395C164.559 93.4395 164.14 93.686 164.14 93.99C164.14 94.2941 164.559 94.5405 165.075 94.5405Z" fill="#16110D"/>
<path d="M168.556 92.5312C169.073 92.5312 169.492 92.2847 169.492 91.9807C169.492 91.6766 169.073 91.4302 168.556 91.4302C168.039 91.4302 167.62 91.6766 167.62 91.9807C167.62 92.2847 168.039 92.5312 168.556 92.5312Z" fill="#16110D"/>
<path d="M172.039 90.5219C172.556 90.5219 172.975 90.2755 172.975 89.9714C172.975 89.6674 172.556 89.4209 172.039 89.4209C171.523 89.4209 171.104 89.6674 171.104 89.9714C171.104 90.2755 171.523 90.5219 172.039 90.5219Z" fill="#16110D"/>
<path d="M176.208 87.5765C176.286 87.6064 176.353 87.6593 176.4 87.7281C176.447 87.7969 176.473 87.8784 176.473 87.9618C176.473 88.0453 176.447 88.1268 176.4 88.1956C176.353 88.2644 176.286 88.3172 176.208 88.3472C175.995 88.4559 175.759 88.5126 175.52 88.5126C175.28 88.5126 175.045 88.4559 174.832 88.3472C174.46 88.127 174.46 87.7829 174.832 87.5765C175.041 87.4557 175.278 87.3921 175.52 87.3921C175.761 87.3921 175.999 87.4557 176.208 87.5765Z" fill="#16110D"/>
<path d="M179.679 85.5394C180.051 85.7458 180.051 86.0899 179.679 86.3101C179.466 86.4188 179.23 86.4755 178.991 86.4755C178.752 86.4755 178.516 86.4188 178.303 86.3101C177.931 86.0899 177.931 85.7458 178.303 85.5394C178.512 85.4186 178.749 85.355 178.991 85.355C179.233 85.355 179.47 85.4186 179.679 85.5394Z" fill="#16110D"/>
<path d="M119.122 115.736C119.331 115.615 119.569 115.551 119.81 115.551C120.052 115.551 120.289 115.615 120.499 115.736C120.576 115.766 120.643 115.818 120.691 115.887C120.738 115.956 120.763 116.038 120.763 116.121C120.763 116.204 120.738 116.286 120.691 116.355C120.643 116.424 120.576 116.476 120.499 116.506C120.285 116.615 120.05 116.672 119.81 116.672C119.571 116.672 119.335 116.615 119.122 116.506C118.751 116.286 118.751 115.942 119.122 115.736Z" fill="#16110D"/>
<path d="M123.909 113.726C124.28 113.932 124.28 114.276 123.909 114.483C123.699 114.604 123.462 114.667 123.221 114.667C122.979 114.667 122.742 114.604 122.532 114.483C122.161 114.276 122.161 113.932 122.532 113.726C122.742 113.605 122.979 113.542 123.221 113.542C123.462 113.542 123.699 113.605 123.909 113.726Z" fill="#16110D"/>
<path d="M127.419 111.689C127.791 111.909 127.791 112.253 127.419 112.46C127.21 112.58 126.973 112.644 126.731 112.644C126.49 112.644 126.252 112.58 126.043 112.46C125.965 112.43 125.898 112.377 125.851 112.308C125.804 112.239 125.778 112.158 125.778 112.074C125.778 111.991 125.804 111.909 125.851 111.841C125.898 111.772 125.965 111.719 126.043 111.689C126.256 111.58 126.492 111.523 126.731 111.523C126.97 111.523 127.206 111.58 127.419 111.689Z" fill="#16110D"/>
<path d="M130.903 109.694C131.275 109.914 131.275 110.258 130.903 110.464C130.694 110.585 130.456 110.649 130.215 110.649C129.973 110.649 129.736 110.585 129.527 110.464C129.449 110.434 129.382 110.382 129.334 110.313C129.287 110.244 129.262 110.163 129.262 110.079C129.262 109.996 129.287 109.914 129.334 109.845C129.382 109.777 129.449 109.724 129.527 109.694C129.74 109.585 129.976 109.528 130.215 109.528C130.454 109.528 130.69 109.585 130.903 109.694Z" fill="#16110D"/>
<path d="M134.384 107.684C134.756 107.904 134.756 108.248 134.384 108.455C134.171 108.563 133.935 108.62 133.696 108.62C133.457 108.62 133.221 108.563 133.008 108.455C132.93 108.425 132.863 108.372 132.816 108.303C132.769 108.234 132.743 108.153 132.743 108.069C132.743 107.986 132.769 107.904 132.816 107.836C132.863 107.767 132.93 107.714 133.008 107.684C133.221 107.575 133.457 107.519 133.696 107.519C133.935 107.519 134.171 107.575 134.384 107.684Z" fill="#16110D"/>
<path d="M137.206 106.611C137.723 106.611 138.142 106.364 138.142 106.06C138.142 105.756 137.723 105.51 137.206 105.51C136.689 105.51 136.27 105.756 136.27 106.06C136.27 106.364 136.689 106.611 137.206 106.611Z" fill="#16110D"/>
<path d="M140.686 104.602C141.203 104.602 141.622 104.355 141.622 104.051C141.622 103.747 141.203 103.5 140.686 103.5C140.169 103.5 139.75 103.747 139.75 104.051C139.75 104.355 140.169 104.602 140.686 104.602Z" fill="#16110D"/>
<path d="M144.171 102.592C144.688 102.592 145.107 102.346 145.107 102.042C145.107 101.738 144.688 101.491 144.171 101.491C143.654 101.491 143.235 101.738 143.235 102.042C143.235 102.346 143.654 102.592 144.171 102.592Z" fill="#16110D"/>
<path d="M147.651 100.582C148.168 100.582 148.587 100.336 148.587 100.032C148.587 99.7279 148.168 99.4814 147.651 99.4814C147.134 99.4814 146.715 99.7279 146.715 100.032C146.715 100.336 147.134 100.582 147.651 100.582Z" fill="#16110D"/>
<path d="M151.133 98.559C151.649 98.559 152.068 98.3126 152.068 98.0085C152.068 97.7045 151.649 97.458 151.133 97.458C150.616 97.458 150.197 97.7045 150.197 98.0085C150.197 98.3126 150.616 98.559 151.133 98.559Z" fill="#16110D"/>
<path d="M155.289 95.6142C155.661 95.8344 155.661 96.1785 155.289 96.3849C155.08 96.5057 154.842 96.5693 154.601 96.5693C154.359 96.5693 154.122 96.5057 153.913 96.3849C153.541 96.1785 153.541 95.8344 153.913 95.6142C154.126 95.5054 154.362 95.4487 154.601 95.4487C154.84 95.4487 155.076 95.5054 155.289 95.6142Z" fill="#16110D"/>
<path d="M158.773 93.6044C159.144 93.8246 159.144 94.1687 158.773 94.3751C158.559 94.4839 158.324 94.5405 158.084 94.5405C157.845 94.5405 157.609 94.4839 157.396 94.3751C157.318 94.3452 157.251 94.2923 157.204 94.2235C157.157 94.1547 157.132 94.0732 157.132 93.9898C157.132 93.9063 157.157 93.8248 157.204 93.756C157.251 93.6872 157.318 93.6343 157.396 93.6044C157.609 93.4956 157.845 93.439 158.084 93.439C158.324 93.439 158.559 93.4956 158.773 93.6044Z" fill="#16110D"/>
<path d="M162.254 91.5946C162.626 91.8011 162.626 92.1452 162.254 92.3654C162.041 92.4741 161.805 92.5308 161.566 92.5308C161.327 92.5308 161.091 92.4741 160.878 92.3654C160.8 92.3354 160.733 92.2825 160.686 92.2137C160.638 92.145 160.613 92.0635 160.613 91.98C160.613 91.8966 160.638 91.8151 160.686 91.7463C160.733 91.6775 160.8 91.6246 160.878 91.5946C161.091 91.4859 161.327 91.4292 161.566 91.4292C161.805 91.4292 162.041 91.4859 162.254 91.5946Z" fill="#16110D"/>
<path d="M165.735 89.5858C166.107 89.7922 166.107 90.1363 165.735 90.3565C165.523 90.4674 165.287 90.5254 165.047 90.5254C164.808 90.5254 164.571 90.4674 164.359 90.3565C163.987 90.1363 163.987 89.7922 164.359 89.5858C164.568 89.465 164.806 89.4014 165.047 89.4014C165.289 89.4014 165.526 89.465 165.735 89.5858Z" fill="#16110D"/>
<path d="M168.556 88.5122C169.073 88.5122 169.492 88.2657 169.492 87.9617C169.492 87.6576 169.073 87.4111 168.556 87.4111C168.039 87.4111 167.62 87.6576 167.62 87.9617C167.62 88.2657 168.039 88.5122 168.556 88.5122Z" fill="#16110D"/>
<path d="M172.713 85.5389C172.791 85.5688 172.858 85.6217 172.905 85.6905C172.953 85.7593 172.978 85.8408 172.978 85.9242C172.978 86.0077 172.953 86.0892 172.905 86.158C172.858 86.2268 172.791 86.2796 172.713 86.3096C172.5 86.4184 172.264 86.4751 172.025 86.4751C171.786 86.4751 171.55 86.4184 171.337 86.3096C170.965 86.0894 170.965 85.7453 171.337 85.5389C171.546 85.4181 171.784 85.3545 172.025 85.3545C172.267 85.3545 172.504 85.4181 172.713 85.5389Z" fill="#16110D"/>
<path d="M175.521 84.479C176.038 84.479 176.457 84.2325 176.457 83.9284C176.457 83.6244 176.038 83.3779 175.521 83.3779C175.004 83.3779 174.585 83.6244 174.585 83.9284C174.585 84.2325 175.004 84.479 175.521 84.479Z" fill="#16110D"/>
<path d="M115.654 113.726C115.863 113.605 116.101 113.542 116.342 113.542C116.584 113.542 116.821 113.605 117.03 113.726C117.108 113.756 117.175 113.809 117.223 113.877C117.27 113.946 117.295 114.028 117.295 114.111C117.295 114.195 117.27 114.276 117.223 114.345C117.175 114.414 117.108 114.467 117.03 114.497C116.817 114.605 116.582 114.662 116.342 114.662C116.103 114.662 115.867 114.605 115.654 114.497C115.269 114.276 115.269 113.932 115.654 113.726Z" fill="#16110D"/>
<path d="M120.455 111.689C120.827 111.909 120.827 112.253 120.455 112.46C120.246 112.58 120.009 112.644 119.767 112.644C119.526 112.644 119.288 112.58 119.079 112.46C118.708 112.253 118.708 111.909 119.079 111.689C119.292 111.58 119.528 111.523 119.767 111.523C120.006 111.523 120.242 111.58 120.455 111.689Z" fill="#16110D"/>
<path d="M123.276 110.629C123.793 110.629 124.212 110.383 124.212 110.079C124.212 109.775 123.793 109.528 123.276 109.528C122.759 109.528 122.34 109.775 122.34 110.079C122.34 110.383 122.759 110.629 123.276 110.629Z" fill="#16110D"/>
<path d="M127.419 107.684C127.791 107.904 127.791 108.248 127.419 108.454C127.206 108.563 126.97 108.62 126.731 108.62C126.492 108.62 126.256 108.563 126.043 108.454C125.965 108.424 125.898 108.371 125.851 108.303C125.804 108.234 125.778 108.152 125.778 108.069C125.778 107.985 125.804 107.904 125.851 107.835C125.898 107.766 125.965 107.713 126.043 107.684C126.256 107.575 126.492 107.518 126.731 107.518C126.97 107.518 127.206 107.575 127.419 107.684Z" fill="#16110D"/>
<path d="M130.241 106.611C130.758 106.611 131.177 106.364 131.177 106.06C131.177 105.756 130.758 105.51 130.241 105.51C129.724 105.51 129.305 105.756 129.305 106.06C129.305 106.364 129.724 106.611 130.241 106.611Z" fill="#16110D"/>
<path d="M134.384 103.665C134.756 103.871 134.756 104.215 134.384 104.436C134.171 104.544 133.935 104.601 133.696 104.601C133.457 104.601 133.221 104.544 133.008 104.436C132.93 104.406 132.863 104.353 132.816 104.284C132.769 104.215 132.743 104.134 132.743 104.05C132.743 103.967 132.769 103.885 132.816 103.816C132.863 103.748 132.93 103.695 133.008 103.665C133.217 103.544 133.455 103.48 133.696 103.48C133.938 103.48 134.175 103.544 134.384 103.665Z" fill="#16110D"/>
<path d="M137.866 101.656C138.237 101.862 138.237 102.206 137.866 102.426C137.653 102.537 137.417 102.595 137.177 102.595C136.938 102.595 136.702 102.537 136.489 102.426C136.118 102.206 136.118 101.862 136.489 101.656C136.698 101.535 136.936 101.471 137.177 101.471C137.419 101.471 137.656 101.535 137.866 101.656Z" fill="#16110D"/>
<path d="M141.362 99.6463C141.442 99.6729 141.511 99.7237 141.559 99.7916C141.608 99.8595 141.635 99.9411 141.635 100.025C141.635 100.108 141.608 100.19 141.559 100.258C141.511 100.326 141.442 100.377 141.362 100.403C141.153 100.524 140.916 100.588 140.674 100.588C140.432 100.588 140.195 100.524 139.986 100.403C139.614 100.197 139.614 99.8527 139.986 99.6463C140.195 99.5255 140.432 99.4619 140.674 99.4619C140.916 99.4619 141.153 99.5255 141.362 99.6463Z" fill="#16110D"/>
<path d="M144.171 98.559C144.688 98.559 145.107 98.3126 145.107 98.0085C145.107 97.7045 144.688 97.458 144.171 97.458C143.654 97.458 143.235 97.7045 143.235 98.0085C143.235 98.3126 143.654 98.559 144.171 98.559Z" fill="#16110D"/>
<path d="M148.325 95.6142C148.403 95.6441 148.47 95.697 148.517 95.7658C148.564 95.8346 148.59 95.9161 148.59 95.9995C148.59 96.083 148.564 96.1645 148.517 96.2333C148.47 96.3021 148.403 96.3549 148.325 96.3849C148.116 96.5057 147.878 96.5693 147.637 96.5693C147.395 96.5693 147.158 96.5057 146.949 96.3849C146.577 96.1785 146.577 95.8344 146.949 95.6142C147.162 95.5054 147.398 95.4487 147.637 95.4487C147.876 95.4487 148.112 95.5054 148.325 95.6142Z" fill="#16110D"/>
<path d="M151.809 93.6044C152.18 93.8246 152.18 94.1687 151.809 94.3751C151.595 94.4839 151.36 94.5405 151.12 94.5405C150.881 94.5405 150.645 94.4839 150.432 94.3751C150.061 94.1687 150.061 93.8246 150.432 93.6044C150.645 93.4956 150.881 93.439 151.12 93.439C151.36 93.439 151.595 93.4956 151.809 93.6044Z" fill="#16110D"/>
<path d="M154.63 92.5312C155.147 92.5312 155.566 92.2847 155.566 91.9807C155.566 91.6766 155.147 91.4302 154.63 91.4302C154.113 91.4302 153.694 91.6766 153.694 91.9807C153.694 92.2847 154.113 92.5312 154.63 92.5312Z" fill="#16110D"/>
<path d="M158.111 90.5219C158.627 90.5219 159.046 90.2755 159.046 89.9714C159.046 89.6674 158.627 89.4209 158.111 89.4209C157.594 89.4209 157.175 89.6674 157.175 89.9714C157.175 90.2755 157.594 90.5219 158.111 90.5219Z" fill="#16110D"/>
<path d="M160.918 87.5765C161.127 87.4557 161.364 87.3921 161.606 87.3921C161.848 87.3921 162.085 87.4557 162.294 87.5765C162.666 87.7829 162.666 88.127 162.294 88.3472C162.081 88.4559 161.845 88.5126 161.606 88.5126C161.367 88.5126 161.131 88.4559 160.918 88.3472C160.84 88.3172 160.773 88.2644 160.726 88.1956C160.678 88.1268 160.653 88.0453 160.653 87.9618C160.653 87.8784 160.678 87.7969 160.726 87.7281C160.773 87.6593 160.84 87.6064 160.918 87.5765Z" fill="#16110D"/>
<path d="M165.737 85.5395C166.108 85.7459 166.108 86.09 165.737 86.3102C165.524 86.4211 165.288 86.4791 165.049 86.4791C164.809 86.4791 164.573 86.4211 164.361 86.3102C164.044 86.1175 165.379 85.3468 165.737 85.5395Z" fill="#16110D"/>
<path d="M112.143 111.689C112.355 111.577 112.591 111.519 112.831 111.519C113.071 111.519 113.307 111.577 113.519 111.689C113.891 111.909 113.891 112.254 113.519 112.46C113.31 112.581 113.073 112.644 112.831 112.644C112.59 112.644 112.352 112.581 112.143 112.46C111.785 112.267 111.785 111.923 112.143 111.689Z" fill="#16110D"/>
<path d="M117.027 109.694C117.105 109.724 117.172 109.777 117.219 109.845C117.267 109.914 117.292 109.996 117.292 110.079C117.292 110.163 117.267 110.244 117.219 110.313C117.172 110.382 117.105 110.434 117.027 110.464C116.818 110.585 116.581 110.649 116.339 110.649C116.097 110.649 115.86 110.585 115.651 110.464C115.279 110.258 115.279 109.914 115.651 109.694C115.864 109.585 116.1 109.528 116.339 109.528C116.578 109.528 116.814 109.585 117.027 109.694Z" fill="#16110D"/>
<path d="M120.455 107.684C120.827 107.904 120.827 108.248 120.455 108.454C120.242 108.563 120.006 108.62 119.767 108.62C119.528 108.62 119.292 108.563 119.079 108.454C118.708 108.248 118.708 107.904 119.079 107.684C119.292 107.575 119.528 107.518 119.767 107.518C120.006 107.518 120.242 107.575 120.455 107.684Z" fill="#16110D"/>
<path d="M123.276 106.611C123.793 106.611 124.212 106.364 124.212 106.06C124.212 105.756 123.793 105.51 123.276 105.51C122.759 105.51 122.34 105.756 122.34 106.06C122.34 106.364 122.759 106.611 123.276 106.611Z" fill="#16110D"/>
<path d="M127.419 103.665C127.791 103.872 127.791 104.216 127.419 104.436C127.206 104.545 126.97 104.602 126.731 104.602C126.492 104.602 126.256 104.545 126.043 104.436C125.965 104.406 125.898 104.353 125.851 104.284C125.804 104.216 125.778 104.134 125.778 104.051C125.778 103.967 125.804 103.886 125.851 103.817C125.898 103.748 125.965 103.695 126.043 103.665C126.252 103.545 126.49 103.481 126.731 103.481C126.973 103.481 127.21 103.545 127.419 103.665Z" fill="#16110D"/>
<path d="M130.903 101.656C131.275 101.862 131.275 102.206 130.903 102.426C130.69 102.535 130.454 102.592 130.215 102.592C129.976 102.592 129.74 102.535 129.527 102.426C129.449 102.396 129.382 102.344 129.334 102.275C129.287 102.206 129.262 102.124 129.262 102.041C129.262 101.957 129.287 101.876 129.334 101.807C129.382 101.738 129.449 101.686 129.527 101.656C129.736 101.535 129.973 101.471 130.215 101.471C130.456 101.471 130.694 101.535 130.903 101.656Z" fill="#16110D"/>
<path d="M133.722 100.582C134.239 100.582 134.658 100.336 134.658 100.032C134.658 99.7279 134.239 99.4814 133.722 99.4814C133.205 99.4814 132.786 99.7279 132.786 100.032C132.786 100.336 133.205 100.582 133.722 100.582Z" fill="#16110D"/>
<path d="M137.206 98.559C137.723 98.559 138.142 98.3126 138.142 98.0085C138.142 97.7045 137.723 97.458 137.206 97.458C136.689 97.458 136.27 97.7045 136.27 98.0085C136.27 98.3126 136.689 98.559 137.206 98.559Z" fill="#16110D"/>
<path d="M140.686 96.5498C141.203 96.5498 141.622 96.3033 141.622 95.9992C141.622 95.6952 141.203 95.4487 140.686 95.4487C140.169 95.4487 139.75 95.6952 139.75 95.9992C139.75 96.3033 140.169 96.5498 140.686 96.5498Z" fill="#16110D"/>
<path d="M144.171 94.5405C144.688 94.5405 145.107 94.2941 145.107 93.99C145.107 93.686 144.688 93.4395 144.171 93.4395C143.654 93.4395 143.235 93.686 143.235 93.99C143.235 94.2941 143.654 94.5405 144.171 94.5405Z" fill="#16110D"/>
<path d="M148.325 91.5946C148.403 91.6246 148.47 91.6775 148.517 91.7463C148.564 91.8151 148.59 91.8966 148.59 91.98C148.59 92.0635 148.564 92.145 148.517 92.2137C148.47 92.2825 148.403 92.3354 148.325 92.3654C148.112 92.4741 147.876 92.5308 147.637 92.5308C147.398 92.5308 147.162 92.4741 146.949 92.3654C146.577 92.1452 146.577 91.8011 146.949 91.5946C147.162 91.4859 147.398 91.4292 147.637 91.4292C147.876 91.4292 148.112 91.4859 148.325 91.5946Z" fill="#16110D"/>
<path d="M188.845 87.6175C189.054 87.4967 189.291 87.4331 189.533 87.4331C189.774 87.4331 190.012 87.4967 190.221 87.6175C190.593 87.8239 190.593 88.168 190.221 88.3882C190.008 88.497 189.772 88.5537 189.533 88.5537C189.294 88.5537 189.058 88.497 188.845 88.3882C188.767 88.3583 188.7 88.3054 188.653 88.2366C188.605 88.1678 188.58 88.0863 188.58 88.0029C188.58 87.9194 188.605 87.8379 188.653 87.7691C188.7 87.7003 188.767 87.6475 188.845 87.6175Z" fill="#16110D"/>
<path d="M185.361 85.6082C185.573 85.4961 185.809 85.4375 186.049 85.4375C186.289 85.4375 186.525 85.4961 186.737 85.6082C187.109 85.8284 187.109 86.1724 186.737 86.3789C186.528 86.4997 186.291 86.5633 186.049 86.5633C185.808 86.5633 185.57 86.4997 185.361 86.3789C185.003 86.1587 184.99 85.8146 185.361 85.6082Z" fill="#16110D"/>
<path d="M189.518 84.5205C190.035 84.5205 190.454 84.274 190.454 83.9699C190.454 83.6659 190.035 83.4194 189.518 83.4194C189.001 83.4194 188.582 83.6659 188.582 83.9699C188.582 84.274 189.001 84.5205 189.518 84.5205Z" fill="#16110D"/>
<path d="M181.853 83.5706C182.062 83.4498 182.299 83.3862 182.541 83.3862C182.782 83.3862 183.02 83.4498 183.229 83.5706C183.307 83.6006 183.374 83.6534 183.421 83.7222C183.468 83.791 183.494 83.8725 183.494 83.956C183.494 84.0394 183.468 84.1209 183.421 84.1897C183.374 84.2585 183.307 84.3114 183.229 84.3413C183.016 84.4501 182.78 84.5068 182.541 84.5068C182.302 84.5068 182.066 84.4501 181.853 84.3413C181.481 84.1624 181.481 83.7771 181.853 83.5706Z" fill="#16110D"/>
<path d="M186.007 82.498C186.524 82.498 186.943 82.2516 186.943 81.9475C186.943 81.6435 186.524 81.397 186.007 81.397C185.491 81.397 185.072 81.6435 185.072 81.9475C185.072 82.2516 185.491 82.498 186.007 82.498Z" fill="#16110D"/>
<path d="M178.369 81.5618C178.578 81.441 178.816 81.3774 179.057 81.3774C179.299 81.3774 179.536 81.441 179.746 81.5618C179.823 81.5918 179.89 81.6447 179.938 81.7135C179.985 81.7822 180.01 81.8638 180.01 81.9472C180.01 82.0307 179.985 82.1122 179.938 82.181C179.89 82.2498 179.823 82.3026 179.746 82.3326C179.532 82.4413 179.297 82.498 179.057 82.498C178.818 82.498 178.582 82.4413 178.369 82.3326C177.998 82.1124 177.998 81.7683 178.369 81.5618Z" fill="#16110D"/>
<path d="M183.186 79.5385C183.557 79.7587 183.557 80.1028 183.186 80.3092C182.977 80.43 182.739 80.4936 182.498 80.4936C182.256 80.4936 182.019 80.43 181.809 80.3092C181.438 80.1028 181.438 79.7587 181.809 79.5385C182.023 79.4297 182.258 79.373 182.498 79.373C182.737 79.373 182.973 79.4297 183.186 79.5385Z" fill="#16110D"/>
<path d="M183.531 77.1162V75.148H182.306L182.058 74.9829L132.167 46.163C130.816 45.5501 129.34 45.2631 127.858 45.3252C126.376 45.3874 124.929 45.7969 123.634 46.5208L59.8427 83.5848C59.4342 83.8183 59.0553 84.1002 58.7142 84.4243H57.7645V88.7597C57.8009 89.2063 57.9551 89.6353 58.2114 90.0028C58.4677 90.3703 58.8169 90.6632 59.2234 90.8517L109.156 119.672C110.506 120.285 111.983 120.572 113.465 120.509C114.947 120.447 116.394 120.038 117.689 119.314L181.439 82.2498C181.981 82.0104 182.455 81.6397 182.818 81.1711C183.181 80.7025 183.421 80.1508 183.517 79.566V77.1162H183.531Z" fill="#FFBE2E"/>
<path d="M183.517 79.5521V75.1342H182.292L182.045 74.969L163.52 64.2751C162.559 64.2543 161.599 64.3374 160.657 64.5229C158.042 65.4037 115.652 90.0809 114.744 93.7969C113.835 97.5129 112.308 116.286 112.308 116.286V120.415C114.177 120.531 116.041 120.121 117.689 119.231L181.439 82.2359C181.981 81.9966 182.455 81.6259 182.818 81.1573C183.181 80.6887 183.421 80.137 183.517 79.5521Z" fill="#16110D"/>
<path d="M112.901 120.952C111.538 120.994 110.188 120.686 108.978 120.057L59.0184 91.2375C58.5447 91.0118 58.1388 90.6652 57.8416 90.2327C57.5444 89.8002 57.3664 89.2971 57.3256 88.7739V83.9844H58.5367C58.8719 83.687 59.2361 83.4242 59.624 83.1999L123.388 46.1359C124.752 45.3812 126.274 44.9558 127.832 44.8937C129.39 44.8316 130.941 45.1344 132.361 45.7781L182.28 74.5979L182.445 74.7081H183.973V79.5664C183.882 80.2311 183.623 80.8617 183.221 81.3986C182.819 81.9356 182.286 82.3613 181.674 82.6356L117.91 119.7C116.371 120.53 114.649 120.96 112.901 120.952ZM58.2064 84.8652V88.7602C58.2431 89.1307 58.3787 89.4846 58.599 89.7849C58.8194 90.0851 59.1163 90.3206 59.4588 90.4668L109.377 119.287C110.659 119.865 112.059 120.134 113.464 120.075C114.87 120.015 116.241 119.627 117.47 118.943L181.22 81.8786C181.696 81.6687 182.114 81.346 182.438 80.9384C182.762 80.5307 182.981 80.0504 183.078 79.5389V75.5889H182.17H182.06L181.826 75.4375L131.907 46.6176C130.625 46.0397 129.225 45.7698 127.82 45.8296C126.415 45.8893 125.043 46.277 123.815 46.9617L60.0644 83.9706C59.6876 84.187 59.3367 84.4456 59.0184 84.7414L58.8945 84.8652H58.2064Z" fill="#16110D"/>
<path d="M109.155 115.488L59.2233 86.6682C57.035 85.402 57.3102 83.1999 59.8289 81.741L123.593 44.6771C124.888 43.9532 126.334 43.5436 127.817 43.4815C129.299 43.4193 130.775 43.7063 132.126 44.3192L182.058 73.1529C184.246 74.4191 183.971 76.6212 181.439 78.08L117.688 115.13C116.393 115.851 114.946 116.259 113.464 116.321C111.983 116.383 110.507 116.098 109.155 115.488Z" fill="#FFBE2E"/>
<path d="M112.899 116.768C111.536 116.805 110.185 116.492 108.977 115.859L59.0171 87.0396C58.5322 86.8124 58.1176 86.4584 57.8172 86.0151C57.5168 85.5718 57.3417 85.0555 57.3105 84.5209C57.3884 83.8381 57.6425 83.1873 58.0479 82.6323C58.4532 82.0774 58.9959 81.6373 59.6227 81.3554L123.387 44.2502C124.751 43.4955 126.273 43.0701 127.831 43.0079C129.389 42.9458 130.94 43.2487 132.36 43.8923L182.278 72.7122C182.761 72.9413 183.173 73.2961 183.47 73.7393C183.768 74.1825 183.941 74.6977 183.971 75.2309C183.897 75.9165 183.644 76.5708 183.239 77.1285C182.833 77.6863 182.289 78.1282 181.659 78.4101L117.909 115.515C116.37 116.346 114.648 116.776 112.899 116.768ZM128.479 43.9061C126.87 43.8902 125.284 44.2832 123.868 45.0484L60.0631 82.1124C59.5727 82.3226 59.1438 82.6539 58.8164 83.0751C58.489 83.4964 58.274 83.9939 58.1913 84.5209C58.2255 84.901 58.361 85.2649 58.5838 85.5748C58.8065 85.8846 59.1082 86.1291 59.4575 86.2826L109.376 115.102C110.659 115.68 112.059 115.949 113.465 115.887C114.87 115.825 116.242 115.434 117.469 114.745L181.219 77.6807C181.71 77.4716 182.139 77.1406 182.467 76.7192C182.794 76.2977 183.009 75.7997 183.09 75.2722C183.057 74.8956 182.923 74.5349 182.702 74.2276C182.482 73.9202 182.184 73.6774 181.838 73.5242L131.92 44.7043C130.846 44.1465 129.647 43.8718 128.438 43.9061H128.479Z" fill="#16110D"/>
<path d="M113.919 112.68L113.698 112.556L65.528 84.7684L126.182 49.4937L126.388 49.6175L174.558 77.4052L113.919 112.68Z" fill="#16110D"/>
<path d="M114.166 109.886L65.1834 81.5889L127.034 45.626L176.017 73.9228L114.166 109.886Z" fill="#FFEECC"/>
<path d="M114.165 110.382L113.945 110.258L64.3015 81.603L127.033 45.1309L127.253 45.2547L176.897 73.9094L114.165 110.382ZM66.1045 81.603L114.275 109.377L175.259 73.9094L127.088 46.1355L66.1045 81.603Z" fill="#16110D"/>
<path d="M168.227 57.4492V57.6419L163.245 54.7654C163.148 54.7654 163.079 54.8892 162.969 54.9443C161.593 55.7563 160.74 57.0638 159.336 56.3206C157.932 55.5774 156.473 55.2334 157.877 54.4213L158.207 54.2699L158.661 50.5126L156.721 49.8382L156.418 53.2377L150.913 47.7325C149.936 47.1819 148.284 47.4434 147.968 48.2142L147.266 49.9346L146.619 49.8657V53.9946C146.642 54.1365 146.7 54.2705 146.786 54.3855C146.872 54.5005 146.985 54.5931 147.114 54.6553L162.254 63.4086C162.752 63.6565 163.313 63.7476 163.864 63.6701L169.369 62.9682C170.264 62.8443 170.745 62.3901 170.745 61.9222V57.8896L168.227 57.4492Z" fill="#16110D"/>
<path d="M163.505 64.0686C162.996 64.0781 162.493 63.9548 162.046 63.7108L146.907 54.9575C146.711 54.8442 146.538 54.6947 146.397 54.517L146.191 54.6272V49.2871H146.989L147.567 47.9108C147.675 47.6974 147.826 47.5089 148.011 47.3572C148.196 47.2056 148.41 47.0941 148.641 47.0299C149.05 46.8918 149.482 46.8377 149.913 46.8708C150.343 46.9039 150.763 47.0236 151.146 47.2226L151.228 47.2914L156.073 52.1498L156.334 49.1632L159.169 50.1679V54.8198L158.399 54.5583C158.297 54.5928 158.2 54.639 158.11 54.696L157.807 54.8887C158.063 55.0535 158.329 55.2006 158.605 55.329C158.934 55.4779 159.256 55.6433 159.569 55.8245C160.326 56.265 160.793 55.9484 161.702 55.2603C162.038 54.9934 162.392 54.7497 162.762 54.5308L162.927 54.4207L163.147 54.2418L163.477 54.3381L167.936 56.9118L171.006 57.366C171.081 57.3729 171.151 57.4078 171.202 57.4639C171.253 57.5199 171.281 57.593 171.281 57.6688V61.7977C171.281 62.5134 170.62 63.174 169.533 63.2704L164.028 63.986L163.505 64.0686ZM146.989 53.8702C147.014 53.9396 147.052 54.0034 147.102 54.0577C147.151 54.1121 147.211 54.156 147.278 54.1867L162.417 62.94C162.843 63.1524 163.323 63.2293 163.794 63.1602L169.299 62.4446C169.96 62.362 170.29 62.0592 170.276 61.8803V58.1918L168.528 57.9303V58.3432L163.243 55.2603H163.161C162.822 55.4659 162.496 55.691 162.184 55.9346C161.289 56.609 160.381 57.311 159.087 56.554C158.784 56.3751 158.468 56.2237 158.178 56.086C157.435 55.7282 156.802 55.4392 156.802 54.9024C156.802 54.3656 157.229 54.1179 157.6 53.8977C157.6 53.8977 158.192 54.2418 158.22 54.228V50.8148L157.05 50.2643L156.72 54.0766L150.581 47.9246C150.038 47.6852 149.427 47.6509 148.861 47.8282C148.64 47.8847 148.448 48.0223 148.324 48.2136L147.485 50.2367H147.003L146.989 53.8702Z" fill="#16110D"/>
<path d="M170.29 57.1597L163.216 53.0308C163.13 53.1028 163.038 53.1672 162.941 53.2235C162.152 53.6237 161.279 53.8323 160.394 53.8323C159.51 53.8323 158.637 53.6237 157.848 53.2235C157.541 53.119 157.273 52.9208 157.084 52.6567C156.895 52.3925 156.793 52.0758 156.793 51.7509C156.793 51.4259 156.895 51.1091 157.084 50.845C157.273 50.5809 157.541 50.3827 157.848 50.2782L158.179 50.1268L150.884 45.9153C149.907 45.351 148.255 45.6263 147.939 46.397L146.631 49.5625C146.494 49.9066 146.631 50.2644 147.099 50.5122L162.239 59.2655C162.737 59.5134 163.298 59.6045 163.849 59.527L169.354 58.8251C170.786 58.6874 171.267 57.724 170.29 57.1597Z" fill="#FFEECC"/>
<path d="M163.505 60.0365C162.996 60.0459 162.493 59.9226 162.046 59.6786L146.907 50.9253C146.63 50.8064 146.409 50.5864 146.289 50.3102C146.169 50.0341 146.159 49.7225 146.26 49.4389L147.554 46.2734C147.662 46.0585 147.813 45.8681 147.997 45.7142C148.182 45.5602 148.397 45.4461 148.627 45.3788C149.037 45.2445 149.469 45.1924 149.899 45.2255C150.329 45.2585 150.748 45.3761 151.132 45.5715L159.156 50.2096L158.385 50.5675C158.284 50.602 158.187 50.6482 158.096 50.7051C157.873 50.7969 157.679 50.9457 157.531 51.1365C157.384 51.3273 157.289 51.5535 157.257 51.7924C157.289 52.0313 157.384 52.2575 157.531 52.4483C157.679 52.6391 157.873 52.7878 158.096 52.8797C158.819 53.2396 159.615 53.427 160.422 53.427C161.23 53.427 162.026 53.2396 162.748 52.8797L162.913 52.7696L163.134 52.5907L163.464 52.687L170.538 56.8159C170.782 56.9284 170.983 57.1162 171.112 57.3516C171.24 57.587 171.29 57.8575 171.254 58.1234C171.127 58.4811 170.892 58.7902 170.581 59.0074C170.27 59.2246 169.899 59.339 169.52 59.3345L164.014 60.0503L163.505 60.0365ZM149.646 46.0945C149.388 46.0931 149.133 46.1349 148.889 46.2183C148.778 46.2437 148.674 46.2908 148.582 46.357C148.49 46.4232 148.412 46.507 148.352 46.6037L146.976 49.7692C146.976 49.9482 147.169 50.1133 147.251 50.1683L162.39 58.9217C162.816 59.134 163.296 59.2109 163.767 59.1419L169.272 58.4262C169.919 58.3436 170.222 58.0546 170.249 57.9032C170.277 57.7518 170.043 57.5867 169.96 57.5454L163.079 53.5954H162.996C162.144 54.0314 161.201 54.2588 160.243 54.2588C159.286 54.2588 158.343 54.0314 157.491 53.5954C157.131 53.4275 156.823 53.1668 156.598 52.8402C156.373 52.5136 156.24 52.1329 156.211 51.7373C156.224 51.4112 156.316 51.0932 156.479 50.8104C156.642 50.5276 156.871 50.2884 157.147 50.1133L150.527 46.2734C150.249 46.1531 149.949 46.0921 149.646 46.0945Z" fill="#16110D"/>
<path d="M171.131 71.2395L131.879 48.5855C130.943 48.0349 131.053 47.0853 132.154 46.4522L134.576 45.0759C135.135 44.7684 135.758 44.5947 136.396 44.5684C137.033 44.5422 137.668 44.664 138.251 44.9245L177.503 67.5923C178.453 68.129 178.329 69.0925 177.241 69.7118L174.819 71.0881C174.258 71.3978 173.633 71.5727 172.993 71.599C172.353 71.6252 171.715 71.5022 171.131 71.2395Z" fill="#FFEECC"/>
<path d="M172.74 72.0516C172.104 72.0686 171.474 71.9217 170.91 71.625L131.658 48.9572C131.412 48.8384 131.203 48.6555 131.053 48.4278C130.903 48.2 130.817 47.936 130.805 47.6635C130.834 47.3229 130.954 46.9964 131.153 46.7181C131.351 46.4397 131.621 46.2196 131.933 46.0807L134.356 44.7044C134.98 44.3479 135.682 44.148 136.401 44.1216C137.12 44.0953 137.835 44.2433 138.484 44.553L177.736 67.207C177.985 67.3274 178.196 67.5122 178.349 67.7422C178.501 67.9722 178.589 68.2389 178.604 68.5145C178.567 68.8531 178.444 69.1765 178.247 69.4538C178.049 69.731 177.783 69.9526 177.475 70.0973L175.053 71.4736C174.344 71.8614 173.548 72.0605 172.74 72.0516ZM171.364 70.8542C171.881 71.0799 172.443 71.1836 173.006 71.1573C173.569 71.1311 174.119 70.9756 174.612 70.7028L177.035 69.3265C177.461 69.0926 177.723 68.776 177.723 68.5145C177.723 68.253 177.489 68.0741 177.296 67.964L138.044 45.31C137.53 45.0845 136.97 44.9808 136.409 45.0071C135.848 45.0333 135.301 45.1888 134.81 45.4614L132.387 46.8377C131.961 47.0854 131.699 47.3882 131.699 47.6635C131.699 47.9387 131.933 48.0901 132.112 48.2002L171.364 70.8542Z" fill="#16110D"/>
<path d="M158.841 66.0231L139.215 54.6823C138.747 54.4208 138.802 53.9391 139.353 53.6225L140.564 52.9206C140.842 52.7649 141.153 52.6774 141.471 52.6655C141.789 52.6535 142.106 52.7174 142.394 52.8518L162.02 64.1788C162.502 64.4541 162.433 64.922 161.896 65.2386L160.685 65.9405C160.405 66.0954 160.093 66.1835 159.773 66.1978C159.453 66.2121 159.134 66.1523 158.841 66.0231Z" fill="#FFBE2E"/>
<path d="M159.692 66.6427C159.337 66.6491 158.986 66.5638 158.674 66.395L139.048 55.068C138.891 54.9891 138.759 54.8695 138.664 54.7218C138.57 54.5741 138.517 54.4037 138.511 54.2285C138.525 54.0182 138.595 53.8155 138.713 53.6413C138.832 53.4671 138.995 53.3277 139.185 53.2375L140.396 52.5494C140.739 52.3509 141.126 52.2396 141.522 52.2252C141.917 52.2108 142.311 52.2938 142.667 52.4668L162.293 63.7938C162.453 63.8743 162.588 63.9958 162.684 64.1458C162.781 64.2958 162.836 64.4688 162.844 64.6471C162.827 64.855 162.756 65.0548 162.638 65.2264C162.52 65.3979 162.358 65.5352 162.169 65.6243L160.958 66.3262C160.569 66.5354 160.134 66.6442 159.692 66.6427ZM141.663 53.0999C141.374 53.096 141.09 53.1671 140.837 53.3063L139.626 54.0082C139.433 54.1046 139.392 54.2009 139.392 54.2285C139.418 54.2622 139.451 54.2903 139.488 54.311L159.114 65.6381C159.335 65.728 159.573 65.7673 159.812 65.753C160.05 65.7387 160.282 65.6712 160.49 65.5555L161.701 64.8535C161.88 64.7572 161.935 64.6609 161.935 64.6333L161.825 64.5645L142.199 53.2237C142.017 53.13 141.812 53.0873 141.608 53.0999H141.663Z" fill="#16110D"/>
<path d="M119.227 55.6982L158.56 78.4073" stroke="#16110D" stroke-width="2.75261" stroke-linecap="round"/>
<path d="M110.97 59.8271L150.303 82.5362" stroke="#16110D" stroke-width="2.75261" stroke-linecap="round"/>
<path d="M104.088 65.3325L143.421 88.0416" stroke="#16110D" stroke-width="2.75261" stroke-linecap="round"/>
<path d="M95.8304 69.4614L135.163 92.1705" stroke="#16110D" stroke-width="2.75261" stroke-linecap="round"/>
<path d="M87.5728 73.5903L126.906 96.2994" stroke="#16110D" stroke-width="2.75261" stroke-linecap="round"/>
<path d="M79.3151 77.7192L118.648 100.428" stroke="#16110D" stroke-width="2.75261" stroke-linecap="round"/>
<path d="M120.947 110.476C120.536 110.213 120.059 110.074 119.571 110.074C119.083 110.074 118.606 110.213 118.195 110.476C115.552 111.742 113.254 119.614 111.946 125.367C111.726 126.703 111.062 127.925 110.061 128.836L125.971 119.463C124.732 115.196 123.149 111.742 120.947 110.476Z" fill="#16110D"/>
<path d="M125.324 106.154C121.305 100.649 119.048 89.6385 116.984 79.151C114.727 67.535 111.272 51.6249 103.689 47.496C101.101 46.1197 98.9819 45.927 97.1927 46.9592L67.9601 63.874C69.6805 63.0207 71.7036 63.2409 74.1534 64.5622C77.7731 66.5303 80.333 71.2098 82.4112 76.7976C84.532 83.0864 86.1699 89.5279 87.3108 96.0659C89.5817 107.668 92.1004 119.903 96.9449 124.597C99.0346 126.339 101.409 127.708 103.964 128.643C103.964 128.643 110.35 132.332 111.96 125.285C113.268 119.532 115.305 111.453 118.539 110.145L125.352 106.264L125.324 106.154Z" fill="#FFBE2E"/>
<path d="M64.5609 67.301L60.7486 65.2365C56.8261 63.1308 55.5874 62.4839 53.0138 63.4336C52.1471 63.6991 51.2365 63.7909 50.3342 63.7035C49.432 63.6161 48.5559 63.3513 47.7563 62.9243L40.7372 58.7954L11.3257 75.5038L18.3448 79.6327C19.1444 80.0597 20.0205 80.3244 20.9227 80.4118C21.825 80.4992 22.7356 80.4075 23.6023 80.1419C26.1759 79.151 27.4146 79.8529 31.3371 81.9587L35.2457 84.0644H35.3559L46.1598 90.2991C47.5361 91.0698 48.7748 91.9094 50.0547 92.7627C52.2018 94.2078 57.3491 96.0383 59.854 83.2661C61.2991 75.9442 62.7992 70.6179 64.6848 67.301H64.5609Z" fill="#FFBE2E"/>
<path d="M74.1274 64.3696C72.6454 63.422 70.8732 63.0364 69.1315 63.2823C68.713 63.4377 68.3117 63.6361 67.9341 63.8741C66.6218 64.7369 65.4789 65.8332 64.5621 67.1084C62.6766 70.4253 61.1765 75.7517 59.7313 83.0736C58.5064 89.3221 56.6484 92.0609 54.8317 93.0794L82.3577 76.5637C80.3483 71.0172 77.7471 66.3377 74.1274 64.3696Z" fill="#16110D"/>
<path d="M169.407 132.924C165.155 130.474 160.599 126.042 158.906 117.344C157.213 108.646 155.314 96.2038 150.648 93.5338C150.294 93.3002 149.888 93.1579 149.465 93.1195C149.042 93.081 148.617 93.1477 148.226 93.3135L125.421 106.306L118.168 110.435C118.579 110.173 119.057 110.033 119.544 110.033C120.032 110.033 120.509 110.173 120.92 110.435C125.572 113.105 127.472 125.574 129.178 134.245C130.885 142.916 135.413 147.375 139.679 149.825L151.598 156.706L181.312 139.764L169.407 132.924Z" fill="#FFBE2E"/>
<path d="M52.8214 65.2779C51.9538 65.5414 51.0427 65.6308 50.1404 65.5411C49.2382 65.4513 48.3626 65.1841 47.5639 64.7549L40.5448 60.626L12.9087 76.4122L18.4139 79.6328C19.2153 80.0616 20.0938 80.3274 20.9985 80.4148C21.9033 80.5022 22.8164 80.4095 23.6851 80.142C26.2588 79.1511 27.4975 79.853 31.4062 81.9587L35.3148 84.0645H35.4387L46.2426 90.2992C47.6189 91.0699 48.8576 91.9094 50.1238 92.7628C52.2846 94.2079 57.4182 96.0384 59.9368 83.2662C60.7498 78.3492 62.0974 73.5357 63.9556 68.9113C63.4739 68.6361 62.4967 68.1131 60.5424 67.0671C56.6475 64.9751 55.4088 64.2732 52.8214 65.2779Z" fill="#FFEECC"/>
<path d="M102.629 49.9867C100.042 48.6103 97.9361 48.4039 96.1331 49.4499L71.8965 63.4332C72.6639 63.6663 73.4061 63.9752 74.1123 64.3553C77.732 66.3234 80.2919 71.0029 82.3701 76.5907C84.4909 82.8795 86.1288 89.321 87.2697 95.859C89.5406 107.461 92.0593 119.697 96.9038 124.39C98.9945 126.134 101.369 127.507 103.923 128.45C103.923 128.45 108.575 131.12 110.942 127.528C111.687 123.87 112.761 120.286 114.149 116.82C115.291 113.476 116.709 110.654 118.498 109.939L123.356 107.186C119.888 101.364 117.851 91.2621 115.938 81.5867C113.667 69.9982 110.213 54.1018 102.629 49.9867Z" fill="#FFEECC"/>
<path d="M129.136 134.258C130.829 142.956 135.384 147.388 139.637 149.852L151.556 156.733L177.94 141.731L168.195 136.102C163.929 133.653 159.387 129.221 157.694 120.523C156.001 111.824 154.102 99.3963 149.437 96.7125C149.082 96.4789 148.676 96.3366 148.253 96.2982C147.83 96.2597 147.405 96.3264 147.014 96.4923L124.195 109.485L121.635 110.943C125.764 114.398 127.526 126 129.136 134.258Z" fill="#FFEECC"/>
<path d="M169.573 132.648C164.067 129.469 160.599 124.308 159.223 117.275C159.058 116.421 158.893 115.527 158.714 114.618C157.131 106.209 155.149 95.7355 150.841 93.2444C150.435 92.9866 149.972 92.8319 149.492 92.7935C149.012 92.7551 148.531 92.8343 148.089 93.0242L125.531 105.948C121.402 100.291 119.145 88.5787 117.273 79.151C115.401 69.7233 111.906 51.7075 103.799 47.3033C101.116 45.8444 98.8859 45.6792 96.9866 46.7803L68.0843 63.4061L67.6714 63.6538C66.3469 64.5271 65.1907 65.6321 64.2582 66.9157L60.5422 64.92C56.6886 62.8418 55.3949 62.1674 52.7248 63.1859C51.0649 63.682 49.2768 63.5092 47.7426 62.7042L40.5584 58.5752L10.5 75.669L18.0008 80.0319C18.8387 80.4777 19.7564 80.7534 20.7012 80.8431C21.646 80.9329 22.5992 80.8349 23.506 80.5549C25.9008 79.6327 27.0294 80.2383 30.7867 82.2615L34.9155 84.4636L45.8296 90.6983C47.2059 91.4828 48.4721 92.3498 49.697 93.1618C50.6199 93.8203 51.7157 94.1936 52.8487 94.2353C53.4022 94.2343 53.9498 94.122 54.459 93.905C55.0111 93.675 55.5153 93.3436 55.9454 92.9279L82.0951 77.2242C84.1686 83.4413 85.7787 89.8035 86.9121 96.2585C88.9766 106.856 91.5502 120.041 96.6701 124.968C98.7682 126.748 101.163 128.146 103.744 129.097C104.874 129.714 106.132 130.058 107.419 130.102C108.062 130.112 108.7 129.985 109.291 129.73C109.594 129.606 109.786 129.414 110.144 129.221L125.765 119.904C126.825 123.606 127.623 127.859 128.352 131.685C128.518 132.593 128.697 133.488 128.862 134.341C130.238 141.567 133.844 146.879 139.514 150.155L151.598 157.119L181.959 139.805L169.573 132.648ZM68.0843 64.163C69.7221 63.3648 71.6489 63.585 73.9749 64.8512C77.0165 66.5028 79.4801 70.2188 81.9024 76.4948L57.2804 91.3176C58.6783 88.8523 59.6113 86.1512 60.033 83.3488C61.5745 75.5589 63.1021 70.5216 64.8363 67.4799L64.9051 67.2322L65.0152 66.9707C65.8676 65.8639 66.9062 64.9138 68.0843 64.163ZM50.1925 92.5012C48.9675 91.6892 47.6601 90.8221 46.2838 90.0376L35.2734 83.7479L31.2408 81.5733C27.3872 79.5089 26.0935 78.8207 23.4234 79.8392C22.6021 80.0901 21.7393 80.1767 20.8844 80.094C20.0296 80.0114 19.1994 79.7611 18.4412 79.3575L11.9038 75.5589L40.6685 59.2221L47.55 63.2134C48.3878 63.6592 49.3055 63.9349 50.2503 64.0247C51.1951 64.1144 52.1484 64.0165 53.0552 63.7364C55.4499 62.8005 56.5785 63.4198 60.3358 65.443L64.0655 67.4387C62.3865 70.6042 60.9551 75.4488 59.455 83.0322C58.409 88.3448 56.8124 91.6479 54.7067 92.8177L54.4315 93.0242C53.7291 93.3034 52.968 93.4019 52.2177 93.3106C51.4675 93.2192 50.7522 92.9409 50.1374 92.5012H50.1925ZM109.126 129.001C106.937 129.964 104.198 128.409 104.116 128.368C101.614 127.44 99.2869 126.096 97.2344 124.39C92.2797 119.614 89.7198 106.498 87.6003 96.0246C86.4723 89.4917 84.8622 83.0513 82.7832 76.7562L82.6869 76.4948C80.2233 69.8059 77.5533 65.8697 74.3052 64.108C73.0999 63.3909 71.7412 62.971 70.3415 62.8831L97.372 47.2757C99.0511 46.2986 101.074 46.4775 103.552 47.8263C111.383 52.0791 114.837 69.7371 116.681 79.2198C118.526 88.7026 120.81 100.346 124.939 106.154L118.416 109.87C115.36 111.123 113.365 117.867 111.809 124.514L111.644 125.257C111.644 125.478 111.438 126.014 111.41 126.069C111.373 126.205 111.327 126.338 111.273 126.468L111.19 126.675L111.025 127.033L110.956 127.184C110.843 127.383 110.719 127.576 110.584 127.762C110.584 127.859 110.295 128.12 110.254 128.175L110.048 128.382L109.91 128.505C109.655 128.71 109.373 128.877 109.071 129.001H109.126ZM125.641 119.257L111.507 127.583L111.617 127.363C111.685 127.239 111.741 127.129 111.796 127.005L111.892 126.757L112.043 126.345C112.073 126.269 112.096 126.19 112.112 126.111C112.112 125.89 112.25 125.656 112.305 125.409C114.218 117.027 116.434 111.646 118.402 110.737L118.594 110.627H118.732H118.884H119.007H119.296H119.778H120.095H120.205L120.521 110.737L120.783 110.875L121.141 111.109L121.251 111.191L121.485 111.384L121.636 111.522L121.815 111.701L121.994 111.88L122.145 112.045L122.352 112.292L122.448 112.416L122.696 112.747V112.829C122.796 112.966 122.887 113.109 122.971 113.256C124.094 115.137 124.973 117.154 125.586 119.257H125.641ZM139.9 149.535C134.394 146.356 130.926 141.181 129.564 134.162C129.398 133.309 129.233 132.414 129.054 131.506C128.325 127.611 127.499 123.248 126.412 119.518L126.343 119.284C125.665 116.451 124.425 113.783 122.696 111.439L122.366 111.081L122.035 110.779C121.926 110.688 121.811 110.605 121.691 110.531L121.292 110.269C121.132 110.18 120.967 110.102 120.797 110.035H120.659L120.26 109.925H120.191L148.391 93.561C148.735 93.4195 149.107 93.3644 149.477 93.4003C149.846 93.4363 150.201 93.5624 150.511 93.7674C154.571 96.1071 156.512 106.416 158.081 114.701C158.259 115.609 158.425 116.504 158.59 117.357C159.966 124.583 163.586 129.895 169.242 133.171L180.679 139.764L151.612 156.279L139.9 149.535Z" fill="#16110D"/>
<path d="M32.8225 68.9664L19.5137 76.66L18.0686 75.8204L31.3774 68.1406L32.8225 68.9664Z" fill="black"/>
<path d="M37.8901 66.0484L34.1466 68.2092L32.7015 67.3697L36.445 65.2227L37.8901 66.0484Z" fill="black"/>
<path d="M27.4025 75.0353L21.9936 78.1596L20.5485 77.32L25.9574 74.1958L27.4025 75.0353Z" fill="black"/>
<path d="M40.4224 67.5212L28.7376 74.2651L27.2925 73.4255L38.9773 66.6816L40.4224 67.5212Z" fill="black"/>
<path d="M47.7275 72.1456L38.4788 77.4995L37.0337 76.6599L46.2824 71.3198L47.7275 72.1456Z" fill="black"/>
<path d="M37.1468 78.2976L34.3666 79.8941L32.9215 79.0683L35.7016 77.458L37.1468 78.2976Z" fill="black"/>
<path d="M50.2757 73.6871L36.9531 81.3807L35.508 80.5411L48.8306 72.8613L50.2757 73.6871Z" fill="black"/>
<path d="M45.0307 82.7849L42.2506 84.3951L40.8055 83.5556L43.5856 81.9453L45.0307 82.7849Z" fill="black"/>
<path d="M52.216 81.6145L44.839 85.8672L43.3939 85.0414L50.7709 80.7749L52.216 81.6145Z" fill="black"/>
<path d="M44.854 79.7565L39.4452 82.8808L38.0001 82.0412L43.4089 78.917L44.854 79.7565Z" fill="black"/>
<path d="M57.8601 72.2418L46.1891 78.9857L44.744 78.1462L56.415 71.416L57.8601 72.2418Z" fill="black"/>
<path d="M85.4961 75.3523L85.0007 73.4943L106.664 61.1626L107.145 63.0206L85.4961 75.3523Z" fill="black"/>
<path d="M86.7048 78.7792L86.2231 76.9212L92.6229 73.2739L93.1046 75.1319L86.7048 78.7792Z" fill="black"/>
<path d="M95.2256 73.9352L94.7439 72.0634L107.612 64.8516L108.08 66.7096L95.2256 73.9352Z" fill="black"/>
<path d="M87.5729 82.3854L87.105 80.5274L99.9596 73.3018L100.441 75.1735L87.5729 82.3854Z" fill="black"/>
<path d="M88.5219 86.0461L88.0402 84.1881L91.6736 82.1099L92.1553 83.9679L88.5219 86.0461Z" fill="black"/>
<path d="M93.7397 82.9636L93.2442 81.078L105.19 74.458L105.658 76.3298L93.7397 82.9636Z" fill="black"/>
<path d="M91.261 100.209L90.7793 98.2545L111.506 86.4458L111.988 88.4002L91.261 100.209Z" fill="black"/>
<path d="M91.8389 103.815L91.3709 101.86L97.4955 98.3784L97.9634 100.333L91.8389 103.815Z" fill="black"/>
<path d="M99.986 99.1765L99.5181 97.2221L111.822 90.2993L112.304 92.2674L99.986 99.1765Z" fill="black"/>
<path d="M127.83 114.715L127.265 112.926L133.569 109.333L134.119 111.123L127.83 114.715Z" fill="black"/>
<path d="M136.197 109.939L135.646 108.15L148.308 101.034L148.859 102.823L136.197 109.939Z" fill="black"/>
<path d="M128.972 118.184L128.421 116.394L141.083 109.279L141.634 111.068L128.972 118.184Z" fill="black"/>
<circle cx="6.8815" cy="6.8815" r="6.8815" transform="matrix(0.866024 -0.500002 0.866024 0.500002 141.249 145.158)" fill="#FFBE2E"/>
<path d="M151.665 146.965L154.469 146.965L154.208 142.599" stroke="black" stroke-width="0.903198" stroke-linecap="round" stroke-linejoin="round"/>
</svg>
